<svg xmlns="http://www.w3.org/2000/svg" xmlns:xlink="http://www.w3.org/1999/xlink" viewBox="0 0 112.63 112.63"><defs><style>.cls-1{fill:none;}.cls-2{fill:#ab9766;}.cls-3{clip-path:url(#clip-path);}.cls-4{fill:#801517;}.cls-5{fill:#685b26;}</style><clipPath id="clip-path"><path class="cls-1" d="M93.22,56.31a36.91,36.91,0,1,1-36.91-36.9,36.92,36.92,0,0,1,36.91,36.9"/></clipPath></defs><title>Asset 1</title><g id="Layer_2" data-name="Layer 2"><g id="Layer_1-2" data-name="Layer 1"><path d="M112.63,56.31A56.32,56.32,0,1,1,56.31,0a56.31,56.31,0,0,1,56.32,56.31"/><path class="cls-2" d="M56.32,111.37a55,55,0,0,1-38.9-93.9A55,55,0,0,1,95.21,95.26,54.64,54.64,0,0,1,56.32,111.37Zm0-108.66A53.66,53.66,0,1,0,110,56.36,53.72,53.72,0,0,0,56.32,2.71Z"/><g class="cls-3"><rect class="cls-4" x="47.6" y="19.02" width="17.29" height="74.59"/><rect class="cls-4" x="18.59" y="26.33" width="14.44" height="59.97"/><rect class="cls-4" x="79.45" y="26.33" width="14.44" height="59.97"/></g><path d="M67.19,35.61l3.59-7.19h-29l3.58,7.2L29.91,81.51l14,9.2,2.93-8.34h19l2.69,8.28,14.24-9.17ZM52.42,66l3.89-11.66,4,11.66Z"/><path class="cls-2" d="M65.74,35.51l2.88-5.76H44l2.88,5.76L31.12,82.14l5.42,5.06,2.81,1.33,3.41,1.52,3.16-9H66.83l3,9.36,5.75-3.07,6-5ZM50.56,67.36l5.73-17.21,5.9,17.21Z"/><polygon class="cls-5" points="50.56 67.36 41.02 74.2 56.31 29.72 71.61 74.2 62.19 67.36 56.29 50.15 50.56 67.36"/><polygon class="cls-5" points="36.98 85.94 41.02 74.2 71.61 74.2 75.55 85.66 69.48 89.19 66.83 81.03 45.92 81.03 43.08 89.15 36.98 85.94"/><path class="cls-2" d="M56.32,93.67A37.36,37.36,0,1,1,93.67,56.31,37.4,37.4,0,0,1,56.32,93.67Zm0-73.19A35.84,35.84,0,1,0,92.15,56.31,35.87,35.87,0,0,0,56.32,20.48Z"/><path class="cls-5" d="M56.32,92.32a36,36,0,1,1,36-36A36,36,0,0,1,56.32,92.32Zm0-70.67A34.67,34.67,0,1,0,91,56.31,34.7,34.7,0,0,0,56.32,21.65Z"/><path class="cls-2" d="M58,6.9c.11-.33.21-.65.31-1-1.31-.06-2.61-.07-3.91,0l.3,1q-1.39,4.54-2.78,9.2c.77-.09,1.54-.15,2.32-.18.14-.51.28-1,.43-1.53,1.1,0,2.2,0,3.31,0l.42,1.53c.78,0,1.55.11,2.32.2Q59.34,11.45,58,6.9M56.31,8.44c.36,1.28.71,2.56,1.06,3.85-.71,0-1.43,0-2.14,0l1.08-3.84"/><path class="cls-2" d="M82.14,25.11c.6.49,1.19,1,1.76,1.53l1.39-.76Q86.51,27,87.6,28.25l-.8,1.37c.51.58,1,1.18,1.49,1.79Q90.66,27.18,93,23l.91-.47c-.73-.82-1.49-1.62-2.29-2.38q-4.68,2.43-9.44,4.94m5.06-.28,3.5-1.92-2,3.46c-.49-.53-1-1-1.5-1.54"/><path class="cls-2" d="M79.25,11.33l-1.08,1.78c.74.38,1.47.77,2.18,1.19q-2,3.39-4.09,6.77c.63.36,1.24.73,1.85,1.12q2-3.39,4.09-6.78c.61.38,1.21.78,1.81,1.19l1.59-1.41a54.83,54.83,0,0,0-6.35-3.86"/><path class="cls-2" d="M72.11,8.35q-.83,2.82-1.67,5.64-.59-3.3-1.2-6.5c-.77-.2-1.54-.37-2.32-.53,0,.34,0,.68,0,1L64.38,16.6c.7.14,1.4.31,2.1.49q.83-2.82,1.67-5.64.61,3.2,1.2,6.51c.65.22,1.3.46,1.94.72L74.13,9.1c-.66-.27-1.34-.52-2-.75"/><path class="cls-2" d="M21.24,20.17c-.8.76-1.56,1.56-2.29,2.38l.91.47q2.3,4.15,4.67,8.39c.48-.61,1-1.21,1.49-1.79l-.8-1.37c.73-.82,1.51-1.61,2.31-2.37l1.39.76c.57-.53,1.16-1,1.76-1.53q-4.75-2.52-9.44-4.94m2.88,6.2-2-3.46,3.5,1.92c-.51.5-1,1-1.5,1.54"/><path class="cls-2" d="M33.57,11.33l1.08,1.78c-.74.38-1.47.77-2.18,1.19q2,3.39,4.09,6.77c-.63.36-1.24.73-1.85,1.12q-2-3.39-4.09-6.78c-.61.38-1.21.78-1.81,1.19l-1.59-1.41a54.83,54.83,0,0,1,6.35-3.86"/><path class="cls-2" d="M43.69,15.72c-.73-2.54-1.45-5.08-2.18-7.61q-1,.32-2,.69,1.38,4.8,2.75,9.6a45,45,0,0,1,5.57-1.63c0-.72,0-1.42.05-2.13a42.14,42.14,0,0,0-4.15,1.08"/><path class="cls-2" d="M40.84,93.61c-.66-.28-1.31-.58-2-.89q-2.06,4.56-4.12,9.1c.65.31,1.3.61,2,.89q2.06-4.54,4.12-9.1"/><path class="cls-2" d="M50.75,96.33c-.15.67-.31,1.35-.47,2-.82-.12-1.63-.26-2.45-.42-.59,2.57-1.19,5.14-1.78,7.71-.71-.15-1.41-.31-2.1-.49q.88-3.86,1.79-7.71c-.81-.21-1.6-.44-2.39-.7.16-.67.31-1.34.47-2a40.28,40.28,0,0,0,6.93,1.61"/><path class="cls-2" d="M56.21,102.64c1.13,0,2.25,0,3.37-.12,0-.69,0-1.38,0-2.07-1.12.08-2.24.12-3.37.12l0-1.76a40.87,40.87,0,0,0,4.28-.2c-.23-.67-.45-1.34-.68-2a40.09,40.09,0,0,1-5.8.08c.07,3.33.14,6.65.2,10a40.09,40.09,0,0,0,5.8-.07l.6-2.13a41.06,41.06,0,0,1-4.29.2c0-.67,0-1.34,0-2"/><path class="cls-2" d="M71.42,96.57a2.43,2.43,0,0,0-3.12-1.64,41.93,41.93,0,0,1-4.58,1.13l.57.9c.81,2.89,1.61,5.78,2.42,8.66A41.83,41.83,0,0,0,71,104.55a2.72,2.72,0,0,0,1.74-3.3c-.44-1.56-.87-3.12-1.31-4.68M70.69,102a.5.5,0,0,1-.33.62c-.7.21-1.4.4-2.1.58-.53-1.88-1.05-3.75-1.58-5.62.71-.18,1.41-.38,2.1-.59a.49.49,0,0,1,.61.33c.43,1.56.87,3.12,1.3,4.68"/><path class="cls-2" d="M33.44,89.56l-3.51,4.71q.53-3.21,1.11-6.51c-.54-.43-1.07-.88-1.59-1.34l-6,8c.53.47,1.08.94,1.64,1.39q1.76-2.37,3.52-4.72-.58,3.28-1.11,6.5c.57.4,1.15.77,1.74,1.14q3-4,6-8c-.61-.37-1.21-.77-1.8-1.17"/><path class="cls-2" d="M25.34,82.13l-6,4.65a.5.5,0,0,1-.7-.08c-.36-.43-.7-.87-1-1.33a.49.49,0,0,1,.1-.69l6-4.66c-.48-.66-.94-1.34-1.38-2-.2.29-.41.57-.62.86L16.47,82.9a2.71,2.71,0,0,0-.57,3.68c.37.5.75,1,1.14,1.45a2.73,2.73,0,0,0,3.72.37l6-4.66c-.49-.52-1-1.06-1.43-1.61"/><path class="cls-2" d="M82.11,90.14a41.07,41.07,0,0,0,3.29-2.76l-1.76-1.19a42.42,42.42,0,0,1-4.81,3.74c.28.21.57.41.86.61l5.58,7.06c.59-.4,1.18-.82,1.75-1.25l-2.53-3.21c.89-.67,1.76-1.39,2.61-2.13l-1.29-1.63c-.84.75-1.71,1.46-2.61,2.14l-1.09-1.38"/><path class="cls-2" d="M92.58,79.29a2.47,2.47,0,0,0-3.51.56c-.37.5-.74,1-1.12,1.47a2.47,2.47,0,0,0,.42,3.53L92.52,88a2.66,2.66,0,0,0,3.67-.44c.38-.48.75-1,1.12-1.47a2.67,2.67,0,0,0-.58-3.65L96.08,82c-.39.6-.8,1.19-1.22,1.77l.64.49a.5.5,0,0,1,.11.69l-1,1.35a.51.51,0,0,1-.7.09l-4.15-3.15a.49.49,0,0,1-.09-.68c.35-.44.69-.89,1-1.34a.48.48,0,0,1,.68-.11l.45.34q.63-.87,1.23-1.77l-.45-.34"/><path class="cls-2" d="M93.89,31.88a44.93,44.93,0,0,1,2.58,44.35l1.22.61A46.28,46.28,0,0,0,94.62,30.5Z"/><path class="cls-2" d="M18.72,31.88a44.87,44.87,0,0,0-2.58,44.35l-1.23.61A46.25,46.25,0,0,1,18,30.5Z"/></g></g></svg>