<svg xmlns="http://www.w3.org/2000/svg" viewBox="0 0 119.44 119.42"><defs><style>.cls-1{fill:#fff;}.cls-2{fill:#a2aaad;}.cls-3{fill:#af272f;}.cls-4{fill:#141f48;}</style></defs><title>CHI</title><g id="Layer_2" data-name="Layer 2"><g id="Layer_1-2" data-name="Layer 1"><path class="cls-1" d="M119.44,59.7c0-8.1-2.2-14.17-4.11-19.52-1.61-4.49-3.14-8.71-3.14-13.5a48.82,48.82,0,0,1,1.53-11.38l1-3.57L104.09,15.3l3.6-10.61-3.57,1A47.27,47.27,0,0,1,92.73,7.24c-4.77,0-9-1.53-13.48-3.14C73.9,2.17,67.82,0,59.72,0S45.54,2.17,40.19,4.1c-4.48,1.61-8.71,3.14-13.51,3.14A47.31,47.31,0,0,1,15.31,5.7l-3.56-1,3.56,10.62L4.69,11.73l1,3.57A47.9,47.9,0,0,1,7.23,26.68c0,4.79-1.5,9-3.12,13.5C2.17,45.53,0,51.6,0,59.7S2.17,73.87,4.11,79.23c1.62,4.49,3.12,8.71,3.12,13.5a48,48,0,0,1-1.52,11.38l-1,3.57,10.61-3.6-3.55,10.64,3.56-1a49.09,49.09,0,0,1,11.37-1.52c4.8,0,9,1.52,13.51,3.15,5.35,1.91,11.42,4.09,19.53,4.09s14.18-2.18,19.53-4.09c4.48-1.63,8.71-3.15,13.48-3.15a49,49,0,0,1,11.39,1.52l3.57,1-3.57-10.66,10.6,3.6-1-3.57a48.93,48.93,0,0,1-1.53-11.38c0-4.79,1.53-9,3.14-13.5C117.24,73.87,119.44,67.81,119.44,59.7Z"/><path class="cls-1" d="M59.72,90.37A30.67,30.67,0,1,1,90.39,59.7,30.66,30.66,0,0,1,59.72,90.37M88.46,73.19a31.69,31.69,0,0,0,0-27l3.87-5.31-6.51.71A31.72,31.72,0,0,0,62.36,28.07l-2.64-6-2.64,6A31.72,31.72,0,0,0,33.62,41.63l-6.51-.71L31,46.23a31.69,31.69,0,0,0,0,27l-3.87,5.3,6.51-.7A31.7,31.7,0,0,0,57.08,91.33l2.64,6,2.64-6A31.68,31.68,0,0,0,85.81,77.79l6.52.7Z"/><path class="cls-2" d="M74.41,54.88h-9.5c0-3.22-.39-4.62-5.68-4.62-5.67,0-5.67,2.78-5.67,5.33v8.33c0,2.53,0,5.33,5.67,5.33s5.68-1.6,5.68-5.33h9.5v13.3H58.67c-7.55,0-14.6-.68-14.6-13.3v-3l-3-1.43,3-1.42V42.24H60.29c9.38,0,14.12,1.12,14.12,10.17ZM59.72,31.42A28.29,28.29,0,1,0,88,59.7,28.28,28.28,0,0,0,59.72,31.42"/><path class="cls-3" d="M31,79.54c-.18-.24-.36-.51-.52-.77L14.89,94.86a37.87,37.87,0,0,0,1.19-9.22c0-8.57-5.59-14.72-5.59-25.94s5.59-17.37,5.59-25.91a38,38,0,0,0-1.19-9.25l15.63,16.1c.16-.26.34-.53.52-.77L12.85,21.71a44.54,44.54,0,0,1,1.33,9.79C14.18,41.19,8,47,8,59.7s6.21,18.53,6.21,28.21a44.4,44.4,0,0,1-1.33,9.78Z"/><path class="cls-3" d="M111.45,59.7c0-12.75-6.19-18.51-6.19-28.2a45.18,45.18,0,0,1,1.31-9.79L88.4,39.87c.18.24.35.5.53.77l15.62-16.1a37.93,37.93,0,0,0-1.19,9.24c0,8.56,5.58,14.7,5.58,25.92s-5.58,17.37-5.58,25.94a38,38,0,0,0,1.19,9.23L88.93,78.77c-.18.26-.35.53-.53.77L106.57,97.7a45.18,45.18,0,0,1-1.31-9.79c0-9.68,6.19-15.46,6.19-28.21"/><path class="cls-3" d="M78.79,88.92l16.09,15.61a37.93,37.93,0,0,0-9.24-1.19c-8.56,0-14.71,5.6-25.92,5.6s-17.38-5.6-25.94-5.6a38,38,0,0,0-9.23,1.19l16.1-15.61c-.27-.17-.52-.35-.77-.54L21.72,106.56a45.05,45.05,0,0,1,9.79-1.31c9.7,0,15.45,6.19,28.21,6.19s18.51-6.19,28.21-6.19a45.15,45.15,0,0,1,9.78,1.31L79.56,88.38l-.77.54"/><path class="cls-3" d="M40.65,30.51,24.55,14.88a38,38,0,0,0,9.23,1.19c8.58,0,14.71-5.59,25.94-5.59s17.36,5.59,25.92,5.59a37.93,37.93,0,0,0,9.24-1.19L78.79,30.51l.77.52L97.71,12.85a45.15,45.15,0,0,1-9.78,1.31C78.23,14.16,72.46,8,59.72,8s-18.53,6.19-28.21,6.19a45.05,45.05,0,0,1-9.79-1.31L39.88,31c.25-.18.5-.36.77-.52"/><path class="cls-3" d="M59.22,50.26c5.3,0,5.67,1.4,5.69,4.62h9.51V52.41c0-9-4.74-10.18-14.13-10.18H44.07V58l-3,1.42,3,1.43v3c0,12.62,7,13.3,14.6,13.3H74.42V63.92H64.91c0,3.73,0,5.33-5.69,5.33s-5.68-2.8-5.68-5.33V55.59c0-2.55,0-5.33,5.68-5.33"/><path class="cls-4" d="M88.4,79.54c.18-.24.35-.51.51-.77l15.64,16.1a38,38,0,0,1-1.19-9.23c0-8.57,5.58-14.72,5.58-25.94s-5.58-17.36-5.58-25.92a37.93,37.93,0,0,1,1.19-9.24L88.91,40.64a8.56,8.56,0,0,0-.51-.77l18.16-18.16a44.86,44.86,0,0,0-1.32,9.79c0,9.69,6.21,15.45,6.21,28.2s-6.21,18.53-6.21,28.21a44.86,44.86,0,0,0,1.32,9.79Zm-2.61-1.75A31.59,31.59,0,0,1,62.36,91.33l-2.64,6-2.64-6A31.76,31.76,0,0,1,33.6,77.79l-6.49.7L31,73.19a31.62,31.62,0,0,1,0-27l-3.87-5.3,6.49.71A31.74,31.74,0,0,1,57.08,28.08l2.64-6,2.64,6A31.64,31.64,0,0,1,85.81,41.63l6.52-.71-3.87,5.3a31.9,31.9,0,0,1,0,27l3.87,5.3Zm11.92,28.77a45.15,45.15,0,0,0-9.78-1.31c-9.7,0-15.47,6.19-28.21,6.19s-18.53-6.19-28.21-6.19a45.18,45.18,0,0,0-9.79,1.31L39.88,88.38c.25.19.5.37.77.54l-16.1,15.61a38,38,0,0,1,9.23-1.19c8.56,0,14.72,5.6,25.94,5.6s17.38-5.6,25.92-5.6a37.93,37.93,0,0,1,9.24,1.19L78.79,88.92l.77-.54ZM12.85,97.7a44.54,44.54,0,0,0,1.33-9.79C14.18,78.23,8,72.45,8,59.7s6.21-18.51,6.21-28.2a44.54,44.54,0,0,0-1.33-9.79L31,39.87c-.18.24-.36.5-.53.77L14.89,24.54a37.93,37.93,0,0,1,1.19,9.24c0,8.56-5.59,14.7-5.59,25.92s5.59,17.37,5.59,25.94a38,38,0,0,1-1.19,9.23l15.62-16.1c.17.26.35.53.53.77Zm8.87-84.85a45.18,45.18,0,0,0,9.79,1.31C41.19,14.16,47,8,59.72,8s18.51,6.19,28.21,6.19a45.15,45.15,0,0,0,9.78-1.31L79.56,31l-.77-.52L94.88,14.88a37.93,37.93,0,0,1-9.24,1.19c-8.54,0-14.71-5.59-25.92-5.59s-17.38,5.59-25.94,5.59a38,38,0,0,1-9.23-1.19l16.1,15.63c-.27.16-.52.34-.77.52ZM116,59.7c0-14.13-7-21.41-7-32.08a47.69,47.69,0,0,1,1.55-11.49l-6,2.59L86.13,37a34.27,34.27,0,0,0-3.66-3.67L100.71,15l2.59-6a48,48,0,0,1-11.51,1.55c-10.66,0-17.94-7-32.07-7s-21.42,7-32.07,7A47.75,47.75,0,0,1,16.14,8.92l2.59,6L37,33.28A35.42,35.42,0,0,0,33.28,37L15,18.72l-6-2.59a47.41,47.41,0,0,1,1.56,11.49c0,10.67-7,18-7,32.08s7,21.42,7,32.08a47.54,47.54,0,0,1-1.56,11.5l6-2.58L33.28,82.47A35.32,35.32,0,0,0,37,86.13L18.73,104.46l-2.59,6a47.75,47.75,0,0,1,11.51-1.55c10.65,0,17.9,7,32.07,7s21.41-7,32.07-7a48,48,0,0,1,11.51,1.55l-2.59-6L82.47,86.13a34.18,34.18,0,0,0,3.66-3.66l18.33,18.23,6,2.58a47.83,47.83,0,0,1-1.55-11.5c0-10.66,7-17.93,7-32.08"/><path class="cls-4" d="M59.72,88A28.29,28.29,0,1,1,88,59.7,28.27,28.27,0,0,1,59.72,88m0-58.94A30.66,30.66,0,1,0,90.39,59.7,30.64,30.64,0,0,0,59.72,29.05"/><path class="cls-2" d="M41.47,24.87a4.58,4.58,0,0,0,1-.72l0-1.4a3.93,3.93,0,0,1-1.18,1,2,2,0,0,1-2.8-.71,1.89,1.89,0,0,1,.82-2.68,2.59,2.59,0,0,1,1.4-.27L40.13,19a5,5,0,0,0-1.47.52,3.08,3.08,0,0,0-1.48,4.33,3,3,0,0,0,4.29,1"/><polygon class="cls-2" points="45.95 22.71 45.16 20.38 47.29 19.68 48.08 22 49.5 21.53 47.65 16.05 46.23 16.54 46.91 18.6 44.79 19.31 44.1 17.26 42.68 17.73 44.52 23.2 45.95 22.71"/><polygon class="cls-2" points="53.16 20.81 52.1 15.13 50.61 15.42 51.67 21.08 53.16 20.81"/><path class="cls-2" d="M58.3,20.44a4.41,4.41,0,0,0,1.21-.21L60.13,19a3.9,3.9,0,0,1-1.48.38,1.94,1.94,0,0,1-2.22-1.86,1.87,1.87,0,0,1,1.9-2,2.36,2.36,0,0,1,1.39.35l-.08-1.29a5.2,5.2,0,0,0-1.54-.14,3.08,3.08,0,0,0-3.23,3.26,3,3,0,0,0,3.43,2.78"/><path class="cls-2" d="M71.3,22.17a6.19,6.19,0,0,0,2.54.18l.81-2.66-2.09-.63-.86.84,1.31.38-.34,1a2.13,2.13,0,0,1-.88-.09,1.92,1.92,0,0,1-1.36-2.47,2,2,0,0,1,2.65-1.28,3.31,3.31,0,0,1,1.51,1L75,17.26a6.5,6.5,0,0,0-1.74-.84c-2.24-.68-3.81.38-4.28,1.93s.39,3.23,2.36,3.82"/><path class="cls-2" d="M80.9,19.63a2.93,2.93,0,0,0-4.2,1.17,3.15,3.15,0,0,0,5.58,2.93A2.92,2.92,0,0,0,80.9,19.63ZM80.85,23A1.68,1.68,0,0,1,78.6,24a1.42,1.42,0,0,1-.78-1.35v0a2.4,2.4,0,0,1,.29-1,1.69,1.69,0,0,1,2.27-1,1.61,1.61,0,0,1,.46.39,1.41,1.41,0,0,1,.3.77,1.23,1.23,0,0,1,0,.2A2.48,2.48,0,0,1,80.85,23Z"/><path class="cls-2" d="M64.61,16.38l.46,2.19-1.44-.14Zm-1.38,2.88,2.05.23.26,1.2,1.58.18-1.57-6-1.45-.17-2.91,5.49,1.49.16Z"/><polygon class="cls-2" points="48.74 104.14 50.23 104.45 50.68 102.24 52.6 102.64 52.82 101.51 50.9 101.13 51.16 99.89 53.41 100.37 53.65 99.27 49.9 98.49 48.74 104.14"/><polygon class="cls-2" points="54.74 105.16 56.24 105.3 56.77 99.56 55.25 99.42 54.74 105.16"/><path class="cls-2" d="M61.53,102a2.27,2.27,0,0,1-.43.07l-.56,0-.06-1.35.48,0c.51,0,1-.06,1,.61a.63.63,0,0,1-.48.67m1.84-.15a1.49,1.49,0,0,0,.12-.68,1.64,1.64,0,0,0-1.92-1.53l-2.6.11.23,5.74,1.47,0-.1-2.43c.33,0,.39,0,.67,0l1.56,2.37,1.63,0-1.76-2.67a1.52,1.52,0,0,0,.7-.78"/><polygon class="cls-2" points="67.79 102.27 69.68 101.87 69.46 100.78 67.58 101.16 67.35 100.07 69.55 99.62 69.33 98.51 65.67 99.27 66.79 104.9 70.23 104.24 70.65 102.97 68.04 103.48 67.79 102.27"/></g></g></svg>