<?xml version="1.0" encoding="iso-8859-1"?>
<!-- Generator: Adobe Illustrator 22.1.0, SVG Export Plug-In . SVG Version: 6.00 Build 0)  -->
<!DOCTYPE svg PUBLIC "-//W3C//DTD SVG 1.1//EN" "http://www.w3.org/Graphics/SVG/1.1/DTD/svg11.dtd">
<svg version="1.1" id="Layer_1" xmlns="http://www.w3.org/2000/svg" xmlns:xlink="http://www.w3.org/1999/xlink" x="0px" y="0px"
	 viewBox="0 0 113.334 143.333" style="enable-background:new 0 0 113.334 143.333;" xml:space="preserve">
<g>
	<g>
		<path style="fill:#FFFFFF;" d="M35.537,42.095c-0.859-0.831-1.849-2.21-1.849-4.18c0-4.771,5.184-4.855,5.184-4.855
			c-0.629,1.253-1.037,3.545,1.097,3.545c1.371,0,1.882-1.406,1.882-2.292c0-1.315-1.727-2.845-3.954-2.845
			c-3.37,0-5.718,3.22-5.718,6.109c0,1.773,0.689,3.638,1.718,5.611C34.435,42.81,34.981,42.446,35.537,42.095z"/>
		<path style="fill:#FFFFFF;" d="M84.602,45.229c1.357-2.468,2.41-5.118,2.41-7.938c0-5.571-3.813-11.492-10.884-11.492
			c-5.165,0-7.774,2.664-11.278,2.664l-0.301-0.919c1.092-0.97,2.406-2.698,2.406-5.409c0-3.309-2.179-5.114-4.011-5.906v-2.236
			c0-3.844-4.034-5.257-8.4-4.951v4.883c-4.868,2.3-6.525,5.701-5.787,10.237l2.933-0.877l-0.017,0.506
			c-1.584,1.148-2.709,2.805-3.203,4.673c-3.504,0-6.1-2.665-11.266-2.665c-7.069,0-10.885,5.921-10.885,11.492
			c0,2.82,1.053,5.47,2.41,7.938c-8.232,7.56-13.399,18.405-13.399,30.436C15.332,98.457,33.875,117,56.667,117
			c22.791,0,41.335-18.543,41.335-41.336C98.002,63.633,92.834,52.789,84.602,45.229z M56.667,115.337
			c-21.911,0-39.671-17.763-39.671-39.671c0-12.044,5.373-22.827,13.846-30.103c-1.563-2.618-2.857-5.389-2.857-8.273
			c0-4.764,3.231-9.829,9.221-9.829c5.37,0,7.849,3.305,12.538,2.556c0.145,2.146-1.104,3.125-1.104,3.125
			c0.883,1.1,1.097,2.422,1.091,3.468c0.722-0.129,1.452-0.236,2.188-0.325c0.18-0.256,0.392-0.408,0.433-0.435
			c-1.524-1.237-2.497-3.12-2.497-5.245c0-2.567,1.419-4.781,3.517-5.929c-0.015-0.118-0.208-1.797,0.463-3.771l-3.56,1.064
			c0,0-0.328-4.747,5.934-6.915v-4.378c0,0,5.075-0.083,5.075,3.314v3.437c0,0,4.011,0.776,4.011,4.705
			c0,3.211-2.364,4.625-2.845,4.878c0.652,1.04,1.03,2.269,1.03,3.593c0,2.125-0.972,4.008-2.498,5.245
			c0.042,0.027,0.255,0.179,0.434,0.435c0.736,0.088,1.465,0.196,2.188,0.325c-0.008-1.046,0.208-2.368,1.091-3.468
			c0,0-1.249-0.979-1.104-3.125c4.688,0.749,7.167-2.556,12.538-2.556c5.988,0,9.221,5.065,9.221,9.829
			c0,2.885-1.295,5.656-2.857,8.273c8.472,7.275,13.847,18.059,13.847,30.103C96.338,97.574,78.576,115.337,56.667,115.337z"/>
		<path style="fill:#FFFFFF;" d="M73.363,36.605c2.135,0,1.727-2.292,1.098-3.545c0,0,5.184,0.084,5.184,4.855
			c0,1.97-0.989,3.349-1.85,4.18c0.558,0.351,1.104,0.715,1.641,1.093c1.029-1.973,1.718-3.838,1.718-5.611
			c0-2.89-2.347-6.109-5.718-6.109c-2.229,0-3.952,1.53-3.952,2.845C71.483,35.199,71.994,36.605,73.363,36.605z"/>
		<path style="fill:#FFFFFF;" d="M81.562,47.066c-0.157,0.249-0.316,0.496-0.476,0.742c7.741,6.792,12.636,16.75,12.636,27.858
			c0,20.463-16.59,37.056-37.056,37.056c-20.465,0-37.055-16.593-37.055-37.056c0-11.108,4.894-21.067,12.635-27.858
			c-0.16-0.246-0.318-0.493-0.476-0.742c-7.981,6.954-13.032,17.184-13.032,28.6c0,20.944,16.981,37.927,37.927,37.927
			S94.593,96.61,94.593,75.666C94.593,64.249,89.543,54.02,81.562,47.066z"/>
		<path style="fill:#FFFFFF;" d="M79.182,84.959c1.184-2.864,1.839-6.003,1.839-9.293c0-3.293-0.655-6.431-1.839-9.294V84.959z"/>
		<path style="fill:#FFFFFF;" d="M74.087,67.901c-0.42,1.302-1.028,2.033-1.028,2.033s-2.727-1.609-2.727-5.957
			c0-2.578,0.608-5.017,1.533-7.337c-0.568-0.455-1.156-0.885-1.765-1.288v14.678c0,1.23-0.339,2.399-0.903,3.497V96.55
			c1.794-1.078,3.435-2.384,4.89-3.871V67.901z"/>
		<path style="fill:#FFFFFF;" d="M49.23,98.859c1.567,0.503,3.202,0.853,4.89,1.027V81.961c-1.39-0.706-3.171-1.713-4.89-2.968
			V98.859z"/>
		<path style="fill:#FFFFFF;" d="M59.213,99.889c1.688-0.177,3.322-0.526,4.891-1.029V78.993c-1.722,1.255-3.501,2.262-4.891,2.968
			V99.889z"/>
		<path style="fill:#FFFFFF;" d="M77.324,59.358c0,0.195-0.015,0.377-0.038,0.549c3.345,4.37,5.335,9.831,5.335,15.759
			c0,14.334-11.619,25.953-25.954,25.953S30.711,90,30.711,75.666c0-5.928,1.992-11.389,5.336-15.759
			c-0.023-0.172-0.038-0.354-0.038-0.549c0-0.419,0.029-0.742,0.068-1.052c-3.958,4.688-6.347,10.743-6.347,17.358
			c0,14.877,12.059,26.937,26.936,26.937c14.876,0,26.935-12.06,26.935-26.937c0-6.615-2.389-12.67-6.346-17.358
			C77.294,58.616,77.324,58.939,77.324,59.358z"/>
		<path style="fill:#FFFFFF;" d="M43.231,55.353c-0.608,0.403-1.196,0.833-1.765,1.288c0.924,2.32,1.534,4.759,1.534,7.337
			c0,4.347-2.728,5.957-2.728,5.957s-0.607-0.73-1.027-2.033v24.777c1.454,1.487,3.095,2.793,4.889,3.871V73.528
			c-0.567-1.098-0.904-2.267-0.904-3.497V55.353z"/>
		<path style="fill:#FFFFFF;" d="M72.958,54.217c-0.908-0.69-1.864-1.322-2.856-1.895v1.132c0.84,0.509,1.646,1.069,2.42,1.667
			C72.662,54.818,72.808,54.516,72.958,54.217z"/>
		<path style="fill:#FFFFFF;" d="M40.813,55.121c0.774-0.598,1.579-1.158,2.419-1.667v-1.132c-0.993,0.573-1.947,1.205-2.854,1.895
			C40.526,54.516,40.672,54.818,40.813,55.121z"/>
		<path style="fill:#FFFFFF;" d="M34.151,66.372c-1.183,2.863-1.839,6-1.839,9.294c0,3.29,0.657,6.429,1.839,9.293V66.372z"/>
		<path style="fill:#FFFFFF;" d="M78.585,44.722c-0.484-0.344-0.977-0.676-1.479-0.997c-0.041,0.33-0.11,0.633-0.206,0.903
			c0.419,0.274,0.831,0.558,1.237,0.846C78.29,45.223,78.439,44.971,78.585,44.722z"/>
		<path style="fill:#FFFFFF;" d="M50.974,38.165c-0.497,0.074-0.987,0.166-1.477,0.259l-0.001,0.002l-0.004-0.001
			c-0.564,0.108-1.122,0.23-1.677,0.363c-0.092,0.381-0.238,0.712-0.393,0.985c0.887-0.228,1.791-0.413,2.703-0.576
			C50.397,38.752,50.702,38.413,50.974,38.165z"/>
		<path style="fill:#FFFFFF;" d="M36.226,43.725c-0.5,0.321-0.993,0.653-1.476,0.997c0.145,0.249,0.292,0.5,0.445,0.752
			c0.407-0.289,0.819-0.573,1.238-0.846C36.336,44.358,36.269,44.055,36.226,43.725z"/>
		<path style="fill:#FFFFFF;" d="M63.207,39.197c0.912,0.163,1.816,0.348,2.703,0.576c-0.155-0.273-0.3-0.604-0.392-0.985
			c-0.555-0.133-1.114-0.255-1.677-0.363l-0.004,0.001l-0.002-0.002c-0.489-0.093-0.98-0.185-1.478-0.259
			C62.631,38.413,62.936,38.752,63.207,39.197z"/>
		<path style="fill:#FFFFFF;" d="M45.317,39.466c-0.031,0.01-0.061,0.022-0.092,0.032c-0.152,0.414-0.345,0.783-0.567,1.113
			c0.497-0.17,0.998-0.332,1.503-0.481L45.317,39.466z"/>
		<path style="fill:#FFFFFF;" d="M68.108,39.498c-0.031-0.01-0.061-0.022-0.093-0.032l-0.844,0.663
			c0.507,0.149,1.007,0.311,1.504,0.481C68.454,40.281,68.26,39.912,68.108,39.498z"/>
		<path style="fill:#FFFFFF;" d="M25.857,72.061l-0.089,0.641l1.252,0.177c0.288,0.04,0.565-0.159,0.605-0.437l0.188-1.342
			c0.037-0.288-0.191-0.564-0.461-0.586l-4.68-0.655c-0.304-0.043-0.566,0.155-0.608,0.458l-0.184,1.319
			c-0.038,0.281,0.167,0.546,0.461,0.587l1.561,0.219L23.99,71.8c0,0-1.359-0.189-1.489-0.208c0.017-0.119,0.136-0.963,0.152-1.082
			c0.136,0.02,4.401,0.616,4.538,0.636c-0.018,0.117-0.136,0.963-0.152,1.082C26.913,72.21,25.857,72.061,25.857,72.061z"/>
		<path style="fill:#FFFFFF;" d="M21.647,77.096l0.61-0.001c0,0-0.002-1.277-0.002-1.408c0.139,0,5.189-0.011,5.189-0.011v-0.647
			l-5.802,0.013L21.647,77.096z"/>
		<path style="fill:#FFFFFF;" d="M22.74,82.124l5.205-0.771l-0.094-0.642c0,0-4.998,0.743-5.135,0.762
			c-0.018-0.118-0.155-1.049-0.173-1.168c0.138-0.021,5.135-0.762,5.135-0.762l-0.095-0.64l-5.206,0.774
			c-0.318,0.046-0.501,0.282-0.457,0.588l0.212,1.429C22.176,81.993,22.427,82.171,22.74,82.124z"/>
		<path style="fill:#FFFFFF;" d="M24.146,87.316l1.767-0.554c0.198-0.063,0.316-0.187,0.367-0.393c0,0,0.044-0.17,0.074-0.287
			c0.106,0.084,0.308,0.247,0.308,0.247c0.14,0.113,0.318,0.06,0.448,0.018l1.52-0.476c0.3-0.095,0.445-0.384,0.346-0.69
			l-0.529-1.687l-5.535,1.736l0.531,1.696C23.55,87.263,23.828,87.419,24.146,87.316z M28.066,84.293
			c0.035,0.114,0.273,0.867,0.308,0.979c-0.123,0.039-1.417,0.445-1.48,0.467c-0.05-0.038-0.402-0.294-0.434-0.319
			c-0.013-0.038-0.145-0.458-0.178-0.566C26.404,84.816,27.944,84.333,28.066,84.293z M25.707,85.034
			c0.033,0.105,0.161,0.513,0.172,0.547c-0.011,0.036-0.143,0.502-0.162,0.564c-0.068,0.021-1.593,0.5-1.717,0.54
			c-0.035-0.113-0.283-0.901-0.318-1.015C23.806,85.631,25.582,85.073,25.707,85.034z"/>
		<path style="fill:#FFFFFF;" d="M28.736,95.423l3.337-2.178c0.368-0.241,0.582-0.77,0.252-1.276l-0.788-1.208l-4.859,3.173
			l0.789,1.206C27.808,95.597,28.3,95.706,28.736,95.423z M31.379,91.638c0.064,0.097,0.37,0.566,0.37,0.566
			c0.128,0.195,0.087,0.423-0.105,0.546l-3.175,2.074c-0.2,0.131-0.431,0.077-0.573-0.142c0,0-0.265-0.405-0.353-0.54
			C27.658,94.066,31.265,91.712,31.379,91.638z"/>
		<path style="fill:#FFFFFF;" d="M33.039,97.966l0.463-0.406c0,0-0.696-0.789-0.78-0.884c0.097-0.087,1.355-1.197,1.453-1.282
			c0.084,0.098,0.823,0.932,0.823,0.932l0.457-0.4l-1.252-1.42l-4.35,3.838l1.267,1.434l0.458-0.403c0,0-0.754-0.854-0.839-0.948
			c0.098-0.087,1.422-1.256,1.52-1.341C32.344,97.179,33.039,97.966,33.039,97.966z"/>
		<path style="fill:#FFFFFF;" d="M35.06,100.489c0.097,0.083,0.897,0.764,0.897,0.764c0.263,0.223,0.577,0.199,0.792-0.054
			l1.613-1.895c0.211-0.251,0.176-0.569-0.108-0.809l-1.363-1.158l-3.758,4.419l0.492,0.419
			C33.625,102.176,34.972,100.592,35.06,100.489z M36.988,98.222c0.091,0.076,0.747,0.635,0.837,0.713
			c-0.083,0.102-1.447,1.702-1.532,1.803c-0.091-0.077-0.747-0.637-0.838-0.713C35.54,99.923,36.902,98.322,36.988,98.222z"/>
		<path style="fill:#FFFFFF;" d="M37.805,105.32l1.302,0.794c0.237,0.14,0.562,0.072,0.717-0.185l2.468-4.046
			c0.175-0.295,0.02-0.61-0.165-0.722l-1.302-0.794c-0.284-0.174-0.603,0.001-0.718,0.183l-2.468,4.049
			C37.46,104.894,37.62,105.207,37.805,105.32z M40.62,100.956c0.105,0.065,0.975,0.595,1.079,0.66
			c-0.071,0.114-2.314,3.793-2.386,3.909c-0.104-0.064-0.974-0.595-1.078-0.657C38.306,104.75,40.548,101.073,40.62,100.956z"/>
		<path style="fill:#FFFFFF;" d="M44.733,108.767c0,0,0.109-2.78,0.116-2.971c0.106,0.044,0.282,0.115,0.282,0.115
			c0.257,0.106,0.591,0.038,0.729-0.298l0.726-1.767c0.128-0.311,0.007-0.587-0.318-0.722l-1.729-0.711l-2.206,5.366l0.6,0.245
			c0,0,0.713-1.734,1.282-3.122l-0.135,3.594L44.733,108.767z M44.904,103.224c0.111,0.048,0.948,0.39,1.059,0.435
			c-0.049,0.119-0.632,1.538-0.68,1.656c-0.088-0.037-0.759-0.31-1.06-0.432C44.583,104.007,44.883,103.273,44.904,103.224z"/>
		<path style="fill:#FFFFFF;" d="M48.38,109.835c0,0,1.24-4.896,1.274-5.031c0.117,0.028,0.839,0.213,0.839,0.213l0.149-0.594
			l-2.307-0.583l-0.149,0.592c0,0,0.722,0.184,0.839,0.211c-0.034,0.138-1.273,5.035-1.273,5.035L48.38,109.835z"/>
		<polygon style="fill:#FFFFFF;" points="52.35,110.557 53.112,104.808 52.47,104.721 51.709,110.473 		"/>
		<path style="fill:#FFFFFF;" d="M55.655,105.009l-0.657-0.011l0.937,5.814l0.513,0.009l1.075-5.787l-0.65-0.008
			c0,0-0.524,3.064-0.645,3.765C56.123,108.088,55.655,105.009,55.655,105.009z"/>
		<path style="fill:#FFFFFF;" d="M61.359,104.657l-1.512,0.203c-0.216,0.029-0.488,0.252-0.441,0.595l0.629,4.696
			c0.046,0.346,0.368,0.487,0.582,0.458l1.514-0.203c0.295-0.048,0.476-0.33,0.441-0.594l-0.631-4.698
			C61.916,104.915,61.705,104.625,61.359,104.657z M60.668,109.988c-0.018-0.137-0.592-4.404-0.609-4.54
			c0.121-0.017,1.13-0.152,1.252-0.17c0.017,0.137,0.589,4.404,0.608,4.541C61.798,109.836,60.79,109.972,60.668,109.988z"/>
		<path style="fill:#FFFFFF;" d="M69.606,104.016l0.593-0.259l-0.504-1.159c-0.12-0.277-0.422-0.403-0.688-0.288l-1.242,0.541
			c-0.262,0.115-0.378,0.427-0.259,0.698l1.883,4.332c0.119,0.272,0.438,0.399,0.708,0.281l1.223-0.531
			c0.27-0.118,0.382-0.418,0.259-0.699l-0.627-1.447l-0.594,0.259c0,0,0.546,1.26,0.599,1.381c-0.108,0.045-0.893,0.387-1.002,0.435
			c-0.056-0.126-1.771-4.075-1.826-4.2c0.109-0.05,0.893-0.389,1.003-0.438C69.181,103.038,69.606,104.016,69.606,104.016z"/>
		<path style="fill:#FFFFFF;" d="M75.978,105.033l0.546-0.35l-3.115-4.894l-0.546,0.348c0,0,1.255,1.973,1.328,2.088
			c-0.101,0.065-0.925,0.588-1.029,0.653c-0.071-0.112-1.327-2.085-1.327-2.085l-0.546,0.348l3.117,4.893l0.543-0.348
			c0,0-1.377-2.165-1.451-2.28c0.104-0.065,0.926-0.59,1.028-0.654C74.6,102.866,75.978,105.033,75.978,105.033z"/>
		
			<rect x="76.999" y="97.506" transform="matrix(0.7658 -0.6431 0.6431 0.7658 -46.46 73.2385)" style="fill:#FFFFFF;" width="0.647" height="5.801"/>
		<path style="fill:#FFFFFF;" d="M82.397,99.57l-3.549-4.694l-0.443,0.472c0,0,1.908,2.456,2.346,3.017
			c-0.594-0.395-3.182-2.127-3.182-2.127l-0.449,0.479l4.926,3.229L82.397,99.57z"/>
		<path style="fill:#FFFFFF;" d="M85.739,95.365l0.39-0.548l-5.439-2.361l-0.319,0.452l4.014,4.367l0.372-0.525
			c0,0-0.741-0.81-0.815-0.886c0.058-0.083,0.635-0.893,0.69-0.975C84.729,94.931,85.739,95.365,85.739,95.365z M83.51,95.393
			c-0.104-0.111-1.315-1.429-1.556-1.689c0.325,0.146,1.955,0.872,2.092,0.934C83.968,94.748,83.591,95.28,83.51,95.393z"/>
		<path style="fill:#FFFFFF;" d="M84.539,89.4l0.293-0.576l-1.094-0.554c-0.283-0.145-0.584-0.059-0.72,0.212l-0.51,1.004
			c-0.127,0.244-0.009,0.572,0.24,0.701l1.075,0.546c0.128,0.062,0.232,0.047,0.345,0.027l2.223-0.405
			c0.04,0.021,1.076,0.547,1.189,0.604c-0.051,0.103-0.332,0.656-0.383,0.757c-0.118-0.059-1.315-0.666-1.315-0.666l-0.292,0.577
			l1.378,0.699c0.312,0.158,0.6,0.008,0.714-0.218l0.507-1.002c0.138-0.269,0.03-0.564-0.253-0.707l-1.311-0.669
			c-0.171-0.086-0.328-0.057-0.509-0.025c-0.001,0.001-1.937,0.372-2.067,0.398c-0.038-0.021-0.819-0.416-0.931-0.473
			c0.053-0.103,0.333-0.654,0.384-0.757C83.616,88.933,84.539,89.4,84.539,89.4z"/>
		<path style="fill:#FFFFFF;" d="M85.217,82.142l-0.128,0.634l5.161,1.032c0.314,0.063,0.571-0.105,0.629-0.4l0.282-1.418
			c0.061-0.292-0.124-0.55-0.427-0.609l-5.16-1.033l-0.126,0.636c0,0,4.952,0.99,5.091,1.019c-0.024,0.116-0.21,1.038-0.233,1.157
			C90.171,83.131,85.217,82.142,85.217,82.142z"/>
		<path style="fill:#FFFFFF;" d="M89.562,77.767l-0.029,0.647l1.545,0.071c0.348,0.017,0.548-0.24,0.561-0.491l0.053-1.122
			c0.014-0.301-0.206-0.528-0.522-0.543l-1.472-0.066c-0.188-0.01-0.321,0.08-0.474,0.185c0,0-1.611,1.133-1.722,1.211
			c-0.042-0.003-0.92-0.043-1.043-0.05c0.005-0.112,0.034-0.733,0.04-0.847c0.127,0.006,1.16,0.053,1.16,0.053l0.032-0.646
			l-1.228-0.058c-0.314-0.014-0.554,0.189-0.568,0.491l-0.052,1.125c-0.013,0.283,0.214,0.525,0.507,0.54l1.205,0.055
			c0.141,0.006,0.23-0.052,0.325-0.114l0.034-0.021c0.001-0.003,1.72-1.185,1.828-1.261c0.045,0.001,1.204,0.057,1.331,0.062
			c-0.006,0.114-0.032,0.733-0.04,0.848C90.905,77.83,89.562,77.767,89.562,77.767z"/>
		<path style="fill:#FFFFFF;" d="M91.377,70.771l-5.65,1.792l0.054,0.551l5.896,0.656l-0.062-0.639c0,0-1.093-0.122-1.196-0.136
			c-0.013-0.1-0.109-1.088-0.12-1.188c0.1-0.033,1.146-0.367,1.146-0.367L91.377,70.771z M87.5,72.672
			c0.338-0.102,2.048-0.627,2.189-0.67c0.014,0.135,0.079,0.786,0.093,0.923C89.631,72.908,87.852,72.713,87.5,72.672z"/>
		<path style="fill:#FFFFFF;" d="M60.513,16.528v-2.352c0-1.793-3.536-2.458-3.536-2.458v3.778
			c-3.737,1.324-5.238,3.243-5.798,5.432l7.418-2.113C59.268,18.659,60.513,17.986,60.513,16.528z M57.354,12.19
			c1.431,0.327,2.25,1.023,2.25,1.023s0.818,0.449,0,1.063c-0.956,0.717-2.25,1.106-2.25,1.106V12.19z M51.747,20.375
			c1.064-3.397,5.688-4.623,5.688-4.623c1.717-0.533,2.701-1.556,2.701-1.556v2.332c0,1.556-1.637,1.923-1.637,1.923L51.747,20.375z
			"/>
	</g>
	<g>
		<path style="fill:#C4C6C8;" d="M56.667,33.307c3.191-1.515,5.574-0.983,5.574-0.983c0.408-0.778,0.245-2.249,0.245-2.249
			c-3.561-0.247-5.819-2.292-5.819-2.292s-2.26,2.045-5.819,2.292c0,0-0.164,1.471,0.245,2.249
			C51.092,32.323,53.474,31.792,56.667,33.307z"/>
		<path style="fill:#C4C6C8;" d="M61.502,33.348c0,0-3.158-0.123-4.836,1.473c-1.678-1.596-4.837-1.473-4.837-1.473
			s1.03,2.373,4.837,3.069C60.472,35.721,61.502,33.348,61.502,33.348z"/>
		<path style="fill:#C4C6C8;" d="M62.2,28.886c0,0-1.154-3.724-5.533-3.724c-4.379,0-5.533,3.724-5.533,3.724
			c2.864-0.122,5.533-2.372,5.533-2.372S59.335,28.764,62.2,28.886z"/>
		<path style="fill:#C4C6C8;" d="M56.667,37.357c0,0-1.768-0.04-3.364-1.104c0,0-0.695,0.491-0.491,1.104
			c0,0,2.423,0.818,3.856,1.883c1.432-1.064,3.854-1.883,3.854-1.883c0.206-0.613-0.49-1.104-0.49-1.104
			C58.433,37.317,56.667,37.357,56.667,37.357z"/>
		<path style="fill:#C4C6C8;" d="M62.813,40.917c-0.327-1.637-2.006-2.618-2.006-2.618c-1.882,0.408-4.141,2.209-4.141,2.209
			s-2.26-1.801-4.142-2.209c0,0-1.677,0.981-2.006,2.618c0,0,3.528,1.965,6.148,1.965C59.286,42.882,62.813,40.917,62.813,40.917z"
			/>
		<path style="fill:#C4C6C8;" d="M62.117,42.351c-2.905,1.433-5.45,1.596-5.45,1.596s-2.545-0.163-5.451-1.596
			c0,0-1.761-0.533-3.07,0.163l8.521,3.438l8.519-3.438C63.877,41.817,62.117,42.351,62.117,42.351z"/>
		<path style="fill:#C4C6C8;" d="M56.27,23.976c0.695-2.824,2.087-4.44,2.087-4.44l-3.745,1.167c-0.716,2.128-0.47,3.765-0.47,3.765
			C54.816,24.16,56.27,23.976,56.27,23.976z"/>
		<path style="fill:#C4C6C8;" d="M60.096,24.733c1.534-2.537,4.42-2.599,4.42-2.599c-0.104-3.048-3.603-3.929-3.603-3.929
			c-3.089,2.355-3.805,5.811-3.805,5.811C58.746,24.2,60.096,24.733,60.096,24.733z"/>
		<path style="fill:#C4C6C8;" d="M61.977,26.329c0,0,2.395-1.331,2.519-3.417c0,0-2.231,0-3.664,2.292
			C60.832,25.203,61.465,25.695,61.977,26.329z"/>
	</g>
	<g>
		<path style="fill:#FFC425;" d="M66.006,43.499l-9.34,3.64l-9.34-3.64h-5.92c0,0,1.825,1.947,1.825,4.851v3.972v1.132v1.898v14.678
			c0,1.23,0.337,2.399,0.904,3.497c1.095,2.121,3.049,3.969,5.095,5.465c1.719,1.255,3.5,2.262,4.89,2.968
			c1.503,0.765,2.547,1.178,2.547,1.178s1.044-0.413,2.547-1.178c1.39-0.706,3.169-1.713,4.891-2.968
			c2.044-1.496,3.999-3.345,5.094-5.465c0.564-1.098,0.903-2.267,0.903-3.497V55.353v-1.898v-1.132V48.35
			c0-2.903,1.824-4.851,1.824-4.851H66.006z M43.795,44.438h0.933l0.489,0.781l0.488-0.781h0.934l-0.956,1.322l0.956,1.323h-0.934
			l-0.488-0.782l-0.489,0.782h-0.933l0.954-1.323L43.795,44.438z M43.795,61.476l0.954-1.322l-0.954-1.323h0.933l0.489,0.782
			l0.488-0.782h0.934l-0.956,1.323l0.956,1.322h-0.934l-0.488-0.781l-0.489,0.781H43.795z M47.321,73.154h-0.933l-0.489-0.78
			l-0.488,0.78h-0.933l0.955-1.322l-0.955-1.323h0.933l0.488,0.782l0.489-0.782h0.933l-0.955,1.323L47.321,73.154z M58.087,81.111
			h-0.932l-0.489-0.781l-0.489,0.781h-0.933l0.955-1.322l-0.955-1.322h0.933l0.489,0.78l0.489-0.78h0.932l-0.953,1.322
			L58.087,81.111z M65.854,68.55c0,5.333-9.187,8.992-9.187,8.992s-9.188-3.659-9.188-8.992V47.501h18.375V68.55z M68.855,73.154
			h-0.933l-0.489-0.78l-0.489,0.78h-0.933l0.955-1.322l-0.955-1.323h0.933l0.489,0.782l0.489-0.782h0.933L67.9,71.832L68.855,73.154
			z M69.539,61.476h-0.934l-0.488-0.781l-0.489,0.781h-0.931l0.952-1.322l-0.952-1.323h0.931l0.489,0.782l0.488-0.782h0.934
			l-0.956,1.323L69.539,61.476z M69.539,47.084h-0.934l-0.488-0.782l-0.489,0.782h-0.931l0.952-1.323l-0.952-1.322h0.931
			l0.489,0.781l0.488-0.781h0.934l-0.956,1.322L69.539,47.084z"/>
		<path style="fill:#FFC425;" d="M48.809,64.57c-0.633,2.15,0.246,3.335,0.246,3.335c-0.286,1.022,0.328,1.637,0.328,1.637
			c-0.389,0.349-0.267,0.799-0.267,0.799c0.021,0.02,1.679,1.718,1.679,1.718h1.534c-0.185-0.512-0.716-0.43-0.716-0.43
			c-0.922-0.042-0.922-0.49-0.922-0.49c-0.061-0.513-0.183-0.983-0.183-0.983c0.715-0.45,0.573-1.002,0.573-1.002
			c0.879,0,1.433,0.428,1.433,0.428c0.654,0.737,1.207,0.614,1.207,0.614l2.168-1.452v-0.49h-0.266l-1.31,1.022
			c-0.409,0.347-0.859-0.04-0.859-0.04l-1.473-0.962c1.289-0.634,1.228-1.638,1.228-1.638h0.859c0.982-1.554,1.8-1.492,1.8-1.492
			v-0.962h-0.205l-1.268,1.392c-0.471,0.388-1.126-0.164-1.126-0.164l0.634-0.082l0.962-1.167c0.491-0.512,1.023-0.613,1.023-0.613
			V62.34h-0.246c-1.433,2.845-2.558,2.353-2.558,2.353c-0.368-0.554,0.491-0.92,0.491-0.92l-0.062-0.389
			c-0.982,0.45-0.921-0.369-0.921-0.369c0.164-0.941,1.126-0.062,1.126-0.062l0.246-0.654l-2.864-1.105c0,0-0.062,0.594-0.675,0.88
			c-0.615,0.287-0.491,1.207-0.491,1.207s0.286,0.083,0.143,0.43c0,0-0.164,0.185-0.143,0.328c0,0,0.327,0,0.06,0.512
			c0,0,0.37,0.02,0.246,0.388c0,0,0.43-0.04,0.368,0.327c0,0,0.266,0.186,0.492,0c-0.88,2.15-1.556,2.068-1.556,2.068
			c-0.715-0.92-0.45-2.639-0.45-2.639c0.226-1.392-0.286-2.211-0.286-2.211c0.45-1.002-0.51-1.37-0.51-1.37
			c-0.37,0.858,0.143,1.453,0.143,1.453C49.178,63.404,48.809,64.57,48.809,64.57z"/>
		<path style="fill:#FFC425;" d="M60.82,69.582c0,0,0.553-0.428,1.431-0.428c0,0-0.142,0.552,0.575,1.002
			c0,0-0.123,0.47-0.184,0.983c0,0,0,0.448-0.924,0.49c0,0-0.53-0.082-0.713,0.43h1.531c0,0,1.659-1.698,1.679-1.718
			c0,0,0.124-0.451-0.266-0.799c0,0,0.613-0.615,0.327-1.637c0,0,0.881-1.186,0.246-3.335c0,0-0.369-1.166,0.369-2.004
			c0,0,0.511-0.595,0.142-1.453c0,0-0.96,0.368-0.511,1.37c0,0-0.511,0.819-0.286,2.211c0,0,0.265,1.719-0.449,2.639
			c0,0-0.677,0.083-1.557-2.068c0.226,0.186,0.491,0,0.491,0c-0.062-0.367,0.368-0.327,0.368-0.327
			c-0.123-0.368,0.247-0.388,0.247-0.388c-0.267-0.512,0.062-0.512,0.062-0.512c0.019-0.144-0.144-0.328-0.144-0.328
			c-0.145-0.347,0.144-0.43,0.144-0.43s0.122-0.92-0.491-1.207c-0.615-0.286-0.677-0.88-0.677-0.88l-2.864,1.105l0.246,0.654
			c0,0,0.962-0.879,1.125,0.062c0,0,0.062,0.819-0.92,0.369l-0.061,0.389c0,0,0.858,0.367,0.49,0.92c0,0-1.126,0.492-2.559-2.353
			h-0.245v1.208c0,0,0.532,0.101,1.023,0.613l0.961,1.167l0.634,0.082c0,0-0.654,0.552-1.124,0.164l-1.27-1.392h-0.203v0.962
			c0,0,0.818-0.062,1.8,1.492h0.858c0,0-0.062,1.004,1.229,1.638l-1.473,0.962c0,0-0.452,0.387-0.861,0.04l-1.309-1.022h-0.266v0.49
			l2.168,1.452C59.613,70.196,60.166,70.32,60.82,69.582z"/>
		<path style="fill:#FFC425;" d="M37.898,30.463c2.699,0,4.958,1.872,4.958,3.85c0,1.569-1.003,3.296-2.887,3.296
			c-2.071,0-2.961-1.936-2.522-3.349c0,0-2.755,0.673-2.755,3.655c0,2.849,2.567,4.25,2.567,4.25s-0.722,3.185,1.976,3.718
			c0,0-1.269-2.64,0.081-3.801c0,0,4.973,0.255,5.287-4.453l1.995,1.567c0,0,0.682-0.899-0.007-3.347l2.11,1.056
			c0,0,0.347-2.406-1.63-3.944c0,0,1.22-0.311,1.627-1.88c-4.241,0.188-6.658-2.615-11.494-2.615c-5.314,0-8.217,4.465-8.217,8.824
			c0,6.822,8.251,13.679,8.251,19.05c0,1.673-0.226,1.847-0.226,3.018c0,1.852,1.375,1.872,1.375,1.872
			c-0.204,2.684,1.667,2.318,1.667,2.318c-0.627,3.034,0.453,4.831,0.453,4.831s1.487-1.326,1.487-4.401
			c0-10.833-10.82-18.658-10.82-26.401C31.176,34.093,33.976,30.463,37.898,30.463z"/>
		<path style="fill:#FFC425;" d="M84.344,37.29c0-4.359-2.902-8.824-8.216-8.824c-4.837,0-7.252,2.802-11.495,2.615
			c0.409,1.569,1.628,1.88,1.628,1.88c-1.977,1.538-1.63,3.944-1.63,3.944l2.11-1.056c-0.69,2.448-0.008,3.347-0.008,3.347
			l1.994-1.567c0.315,4.708,5.289,4.453,5.289,4.453c1.35,1.162,0.079,3.801,0.079,3.801c2.699-0.533,1.977-3.718,1.977-3.718
			s2.565-1.401,2.565-4.25c0-2.982-2.752-3.655-2.752-3.655c0.438,1.413-0.451,3.349-2.523,3.349c-1.883,0-2.887-1.727-2.887-3.296
			c0-1.978,2.259-3.85,4.959-3.85c3.923,0,6.722,3.63,6.722,7.114c0,7.743-10.82,15.567-10.82,26.401
			c0,3.075,1.487,4.401,1.487,4.401s1.081-1.797,0.453-4.831c0,0,1.871,0.366,1.668-2.318c0,0,1.375-0.021,1.375-1.872
			c0-1.171-0.226-1.345-0.226-3.018C76.094,50.969,84.344,44.112,84.344,37.29z"/>
	</g>
	<path style="fill:#54B948;" d="M56.667,50.236c-3.621,0-6.555,2.111-6.555,4.713c0,2.604,2.935,4.714,6.555,4.714
		c3.62,0,6.556-2.111,6.556-4.714C63.222,52.347,60.287,50.236,56.667,50.236z"/>
	<path style="fill:#D06F1A;" d="M57.239,69.236v-9.29h-1.146v9.29c0,0-0.082,1.922-1.514,3.847c0,0,0.79,0.664,2.087,0.664
		c1.297,0,2.088-0.664,2.088-0.664C57.321,71.158,57.239,69.236,57.239,69.236z"/>
	<g>
		<path style="fill:#B30838;" d="M38.913,64.382c0,0-1.425-0.423-1.518-2.417c-0.199-0.104-0.391-0.243-0.569-0.416
			c-1.064,1.491-1.965,3.106-2.675,4.824v18.587c1.197,2.897,2.938,5.512,5.095,7.72V67.901
			C38.952,66.99,38.75,65.804,38.913,64.382z"/>
		<path style="fill:#B30838;" d="M44.135,73.528V96.55c1.589,0.957,3.296,1.734,5.095,2.31V78.993
			C47.185,77.497,45.231,75.648,44.135,73.528z"/>
		<path style="fill:#B30838;" d="M54.12,81.961v17.926c0.837,0.088,1.687,0.135,2.547,0.135c0.86,0,1.71-0.047,2.547-0.133V81.961
			c-1.503,0.765-2.547,1.178-2.547,1.178S55.623,82.726,54.12,81.961z"/>
		<path style="fill:#B30838;" d="M64.104,78.993v19.866c1.797-0.575,3.506-1.353,5.094-2.31V73.528
			C68.103,75.648,66.148,77.497,64.104,78.993z"/>
		<path style="fill:#B30838;" d="M76.507,61.548c-0.178,0.173-0.369,0.312-0.569,0.416c-0.093,1.995-1.519,2.417-1.519,2.417
			c0.165,1.422-0.038,2.608-0.332,3.52v24.777c2.155-2.208,3.896-4.822,5.095-7.72V66.372C78.472,64.654,77.57,63.04,76.507,61.548z
			"/>
		<polygon style="fill:#B30838;" points="44.728,47.084 45.216,46.302 45.704,47.084 46.638,47.084 45.682,45.761 46.638,44.438 
			45.704,44.438 45.216,45.22 44.728,44.438 43.795,44.438 44.749,45.761 43.795,47.084 		"/>
		<polygon style="fill:#B30838;" points="44.728,61.476 45.216,60.695 45.704,61.476 46.638,61.476 45.682,60.154 46.638,58.831 
			45.704,58.831 45.216,59.613 44.728,58.831 43.795,58.831 44.749,60.154 43.795,61.476 		"/>
		<polygon style="fill:#B30838;" points="46.388,70.509 45.899,71.291 45.411,70.509 44.478,70.509 45.433,71.832 44.478,73.154 
			45.411,73.154 45.899,72.374 46.388,73.154 47.321,73.154 46.366,71.832 47.321,70.509 		"/>
		<polygon style="fill:#B30838;" points="56.177,81.111 56.667,80.33 57.155,81.111 58.087,81.111 57.134,79.789 58.087,78.467 
			57.155,78.467 56.667,79.247 56.177,78.467 55.245,78.467 56.2,79.789 55.245,81.111 		"/>
		<polygon style="fill:#B30838;" points="68.605,44.438 68.117,45.22 67.627,44.438 66.697,44.438 67.649,45.761 66.697,47.084 
			67.627,47.084 68.117,46.302 68.605,47.084 69.539,47.084 68.583,45.761 69.539,44.438 		"/>
		<polygon style="fill:#B30838;" points="68.605,58.831 68.117,59.613 67.627,58.831 66.697,58.831 67.649,60.154 66.697,61.476 
			67.627,61.476 68.117,60.695 68.605,61.476 69.539,61.476 68.583,60.154 69.539,58.831 		"/>
		<polygon style="fill:#B30838;" points="66.944,73.154 67.433,72.374 67.922,73.154 68.855,73.154 67.9,71.832 68.855,70.509 
			67.922,70.509 67.433,71.291 66.944,70.509 66.011,70.509 66.966,71.832 66.011,73.154 		"/>
		<path style="fill:#B30838;" d="M51.747,20.375l6.752-1.924c0,0,1.637-0.368,1.637-1.923v-2.332c0,0-0.983,1.023-2.701,1.556
			C57.436,15.752,52.811,16.978,51.747,20.375z"/>
		<path style="fill:#B30838;" d="M59.604,13.214c0,0-0.819-0.696-2.25-1.023v3.192c0,0,1.294-0.389,2.25-1.106
			C60.422,13.663,59.604,13.214,59.604,13.214z"/>
	</g>
	<g>
		<path style="fill:#002D62;" d="M82.492,45.563c1.562-2.618,2.857-5.389,2.857-8.273c0-4.764-3.232-9.829-9.221-9.829
			c-5.371,0-7.851,3.305-12.538,2.556c-0.146,2.146,1.104,3.125,1.104,3.125c-0.883,1.1-1.099,2.422-1.091,3.468
			c-0.724-0.129-1.452-0.236-2.188-0.325c-0.179-0.256-0.392-0.408-0.434-0.435c1.526-1.237,2.498-3.12,2.498-5.245
			c0-1.324-0.378-2.554-1.03-3.593c0.48-0.254,2.845-1.667,2.845-4.878c0-3.929-4.011-4.705-4.011-4.705v-3.437
			c0-3.397-5.075-3.314-5.075-3.314v4.378c-6.262,2.169-5.934,6.915-5.934,6.915l3.56-1.064c-0.671,1.974-0.478,3.652-0.463,3.771
			c-2.097,1.147-3.517,3.361-3.517,5.929c0,2.125,0.973,4.008,2.497,5.245c-0.04,0.027-0.252,0.179-0.433,0.435
			c-0.736,0.088-1.466,0.196-2.188,0.325c0.005-1.046-0.208-2.368-1.091-3.468c0,0,1.249-0.979,1.104-3.125
			c-4.688,0.749-7.168-2.556-12.538-2.556c-5.99,0-9.221,5.065-9.221,9.829c0,2.885,1.294,5.656,2.857,8.273
			c-8.473,7.275-13.846,18.059-13.846,30.103c0,21.908,17.761,39.671,39.671,39.671c21.909,0,39.672-17.763,39.672-39.671
			C96.338,63.622,90.963,52.839,82.492,45.563z M66.261,32.961c0,0-1.219-0.311-1.628-1.88c4.243,0.188,6.658-2.615,11.495-2.615
			c5.313,0,8.216,4.465,8.216,8.824c0,6.822-8.25,13.679-8.25,19.05c0,1.673,0.226,1.847,0.226,3.018
			c0,1.852-1.375,1.872-1.375,1.872c0.203,2.684-1.668,2.318-1.668,2.318c0.628,3.034-0.453,4.831-0.453,4.831
			s-1.487-1.326-1.487-4.401c0-10.833,10.82-18.658,10.82-26.401c0-3.484-2.799-7.114-6.722-7.114c-2.7,0-4.959,1.872-4.959,3.85
			c0,1.569,1.004,3.296,2.887,3.296c2.072,0,2.962-1.936,2.523-3.349c0,0,2.752,0.673,2.752,3.655c0,2.849-2.565,4.25-2.565,4.25
			s0.723,3.185-1.977,3.718c0,0,1.271-2.64-0.079-3.801c0,0-4.975,0.255-5.289-4.453l-1.994,1.567c0,0-0.683-0.899,0.008-3.347
			l-2.11,1.056C64.631,36.905,64.285,34.499,66.261,32.961z M84.048,90.104c0.131-0.026,2.066-0.397,2.067-0.398
			c0.181-0.031,0.338-0.061,0.509,0.025l1.311,0.669c0.283,0.143,0.391,0.438,0.253,0.707l-0.507,1.002
			c-0.114,0.226-0.401,0.376-0.714,0.218l-1.378-0.699l0.292-0.577c0,0,1.197,0.607,1.315,0.666
			c0.051-0.101,0.332-0.654,0.383-0.757c-0.113-0.058-1.149-0.583-1.189-0.604l-2.223,0.405c-0.112,0.02-0.217,0.035-0.345-0.027
			l-1.075-0.546c-0.249-0.129-0.367-0.457-0.24-0.701l0.51-1.004c0.136-0.271,0.437-0.356,0.72-0.212l1.094,0.554L84.539,89.4
			c0,0-0.923-0.468-1.037-0.525c-0.051,0.103-0.331,0.654-0.384,0.757C83.229,89.688,84.01,90.083,84.048,90.104z M85.449,80.982
			l0.126-0.636l5.16,1.033c0.303,0.06,0.487,0.317,0.427,0.609l-0.282,1.418c-0.058,0.295-0.314,0.464-0.629,0.4l-5.161-1.032
			l0.128-0.634c0,0,4.954,0.989,5.089,1.017c0.023-0.119,0.209-1.041,0.233-1.157C90.401,81.973,85.449,80.982,85.449,80.982z
			 M90.418,72.995c0.103,0.014,1.196,0.136,1.196,0.136l0.062,0.639l-5.896-0.656l-0.054-0.551l5.65-1.792l0.066,0.669
			c0,0-1.047,0.334-1.146,0.367C90.308,71.907,90.405,72.895,90.418,72.995z M89.743,76.926c-0.108,0.076-1.827,1.258-1.828,1.261
			l-0.034,0.021c-0.095,0.062-0.185,0.12-0.325,0.114l-1.205-0.055c-0.293-0.015-0.52-0.257-0.507-0.54l0.052-1.125
			c0.015-0.302,0.254-0.505,0.568-0.491l1.228,0.058l-0.032,0.646c0,0-1.033-0.047-1.16-0.053c-0.006,0.113-0.035,0.734-0.04,0.847
			c0.123,0.007,1.001,0.047,1.043,0.05c0.11-0.078,1.72-1.211,1.72-1.211c0.154-0.105,0.287-0.194,0.476-0.185l1.472,0.066
			c0.316,0.015,0.536,0.242,0.522,0.543l-0.053,1.122c-0.013,0.251-0.213,0.508-0.561,0.491l-1.545-0.071l0.029-0.647
			c0,0,1.343,0.063,1.472,0.069c0.008-0.114,0.034-0.733,0.04-0.848C90.947,76.982,89.788,76.927,89.743,76.926z M84.755,96.75
			l-0.372,0.525l-4.014-4.367l0.319-0.452l5.439,2.361l-0.39,0.548c0,0-1.01-0.434-1.108-0.476c-0.056,0.082-0.633,0.892-0.69,0.975
			C84.014,95.94,84.755,96.75,84.755,96.75z M74.949,105.687l-0.543,0.348l-3.117-4.893l0.546-0.348c0,0,1.256,1.973,1.327,2.085
			c0.104-0.065,0.928-0.588,1.029-0.653c-0.073-0.115-1.328-2.088-1.328-2.088l0.546-0.348l3.115,4.894l-0.546,0.35
			c0,0-1.378-2.167-1.452-2.281c-0.103,0.064-0.925,0.59-1.028,0.654C73.572,103.521,74.949,105.687,74.949,105.687z
			 M69.955,107.559c0.109-0.048,0.894-0.39,1.002-0.435c-0.053-0.121-0.599-1.381-0.599-1.381l0.594-0.259l0.627,1.447
			c0.123,0.281,0.011,0.581-0.259,0.699l-1.223,0.531c-0.27,0.118-0.589-0.009-0.708-0.281l-1.883-4.332
			c-0.119-0.271-0.003-0.583,0.259-0.698l1.242-0.541c0.266-0.115,0.567,0.011,0.688,0.288l0.504,1.159l-0.593,0.259
			c0,0-0.425-0.978-0.475-1.095c-0.11,0.049-0.894,0.388-1.003,0.438C68.183,103.483,69.899,107.433,69.955,107.559z M75.21,98.394
			l0.496-0.416l3.73,4.442l-0.495,0.416L75.21,98.394z M77.12,96.716l0.449-0.479c0,0,2.588,1.732,3.182,2.127
			c-0.438-0.561-2.346-3.017-2.346-3.017l0.443-0.472l3.549,4.694l-0.352,0.374L77.12,96.716z M56.667,102.601
			c-14.877,0-26.936-12.06-26.936-26.937c0-6.615,2.389-12.67,6.347-17.358c-0.038,0.31-0.068,0.633-0.068,1.052
			c0,0.195,0.015,0.377,0.038,0.549c-3.344,4.37-5.336,9.831-5.336,15.759c0,14.334,11.621,25.953,25.956,25.953
			S82.621,90,82.621,75.666c0-5.928-1.99-11.389-5.335-15.759c0.023-0.172,0.038-0.354,0.038-0.549c0-0.419-0.03-0.742-0.067-1.052
			c3.957,4.688,6.346,10.743,6.346,17.358C83.602,90.541,71.543,102.601,56.667,102.601z M62.572,109.812
			c0.034,0.264-0.147,0.546-0.441,0.594l-1.514,0.203c-0.214,0.029-0.536-0.112-0.582-0.458l-0.629-4.696
			c-0.047-0.343,0.225-0.565,0.441-0.595l1.512-0.203c0.346-0.032,0.557,0.258,0.582,0.457L62.572,109.812z M57.523,105.034
			l-1.075,5.787l-0.513-0.009l-0.937-5.814l0.657,0.011c0,0,0.468,3.079,0.573,3.782c0.121-0.7,0.645-3.765,0.645-3.765
			L57.523,105.034z M53.112,104.808l-0.762,5.749l-0.641-0.084l0.761-5.752L53.112,104.808z M48.188,104.432l0.149-0.592
			l2.307,0.583l-0.149,0.594c0,0-0.722-0.185-0.839-0.213c-0.035,0.136-1.274,5.031-1.274,5.031l-0.626-0.157
			c0,0,1.239-4.897,1.273-5.035C48.91,104.615,48.188,104.432,48.188,104.432z M42.931,108.025l-0.6-0.245l2.206-5.366l1.729,0.711
			c0.326,0.135,0.447,0.411,0.318,0.722l-0.726,1.767c-0.137,0.336-0.471,0.404-0.729,0.298c0,0-0.176-0.071-0.282-0.115
			c-0.006,0.19-0.116,2.971-0.116,2.971l-0.655-0.27l0.135-3.594C43.645,106.291,42.931,108.025,42.931,108.025z M31.579,99.373
			l-0.458,0.403l-1.267-1.434l4.35-3.838l1.252,1.42l-0.457,0.4c0,0-0.739-0.834-0.823-0.932c-0.097,0.085-1.356,1.195-1.453,1.282
			c0.084,0.095,0.78,0.884,0.78,0.884l-0.463,0.406c0,0-0.695-0.787-0.779-0.882c-0.098,0.085-1.422,1.254-1.52,1.341
			C30.825,98.52,31.579,99.373,31.579,99.373z M22.653,70.509c-0.016,0.119-0.135,0.964-0.152,1.082
			c0.13,0.019,1.489,0.208,1.489,0.208l-0.089,0.642l-1.561-0.219c-0.294-0.041-0.499-0.306-0.461-0.587l0.184-1.319
			c0.042-0.303,0.304-0.501,0.608-0.458l4.68,0.655c0.27,0.022,0.498,0.298,0.461,0.586l-0.188,1.342
			c-0.04,0.277-0.317,0.477-0.605,0.437l-1.252-0.177l0.089-0.641c0,0,1.055,0.15,1.181,0.167c0.017-0.118,0.135-0.965,0.152-1.082
			C27.054,71.126,22.789,70.529,22.653,70.509z M27.444,75.028v0.647c0,0-5.05,0.011-5.189,0.011c0,0.131,0.002,1.408,0.002,1.408
			l-0.61,0.001l-0.005-2.055L27.444,75.028z M22.376,79.677l5.206-0.774l0.095,0.64c0,0-4.997,0.74-5.135,0.762
			c0.018,0.119,0.155,1.05,0.173,1.168c0.138-0.019,5.135-0.762,5.135-0.762l0.094,0.642l-5.205,0.771
			c-0.313,0.047-0.563-0.131-0.608-0.431l-0.212-1.429C21.875,79.959,22.058,79.723,22.376,79.677z M28.447,83.495l0.529,1.687
			c0.099,0.307-0.046,0.596-0.346,0.69l-1.52,0.476c-0.13,0.042-0.308,0.096-0.448-0.018c0,0-0.203-0.163-0.308-0.247
			c-0.03,0.117-0.074,0.287-0.074,0.287c-0.051,0.206-0.169,0.329-0.367,0.393l-1.767,0.554c-0.318,0.103-0.596-0.054-0.702-0.389
			l-0.531-1.696L28.447,83.495z M31.536,90.761l0.788,1.208c0.33,0.507,0.116,1.035-0.252,1.276l-3.337,2.178
			c-0.436,0.283-0.928,0.174-1.27-0.283l-0.789-1.206L31.536,90.761z M36.891,97.338l1.363,1.158
			c0.284,0.239,0.319,0.558,0.108,0.809l-1.613,1.895c-0.215,0.253-0.529,0.276-0.792,0.054c0,0-0.8-0.681-0.897-0.764
			c-0.088,0.102-1.436,1.686-1.436,1.686l-0.492-0.419L36.891,97.338z M37.641,104.6l2.468-4.049
			c0.115-0.182,0.434-0.356,0.718-0.183l1.302,0.794c0.185,0.111,0.34,0.427,0.165,0.722l-2.468,4.046
			c-0.156,0.257-0.48,0.324-0.717,0.185l-1.302-0.794C37.62,105.207,37.46,104.894,37.641,104.6z M39.246,67.901
			c0.42,1.302,1.027,2.033,1.027,2.033s2.728-1.609,2.728-5.957c0-2.578-0.61-5.017-1.534-7.337
			c0.568-0.455,1.156-0.885,1.765-1.288v-1.898c-0.84,0.509-1.645,1.069-2.419,1.667c-0.141-0.303-0.287-0.605-0.436-0.904
			c0.908-0.69,1.862-1.322,2.854-1.895V48.35c0-2.903-1.825-4.851-1.825-4.851h5.92l9.34,3.64l9.34-3.64h5.919
			c0,0-1.824,1.947-1.824,4.851v3.972c0.992,0.573,1.948,1.205,2.856,1.895c-0.149,0.299-0.296,0.601-0.437,0.904
			c-0.774-0.598-1.58-1.158-2.42-1.667v1.898c0.608,0.403,1.196,0.833,1.765,1.288c-0.925,2.32-1.533,4.759-1.533,7.337
			c0,4.347,2.727,5.957,2.727,5.957s0.608-0.73,1.028-2.033c0.294-0.911,0.497-2.097,0.332-3.52c0,0,1.426-0.423,1.519-2.417
			c0.2-0.104,0.392-0.243,0.569-0.416c1.062,1.491,1.965,3.106,2.675,4.824c1.184,2.863,1.839,6,1.839,9.294
			c0,3.29-0.655,6.429-1.839,9.293c-1.198,2.897-2.939,5.512-5.095,7.72c-1.455,1.487-3.096,2.793-4.89,3.871
			c-1.588,0.957-3.297,1.734-5.094,2.31c-1.568,0.503-3.203,0.853-4.891,1.029c-0.836,0.086-1.687,0.133-2.547,0.133
			c-0.86,0-1.71-0.047-2.547-0.135c-1.688-0.175-3.322-0.524-4.89-1.027c-1.799-0.575-3.505-1.353-5.095-2.31
			c-1.794-1.078-3.436-2.384-4.889-3.871c-2.157-2.208-3.898-4.822-5.095-7.72c-1.183-2.864-1.839-6.003-1.839-9.293
			c0-3.293,0.657-6.431,1.839-9.294c0.71-1.718,1.611-3.333,2.675-4.824c0.178,0.173,0.37,0.312,0.569,0.416
			c0.093,1.995,1.518,2.417,1.518,2.417C38.75,65.804,38.952,66.99,39.246,67.901z M33.689,37.915c0,1.97,0.989,3.349,1.849,4.18
			c-0.556,0.351-1.102,0.715-1.639,1.093c-1.029-1.973-1.718-3.838-1.718-5.611c0-2.89,2.349-6.109,5.718-6.109
			c2.227,0,3.954,1.53,3.954,2.845c0,0.886-0.511,2.292-1.882,2.292c-2.134,0-1.726-2.292-1.097-3.545
			C38.873,33.06,33.689,33.144,33.689,37.915z M36.226,43.725c0.043,0.33,0.111,0.633,0.208,0.903
			c-0.419,0.274-0.831,0.558-1.238,0.846c-0.153-0.251-0.3-0.503-0.445-0.752C35.232,44.378,35.726,44.046,36.226,43.725z
			 M45.317,39.466l0.843,0.663c-0.505,0.149-1.006,0.311-1.503,0.481c0.223-0.33,0.416-0.699,0.567-1.113
			C45.256,39.488,45.287,39.476,45.317,39.466z M68.108,39.498c0.152,0.414,0.346,0.783,0.567,1.113
			c-0.497-0.17-0.997-0.332-1.504-0.481l0.844-0.663C68.046,39.476,68.077,39.488,68.108,39.498z M73.363,36.605
			c-1.369,0-1.88-1.406-1.88-2.292c0-1.315,1.724-2.845,3.952-2.845c3.371,0,5.718,3.22,5.718,6.109
			c0,1.773-0.688,3.638-1.718,5.611c-0.537-0.378-1.083-0.742-1.641-1.093c0.86-0.831,1.85-2.21,1.85-4.18
			c0-4.771-5.184-4.855-5.184-4.855C75.089,34.312,75.498,36.605,73.363,36.605z M78.585,44.722c-0.146,0.249-0.295,0.5-0.447,0.752
			c-0.406-0.289-0.818-0.573-1.237-0.846c0.096-0.27,0.165-0.573,0.206-0.903C77.608,44.046,78.1,44.378,78.585,44.722z
			 M65.186,42.514l-8.519,3.438l-8.521-3.438c1.309-0.696,3.07-0.163,3.07-0.163c2.905,1.433,5.451,1.596,5.451,1.596
			s2.545-0.163,5.45-1.596C62.117,42.351,63.877,41.817,65.186,42.514z M63.835,38.423l0.002,0.002l0.004-0.001
			c0.563,0.108,1.122,0.23,1.677,0.363c0.092,0.381,0.236,0.712,0.392,0.985c-0.887-0.228-1.791-0.413-2.703-0.576
			c-0.271-0.444-0.575-0.784-0.849-1.032C62.855,38.239,63.346,38.33,63.835,38.423z M61.977,26.329
			c-0.512-0.634-1.145-1.126-1.145-1.126c1.433-2.292,3.664-2.292,3.664-2.292C64.372,24.999,61.977,26.329,61.977,26.329z
			 M64.516,22.134c0,0-2.886,0.062-4.42,2.599c0,0-1.351-0.533-2.987-0.717c0,0,0.715-3.456,3.805-5.811
			C60.914,18.205,64.413,19.086,64.516,22.134z M56.27,23.976c0,0-1.454,0.184-2.128,0.492c0,0-0.246-1.637,0.47-3.765l3.745-1.167
			C58.357,19.536,56.965,21.152,56.27,23.976z M51.179,20.928c0.561-2.189,2.061-4.108,5.798-5.432v-3.778
			c0,0,3.536,0.665,3.536,2.458v2.352c0,1.458-1.245,2.131-1.917,2.287L51.179,20.928z M56.667,25.163
			c4.379,0,5.533,3.724,5.533,3.724c-2.865-0.122-5.533-2.372-5.533-2.372s-2.669,2.25-5.533,2.372
			C51.133,28.886,52.288,25.163,56.667,25.163z M51.092,32.323c-0.409-0.778-0.245-2.249-0.245-2.249
			c3.559-0.247,5.819-2.292,5.819-2.292s2.259,2.045,5.819,2.292c0,0,0.163,1.471-0.245,2.249c0,0-2.383-0.532-5.574,0.983
			C53.474,31.792,51.092,32.323,51.092,32.323z M51.83,33.348c0,0,3.159-0.123,4.837,1.473c1.678-1.596,4.836-1.473,4.836-1.473
			s-1.03,2.373-4.836,3.069C52.86,35.721,51.83,33.348,51.83,33.348z M60.521,37.357c0,0-2.422,0.818-3.854,1.883
			c-1.433-1.064-3.856-1.883-3.856-1.883c-0.204-0.613,0.491-1.104,0.491-1.104c1.597,1.063,3.364,1.104,3.364,1.104
			s1.767-0.04,3.364-1.104C60.031,36.253,60.727,36.744,60.521,37.357z M52.525,38.299c1.882,0.408,4.142,2.209,4.142,2.209
			s2.259-1.801,4.141-2.209c0,0,1.679,0.981,2.006,2.618c0,0-3.527,1.965-6.146,1.965c-2.62,0-6.148-1.965-6.148-1.965
			C50.848,39.28,52.525,38.299,52.525,38.299z M49.496,38.425l0.001-0.002c0.49-0.093,0.98-0.185,1.477-0.259
			c-0.272,0.249-0.577,0.588-0.848,1.032c-0.912,0.163-1.816,0.348-2.703,0.576c0.155-0.273,0.3-0.604,0.393-0.985
			c0.555-0.133,1.113-0.255,1.677-0.363L49.496,38.425z M28.988,37.29c0-4.359,2.903-8.824,8.217-8.824
			c4.836,0,7.252,2.802,11.494,2.615c-0.408,1.569-1.627,1.88-1.627,1.88c1.977,1.538,1.63,3.944,1.63,3.944l-2.11-1.056
			c0.69,2.448,0.007,3.347,0.007,3.347l-1.995-1.567c-0.314,4.708-5.287,4.453-5.287,4.453c-1.35,1.162-0.081,3.801-0.081,3.801
			c-2.698-0.533-1.976-3.718-1.976-3.718s-2.567-1.401-2.567-4.25c0-2.982,2.755-3.655,2.755-3.655
			c-0.44,1.413,0.451,3.349,2.522,3.349c1.884,0,2.887-1.727,2.887-3.296c0-1.978-2.259-3.85-4.958-3.85
			c-3.922,0-6.722,3.63-6.722,7.114c0,7.743,10.82,15.567,10.82,26.401c0,3.075-1.487,4.401-1.487,4.401s-1.08-1.797-0.453-4.831
			c0,0-1.871,0.366-1.667-2.318c0,0-1.375-0.021-1.375-1.872c0-1.171,0.226-1.345,0.226-3.018
			C37.24,50.969,28.988,44.112,28.988,37.29z M56.667,113.593c-20.946,0-37.927-16.982-37.927-37.927
			c0-11.417,5.05-21.646,13.032-28.6c0.158,0.249,0.316,0.496,0.476,0.742c-7.742,6.792-12.635,16.75-12.635,27.858
			c0,20.463,16.59,37.056,37.055,37.056c20.466,0,37.056-16.593,37.056-37.056c0-11.108-4.895-21.067-12.636-27.858
			c0.159-0.246,0.318-0.493,0.476-0.742c7.981,6.954,13.031,17.184,13.031,28.6C94.593,96.61,77.613,113.593,56.667,113.593z"/>
		<path style="fill:#002D62;" d="M37.825,98.935c-0.089-0.078-0.746-0.637-0.837-0.713c-0.086,0.101-1.448,1.701-1.533,1.803
			c0.091,0.076,0.747,0.636,0.838,0.713C36.378,100.637,37.742,99.036,37.825,98.935z"/>
		<path style="fill:#002D62;" d="M28.469,94.824l3.175-2.074c0.192-0.123,0.233-0.351,0.105-0.546c0,0-0.307-0.47-0.37-0.566
			c-0.114,0.074-3.721,2.429-3.836,2.505c0.089,0.135,0.353,0.54,0.353,0.54C28.039,94.901,28.27,94.955,28.469,94.824z"/>
		<path style="fill:#002D62;" d="M26.894,85.739c0.063-0.022,1.357-0.428,1.48-0.467c-0.035-0.112-0.272-0.865-0.308-0.979
			c-0.123,0.04-1.663,0.523-1.785,0.561c0.033,0.108,0.166,0.528,0.178,0.566C26.492,85.445,26.844,85.701,26.894,85.739z"/>
		<path style="fill:#002D62;" d="M87.5,72.672c0.352,0.04,2.132,0.236,2.282,0.252c-0.014-0.137-0.079-0.788-0.093-0.923
			C89.547,72.046,87.837,72.571,87.5,72.672z"/>
		<path style="fill:#002D62;" d="M25.717,86.146c0.019-0.062,0.151-0.528,0.162-0.564c-0.011-0.034-0.139-0.441-0.172-0.547
			c-0.125,0.039-1.901,0.597-2.025,0.637c0.035,0.113,0.283,0.901,0.318,1.015C24.124,86.646,25.649,86.167,25.717,86.146z"/>
		<path style="fill:#002D62;" d="M83.51,95.393c0.081-0.112,0.458-0.645,0.536-0.756c-0.137-0.062-1.767-0.787-2.092-0.934
			C82.195,93.964,83.407,95.281,83.51,95.393z"/>
		<path style="fill:#002D62;" d="M60.058,105.448c0.018,0.136,0.592,4.403,0.609,4.54c0.122-0.017,1.131-0.152,1.251-0.169
			c-0.02-0.137-0.592-4.404-0.608-4.541C61.188,105.296,60.179,105.432,60.058,105.448z"/>
		<path style="fill:#002D62;" d="M41.699,101.616c-0.104-0.065-0.974-0.595-1.079-0.66c-0.071,0.117-2.313,3.794-2.385,3.912
			c0.104,0.062,0.974,0.593,1.078,0.657C39.384,105.409,41.627,101.73,41.699,101.616z"/>
		<path style="fill:#002D62;" d="M45.962,103.658c-0.111-0.045-0.947-0.387-1.059-0.435c-0.021,0.05-0.321,0.783-0.681,1.659
			c0.301,0.122,0.971,0.395,1.06,0.432C45.331,105.196,45.913,103.777,45.962,103.658z"/>
		<path style="fill:#002D62;" d="M56.667,77.542c0,0,9.187-3.659,9.187-8.992V47.501H47.479V68.55
			C47.479,73.883,56.667,77.542,56.667,77.542z M56.667,73.747c-1.297,0-2.087-0.664-2.087-0.664
			c1.432-1.925,1.514-3.847,1.514-3.847v-9.29h1.146v9.29c0,0,0.081,1.922,1.515,3.847C58.754,73.083,57.963,73.747,56.667,73.747z
			 M63.255,63.71c0,0,0.162,0.185,0.144,0.328c0,0-0.328,0-0.062,0.512c0,0-0.37,0.02-0.247,0.388c0,0-0.43-0.04-0.368,0.327
			c0,0-0.266,0.186-0.491,0c0.88,2.15,1.557,2.068,1.557,2.068c0.714-0.92,0.449-2.639,0.449-2.639
			c-0.225-1.392,0.286-2.211,0.286-2.211c-0.449-1.002,0.511-1.37,0.511-1.37c0.369,0.858-0.142,1.453-0.142,1.453
			c-0.738,0.838-0.369,2.004-0.369,2.004c0.635,2.15-0.246,3.335-0.246,3.335c0.286,1.022-0.327,1.637-0.327,1.637
			c0.39,0.349,0.266,0.799,0.266,0.799c-0.02,0.02-1.679,1.718-1.679,1.718h-1.531c0.183-0.512,0.713-0.43,0.713-0.43
			c0.924-0.042,0.924-0.49,0.924-0.49c0.061-0.513,0.184-0.983,0.184-0.983c-0.717-0.45-0.575-1.002-0.575-1.002
			c-0.878,0-1.431,0.428-1.431,0.428c-0.654,0.737-1.207,0.614-1.207,0.614l-2.168-1.452v-0.49h0.266l1.309,1.022
			c0.409,0.347,0.861-0.04,0.861-0.04l1.473-0.962c-1.291-0.634-1.229-1.638-1.229-1.638h-0.858c-0.982-1.554-1.8-1.492-1.8-1.492
			v-0.962h0.203l1.27,1.392c0.47,0.388,1.124-0.164,1.124-0.164l-0.634-0.082l-0.961-1.167c-0.491-0.512-1.023-0.613-1.023-0.613
			V62.34h0.245c1.433,2.845,2.559,2.353,2.559,2.353c0.368-0.554-0.49-0.92-0.49-0.92l0.061-0.389c0.982,0.45,0.92-0.369,0.92-0.369
			c-0.163-0.941-1.125-0.062-1.125-0.062l-0.246-0.654l2.864-1.105c0,0,0.062,0.594,0.677,0.88c0.613,0.287,0.491,1.207,0.491,1.207
			S63.111,63.364,63.255,63.71z M56.667,50.236c3.62,0,6.556,2.111,6.556,4.713c0,2.604-2.936,4.714-6.556,4.714
			c-3.621,0-6.555-2.111-6.555-4.714C50.111,52.347,53.046,50.236,56.667,50.236z M49.383,69.543c0,0-0.614-0.615-0.328-1.637
			c0,0-0.879-1.186-0.246-3.335c0,0,0.369-1.166-0.368-2.004c0,0-0.512-0.595-0.143-1.453c0,0,0.96,0.368,0.51,1.37
			c0,0,0.512,0.819,0.286,2.211c0,0-0.265,1.719,0.45,2.639c0,0,0.676,0.083,1.556-2.068c-0.226,0.186-0.492,0-0.492,0
			c0.062-0.367-0.368-0.327-0.368-0.327c0.124-0.368-0.246-0.388-0.246-0.388c0.267-0.512-0.06-0.512-0.06-0.512
			c-0.021-0.144,0.143-0.328,0.143-0.328c0.143-0.347-0.143-0.43-0.143-0.43s-0.124-0.92,0.491-1.207
			c0.613-0.286,0.675-0.88,0.675-0.88l2.864,1.105l-0.246,0.654c0,0-0.962-0.879-1.126,0.062c0,0-0.062,0.819,0.921,0.369
			l0.062,0.389c0,0-0.859,0.367-0.491,0.92c0,0,1.125,0.492,2.558-2.353h0.246v1.208c0,0-0.532,0.101-1.023,0.613l-0.962,1.167
			l-0.634,0.082c0,0,0.655,0.552,1.126,0.164l1.268-1.392h0.205v0.962c0,0-0.818-0.062-1.8,1.492h-0.859
			c0,0,0.061,1.004-1.228,1.638l1.473,0.962c0,0,0.45,0.387,0.859,0.04l1.31-1.022h0.266v0.49l-2.168,1.452
			c0,0-0.553,0.124-1.207-0.614c0,0-0.554-0.428-1.433-0.428c0,0,0.143,0.552-0.573,1.002c0,0,0.123,0.47,0.183,0.983
			c0,0,0,0.448,0.922,0.49c0,0,0.531-0.082,0.716,0.43h-1.534c0,0-1.658-1.698-1.679-1.718
			C49.116,70.342,48.994,69.891,49.383,69.543z"/>
		<polygon style="fill:#002D62;" points="85.606,107.203 86.543,107.203 86.543,110.029 86.88,110.029 86.88,107.203 
			87.865,107.203 87.865,106.866 85.606,106.866 		"/>
		<polygon style="fill:#002D62;" points="89.673,109.439 88.863,106.866 88.319,106.866 88.319,110.029 88.657,110.029 
			88.657,107.34 89.504,110.029 89.843,110.029 90.691,107.34 90.691,110.029 91.029,110.029 91.029,106.866 90.487,106.866 		"/>
	</g>
</g>
</svg>
