<svg xmlns="http://www.w3.org/2000/svg" viewBox="0 0 112.42 116.43"><defs><style>.cls-1{fill:#0b1f41;}.cls-2{fill:#fff;fill-rule:evenodd;}.cls-3{fill:#263b80;}.cls-4{fill:#f05323;}</style></defs><title>CIN</title><g id="Layer_2" data-name="Layer 2"><g id="Layer_1-2" data-name="Layer 1"><path class="cls-1" d="M100.18,8.24c3.25,9.24,10.35,34.26,10,56.46C98,84.84,77.28,102.57,56.21,113.88c-21.06-11.31-41.8-29-53.93-49.18C1.89,42.5,9,17.48,12.25,8.24,40.19.34,72.47.34,100.18,8.24ZM0,65.33C13,87.76,37.82,107,56.21,116.43c18.4-9.47,43.26-28.67,56.19-51.1.52-22.63-6.84-49.08-10.49-58.95-31.57-8.51-61.16-8.51-91.39,0C6.86,16.25-.5,42.7,0,65.33Z"/><path class="cls-2" d="M100.18,8.24c3.25,9.24,10.35,34.26,10,56.46C98,84.84,77.28,102.57,56.21,113.88c-21.06-11.31-41.8-29-53.93-49.18C1.89,42.5,9,17.48,12.25,8.24,40.19.34,72.47.34,100.18,8.24Z"/><polygon class="cls-1" points="33.19 55.68 31 49.21 28.34 50.73 28.34 65.16 30.97 63.65 30.97 56.56 33.08 62.44 35.78 60.89 35.78 46.47 33.19 47.95 33.19 55.68"/><polygon class="cls-1" points="93.44 13.44 93.44 27.87 96.36 26.19 96.36 11.77 93.44 13.44"/><path class="cls-1" d="M42.25,42.41c-2.14,1.22-3.57,3.56-3.56,5v8.07c0,1.47,1.41,2.91,3.63,1.85,3.55-1.7,3.47-3.52,3.46-4.95v-2L42.87,52v2l-1.27.73V45.89l1.27-.74V48l2.91-1.65v-3C45.77,41.94,44.35,41.2,42.25,42.41Z"/><path class="cls-1" d="M16,57.43c-2.14,1.22-3.57,3.57-3.56,5V70.5c0,1.47,1.41,2.91,3.63,1.85,3.55-1.7,3.47-3.51,3.46-4.94v-2l-2.9,1.66v2l-1.28.74V60.91l1.28-.73V63l2.9-1.66v-3C19.55,57,18.12,56.23,16,57.43Z"/><polygon class="cls-1" points="48.51 53.62 51.43 51.94 51.43 37.51 48.51 39.19 48.51 53.62"/><polygon class="cls-1" points="22.28 68.63 25.2 66.96 25.2 52.53 22.28 54.2 22.28 68.63"/><polygon class="cls-1" points="83.73 21.76 85.74 20.61 85.74 32.29 88.66 30.61 88.66 18.94 90.66 17.8 90.66 15.03 83.73 19 83.73 21.76"/><polygon class="cls-1" points="59.42 40.67 57.23 34.19 54.57 35.71 54.57 50.14 57.2 48.63 57.2 41.54 59.31 47.42 62.01 45.88 62.01 31.45 59.42 32.94 59.42 40.67"/><polygon class="cls-1" points="69.95 34.63 67.76 28.15 65.1 29.67 65.1 44.1 67.73 42.59 67.73 35.5 69.84 41.38 72.54 39.84 72.54 25.41 69.95 26.9 69.95 34.63"/><path class="cls-1" d="M77.13,22.81,75.25,38.28l2.86-1.64.2-2.56,1.67-1,.29,2.32,2.81-1.61L80.86,20.64Zm1.23,8.65.78-5.61.54,4.79Z"/><path class="cls-3" d="M86.71,10,7.37,55.44C8.5,38.82,13,21.56,16,12.24,40.41,5.79,65.45,6,86.71,10Zm-58,9.17V16.66h-6.4V33.24l3.25-1.88V25h1.95V22.39H25.53V19.17ZM35,26.65v1.58L33.65,29V19.54L35,18.75v3.61l3.21-1.84V19.35c0-1.43-1.53-3-3.89-3s-4,1.52-4,3v9.06c0,1.43,1.61,2.95,4,2.95s3.89-1.52,3.89-2.95V24.8Z"/><path class="cls-4" d="M56.21,108.36C74,98.07,93,83.12,105.32,63.31c.05-11.21-1.85-23.19-4.15-33.44L17.86,77.58C27.64,88.65,38.54,98.07,56.21,108.36ZM75.74,64.92A5.89,5.89,0,0,0,78,63.79a5.38,5.38,0,0,1-.64,2.78A7.64,7.64,0,0,0,75.74,64.92ZM65.65,95.19l-1-.71a1.25,1.25,0,0,1-.42,1.23,4.39,4.39,0,0,0-.94-1.08c0,.71-1,1.31-1,1.31a2.46,2.46,0,0,0-.64-1.2l-1.33-1.27-3.65-4.89c4-.23,6.08-4.15,6.08-4.15,5.19,4.94-1.25,6.06-1.25,6.06l.39,1.76S66.28,91.92,65.65,95.19ZM47.79,85.6,48,87.81c-1.49,1-5.41,3.23-8.53,1.7-2.34-1.15-2.86-4.45-1.1-7.25,2-3.25,5.33-3.32,7.14-2.13a5.54,5.54,0,0,1-2.61,3.54l.48-1.93A2.63,2.63,0,0,0,40.07,83c-1.1,1.8-.79,3.88.7,4.63C43.24,88.91,47.79,85.6,47.79,85.6ZM87.2,76.51s1.58,0,1.69,1.38a1.79,1.79,0,0,0-1.38-.12,8.94,8.94,0,0,1-4,.45l-3.36,3.59a14.32,14.32,0,0,0,.25,1.62,24.85,24.85,0,0,1-5.7-3l1.19,2.12S75,84.9,70.07,88l-.2-2.11S65,82.85,62,83.46a8.11,8.11,0,0,1-7.79,4.48l-1.38,4.92s4.65.63,3.73,4.36l-1.28-.76a1.52,1.52,0,0,1-.73,1.45l-1-1.43c.39,1.18-1.53,1.66-1.53,1.66a4.53,4.53,0,0,0-.49-1.79L50,94.5,48.6,82.87l1.77.74a21,21,0,0,0,5.86-8s6,3,10.29,2.57c.9-.13,5.6-3.41,8.34-8.68L77,69.49A15.9,15.9,0,0,1,79.15,75l-1.54-.28a12.64,12.64,0,0,1,.88,2.53l4-2.3c2.38-1.4,5.77-1.66,6.27-.25,0,0-1.11-.09-1.38.42,0,0,1.51-.11,1.66,1.15C89,76.26,87.73,75.89,87.2,76.51ZM85.51,65a2.6,2.6,0,0,1-.4-1.12,2.61,2.61,0,0,1,1.57-.39v-.1l-1.82-1V61.12l1.23.75V47l1.28-1.29,1.28,1.37V61.86l1.12-.68v1.19L88,63.46v.08a2.58,2.58,0,0,1,1.57.69,2.8,2.8,0,0,1-.55,1,5.8,5.8,0,0,1-.22,2.38c-.29.08-.56.16-.8.2v.82a1.76,1.76,0,0,1,.14.67,2.06,2.06,0,0,1-.76.69,2.08,2.08,0,0,1-.75-.69,1.89,1.89,0,0,1,.13-.67v-.82a2.07,2.07,0,0,1-.84-.22l-3.06,5.52-.63-1.44-1.9,3a16.22,16.22,0,0,0-2.09-5.48ZM52.88,71.62C49.27,73.28,45.09,75.56,43,74l8.27-4.74-.36-.7c-4.75,2.59-10.74,5.58-12.76,3.94l15.63-8.93c1.5,3.88,3.79,9.39,11.61,11.25l0,2.34c-4.24,0-9.91-3.11-9.91-3.11-2.61,1.42-6.19,2-7.36,1.16l5.24-3C53.23,72,53.05,71.83,52.88,71.62ZM75.23,56.57v1.22h-8V56.58h0a3.67,3.67,0,0,1-.18-1,2.55,2.55,0,0,1,1-.87,2.65,2.65,0,0,1,1,.87,3.67,3.67,0,0,1-.18,1h1.1a5.83,5.83,0,0,1-.25-1.49,4.23,4.23,0,0,1,1.56-1.43,4.24,4.24,0,0,1,1.57,1.42,5.82,5.82,0,0,1-.24,1.49h1.09a3.44,3.44,0,0,1-.17-1,2.56,2.56,0,0,1,1-.87,2.55,2.55,0,0,1,1,.87A3.44,3.44,0,0,1,75.23,56.57Zm-16,9.67,2.54-1.45a5,5,0,0,1-2.14-1.19l6.77-3.9-.79-1.08H76l.64,1.09a6.75,6.75,0,0,1,2.72,1.38l-1.6.25.79.9a7.19,7.19,0,0,1-3.65,2A15.88,15.88,0,0,0,72.66,63l2.51-1.43a20.94,20.94,0,0,0-4.84-1.85,20.41,20.41,0,0,1,2.61,1.93L70.76,62.9a14.48,14.48,0,0,1,5.93,5.53l-2.53.06A26.93,26.93,0,0,1,66.55,77V73.92a11.3,11.3,0,0,1-4.78-1.67l1.7-1a7.18,7.18,0,0,1-3.69-2.12L62,67.85A5.5,5.5,0,0,1,59.19,66.24Zm16.19-6.81.69,1a3,3,0,0,1-2.47-1.09Z"/></g></g></svg>