<?xml version="1.0" encoding="iso-8859-1"?>
<!-- Generator: Adobe Illustrator 22.1.0, SVG Export Plug-In . SVG Version: 6.00 Build 0)  -->
<!DOCTYPE svg PUBLIC "-//W3C//DTD SVG 1.1//EN" "http://www.w3.org/Graphics/SVG/1.1/DTD/svg11.dtd">
<svg version="1.1" id="Layer_1" xmlns="http://www.w3.org/2000/svg" xmlns:xlink="http://www.w3.org/1999/xlink" x="0px" y="0px"
	 viewBox="0 0 113.334 143.333" style="enable-background:new 0 0 113.334 143.333;" xml:space="preserve">
<g>
	<g>
		<polygon style="fill:#FFFFFF;" points="74.123,35.349 56.666,21.625 39.21,35.349 56.666,23.498 		"/>
		<polygon style="fill:#FFFFFF;" points="47.28,100.547 56.666,111.817 66.052,100.547 56.666,109.296 		"/>
		<path style="fill:#FFFFFF;" d="M65.435,71.214l-8.769-9.029l-8.769,9.029l-1.6-1.411l-7.785,8.033
			c0.373,0.62,0.75,1.233,1.132,1.83l7.378-8.72l1.49,1.51l8.154-9.656l8.154,9.656l1.491-1.51l7.376,8.721
			c0.384-0.598,0.76-1.21,1.133-1.831l-7.786-8.033L65.435,71.214z"/>
		<path style="fill:#FFFFFF;" d="M56.666,82.722c3.029,0,5.508-2.341,5.738-5.311l-0.347-0.195l0.262-1.314
			c-0.354-1.904-1.637-3.482-3.368-4.23l-2.285,1.658l-2.284-1.658c-1.733,0.748-3.015,2.328-3.369,4.232l0.261,1.312l-0.346,0.194
			C51.158,80.381,53.637,82.722,56.666,82.722z M56.666,76.573l2.285,1.66l-0.874,2.686h-2.822l-0.873-2.686L56.666,76.573z"/>
		<path style="fill:#FFFFFF;" d="M40.589,54.677l1.734-0.507c0.928-0.271,1.687-1.253,1.687-2.182v-8.03
			c0-0.928-0.759-1.465-1.687-1.193l-1.734,0.508c-0.928,0.271-1.687,1.254-1.687,2.182v8.03
			C38.903,54.413,39.662,54.949,40.589,54.677z M40.425,45.248c0-0.296,0.243-0.611,0.539-0.698l0.983-0.289
			c0.297-0.086,0.54,0.086,0.54,0.383v7.551c0,0.296-0.243,0.611-0.54,0.698l-0.983,0.287c-0.297,0.087-0.539-0.084-0.539-0.381
			V45.248z"/>
		<path style="fill:#FFFFFF;" d="M55.082,50.525v-8.031c0-0.927-0.759-1.629-1.687-1.559l-1.734,0.132
			c-0.928,0.07-1.687,0.887-1.687,1.814v8.03c0,0.928,0.759,1.63,1.687,1.56l1.734-0.132C54.323,52.27,55.082,51.453,55.082,50.525z
			 M52.035,51.058c-0.296,0.022-0.54-0.203-0.54-0.499v-7.552c0-0.296,0.244-0.558,0.54-0.581l0.983-0.075
			c0.297-0.023,0.54,0.202,0.54,0.498v7.552c0,0.297-0.243,0.559-0.54,0.581L52.035,51.058z"/>
		<path style="fill:#FFFFFF;" d="M78.721,45.535l-1.734-0.74c-0.928-0.397-1.687,0.038-1.687,0.966v8.03
			c0,0.927,0.759,2.011,1.687,2.408l1.734,0.741c0.928,0.396,1.687-0.039,1.687-0.966v-8.031
			C80.408,47.015,79.649,45.931,78.721,45.535z M78.886,55.083c0,0.297-0.242,0.436-0.54,0.309l-0.984-0.42
			c-0.297-0.127-0.54-0.475-0.54-0.771v-7.552c0-0.296,0.243-0.435,0.54-0.309l0.984,0.42c0.298,0.127,0.54,0.474,0.54,0.771V55.083
			z"/>
		<path style="fill:#FFFFFF;" d="M37.554,45.948c0-0.928-0.759-1.358-1.687-0.957l-1.255,0.543c-0.928,0.402-1.687,1.49-1.687,2.417
			v8.03c0,0.928,0.759,1.359,1.687,0.957l1.255-0.543c0.928-0.402,1.687-1.49,1.687-2.417v-0.767l0.229-0.244v-0.156l-1.979,0.856
			v0.156l0.229,0.046v0.528c0,0.296-0.243,0.644-0.54,0.772l-0.506,0.22c-0.297,0.127-0.54-0.01-0.54-0.307v-7.552
			c0-0.296,0.243-0.645,0.54-0.773l0.506-0.219c0.296-0.128,0.54,0.01,0.54,0.306v0.982l-0.229,0.244v0.157l1.979-0.856v-0.157
			l-0.229-0.046V45.948z"/>
		<polygon style="fill:#FFFFFF;" points="48.853,51.19 48.697,51.218 48.551,51.472 46.881,51.775 46.881,42.059 47.11,41.873 
			47.11,41.715 45.131,42.074 45.131,42.23 45.359,42.335 45.359,53.135 45.131,53.322 45.131,53.479 48.853,52.804 		"/>
		<path style="fill:#FFFFFF;" d="M74.18,53.366v-8.031c0-0.928-0.759-1.89-1.687-2.14l-3.649-0.978v0.156l0.228,0.207v10.801
			l-0.228,0.083v0.156l3.649,0.978C73.421,54.849,74.18,54.292,74.18,53.366z M72.118,53.113l-1.523-0.409v-8.631l1.523,0.408
			c0.297,0.08,0.539,0.388,0.539,0.685v7.551C72.657,53.015,72.415,53.192,72.118,53.113z"/>
		<path style="fill:#FFFFFF;" d="M61.516,52.301l-0.338-0.229l-1.256-4.293c0.66-0.203,1.137-0.813,1.137-1.549v-3.508
			c0-0.928-0.759-1.718-1.687-1.754l-3.171-0.128v0.157l0.229,0.155v10.8l-0.229,0.137v0.156l1.979,0.019v-0.157l-0.229-0.154v-4.16
			l0.477,0.02l1.32,4.517l1.768,0.129V52.301z M59.537,45.931c0,0.296-0.242,0.529-0.539,0.518l-1.046-0.042v-4.109l1.046,0.042
			c0.297,0.012,0.539,0.264,0.539,0.562V45.931z"/>
		<path style="fill:#FFFFFF;" d="M65.745,52.846v0.157l1.98,0.374V53.22l-0.229-0.182v-9.416c0-0.928-0.76-1.808-1.688-1.955
			l-1.256-0.2c-0.928-0.146-1.687,0.492-1.687,1.42v9.416l-0.229,0.109v0.157l1.979,0.254v-0.157l-0.229-0.182v-3.819l1.584,0.251
			v3.819L65.745,52.846z M64.387,47.28v-3.911c0-0.297,0.244-0.501,0.54-0.454l0.506,0.079c0.297,0.048,0.538,0.33,0.538,0.626
			v3.911L64.387,47.28z"/>
		<path style="fill:#FFFFFF;" d="M59.919,56.166v-0.079h-1.352v0.079c0.102,0,0.184,0.053,0.184,0.118v3.055
			c0,0.064-0.082,0.117-0.184,0.117v0.079h1.352v-0.079c-0.103,0-0.184-0.053-0.184-0.117v-3.055
			C59.736,56.219,59.817,56.166,59.919,56.166z"/>
		<path style="fill:#FFFFFF;" d="M61.706,59.456v0.079h2.216c0.953,0,1.725-0.58,1.725-1.724c0-1.144-0.771-1.724-1.725-1.724
			h-2.216v0.079c0.103,0,0.184,0.053,0.184,0.118v3.055C61.889,59.402,61.808,59.456,61.706,59.456z M62.874,56.86h0.838
			c0.525,0,0.95,0.256,0.95,0.951c0,0.695-0.425,0.951-0.95,0.951h-0.838V56.86z"/>
		<path style="fill:#FFFFFF;" d="M55.942,58.354c0.625,0,1.133-0.508,1.133-1.134c0-0.626-0.507-1.132-1.133-1.132h-2.466v0.079
			c0.102,0,0.185,0.053,0.185,0.118v3.055c0,0.064-0.083,0.117-0.185,0.117v0.079h1.352v-0.079c-0.102,0-0.184-0.053-0.184-0.117
			v-0.985H55.942z M54.644,56.86h1.088c0.198,0,0.359,0.162,0.359,0.359c0,0.199-0.161,0.36-0.359,0.36h-1.088V56.86z"/>
		<path style="fill:#FFFFFF;" d="M46.481,57.219c0-0.626-0.507-1.132-1.133-1.132h-2.642v0.079c0.102,0,0.184,0.053,0.184,0.118
			v3.055c0,0.064-0.081,0.117-0.184,0.117v0.079h1.351v-0.079c-0.102,0-0.184-0.053-0.184-0.117v-0.985h0.661l0.696,0.985
			c0.045,0.064,0.001,0.117-0.101,0.117v0.079h1.351v-0.079c-0.101,0-0.221-0.053-0.267-0.117l-0.704-0.997
			C46.059,58.262,46.481,57.79,46.481,57.219z M45.138,57.579h-1.264V56.86h1.264c0.198,0,0.359,0.162,0.359,0.359
			C45.497,57.418,45.335,57.579,45.138,57.579z"/>
		<path style="fill:#FFFFFF;" d="M50.824,59.456v0.079h1.193v-0.087c-0.073-0.018-0.136-0.06-0.155-0.109l-1.164-3.055
			c-0.025-0.065,0.037-0.118,0.138-0.118v-0.079h-1.83v0.079c0.102,0,0.164,0.053,0.14,0.118l-1.165,3.055
			c-0.019,0.049-0.082,0.091-0.155,0.109v0.087h1.193v-0.079c-0.102,0-0.164-0.053-0.14-0.117l0.22-0.577h1.644l0.219,0.577
			C50.987,59.402,50.925,59.456,50.824,59.456z M49.29,58.263l0.631-1.656l0.632,1.656H49.29z"/>
		<path style="fill:#FFFFFF;" d="M67.321,58.185l-0.484,1.167l0.08,0.02c0,0,0.06-0.085,0.13-0.085c0.202,0,0.505,0.281,1.768,0.281
			c0.865,0,1.813-0.225,1.813-1.167c0-1.461-2.642-0.816-2.642-1.335c0-0.237,0.414-0.341,0.683-0.341
			c0.927,0,1.452,0.234,1.37,0.411l0.079,0.039l0.45-0.916l-0.071-0.027c0,0-0.052,0.101-0.177,0.101s-0.855-0.278-1.651-0.278
			c-0.857,0-1.667,0.388-1.667,1.012c0,1.462,2.642,0.746,2.642,1.335c0,0.274-0.278,0.393-0.83,0.393
			c-1.261,0-1.499-0.4-1.426-0.575L67.321,58.185z"/>
	</g>
	<g>
		<path style="fill:#CFD4D8;" d="M56.666,12.25L19.663,43.445c0,25.847,16.149,59.181,37.003,79.353
			C77.52,102.626,93.67,69.291,93.67,43.445L56.666,12.25z M56.666,119.444c-19.995-20.176-34.412-51.038-34.793-75.02
			c1.49-1.255,32.257-27.193,34.793-29.331c2.537,2.138,33.304,28.076,34.793,29.331C91.08,68.406,76.662,99.269,56.666,119.444z"/>
		<path style="fill:#CFD4D8;" d="M56.666,26.291L26.409,46.095c1.243,28.424,20.313,51.065,30.257,61.023
			c9.944-9.958,29.015-32.599,30.258-61.023L56.666,26.291z M56.666,104.475c-8.543-8.583-24.274-27.347-27.855-50.958
			c-0.343-2.268-0.578-4.577-0.681-6.927l28.536-18.704l28.537,18.704c-0.104,2.351-0.338,4.661-0.681,6.928
			C80.94,77.128,65.209,95.893,56.666,104.475z"/>
		<path style="fill:#CFD4D8;" d="M54.71,90.697c-0.345,0-0.626,0.188-0.626,0.42c0,0.233,0.281,0.423,0.626,0.423
			c0.345,0,0.626-0.189,0.626-0.423C55.335,90.886,55.055,90.697,54.71,90.697z"/>
		<path style="fill:#CFD4D8;" d="M47.022,70.946l-7.378,8.72c5.192,8.105,11.246,14.096,17.022,18.288v-9.986
			c-4.815,0-8.719-3.902-8.719-8.718s3.904-8.72,8.719-8.72v-7.729l-8.154,9.656L47.022,70.946z M54.549,92.613
			c0.936,0,0.977-0.791,0.977-0.791s-0.489,0.294-1.067,0.294c-0.626,0-1.107-0.416-1.107-0.999c0-0.676,0.69-0.998,1.358-0.998
			c1.062,0,1.579,0.559,1.579,1.518c0,0.989-0.857,1.519-1.739,1.519c-0.662,0-0.979-0.178-1.04-0.178
			c-0.075,0-0.129,0.062-0.129,0.062l-0.069-0.028l0.449-0.762l0.058,0.027C53.789,92.426,53.942,92.613,54.549,92.613z"/>
	</g>
	<g>
		<path style="fill:#96C0E6;" d="M56.666,20.028L23.988,45.155c1.335,28.319,21.413,57.335,32.678,68.583
			c11.266-11.248,31.342-40.264,32.677-68.583L56.666,20.028z M56.666,21.625l17.457,13.724L56.666,23.498L39.21,35.349
			L56.666,21.625z M56.666,26.291l30.258,19.804c-1.243,28.424-20.314,51.065-30.258,61.023
			c-9.944-9.958-29.014-32.599-30.257-61.023L56.666,26.291z M56.666,111.817l-9.386-11.271l9.386,8.749l9.386-8.749L56.666,111.817
			z"/>
		<path style="fill:#96C0E6;" d="M58.622,92.577c0.345,0,0.626-0.188,0.626-0.421c0-0.233-0.281-0.421-0.626-0.421
			c-0.344,0-0.625,0.188-0.625,0.421C57.997,92.389,58.278,92.577,58.622,92.577z"/>
		<path style="fill:#96C0E6;" d="M65.385,79.25c0,4.815-3.903,8.718-8.719,8.718v9.986c5.777-4.192,11.831-10.182,17.021-18.287
			l-7.376-8.721l-1.491,1.51l-8.154-9.656v7.729C61.482,70.53,65.385,74.435,65.385,79.25z M58.784,90.66
			c-0.936,0-0.978,0.792-0.978,0.792s0.489-0.295,1.067-0.295c0.627,0,1.105,0.417,1.105,0.999c0,0.676-0.689,0.999-1.357,0.999
			c-1.061,0-1.577-0.561-1.577-1.519c0-0.987,0.856-1.518,1.739-1.518c0.66,0,0.979,0.178,1.039,0.178
			c0.075,0,0.13-0.063,0.13-0.063l0.069,0.03l-0.448,0.761l-0.058-0.027C59.544,90.85,59.39,90.66,58.784,90.66z"/>
		<path style="fill:#96C0E6;" d="M64.228,78.357c0-4.177-3.386-7.562-7.562-7.562c-4.176,0-7.562,3.386-7.562,7.562
			c0,4.179,3.386,7.564,7.562,7.564C60.842,85.922,64.228,82.536,64.228,78.357z M50.928,77.41l-1.1,0.615
			c-0.001-0.062-0.002-0.125-0.002-0.188c0-1.234,0.326-2.392,0.897-3.391l0.29,1.456c0.354-1.905,1.636-3.484,3.369-4.232
			l0.103-0.317c0.685-0.23,1.418-0.357,2.181-0.357c0.763,0,1.496,0.127,2.181,0.357l0.104,0.317
			c1.731,0.748,3.015,2.326,3.368,4.23l0.289-1.454c0.571,0.999,0.898,2.156,0.898,3.391c0,0.062-0.002,0.126-0.003,0.188
			l-1.1-0.614c-0.229,2.97-2.709,5.311-5.738,5.311C53.637,82.722,51.158,80.381,50.928,77.41z"/>
	</g>
	<g>
		<path style="fill:#455560;" d="M56.666,87.968c4.816,0,8.719-3.902,8.719-8.718s-3.903-8.72-8.719-8.72
			c-4.815,0-8.719,3.904-8.719,8.72S51.851,87.968,56.666,87.968z M56.666,70.795c4.176,0,7.562,3.386,7.562,7.562
			c0,4.179-3.386,7.564-7.562,7.564c-4.176,0-7.562-3.386-7.562-7.564C49.104,74.181,52.49,70.795,56.666,70.795z"/>
		<path style="fill:#455560;" d="M74.82,77.836c-0.373,0.621-0.749,1.233-1.133,1.831c-5.19,8.105-11.244,14.095-17.021,18.287
			c-5.776-4.192-11.83-10.183-17.022-18.288c-0.382-0.597-0.759-1.21-1.132-1.83c-4.024-6.698-7.451-14.747-9.702-24.319
			c3.581,23.611,19.312,42.375,27.855,50.958c8.543-8.582,24.274-27.347,27.856-50.958C82.271,63.089,78.844,71.138,74.82,77.836z"
			/>
	</g>
	<g>
		<path style="fill:#98002E;" d="M56.666,15.094c-2.536,2.138-33.303,28.076-34.793,29.331c0.381,23.981,14.798,54.844,34.793,75.02
			c19.996-20.176,34.414-51.038,34.793-75.02C89.97,43.169,59.203,17.231,56.666,15.094z M23.988,45.155l32.678-25.128
			l32.677,25.128c-1.335,28.319-21.411,57.335-32.677,68.583C45.401,102.49,25.324,73.474,23.988,45.155z"/>
		<path style="fill:#98002E;" d="M45.138,56.86h-1.264v0.719h1.264c0.198,0,0.359-0.161,0.359-0.36
			C45.497,57.021,45.335,56.86,45.138,56.86z"/>
		<path style="fill:#98002E;" d="M78.346,46.761l-0.984-0.42c-0.297-0.126-0.54,0.013-0.54,0.309v7.552
			c0,0.296,0.243,0.643,0.54,0.771l0.984,0.42c0.298,0.126,0.54-0.012,0.54-0.309v-7.552C78.886,47.235,78.644,46.888,78.346,46.761
			z"/>
		<path style="fill:#98002E;" d="M41.948,44.261l-0.983,0.289c-0.297,0.087-0.539,0.402-0.539,0.698v7.552
			c0,0.296,0.243,0.468,0.539,0.381l0.983-0.287c0.297-0.087,0.54-0.402,0.54-0.698v-7.551
			C42.488,44.347,42.246,44.174,41.948,44.261z"/>
		<path style="fill:#98002E;" d="M72.118,44.481l-1.523-0.408v8.631l1.523,0.409c0.297,0.079,0.539-0.098,0.539-0.396v-7.551
			C72.657,44.869,72.415,44.561,72.118,44.481z"/>
		<path style="fill:#98002E;" d="M55.732,56.86h-1.088v0.719h1.088c0.198,0,0.359-0.161,0.359-0.36
			C56.091,57.021,55.93,56.86,55.732,56.86z"/>
		<path style="fill:#98002E;" d="M56.666,27.886L28.13,46.589c0.102,2.35,0.337,4.66,0.681,6.927
			c2.25,9.572,5.678,17.621,9.702,24.319l7.785-8.033l1.6,1.411l8.769-9.029l8.769,9.029l1.599-1.411l7.786,8.033
			c4.024-6.698,7.451-14.746,9.702-24.319c0.343-2.267,0.577-4.577,0.681-6.928L56.666,27.886z M37.782,47.373l-1.979,0.856v-0.157
			l0.229-0.244v-0.982c0-0.296-0.243-0.434-0.54-0.306l-0.506,0.219c-0.297,0.129-0.54,0.477-0.54,0.773v7.552
			c0,0.297,0.243,0.435,0.54,0.307l0.506-0.22c0.296-0.128,0.54-0.477,0.54-0.772v-0.528l-0.229-0.046v-0.156l1.979-0.856v0.156
			l-0.229,0.244v0.767c0,0.927-0.759,2.014-1.687,2.417l-1.255,0.543c-0.928,0.402-1.687-0.029-1.687-0.957v-8.03
			c0-0.928,0.759-2.016,1.687-2.417l1.255-0.543c0.928-0.401,1.687,0.029,1.687,0.957v1.221l0.229,0.046V47.373z M45.131,53.322
			l0.229-0.187V42.335l-0.229-0.105v-0.157l1.979-0.358v0.157l-0.229,0.187v9.716l1.67-0.303l0.146-0.254l0.156-0.028v1.614
			l-3.722,0.675V53.322z M40.589,54.677c-0.928,0.272-1.687-0.264-1.687-1.192v-8.03c0-0.928,0.759-1.91,1.687-2.182l1.734-0.508
			c0.928-0.271,1.687,0.266,1.687,1.193v8.03c0,0.928-0.759,1.91-1.687,2.182L40.589,54.677z M46.214,59.338
			c0.046,0.064,0.166,0.117,0.267,0.117v0.079h-1.351v-0.079c0.101,0,0.146-0.053,0.101-0.117l-0.696-0.985h-0.661v0.985
			c0,0.064,0.082,0.117,0.184,0.117v0.079h-1.351v-0.079c0.102,0,0.184-0.053,0.184-0.117v-3.055c0-0.065-0.081-0.118-0.184-0.118
			v-0.079h2.642c0.626,0,1.133,0.506,1.133,1.132c0,0.57-0.421,1.043-0.97,1.123L46.214,59.338z M52.017,59.535h-1.193v-0.079
			c0.101,0,0.163-0.053,0.138-0.117l-0.219-0.577h-1.644l-0.22,0.577c-0.024,0.064,0.038,0.117,0.14,0.117v0.079h-1.193v-0.087
			c0.073-0.018,0.136-0.06,0.155-0.109l1.165-3.055c0.024-0.065-0.038-0.118-0.14-0.118v-0.079h1.83v0.079
			c-0.101,0-0.164,0.053-0.138,0.118l1.164,3.055c0.019,0.049,0.082,0.091,0.155,0.109V59.535z M51.66,52.472
			c-0.928,0.07-1.687-0.631-1.687-1.56v-8.03c0-0.928,0.759-1.744,1.687-1.814l1.734-0.132c0.928-0.071,1.687,0.631,1.687,1.559
			v8.031c0,0.928-0.759,1.745-1.687,1.815L51.66,52.472z M55.942,58.354h-1.298v0.985c0,0.064,0.082,0.117,0.184,0.117v0.079h-1.352
			v-0.079c0.102,0,0.185-0.053,0.185-0.117v-3.055c0-0.065-0.083-0.118-0.185-0.118v-0.079h2.466c0.625,0,1.133,0.506,1.133,1.132
			C57.075,57.845,56.567,58.354,55.942,58.354z M59.919,56.166c-0.103,0-0.184,0.053-0.184,0.118v3.055
			c0,0.064,0.081,0.117,0.184,0.117v0.079h-1.352v-0.079c0.102,0,0.184-0.053,0.184-0.117v-3.055c0-0.065-0.082-0.118-0.184-0.118
			v-0.079h1.352V56.166z M61.516,52.458l-1.768-0.129l-1.32-4.517l-0.477-0.02v4.16l0.229,0.154v0.157l-1.979-0.019v-0.156
			l0.229-0.137v-10.8l-0.229-0.155V40.84l3.171,0.128c0.928,0.037,1.687,0.826,1.687,1.754v3.508c0,0.736-0.477,1.346-1.137,1.549
			l1.256,4.293l0.338,0.229V52.458z M63.921,59.535h-2.216v-0.079c0.103,0,0.184-0.053,0.184-0.117v-3.055
			c0-0.065-0.081-0.118-0.184-0.118v-0.079h2.216c0.953,0,1.725,0.58,1.725,1.724C65.646,58.955,64.875,59.535,63.921,59.535z
			 M64.387,48.666v3.819l0.229,0.182v0.157l-1.979-0.254v-0.157l0.229-0.109v-9.416c0-0.928,0.759-1.566,1.687-1.42l1.256,0.2
			c0.928,0.147,1.688,1.026,1.688,1.955v9.416l0.229,0.182v0.157l-1.98-0.374v-0.157l0.227-0.109v-3.819L64.387,48.666z
			 M68.814,59.567c-1.263,0-1.565-0.281-1.768-0.281c-0.069,0-0.13,0.085-0.13,0.085l-0.08-0.02l0.484-1.167l0.067,0.034
			c-0.073,0.175,0.165,0.575,1.426,0.575c0.552,0,0.83-0.118,0.83-0.393c0-0.589-2.642,0.128-2.642-1.335
			c0-0.625,0.81-1.012,1.667-1.012c0.796,0,1.526,0.278,1.651,0.278s0.177-0.101,0.177-0.101l0.071,0.027l-0.45,0.916l-0.079-0.039
			c0.082-0.177-0.443-0.411-1.37-0.411c-0.269,0-0.683,0.104-0.683,0.341c0,0.519,2.642-0.126,2.642,1.335
			C70.627,59.342,69.679,59.567,68.814,59.567z M74.18,53.366c0,0.927-0.759,1.483-1.687,1.234l-3.649-0.978v-0.156l0.228-0.083
			V42.581l-0.228-0.207v-0.156l3.649,0.978c0.928,0.25,1.687,1.212,1.687,2.14V53.366z M80.408,55.973
			c0,0.927-0.759,1.362-1.687,0.966l-1.734-0.741c-0.928-0.396-1.687-1.48-1.687-2.408v-8.03c0-0.928,0.759-1.363,1.687-0.966
			l1.734,0.74c0.928,0.396,1.687,1.48,1.687,2.407V55.973z"/>
		<polygon style="fill:#98002E;" points="49.29,58.263 50.553,58.263 49.921,56.606 		"/>
		<path style="fill:#98002E;" d="M58.998,42.339l-1.046-0.042v4.109l1.046,0.042c0.297,0.011,0.539-0.222,0.539-0.518v-3.029
			C59.537,42.604,59.294,42.352,58.998,42.339z"/>
		<path style="fill:#98002E;" d="M53.019,42.351l-0.983,0.075c-0.296,0.023-0.54,0.284-0.54,0.581v7.552
			c0,0.297,0.244,0.521,0.54,0.499l0.983-0.076c0.297-0.022,0.54-0.284,0.54-0.581v-7.552
			C53.559,42.553,53.316,42.328,53.019,42.351z"/>
		<path style="fill:#98002E;" d="M63.711,56.86h-0.838v1.901h0.838c0.525,0,0.95-0.256,0.95-0.951
			C64.662,57.116,64.237,56.86,63.711,56.86z"/>
		<path style="fill:#98002E;" d="M65.971,43.62c0-0.296-0.241-0.578-0.538-0.626l-0.506-0.079c-0.296-0.047-0.54,0.157-0.54,0.454
			v3.911l1.584,0.251V43.62z"/>
		<polygon style="fill:#98002E;" points="58.951,78.233 56.666,76.573 54.382,78.233 55.255,80.919 58.077,80.919 		"/>
		<path style="fill:#98002E;" d="M58.951,71.671l-0.104-0.317c-0.685-0.23-1.418-0.357-2.181-0.357
			c-0.762,0-1.496,0.127-2.181,0.357l-0.103,0.317l2.284,1.658L58.951,71.671z"/>
		<path style="fill:#98002E;" d="M50.724,74.447c-0.571,0.999-0.897,2.156-0.897,3.391c0,0.062,0.001,0.126,0.002,0.188l1.1-0.615
			l0.346-0.194l-0.261-1.312L50.724,74.447z"/>
		<path style="fill:#98002E;" d="M62.319,75.901l-0.262,1.314l0.347,0.195l1.1,0.614c0.001-0.062,0.003-0.125,0.003-0.188
			c0-1.234-0.327-2.392-0.898-3.391L62.319,75.901z"/>
		<path style="fill:#98002E;" d="M54.71,90.119c-0.668,0-1.358,0.322-1.358,0.998c0,0.583,0.481,0.999,1.107,0.999
			c0.578,0,1.067-0.294,1.067-0.294s-0.042,0.791-0.977,0.791c-0.606,0-0.76-0.188-0.731-0.336l-0.058-0.027l-0.449,0.762
			l0.069,0.028c0,0,0.055-0.062,0.129-0.062c0.061,0,0.378,0.178,1.04,0.178c0.882,0,1.739-0.529,1.739-1.519
			C56.288,90.678,55.772,90.119,54.71,90.119z M54.71,91.54c-0.345,0-0.626-0.189-0.626-0.423c0-0.232,0.281-0.42,0.626-0.42
			c0.345,0,0.626,0.188,0.626,0.42C55.335,91.351,55.055,91.54,54.71,91.54z"/>
		<path style="fill:#98002E;" d="M59.574,91.024l0.448-0.761l-0.069-0.03c0,0-0.055,0.063-0.13,0.063
			c-0.061,0-0.379-0.178-1.039-0.178c-0.882,0-1.739,0.53-1.739,1.518c0,0.958,0.517,1.519,1.577,1.519
			c0.667,0,1.357-0.323,1.357-0.999c0-0.582-0.478-0.999-1.105-0.999c-0.578,0-1.067,0.295-1.067,0.295s0.042-0.792,0.978-0.792
			c0.606,0,0.76,0.189,0.732,0.337L59.574,91.024z M58.622,91.735c0.345,0,0.626,0.188,0.626,0.421c0,0.232-0.281,0.421-0.626,0.421
			c-0.344,0-0.625-0.188-0.625-0.421C57.997,91.924,58.278,91.735,58.622,91.735z"/>
		<polygon style="fill:#98002E;" points="64.243,117.033 65.042,117.033 65.042,119.444 65.332,119.444 65.332,117.033 
			66.17,117.033 66.17,116.745 64.243,116.745 		"/>
		<polygon style="fill:#98002E;" points="67.713,118.941 67.021,116.745 66.557,116.745 66.557,119.444 66.846,119.444 
			66.846,117.152 67.57,119.444 67.86,119.444 68.581,117.152 68.581,119.444 68.872,119.444 68.872,116.745 68.406,116.745 		"/>
	</g>
</g>
</svg>
