<svg xmlns="http://www.w3.org/2000/svg" viewBox="0 0 120.83 128.29"><defs><style>.cls-1{fill:#fff;}.cls-2{fill:#e41e2d;}</style></defs><title>DCU</title><g id="Layer_2" data-name="Layer 2"><g id="Layer_1-2" data-name="Layer 1"><path class="cls-1" d="M120.82,24.09A18,18,0,0,1,117,34.77a31.23,31.23,0,0,1,1.09,8.16,23,23,0,0,1-5,14.55,25.57,25.57,0,0,1-2.37,15.29,25.28,25.28,0,0,1-12,11.73S94.4,95.28,88.76,103c-12.07,16.55-26,24.48-28.43,25.28-2.63-.84-16.14-8.66-28.26-25.28-5.64-7.73-10-18.51-10-18.51a25.34,25.34,0,0,1-12-11.73A25.65,25.65,0,0,1,7.73,57.48a23.1,23.1,0,0,1-5-14.55,30.74,30.74,0,0,1,1.09-8.16A18,18,0,0,1,0,24.09,23.46,23.46,0,0,1,2.57,12.48a13.8,13.8,0,0,1,1-1.51,18.55,18.55,0,0,0,1.64,4.14,14.12,14.12,0,0,0,3,3.78,14.85,14.85,0,0,0,5.44,3.2l0-17.75C21.78,2.55,38.23,0,60.36,0s38.42,2.55,46.82,4.34V22.09a14.9,14.9,0,0,0,5.43-3.2,14,14,0,0,0,3.05-3.78A19.14,19.14,0,0,0,117.29,11a13.87,13.87,0,0,1,1,1.51A23.38,23.38,0,0,1,120.82,24.09Z"/><path class="cls-2" d="M42.24,69.86l1.12,3.43H47L44,75.41l1.12,3.42-2.92-2.11-2.92,2.11,1.12-3.42-2.92-2.12h3.61Zm16.89,3.43h-3.6l2.92,2.12-1.12,3.42,2.92-2.11,2.91,2.11-1.11-3.42L65,73.29H61.36l-1.11-3.43Zm17.77,0H73.3l2.92,2.12L75.1,78.83,78,76.72l2.91,2.11-1.11-3.42,2.92-2.12H79.13L78,69.86ZM47.57,104.44a45.94,45.94,0,0,1-3.48,5.14H76.93c-.71-1-2.2-2.93-3.54-5.14a22.15,22.15,0,0,1-2.47-5.14H49.86A28.71,28.71,0,0,1,47.57,104.44ZM82.28,85.81c5-1.6,10.85-3.62,10.85-3.62H27.63s6.05,2.13,11.05,3.65c4.28,1.29,9.45,3.14,11,6.69H71.09C72.83,89,78,87.18,82.28,85.81Z"/><path d="M65.53,48.69a4.69,4.69,0,0,0-1.21-.56,8.4,8.4,0,0,0-2.91-.25c-1,0-2.29,0-2.29,0a13.72,13.72,0,0,0,1.62,1.88c.8.61,2.13.06,3.23-.4C64.49,49.11,65.53,48.69,65.53,48.69ZM80.34,59.27a5.46,5.46,0,0,0,1-3.2c0-2.2-.8-5.1-2.34-8.69-1-2.21-2.54-5.77-2.31-9.06.15-2.28,1.87-4.38,4.38-5.74A46.61,46.61,0,0,1,91,29c-9.08-.91-19.71-1.61-30.69-1.61A306.37,306.37,0,0,0,29.67,29a48.25,48.25,0,0,1,10,3.61C42.15,33.92,43.85,36,44,38.32c.23,3.29-1.36,6.85-2.31,9.06-1.55,3.59-2.36,6.49-2.35,8.69a5.88,5.88,0,0,0,.92,3.22,4.42,4.42,0,0,0,4,1.89,5.39,5.39,0,0,0,5.33-5.49A4.41,4.41,0,0,0,47.8,52a9.86,9.86,0,0,0-3.24-1.77s4.45-1.43,4.45-4a10.12,10.12,0,0,0-3-6.32l.11-.11A14.43,14.43,0,0,0,49.68,41a36.43,36.43,0,0,0,6.27.52c3.42,0,5-.41,7.5-.41s5,1.25,5.55,3.64a13.3,13.3,0,0,1,2.79-.06A5.55,5.55,0,0,1,77.12,50a7.51,7.51,0,0,1-5.65,7.61,2.28,2.28,0,0,0,.09-1.14,1.85,1.85,0,0,0-1.75-1.58,2.17,2.17,0,0,0-2.16,2.4c.11,2.63,3.06,3.75,6,3.92.45,0,.76,0,1.19,0C77.62,61.18,79.35,60.5,80.34,59.27Zm40.48-35.18A18,18,0,0,1,117,34.77a31.23,31.23,0,0,1,1.09,8.16,23,23,0,0,1-5,14.55,25.57,25.57,0,0,1-2.37,15.29,25.28,25.28,0,0,1-12,11.73S94.4,95.28,88.76,103c-12.07,16.55-26,24.48-28.43,25.28-2.63-.84-16.14-8.66-28.26-25.28-5.64-7.73-10-18.51-10-18.51a25.34,25.34,0,0,1-12-11.73A25.65,25.65,0,0,1,7.73,57.48a23.1,23.1,0,0,1-5-14.55,30.74,30.74,0,0,1,1.09-8.16A18,18,0,0,1,0,24.09,23.46,23.46,0,0,1,2.57,12.48a13.8,13.8,0,0,1,1-1.51,18.55,18.55,0,0,0,1.64,4.14,14.12,14.12,0,0,0,3,3.78,14.85,14.85,0,0,0,5.44,3.2l0-17.75C21.78,2.55,38.23,0,60.36,0s38.42,2.55,46.82,4.34V22.09a14.9,14.9,0,0,0,5.43-3.2,14,14,0,0,0,3.05-3.78A19.14,19.14,0,0,0,117.29,11a13.87,13.87,0,0,1,1,1.51A23.38,23.38,0,0,1,120.82,24.09Zm-3.27-8.8a15.25,15.25,0,0,1-4.27,5.42,19.19,19.19,0,0,1-7.83,3.8V5.61C102.71,5,86.74,1.67,60.38,1.67S18.12,5,15.38,5.61v18.9a19.19,19.19,0,0,1-7.83-3.8,15.28,15.28,0,0,1-4.28-5.42,21,21,0,0,0-1.4,8.41c.15,4.81,1.76,7.55,4,10.78,0,0-1.6,3.43-1.24,10.16.3,5.7,3.6,10.34,5.11,12.45a23.88,23.88,0,0,0,5.79,20.19,26.84,26.84,0,0,0,8.23,6.12,83.58,83.58,0,0,0,10.63,19.48c6.36,8.23,15.57,17.9,26,23.29,10.38-5.39,19.77-15.06,26.14-23.29A84.35,84.35,0,0,0,97.09,83.4a26.84,26.84,0,0,0,8.23-6.12,23.85,23.85,0,0,0,5.78-20.19c1.52-2.11,4.81-6.75,5.12-12.45.35-6.73-1.25-10.16-1.25-10.16,2.22-3.23,3.83-6,4-10.78A20.83,20.83,0,0,0,117.55,15.29Zm-4.61,21.29a21.39,21.39,0,0,1-.14,11.19c-2.36,8-9.11,11-14.27,13.93a35.45,35.45,0,0,0-5.77,3.82c-4.81,4.21-3.93,7.22-3.93,7.22,1.74-3.46,6.94-5.72,11.5-8,6.21-3.14,8.2-6,8.2-6a20.42,20.42,0,0,1-2.92,13.94,22.65,22.65,0,0,1-12.42,9.53H27.63a22.64,22.64,0,0,1-12.41-9.53A20.42,20.42,0,0,1,12.3,58.72s2,2.86,8.2,6c4.55,2.3,9.76,4.56,11.5,8,0,0,.87-3-3.94-7.22A35.3,35.3,0,0,0,22.3,61.7C17.14,58.79,10.38,55.81,8,47.77a21.39,21.39,0,0,1-.14-11.19S9,40.3,17,44.31C22.89,47.22,26.87,50,28.62,54c0,0,1.36-4.94-4-8.95a47.8,47.8,0,0,0-6.18-3.8c-2.25-1.24-7.35-3.81-11-9.1-2.27-3.33-3.76-7.31-3-11.55a9.07,9.07,0,0,0,3.5,3.3c3.34,2.07,7,3.12,12.11,4.51,4.85,1.31,13.15,2.94,18.05,5.67,2.21,1.23,3.62,3,3.65,5,.08,5.23-4.63,10.2-4.63,17,0,4.28,2.21,7.09,7,7.09a7.66,7.66,0,0,0,5.29-2,7.35,7.35,0,0,0,2.45-5.23A5.57,5.57,0,0,0,48,50.26a4.19,4.19,0,0,0,3-3.43,5.34,5.34,0,0,0-.38-2.78,8.41,8.41,0,0,0-1-1.59,17,17,0,0,0,3.5.73c5.13.54,6.92-.28,9.49-.28s4.77,1.19,4.66,3.63a10.82,10.82,0,0,1,2.9-.37c3.74,0,5.09,2.26,5.09,4.29a5,5,0,0,1-2.52,4.64c-.3-1.36-1.93-2.06-3.19-2.06a3.88,3.88,0,0,0-4,4.1,5.58,5.58,0,0,0,1.76,4c1,.9,3.13,2,7.38,2,5.7,0,9-2.86,9-7.14,0-6.8-4.74-11.73-4.63-17,0-2,1.41-3.71,3.68-5,4.89-2.74,13.18-4.36,18-5.67,5.13-1.39,8.77-2.44,12.12-4.51a9,9,0,0,0,3.49-3.3c.73,4.24-.76,8.22-3,11.55-3.62,5.29-8.72,7.86-11,9.1A47.39,47.39,0,0,0,96.19,45c-5.34,4-4,8.95-4,8.95,1.75-4,5.74-6.75,11.58-9.66C111.84,40.3,112.94,36.58,112.94,36.58ZM44,75.41,47,73.29H43.35l-1.11-3.42-1.11,3.42H37.52l2.92,2.12-1.12,3.43,2.92-2.12,2.92,2.12Zm18,0L65,73.29h-3.6l-1.11-3.42-1.12,3.42h-3.6l2.91,2.12-1.11,3.43,2.92-2.12,2.91,2.12Zm3.21-13.53a7.32,7.32,0,0,1-1.79-4.44,5.81,5.81,0,0,1,6.13-6.29c2.61,0,3.4,1.54,3.4,1.54a3.72,3.72,0,0,0,.56-2.44c-.29-1.66-1.69-2.36-3.9-2.36a10,10,0,0,0-3.75.64l-.28.11a3.55,3.55,0,0,0-1.09-3.27c-1.17-.93-3.18-.62-4.92-.32-2.19.35-5.55.36-7.29-.52a5.12,5.12,0,0,1,.73,3.13,4,4,0,0,1-1.67,2.63A5.79,5.79,0,0,1,54,55.62a9.35,9.35,0,0,1-2.69,6.15,9.87,9.87,0,0,1,4.64,0,5.46,5.46,0,0,1,3.6,4l.26-.11c-.24-1.3-.32-3.63,1-4.35,1.07-.57,3.05.07,4.34.75C65.21,62,65.21,61.85,65.26,61.88ZM79.82,75.41l2.92-2.12H79.13L78,69.87,76.9,73.29H73.3l2.91,2.12L75.1,78.84,78,76.72l2.91,2.12ZM38.32,88.82c-3.29-1-7-2.25-11-3.8a73.41,73.41,0,0,0,14.45,22.32c1.63-1.68,6.73-7.74,6.73-12.07C48.48,91.94,42.55,90.14,38.32,88.82Zm34.07,6.43c-.39,4.3,5.32,10.58,6.76,12a74.11,74.11,0,0,0,8.49-10.88A75.68,75.68,0,0,0,93.57,85c-4,1.55-7.61,2.67-11,3.76C78.32,90.08,72.69,91.83,72.39,95.25ZM49.72,92.52a7.1,7.1,0,0,1,.69,2.92,11.63,11.63,0,0,1-.54,3.86H70.92a11.37,11.37,0,0,1-.54-3.86,7.09,7.09,0,0,1,.7-2.92ZM60.32,123c4.9-2.6,12.63-9.83,16.63-13.47H44.07C48,114,55.86,120.68,60.32,123ZM28.52,11.44a5.75,5.75,0,0,0-.4-2.34A2.49,2.49,0,0,0,26.9,8a4.73,4.73,0,0,0-2.47-.08c-1.27.15-4.27.64-4.27.64v17.9l2.46-.32c.69-.1,2.81-.36,3.29-.46a3,3,0,0,0,1.67-.84,3.12,3.12,0,0,0,.94-2.41ZM25.3,23.89a1.36,1.36,0,0,1-.69.26l-1.44.19V9.79l1.52-.21a.72.72,0,0,1,.68.17c.15.16.16.47.17,1V23.13A1,1,0,0,1,25.3,23.89Zm75.28-11.17a11,11,0,0,0-.16-2.53,2.39,2.39,0,0,0-1.19-1.46A9.23,9.23,0,0,0,96.49,8c-1.27-.2-4.21-.55-4.21-.55V25.55s1.86.24,2.47.34,2.87.42,3.34.42a2.19,2.19,0,0,0,1.55-.39,2.35,2.35,0,0,0,1-2.14Zm-3,10.9c0,.35-.06.52-.18.6a1,1,0,0,1-.75.07l-1.38-.19V9.65l1.49.21c.45.06.58.17.69.42a2.42,2.42,0,0,1,.13,1Zm-67,1.71a1,1,0,0,0,.72-.39,1.06,1.06,0,0,0,.25-.8,1,1,0,0,0-.37-.74,1,1,0,0,0-.77-.27,1,1,0,0,0-.71.38,1.11,1.11,0,0,0,.11,1.55,1,1,0,0,0,.77.27m12.67-1.08a1,1,0,0,0,.71-.38,1.08,1.08,0,0,0,.26-.8,1.1,1.1,0,0,0-.38-.75,1,1,0,0,0-1.48.12,1.06,1.06,0,0,0-.25.8,1,1,0,0,0,.37.74.94.94,0,0,0,.77.27M37.15,6.39a5.11,5.11,0,0,0-3.23,1.2A3.59,3.59,0,0,0,33,10.26V21.71a3,3,0,0,0,1.1,2.41,3.71,3.71,0,0,0,3,.64,5.13,5.13,0,0,0,3-1.11,2.76,2.76,0,0,0,.91-2.21V17.2l-2.94,1.24v3c0,.92-.33,1.34-1,1.42-.47.06-1.1,0-1.1-1.16V9.35a1.05,1.05,0,0,1,1-1.18.91.91,0,0,1,1.12,1v3.56l2.95-1.26V9.75a4,4,0,0,0-.42-2.16C40,6.58,38.38,6.31,37.15,6.39Zm17.2-.73-3,.07V20.91c0,1.07-.62,1.26-1.23,1.27A1,1,0,0,1,48.92,21V5.81l-3,.14V20.88a2.54,2.54,0,0,0,.94,2.29,4.93,4.93,0,0,0,3.2.8,5.26,5.26,0,0,0,3.24-1,2.79,2.79,0,0,0,1.05-2.35v-15M66,5.64l-3,0v6.64L60,5.59H57.22v18h3V11.16l2.9,5.73v6.7l2.93.06v-18m6.12.19-3-.1v18l3,.17ZM90.51,23.27l-3.66-.42V16.34l2,.2,1.08-2.07-3-.32V8.74L90,9.08V7.2l-3-.31c-.74-.09-3.21-.32-3.21-.32v18l3.12.32,3.52.38ZM82.44,6.46s-3-.22-4.24-.29l-4-.23-.9,1.79,3.23.19V24.08l3,.21V8.1l3,.2Z"/></g></g></svg>