<?xml version="1.0" encoding="iso-8859-1"?>
<!-- Generator: Adobe Illustrator 22.1.0, SVG Export Plug-In . SVG Version: 6.00 Build 0)  -->
<!DOCTYPE svg PUBLIC "-//W3C//DTD SVG 1.1//EN" "http://www.w3.org/Graphics/SVG/1.1/DTD/svg11.dtd">
<svg version="1.1" id="Layer_1" xmlns="http://www.w3.org/2000/svg" xmlns:xlink="http://www.w3.org/1999/xlink" x="0px" y="0px"
	 viewBox="0 0 1190.55 841.89" style="enable-background:new 0 0 1190.55 841.89;" xml:space="preserve">
<g>
	<path style="fill:#EA0029;" d="M507.011,449.56l4.885,15.024h15.801l-12.787,9.287l4.886,15.029l-12.784-9.287l-12.785,9.287
		l4.885-15.029l-12.784-9.287h15.803L507.011,449.56z M581.06,464.584h-15.803l12.785,9.287l-4.885,15.029l12.785-9.287
		l12.778,9.287l-4.878-15.029l12.777-9.287h-15.795l-4.883-15.024L581.06,464.584z M658.95,464.584h-15.801l12.785,9.287
		l-4.884,15.029l12.784-9.287l12.785,9.287l-4.885-15.029l12.784-9.287h-15.803l-4.882-15.024L658.95,464.584z M530.346,601.13
		c-5.346,9.87-12.135,18.102-15.222,22.537h143.935c-3.087-4.436-9.623-12.852-15.527-22.537
		c-4.393-7.207-8.281-14.255-10.828-22.523h-92.304C538.087,586.245,534.394,593.655,530.346,601.13z M682.5,519.459
		c21.714-6.999,47.558-15.862,47.558-15.862l-287.098-0.011c0,0,26.54,9.334,48.417,15.958c18.799,5.694,41.462,13.79,48.424,29.342
		h93.686C641.106,533.334,663.812,525.482,682.5,519.459z"/>
	<path d="M712.086,623.842h-2.168v-8.965h-3.215v-1.842h8.584v1.842h-3.201V623.842z M718.666,615.35l2.148,8.492h2.089l2.15-8.492
		v8.492h2.022v-10.807h-3.283l-1.922,7.373l-1.955-7.373h-3.262v10.807h2.012V615.35z M609.103,356.781
		c-1.471-0.985-3.207-1.825-5.304-2.461c-2.501-0.756-5.689-1.359-12.771-1.107c-4.352,0.157-10.029,0-10.029,0
		s4.869,6.604,7.078,8.259c3.54,2.654,9.369,0.266,14.16-1.772C604.545,358.609,609.103,356.781,609.103,356.781z M674.021,403.126
		c2.401-2.958,4.248-8.355,4.29-13.992c0.07-9.66-3.498-22.391-10.277-38.119c-4.175-9.695-11.123-25.265-10.122-39.727
		c0.688-9.957,8.199-19.182,19.196-25.146c18.392-9.975,43.635-15.809,43.635-15.809c-39.803-3.986-86.41-7.079-134.551-7.079
		c-48.526,0-94.432,3.025-134.274,7.079c0,0,24.915,5.835,43.635,15.809c11.041,5.883,18.508,15.189,19.196,25.146
		c1,14.462-5.947,30.032-10.122,39.727c-6.779,15.729-10.348,28.459-10.277,38.119c0.042,5.637,1.77,11.02,4.002,14.107
		c2.975,4.116,7.5,8.288,17.603,8.288c16.928,0,23.362-15.097,23.362-24.101c0-8.916-4.664-13.17-7.922-15.992
		c-4.521-3.914-10.823-6.676-14.229-7.746c0,0,19.492-6.254,19.492-17.611c0-9.307-5.662-19.96-12.963-27.705l0.478-0.499
		c2,1.125,9.239,3.849,15.43,4.978c6.674,1.216,16.624,2.262,27.51,2.262c14.979,0,21.801-1.777,32.885-1.777
		c11.549,0,21.785,5.463,24.293,15.928c0,0,6.25-0.879,12.246-0.273c13.732,1.384,23.113,11.047,23.357,23.611
		c0.481,24.772-20.707,32.758-24.764,33.35c0,0,0.836-1.92,0.385-5.002c-0.432-2.967-3.158-6.941-7.678-6.941
		c-6.428,0-9.645,5.293-9.431,10.554c0.466,11.513,13.407,16.435,26.396,17.151c1.968,0.108,3.365,0.158,5.217,0.108
		C662.083,411.5,669.651,408.511,674.021,403.126z M851.435,248.952c-0.527,20.254-8.312,36.016-16.695,46.805
		c0,0,4.812,15.75,4.777,35.752c-0.073,37.297-17.522,57.068-21.94,63.779c3.749,24.712-0.957,48.442-10.393,67.01
		c-11.682,22.987-27.588,38.828-52.608,51.452c0,0-18.934,47.222-43.654,81.11c-52.919,72.548-113.963,107.328-124.604,110.816
		C574.75,702,515.545,667.712,462.404,594.86c-24.721-33.889-43.654-81.11-43.654-81.11c-25.021-12.624-40.927-28.465-52.608-51.452
		C356.706,443.73,352,420,355.749,395.288c-4.418-6.711-21.867-26.482-21.94-63.779c-0.035-20.002,4.777-35.752,4.777-35.752
		c-8.382-10.789-16.168-26.551-16.695-46.805c-0.32-12.445,0.858-30.952,11.242-50.901c1.302-2.501,3.05-4.98,4.215-6.624
		c0,0,2.404,9.631,7.208,18.148c2.973,5.272,6.203,10.025,13.327,16.556c8.784,8.052,18.117,12.248,23.84,14.046l-0.078-77.811
		c35.689-7.866,107.8-19.033,204.772-19.033c96.982,0,168.417,11.167,205.265,19.033l-0.078,77.811
		c5.723-1.798,15.056-5.994,23.84-14.046c7.124-6.53,10.354-11.284,13.327-16.556c4.804-8.518,7.207-18.148,7.207-18.148
		c1.166,1.645,2.913,4.123,4.215,6.624C850.576,218,851.755,236.507,851.435,248.952z M837.141,210.36
		c-3.481,8.842-11.138,17.152-18.753,23.758c-9.113,7.904-24.844,15.096-34.315,16.65V167.94
		c-12.008-2.503-81.992-17.287-197.538-17.287c-115.535,0-185.273,14.784-197.281,17.287v82.828
		c-9.471-1.554-25.202-8.746-34.315-16.65c-7.616-6.606-15.271-14.916-18.753-23.758c-4.68,11.034-6.493,24.973-6.127,36.844
		c0.648,21.123,7.709,33.1,17.45,47.25c0,0-7.019,15.043-5.455,44.555c1.326,24.998,15.78,45.325,22.417,54.568
		c-7.553,44.141,12.822,74.085,25.367,88.488c15.33,17.602,36.067,26.843,36.067,26.843c6.596,17.342,23.596,55.592,46.599,85.378
		c27.885,36.108,68.247,78.464,113.735,102.123c45.498-23.659,86.7-66.016,114.585-102.123
		c23.003-29.786,40.003-68.036,46.599-85.378c0,0,20.737-9.241,36.067-26.843c12.545-14.403,32.92-44.348,25.367-88.488
		c6.637-9.244,21.09-29.57,22.416-54.568c1.564-29.512-5.454-44.555-5.454-44.555c9.74-14.15,16.802-26.127,17.45-47.25
		C843.634,235.333,841.82,221.394,837.141,210.36z M816.909,303.679c5.168,18.891,2.718,37.68-0.615,49.047
		c-10.337,35.262-39.931,48.324-62.56,61.062c-10.805,6.082-19.207,11.43-25.269,16.736c-21.088,18.461-17.236,31.66-17.236,31.66
		c7.606-15.164,30.435-25.084,50.393-35.162c27.229-13.752,35.955-26.272,35.955-26.272c3.988,23.677-3.284,45.71-12.795,61.073
		c-20.431,33.006-53.475,41.303-54.453,41.801H442.974c-0.979-0.498-33.998-8.795-54.429-41.801
		c-9.511-15.363-16.783-37.396-12.795-61.073c0,0,8.727,12.521,35.955,26.272c19.958,10.078,42.787,19.998,50.393,35.162
		c0,0,3.852-13.199-17.236-31.66c-6.062-5.307-14.464-10.654-25.268-16.736c-22.63-12.738-52.224-25.801-62.561-61.062
		c-3.333-11.367-5.783-30.156-0.615-49.047c0,0,4.833,16.321,40.143,33.895c25.606,12.745,43.075,24.819,50.76,42.331
		c0,0,5.929-21.648-17.495-39.238c-6.699-5.031-12.223-8.428-27.106-16.645c-9.868-5.449-32.232-16.694-48.11-39.909
		c-9.977-14.589-16.507-32.044-13.32-50.606c0,0,3.212,6.994,15.318,14.471c14.658,9.054,30.617,13.654,53.096,19.74
		c21.245,5.75,57.612,12.898,79.092,24.872c9.707,5.411,15.892,13.145,16.024,21.818c0.35,22.926-20.285,44.73-20.285,74.548
		c0,18.732,9.683,31.054,30.596,31.054c9.861,0,17.526-3.536,23.182-8.685c7.003-6.376,10.753-15.226,10.753-22.894
		c0-19.025-13.56-23.229-16.654-24.777c7.299-2.987,12.326-7.771,13.037-15.035c0.566-5.762-0.583-9.85-1.677-12.193
		c-1.99-4.27-4.228-6.98-4.228-6.98s6.46,2.306,15.329,3.226c22.485,2.333,30.351-1.248,41.601-1.248
		c10.824,0,20.89,5.241,20.433,15.932c0,0,5.254-1.623,12.702-1.623c16.401,0,22.323,9.886,22.323,18.791
		c0,13.289-8.774,19.678-11.053,20.353c-1.327-5.975-8.458-9.061-13.989-9.061c-7.928,0-17.56,5.141-17.56,18.005
		c0,8.57,4.724,15.069,7.721,17.667c4.536,3.932,13.719,8.765,32.328,8.765c24.994,0,39.419-12.561,39.419-31.294
		c0-29.818-20.794-51.456-20.285-74.548c0.19-8.673,6.158-16.241,16.105-21.817c21.454-12.026,57.761-19.121,79.011-24.872
		c22.478-6.086,38.438-10.686,53.096-19.74c12.105-7.477,15.317-14.471,15.317-14.471c3.188,18.562-3.343,36.017-13.319,50.606
		c-15.878,23.215-38.242,34.46-48.11,39.909c-14.884,8.218-20.407,11.614-27.106,16.645c-23.424,17.59-17.495,39.238-17.495,39.238
		c7.685-17.512,25.153-29.586,50.76-42.331C812.076,320,816.909,303.679,816.909,303.679z M514.896,473.899l12.787-9.287h-15.801
		l-4.885-15.023l-4.882,15.023h-15.803l12.784,9.287l-4.885,15.029l12.785-9.287l12.784,9.287L514.896,473.899z M593.83,473.899
		l12.783-9.287h-15.801l-4.883-15.023l-4.883,15.023h-15.803l12.785,9.287l-4.885,15.029l12.785-9.287l12.784,9.287L593.83,473.899z
		 M607.898,414.578c-1.29-1.181-7.564-9.29-7.828-19.474c-0.445-17.229,11.398-27.555,26.875-27.555
		c11.441,0,14.877,6.742,14.877,6.742c1.178-1.417,3.178-6.417,2.451-10.697c-1.237-7.291-7.369-10.32-17.082-10.329
		c-10.129-0.011-16.43,2.817-16.43,2.817l-1.25,0.475c0,0,1.859-9.047-4.773-14.332c-5.104-4.071-13.904-2.741-21.557-1.439
		c-9.575,1.576-24.307,1.589-31.971-2.242c0,0,4.094,6.084,3.207,13.715c-0.668,5.768-4.976,9.846-7.311,11.516
		c4.018,2.976,11.643,8.23,11.643,23.351c0,12.353-8.25,24.125-11.792,26.972c7.204-1.328,15.176-1.757,20.335,0.119
		c12.139,4.415,14.216,13.096,15.783,17.324l1.129-0.469c-1.077-5.724-1.418-15.919,4.479-19.09
		c4.663-2.507,13.374,0.31,18.986,3.299C607.67,415.28,607.675,414.449,607.898,414.578z M671.728,473.899l12.784-9.287H668.71
		l-4.882-15.023l-4.885,15.023h-15.801l12.785,9.287l-4.884,15.029l12.784-9.287l12.785,9.287L671.728,473.899z M489.838,532.662
		c-14.425-4.5-30.674-9.869-48.338-16.662c6,15.25,17.092,36.086,25.993,49.948c9.824,15.302,23.143,33.059,37.385,47.908
		c7.123-7.356,29.474-33.943,29.474-52.893C534.352,546.364,508.36,538.44,489.838,532.662z M639.157,560.85
		c-1.693,18.874,23.343,46.4,29.66,52.699c14.242-14.85,27.375-32.412,37.199-47.714c8.9-13.862,19.992-34.698,25.992-49.948
		c-17.664,6.793-33.357,11.717-48.338,16.464C665.176,538.212,640.5,545.887,639.157,560.85z M539.801,548.886
		c1.961,3.409,2.636,7.944,3.002,12.815c0.494,6.559-1.56,14.665-2.373,16.906h92.292c-0.812-2.241-2.867-10.348-2.373-16.906
		c0.366-4.87,1.125-9.405,3.087-12.815H539.801z M586.238,682.666c21.481-11.371,55.399-43.076,72.919-59.045l-144.118,0.009
		C532.026,642.872,566.707,672.336,586.238,682.666z M446.873,193.484c0-2.317-0.211-7.546-1.747-10.247
		c-1.464-2.575-3.378-4.143-5.357-4.942c-1.986-0.803-4.985-1.161-10.838-0.342c-5.556,0.679-18.725,2.827-18.725,2.827
		l0.066,78.466c0,0,7.938-1.019,10.772-1.419c3.004-0.427,12.317-1.557,14.416-1.993c4.358-0.908,6.014-2.51,7.31-3.686
		c2.632-2.394,4.148-5.999,4.148-10.56L446.873,193.484z M432.767,248.038c-0.787,0.73-2.083,1.021-3.06,1.15l-6.307,0.836
		l-0.047-63.786l6.693-0.904c1.498-0.199,2.346,0.088,2.96,0.744c0.648,0.691,0.724,2.044,0.73,4.403l0.043,54.242
		C433.78,245.905,433.733,247.142,432.767,248.038z M762.726,199.109c0-1.866,0.235-8.254-0.706-11.093
		c-1.182-3.557-2.821-4.951-5.213-6.399c-2.307-1.396-6.386-2.127-12.021-3.044c-5.562-0.875-18.426-2.428-18.426-2.428v79.203
		c0,0,8.127,1.039,10.804,1.484c2.658,0.444,12.595,1.81,14.662,1.833c4.38,0.05,5.505-0.877,6.801-1.694
		c2.632-1.658,4.142-4.84,4.142-9.401L762.726,199.109z M749.61,246.857c0,1.529-0.261,2.278-0.76,2.661
		c-0.799,0.611-1.982,0.499-3.288,0.302l-6.065-0.867v-63.329l6.549,0.924c1.953,0.27,2.526,0.756,3.022,1.851
		c0.348,0.767,0.54,1.944,0.542,4.306V246.857z M455.939,254.356c1.254-0.099,2.305-0.659,3.148-1.688
		c0.842-1.026,1.213-2.193,1.116-3.5c-0.101-1.306-0.647-2.4-1.635-3.281c-0.988-0.88-2.108-1.271-3.363-1.172
		c-1.254,0.103-2.299,0.665-3.144,1.691c-0.842,1.026-1.214,2.197-1.115,3.499c0.099,1.304,0.643,2.397,1.633,3.277
		C453.566,254.07,454.69,254.459,455.939,254.356 M511.455,249.639c1.254-0.098,2.303-0.659,3.146-1.687
		c0.843-1.026,1.213-2.192,1.116-3.499c-0.102-1.307-0.646-2.401-1.635-3.282c-0.987-0.88-2.107-1.271-3.361-1.172
		c-1.254,0.103-2.301,0.665-3.145,1.691c-0.842,1.027-1.215,2.198-1.116,3.499c0.099,1.304,0.644,2.396,1.633,3.277
		C509.081,249.354,510.203,249.742,511.455,249.639 M484.681,171.365c-2.314,0.16-9.652,0.62-14.129,5.218
		c-4.137,4.247-3.89,9.758-3.857,11.703v50.22c0.078,4.52,1.758,8.174,4.794,10.556c1.423,1.117,4.567,3.587,13.064,2.803
		c7.2-0.664,11.159-2.942,13.343-4.873c3.864-3.417,4.03-7.726,3.999-9.669l-0.015-18.609l-12.912,5.452l0.012,13.351
		c0,4.064-1.457,5.888-4.564,6.263c-2.035,0.245-4.796-0.049-4.796-5.12v-54.341c0-3.081,1.588-4.893,4.268-5.186
		c2.735-0.302,4.946,0.895,4.946,4.503l0.013,15.583l12.922-5.502l-0.027-7.658c0-4.041-0.391-7.229-1.843-9.454
		C496.997,172.158,490.089,170.991,484.681,171.365z M560.101,168.126l-13.31,0.34v66.521c0,4.686-2.692,5.513-5.367,5.553
		c-3.3,0.05-5.149-1.41-5.149-5.01v-66.718l-13.132,0.611v65.445c0,6.833,2.783,8.871,4.104,10.048
		c2.501,2.227,8.137,3.74,14.023,3.503c6.952-0.28,10.853-1.746,14.23-4.265c3.142-2.341,4.602-6.052,4.602-10.308V168.126
		 M611.223,168.076l-13.149-0.134l-0.041,29.089l-13.155-29.207l-12.204,0.05v78.908l13.029,0.002v-54.531l12.701,25.095v29.397
		l12.819,0.249V168.076 M638.079,168.876l-13.044-0.439v78.855l13.044,0.745V168.876z M718.591,245.349l-16.029-1.87l0.033-28.527
		l8.565,0.889l4.73-9.067l-13.316-1.396v-23.729l13.958,1.494l0.061-8.251c0,0-8.962-0.925-12.942-1.366
		c-3.269-0.362-14.093-1.393-14.093-1.393v79.095c0,0,9.964,0.996,13.707,1.392c4.185,0.443,15.398,1.648,15.398,1.648
		L718.591,245.349z M683.217,171.657c0,0-13.247-0.951-18.588-1.272c-7.379-0.443-17.684-1.035-17.684-1.035l-3.91,7.884
		l14.164,0.808l0.006,70.845c0,0,13.286,0.917,13.012,0.907l-0.006-70.975l13.076,0.907L683.217,171.657z"/>
</g>
<rect style="fill:none;stroke:#000000;stroke-width:0.2835;stroke-miterlimit:10;" width="1190.55" height="841.89"/>
</svg>
