<?xml version="1.0" encoding="iso-8859-1"?>
<!-- Generator: Adobe Illustrator 22.1.0, SVG Export Plug-In . SVG Version: 6.00 Build 0)  -->
<!DOCTYPE svg PUBLIC "-//W3C//DTD SVG 1.1//EN" "http://www.w3.org/Graphics/SVG/1.1/DTD/svg11.dtd">
<svg version="1.1" id="Layer_1" xmlns="http://www.w3.org/2000/svg" xmlns:xlink="http://www.w3.org/1999/xlink" x="0px" y="0px"
	 viewBox="0 0 113.334 143.333" style="enable-background:new 0 0 113.334 143.333;" xml:space="preserve">
<g>
	<g>
		<path style="fill:#FFFFFF;" d="M101.599,32.147C98.452,31,82.823,25.834,56.667,25.834c-26.156,0-41.785,5.166-44.932,6.312
			c-0.243,3.247-0.371,6.392-0.371,9.413c0,46.67,27.693,66.865,45.303,74.985c17.61-8.12,45.303-28.314,45.303-74.985
			C101.969,38.539,101.841,35.394,101.599,32.147z M98.359,59.821c-3.81,21.356-13.747,35.143-28.872,45.615
			c-3.929,2.722-8.208,5.219-12.82,7.566c-5.506-2.804-10.537-5.82-15.065-9.173c3.572-12.511,11.81-18.005,11.81-18.005
			c-4.922-5.712,1.053-9.889,1.053-9.889c-1.062,2.227-1.301,5.514,1.223,7.646c2.524,2.129,5.208-0.271,7.13-0.182
			c1.924,0.086,4.432,1.531,4.432,1.531c2.077-0.666,2.463-2.36,2.463-2.36s-0.315-0.776-1.012-1.032
			c-1.062,0.008-1.514,0.774-1.514,0.774c-0.153-1.387,1.616-2.362,1.616-2.362c1.891,0.012,2.875,1.388,2.875,1.388l2.755,0.048
			c0.512-1.386,1.459-1.528,1.459-1.528l-4.771-5.039c-2.582-2.858,0.229-5.067,0.229-5.067s-0.229-0.839-0.848-1.58
			c0,0,3.524-0.169,6.12-0.424C82.927,67.127,83.477,59.126,98.359,59.821c-14.308-2.235-16.977,4.894-23.728,5.441
			c-3.474,0.28-6.427,0.242-6.427,0.242s-1.963-1.492-3.905-2.464l-9.324-0.065c0,0-2.611,0.957-4.43,2.794l-10.896-0.1
			c-9.785-0.359-12.656-10.028-24.702-5.992c12.546-1.913,12.162,7.779,24.499,8.917l13.502,0.714c0,0,1.124-0.599,0.502-2.42
			c0.665,0.204,2.871,3.272,0.218,5.857c-0.902,0.961-3.798,3.281-11.676,4.8c0,0,0.898-2.694,3.42-4.592
			c-1-0.096-2.033-0.198-3.046-0.302c-3.97,2.597-10.515,7.511-16.612,14.942c-5.185-7.643-8.833-16.745-10.807-27.917
			c-1.353-7.649-1.918-16.268-1.661-26.051c0,0,16.252-6.242,43.38-6.242s43.381,6.242,43.381,6.242
			C100.306,43.472,99.73,52.135,98.359,59.821z M63.845,66.27c-0.703-0.634-0.856-1.632,0.266-2.198
			c-0.408,1.186,2.044,1.397,3.05,2.94c1.273,1.96-0.541,3.045-0.437,4.449c-0.707-2.032-2.552-2.048-3.395-2.777
			c-0.843-0.726-0.845-1.458-0.46-1.904C63.185,67.698,64.715,67.054,63.845,66.27z M65.898,74.9
			c-3.683-1.998-8.595-1.575-8.595-1.575c1.018-1.973,2.683-2.896,2.683-2.896C62.643,71.137,64.24,71.783,65.898,74.9z"/>
		<path style="fill:#FFFFFF;" d="M19.683,53.826l3.016-0.582v-8.203l2.642-0.503V41.63l-2.642,0.515v-3.722l2.643-0.549
			c0-1.011,0-1.977,0-2.988l-5.658,1.299V53.826z"/>
		<path style="fill:#FFFFFF;" d="M30.933,33.85c-3.193,0.518-3.409,1.04-3.437,4.129v11.242c0.028,2.892,0.234,3.216,3.437,2.899
			c3.237-0.398,3.699-0.735,3.728-3.616v-3.537l-3.015,0.281v3.428c0,0.479-0.298,0.63-0.561,0.675
			c-0.246,0.01-0.572-0.03-0.572-0.593V37.635c0-0.447,0.248-0.666,0.529-0.698c0.315-0.05,0.603,0.139,0.603,0.58v2.196
			l3.015-0.313v-2.276C34.633,33.896,34.176,33.431,30.933,33.85z"/>
		<path style="fill:#FFFFFF;" d="M47.182,32.336l-4.129,0.3v18.38l4.226-0.245c2.625-0.149,3.045-0.523,3.089-3.089l0.002-11.527
			C50.313,32.636,49.81,32.233,47.182,32.336z M47.354,47.525c-0.007,0.415-0.056,0.562-0.461,0.59l-0.825,0.072V35.772l0.825-0.075
			c0.285-0.002,0.446,0.134,0.461,0.791V47.525z"/>
		<path style="fill:#FFFFFF;" d="M54.228,32.13l-1.805,18.527l2.784-0.033l0.231-3.228l1.651-0.021l0.255,3.189l2.786,0.024
			l-1.824-18.521L54.228,32.13z M55.591,44.584l0.688-7.281l0.658,7.263L55.591,44.584z"/>
		<polygon style="fill:#FFFFFF;" points="65.382,48.079 65.382,32.3 62.365,32.17 62.365,50.648 67.469,50.816 67.467,48.143 		"/>
		<polygon style="fill:#FFFFFF;" points="72.699,48.453 72.701,32.833 69.684,32.576 69.684,50.955 74.724,51.354 74.723,48.645 		
			"/>
		<path style="fill:#FFFFFF;" d="M78.528,33.512l-1.807,17.992l2.785,0.263l0.231-3.298l1.628,0.149l0.229,3.356l2.785,0.313
			l-1.823-18.253L78.528,33.512z M79.888,45.651l0.665-7.015l0.655,7.132L79.888,45.651z"/>
		<path style="fill:#FFFFFF;" d="M89.903,35.097c-3.226-0.539-3.41-0.116-3.439,2.985v2.484c0.026,1.544,0.314,2.411,1.308,3.286
			l2.173,1.746c0.421,0.368,0.683,0.789,0.691,1.346v2.878c0,0.434-0.349,0.494-0.614,0.476c-0.243-0.049-0.543-0.264-0.543-0.667
			l0.003-2.578l-3.017-0.363v2.616c0.029,2.894,0.363,3.326,3.557,3.817c3.245,0.417,3.604,0.264,3.63-2.699V46.75
			c-0.031-1.189-0.397-2.176-1.324-2.983l-2.29-1.848c-0.381-0.345-0.542-0.646-0.556-1.266v-2.081c0-0.433,0.299-0.538,0.545-0.514
			c0.26,0.06,0.609,0.414,0.609,0.872v1.771l3.016,0.445v-1.777C93.62,36.426,93.116,35.729,89.903,35.097z"/>
		<polygon style="fill:#FFFFFF;" points="57.295,97.957 57.047,93.861 54.204,97.957 49.475,97.957 52.585,100.68 50.155,104.918 
			54.692,102.287 57.772,104.875 57.471,100.646 62.043,97.957 		"/>
	</g>
	<g>
		<path style="fill:#CFD4D8;" d="M53.919,55.908h-2.534c-1.379,0-2.079,0.123-2.079,1.061v0.333c0,0.689,0.306,1.064,2.023,1.064
			h1.661c0.698,0,1.033-0.098,1.323-0.29v0.455c0,0.3-0.256,0.458-0.868,0.458h-4.18v0.825h4.188c1.903,0,2.544-0.339,2.544-1.5
			v-1.066C55.998,56.256,55.309,55.908,53.919,55.908z M53.398,57.575h-1.55c-0.72,0-0.905-0.096-0.905-0.417
			c0-0.327,0.194-0.426,0.875-0.426h1.621c0.682,0,0.874,0.099,0.874,0.426C54.314,57.479,54.128,57.575,53.398,57.575z"/>
		<path style="fill:#CFD4D8;" d="M62.047,57.354h-1.66c-0.698,0-1.035,0.1-1.326,0.289v-0.452c0-0.301,0.259-0.458,0.869-0.458
			h3.983v-0.825H59.92c-1.901,0-2.544,0.338-2.544,1.498v1.066c0,0.994,0.691,1.342,2.078,1.342h2.535
			c1.381,0,2.078-0.124,2.078-1.062v-0.333C64.068,57.727,63.764,57.354,62.047,57.354z M61.556,58.989h-1.621
			c-0.68,0-0.874-0.101-0.874-0.427c0-0.322,0.188-0.418,0.906-0.418h1.559c0.722,0,0.905,0.096,0.905,0.418
			C62.431,58.889,62.239,58.989,61.556,58.989z"/>
	</g>
	<g>
		<path style="fill:#D11242;" d="M102.637,31.38c0,0-16.102-6.63-45.971-6.63c-29.868,0-45.97,6.63-45.97,6.63
			c-3.809,47.722,19.492,74.336,45.97,86.359C83.146,105.717,106.447,79.103,102.637,31.38z M56.667,116.545
			c-17.609-8.12-45.303-28.314-45.303-74.985c0-3.021,0.128-6.166,0.371-9.413C14.882,31,30.51,25.834,56.667,25.834
			c26.156,0,41.785,5.166,44.933,6.312c0.242,3.247,0.37,6.392,0.37,9.413C101.969,88.23,74.277,108.425,56.667,116.545z"/>
		<path style="fill:#D11242;" d="M77.509,70.838l-4.897,1.101c-0.852,0.581-2.313,1.842-1.489,2.88l4.771,5.039
			c-0.907,1.944,0.906,3.134,0.906,3.134c-0.239,1.38-2.036,3.259-2.036,3.259l-1.917,0.116l-0.823,1.325l-5.24,0.408l-1.109-0.52
			c-4.161,8.14-1.16,14.357,3.813,17.855c15.125-10.472,25.062-24.26,28.872-45.615C84.402,60.602,84.283,69.219,77.509,70.838z"/>
		<path style="fill:#D11242;" d="M14.948,59.677c1.975,11.172,5.622,20.274,10.807,27.917c6.097-7.432,12.642-12.346,16.612-14.942
			c-1.667-0.172-3.281-0.35-4.61-0.518C26.403,70.698,25.9,59.851,14.948,59.677z"/>
		<path style="fill:#D11242;" d="M66.724,71.461c-0.104-1.404,1.71-2.49,0.437-4.449c-1.006-1.543-3.458-1.754-3.05-2.94
			c-1.122,0.566-0.969,1.563-0.266,2.198c0.87,0.784-0.66,1.429-0.976,0.511c-0.385,0.446-0.383,1.178,0.46,1.904
			C64.172,69.414,66.017,69.43,66.724,71.461z"/>
	</g>
	<g>
		<path style="fill:#003E7E;" d="M75.893,79.858c0,0-0.947,0.143-1.459,1.528l-2.755-0.048c0,0-0.984-1.376-2.875-1.388
			c0,0-1.77,0.976-1.616,2.362c0,0,0.451-0.767,1.514-0.774c0.697,0.256,1.012,1.032,1.012,1.032s-0.386,1.694-2.463,2.36
			c0,0-2.508-1.445-4.432-1.531c-1.922-0.09-4.606,2.311-7.13,0.182c-2.524-2.132-2.285-5.419-1.223-7.646
			c0,0-5.976,4.177-1.053,9.889c0,0-8.238,5.494-11.81,18.005c4.528,3.353,9.558,6.369,15.065,9.173
			c4.612-2.348,8.892-4.845,12.82-7.566c-4.974-3.498-7.975-9.716-3.813-17.855l1.109,0.52l5.24-0.408l0.823-1.325l1.917-0.116
			c0,0,1.797-1.879,2.036-3.259C76.799,82.992,74.986,81.803,75.893,79.858z M57.772,104.875l-3.08-2.588l-4.537,2.631l2.429-4.238
			l-3.11-2.723h4.729l2.843-4.096l0.248,4.096h4.748l-4.572,2.689L57.772,104.875z"/>
		<polygon style="fill:#003E7E;" points="55.591,44.584 56.937,44.566 56.278,37.304 		"/>
		<path style="fill:#003E7E;" d="M100.047,33.626c0,0-16.253-6.242-43.381-6.242s-43.38,6.242-43.38,6.242
			c-0.257,9.783,0.308,18.401,1.661,26.051c12.046-4.036,14.917,5.632,24.702,5.992l10.896,0.1c1.818-1.837,4.43-2.794,4.43-2.794
			l9.324,0.065c1.942,0.972,3.905,2.464,3.905,2.464s2.953,0.039,6.427-0.242c6.751-0.547,9.42-7.676,23.728-5.441
			C99.73,52.135,100.306,43.472,100.047,33.626z M25.341,37.873l-2.643,0.549v3.722l2.642-0.515v2.908l-2.642,0.503v8.203
			l-3.016,0.582V36.184l5.658-1.299C25.341,35.896,25.341,36.862,25.341,37.873z M34.66,39.399l-3.015,0.313v-2.196
			c0-0.44-0.289-0.63-0.603-0.58c-0.281,0.032-0.529,0.251-0.529,0.698v11.123c0,0.562,0.326,0.603,0.572,0.593
			c0.263-0.045,0.561-0.196,0.561-0.675v-3.428l3.015-0.281v3.537c-0.029,2.881-0.49,3.218-3.728,3.616
			c-3.203,0.316-3.409-0.007-3.437-2.899V37.979c0.028-3.089,0.244-3.612,3.437-4.129c3.244-0.418,3.701,0.047,3.728,3.273V39.399z
			 M43.052,51.016v-18.38l4.129-0.3c2.629-0.104,3.131,0.3,3.187,3.819l-0.002,11.527c-0.044,2.565-0.464,2.94-3.089,3.089
			L43.052,51.016z M55.998,58.314c0,1.161-0.641,1.5-2.544,1.5h-4.188v-0.825h4.18c0.611,0,0.868-0.158,0.868-0.458v-0.455
			c-0.29,0.192-0.626,0.29-1.323,0.29h-1.661c-1.717,0-2.023-0.375-2.023-1.064v-0.333c0-0.938,0.7-1.061,2.079-1.061h2.534
			c1.39,0,2.079,0.348,2.079,1.34V58.314z M57.089,47.376l-1.651,0.021l-0.231,3.228l-2.784,0.033l1.805-18.527l4.078-0.063
			l1.824,18.521l-2.786-0.024L57.089,47.376z M64.068,58.752c0,0.938-0.697,1.062-2.078,1.062h-2.535
			c-1.387,0-2.078-0.349-2.078-1.342v-1.066c0-1.16,0.643-1.498,2.544-1.498h3.993v0.825H59.93c-0.61,0-0.869,0.157-0.869,0.458
			v0.452c0.291-0.19,0.628-0.289,1.326-0.289h1.66c1.717,0,2.021,0.374,2.021,1.066V58.752z M62.365,50.648V32.17l3.018,0.13v15.779
			l2.085,0.063l0.002,2.673L62.365,50.648z M69.684,50.955V32.576l3.017,0.256l-0.002,15.621l2.024,0.192l0.001,2.709L69.684,50.955
			z M81.593,51.975l-0.229-3.356l-1.628-0.149l-0.231,3.298l-2.785-0.263l1.807-17.992l4.027,0.523l1.823,18.253L81.593,51.975z
			 M93.65,41.146l-3.016-0.445V38.93c0-0.458-0.35-0.812-0.609-0.872c-0.246-0.024-0.545,0.081-0.545,0.514v2.081
			c0.014,0.62,0.175,0.921,0.556,1.266l2.29,1.848c0.927,0.807,1.293,1.793,1.324,2.983v3.676c-0.026,2.963-0.385,3.115-3.63,2.699
			c-3.193-0.492-3.527-0.923-3.557-3.817v-2.616l3.017,0.363l-0.003,2.578c0,0.403,0.3,0.618,0.543,0.667
			c0.266,0.018,0.614-0.042,0.614-0.476v-2.878c-0.008-0.557-0.27-0.978-0.691-1.346l-2.173-1.746
			c-0.994-0.875-1.281-1.742-1.308-3.286v-2.484c0.029-3.101,0.214-3.523,3.439-2.985c3.213,0.632,3.717,1.329,3.747,4.272V41.146z"
			/>
		<path style="fill:#003E7E;" d="M61.526,58.145h-1.559c-0.719,0-0.906,0.096-0.906,0.418c0,0.326,0.194,0.427,0.874,0.427h1.621
			c0.683,0,0.875-0.101,0.875-0.427C62.431,58.241,62.248,58.145,61.526,58.145z"/>
		<polygon style="fill:#003E7E;" points="79.888,45.651 81.209,45.768 80.553,38.636 		"/>
		<path style="fill:#003E7E;" d="M46.893,35.697l-0.825,0.075v12.416l0.825-0.072c0.406-0.028,0.455-0.175,0.461-0.59V36.487
			C47.339,35.831,47.177,35.695,46.893,35.697z"/>
		<path style="fill:#003E7E;" d="M53.439,56.732h-1.621c-0.682,0-0.875,0.099-0.875,0.426c0,0.321,0.185,0.417,0.905,0.417h1.55
			c0.73,0,0.915-0.096,0.915-0.417C54.314,56.832,54.121,56.732,53.439,56.732z"/>
		<path style="fill:#003E7E;" d="M76.625,67.748c-2.596,0.255-6.12,0.424-6.12,0.424c0.618,0.741,0.848,1.58,0.848,1.58
			s-2.811,2.208-0.229,5.067c-0.824-1.038,0.638-2.299,1.489-2.88l4.897-1.101c6.773-1.619,6.893-10.236,20.85-11.017
			C83.477,59.126,82.927,67.127,76.625,67.748z"/>
		<path style="fill:#003E7E;" d="M42.367,72.651c1.013,0.104,2.046,0.206,3.046,0.302c-2.521,1.897-3.42,4.592-3.42,4.592
			c7.878-1.52,10.774-3.84,11.676-4.8c2.652-2.585,0.446-5.653-0.218-5.857c0.622,1.822-0.502,2.42-0.502,2.42l-13.502-0.714
			c-12.336-1.137-11.953-10.829-24.499-8.917C25.9,59.851,26.403,70.698,37.757,72.133C39.086,72.301,40.7,72.479,42.367,72.651z"/>
		<path style="fill:#003E7E;" d="M65.898,74.9c-1.658-3.117-3.255-3.764-5.912-4.471c0,0-1.665,0.923-2.683,2.896
			C57.303,73.325,62.215,72.902,65.898,74.9z"/>
		<polygon style="fill:#003E7E;" points="83.605,100.838 84.475,100.838 84.475,103.465 84.791,103.465 84.791,100.838 
			85.707,100.838 85.707,100.522 83.605,100.522 		"/>
		<polygon style="fill:#003E7E;" points="87.387,102.916 86.632,100.522 86.127,100.522 86.127,103.465 86.442,103.465 
			86.442,100.965 87.23,103.465 87.545,103.465 88.334,100.965 88.334,103.465 88.648,103.465 88.648,100.522 88.142,100.522 		"/>
	</g>
</g>
</svg>
