<svg xmlns="http://www.w3.org/2000/svg" viewBox="0 0 130.02 114.34"><defs><style>.cls-1{fill:#fff;}.cls-2{fill:#8db7e2;}.cls-3{fill:#e37325;}</style></defs><title>HOU</title><g id="Layer_2" data-name="Layer 2"><g id="Layer_1-2" data-name="Layer 1"><path class="cls-1" d="M113.62,37.23a147.27,147.27,0,0,0,4.16-18.78l-9.37-7.4a21.93,21.93,0,0,1-6.69,1.35C92.6,12.4,83.89,5.27,65,5.27S37.42,12.4,28.3,12.4a21.93,21.93,0,0,1-6.69-1.35l-9.36,7.4A145.58,145.58,0,0,0,16.4,37.23c-4.72.73-8.51,1.42-11.13,1.93V76.49c5.83-1.14,15.24-2.76,26.9-4C42,88.11,53.79,100.08,65,108c11.22-7.9,23.07-19.87,32.84-35.49,11.66,1.24,21.07,2.86,26.9,4V39.16C122.14,38.65,118.34,38,113.62,37.23Zm8.92,36.58c-6.18-1.14-15.12-2.57-25.84-3.67C87.33,85.47,75.92,97.31,65,105.26c-10.91-8-22.32-19.79-31.69-35.12-10.72,1.1-19.66,2.53-25.83,3.67V41c3-.55,7-1.24,11.78-2a144.49,144.49,0,0,1-4.63-19.66l7.41-5.85a22.51,22.51,0,0,0,6.25,1.08c9.39,0,18.51-7.12,36.71-7.12s27.32,7.12,36.71,7.12A22.44,22.44,0,0,0,108,13.53l7.41,5.85A143,143,0,0,1,110.75,39c4.82.71,8.83,1.4,11.79,2Z"/><path class="cls-1" d="M58.81,34.8a4.19,4.19,0,0,0,2.52.7,5.18,5.18,0,0,0,2.37,2.63c-.43.19-.88.35-1.27.48a7.34,7.34,0,0,0,2.58.48,7.2,7.2,0,0,0,2.6-.49c-.2-.09-.39-.17-.54-.25a6,6,0,0,1-2.76-.08,8.7,8.7,0,0,0,2.94-.59,4.2,4.2,0,0,0,1.44-2.18,5.06,5.06,0,0,0,3.1-1.32A7.14,7.14,0,0,0,72.15,32a7.21,7.21,0,0,0-.7-3.08A3.56,3.56,0,0,0,71,28.5c0-.12.06-.24.08-.36a7.13,7.13,0,0,0-12.1,0,1.71,1.71,0,0,0,.11.32,4.21,4.21,0,0,0-.57.54A7.06,7.06,0,0,0,57.87,32a7,7,0,0,0,.26,1.89A7.88,7.88,0,0,0,58.81,34.8ZM62,29a6.89,6.89,0,0,1,2.65-1.91A12.88,12.88,0,0,1,65,24.83a12,12,0,0,1,.35,2.26A6.89,6.89,0,0,1,68,29c.51-.12,1.6-.35,2.32-.43a13.64,13.64,0,0,1-2.06,1.1,18,18,0,0,1-1.06,2.86,25.47,25.47,0,0,1,1.31,2.3A15,15,0,0,1,66.6,33a10.29,10.29,0,0,1-1.59.14A10.42,10.42,0,0,1,63.42,33a15,15,0,0,1-1.92,1.82c.41-.87,1.29-2.27,1.31-2.3a19.1,19.1,0,0,1-1.06-2.86,13.64,13.64,0,0,1-2.06-1.1C60.41,28.65,61.5,28.88,62,29Z"/><path class="cls-1" d="M85.45,21.48l3.38,1a.85.85,0,0,0,1.06-.57l1.54-5.13a.87.87,0,0,0-.57-1.07l-3.37-1a.87.87,0,0,0-1.07.58l-1.54,5.12A.87.87,0,0,0,85.45,21.48ZM88,15.93l1.7.52-1.44,4.82-1.71-.51Z"/><polygon class="cls-1" points="74.48 13.19 76.19 13.44 75.32 19.42 77.08 19.68 77.95 13.7 79.66 13.95 79.81 12.94 74.63 12.18 74.48 13.19"/><path class="cls-1" d="M63.68,18.74h2.66a.87.87,0,0,0,.86-.86v-1.7a.69.69,0,0,0-.22-.47l-2.43-2.05v-1h.92v.89H67.2V12.53a.87.87,0,0,0-.86-.86H63.68a.86.86,0,0,0-.85.86v1.3a.78.78,0,0,0,.21.47l2.43,2.05v1.37h-.92V16.61H62.83v1.27A.86.86,0,0,0,63.68,18.74Z"/><path class="cls-1" d="M52.09,19.81l3.48-.51a.86.86,0,0,0,.72-1l-.9-6.15-1.71.25.88,6-1.76.26-.88-6-1.7.25.9,6.15A.85.85,0,0,0,52.09,19.81Z"/><path class="cls-1" d="M43.6,15.29a.86.86,0,0,0-1.06-.58l-3.37,1a.87.87,0,0,0-.58,1.07l1.54,5.13a.85.85,0,0,0,1.07.57l3.37-1a.86.86,0,0,0,.57-1.07Zm-1.86,6-1.45-4.82L42,15.93l1.44,4.83Z"/><polygon class="cls-1" points="30.32 23.62 31.93 22.86 33.21 25.61 34.77 24.87 31.79 18.48 30.22 19.2 31.5 21.94 29.89 22.7 28.61 19.96 26.14 21.11 27.43 21.51 30.04 27.09 31.6 26.36 30.32 23.62"/><polygon class="cls-1" points="101.41 19.96 99.94 23.1 99.2 18.93 98.24 18.48 95.25 24.87 96.81 25.61 98.28 22.46 99.02 26.64 99.99 27.09 102.59 21.51 103.89 21.11 101.41 19.96"/><polygon class="cls-1" points="66.48 79.07 65.01 74.54 63.54 79.07 58.78 79.07 62.63 81.86 61.16 86.39 65.01 83.59 68.86 86.39 67.39 81.86 71.24 79.07 66.48 79.07"/><path class="cls-1" d="M102.93,45.94V62.72a1.63,1.63,0,0,0,.66,1.16l.52-.59a2.93,2.93,0,0,0,1.27.43l7.61,1c1.14.16,1.58-.14,1.61-.46V47.8l1.1-.74,2.38-.51-12.7-1.76C102.93,44.44,102.93,45.94,102.93,45.94Zm2.75.05,7,1-.83.73V63.46l-5.34-.75-.84.73Z"/><polygon class="cls-1" points="74.18 42.38 70.56 42.29 68.17 51.29 64.41 48.25 67.86 52.47 65.36 61.93 66.45 61.12 68.28 61.16 70.03 53.82 71.61 47.19 73.13 47.22 72.46 48.05 74.41 56.33 70.97 53.54 70.03 53.82 70.46 55.66 75.79 62.19 76.18 61.36 78.29 61.41 73.53 43.2 74.18 42.38"/><polygon class="cls-1" points="59.34 61.18 60.27 61.14 60.27 43.05 61.1 42.19 57.52 42.31 57.52 53.22 58.36 56.16 50.36 43.39 50.83 42.54 48.59 42.61 48.59 62.38 49.43 61.51 51.34 61.45 51.34 48.41 52.18 51.35 58.87 62.03 59.34 61.18"/><polygon class="cls-1" points="37.84 50.66 37.84 52.97 34.43 44.52 35.01 43.63 31.35 43.95 36.05 54.93 36.05 63.3 36.89 62.39 38.8 62.23 38.8 54.52 43.09 43.76 44.34 42.81 40.68 43.13 37.84 50.66"/><path class="cls-1" d="M25.5,46.43l.67-.63c-.72-.53-2-.91-4.27-.59l-10,1.38,2.38.51,1.1.74-.84.51V66l.84-1,6.48-.9c4.19-.58,4.35-2.59,4.36-2.7V47.53A1.55,1.55,0,0,0,25.5,46.43Zm-2,2.37V60.94A2.17,2.17,0,0,1,21.69,63l-3.52.49-.84,1V47l4.36-.61a2.28,2.28,0,0,1,2.14.78l-.66.61A1.62,1.62,0,0,1,23.51,48.8Z"/><polygon class="cls-1" points="91.39 53.07 90.92 53.03 90.38 53.83 85.95 43.77 86.48 42.98 83.63 42.74 83.63 62.51 84.47 61.74 86.38 61.9 86.38 48.95 87.22 51.47 90.51 61.35 91.11 60.56 91.19 60.57 95.09 49.54 95.09 52.13 95.09 63.47 95.93 62.7 97.84 62.86 97.84 44.77 98.68 44 95.82 43.76 91.39 53.07"/><path class="cls-2" d="M120.28,33a149.12,149.12,0,0,0,3.19-16.73L109.32,5.05s-4.59,2.08-7.6,2.08C94.22,7.13,84.41,0,65,0S35.8,7.13,28.3,7.13c-3,0-7.6-2.08-7.6-2.08L6.55,16.24A151.41,151.41,0,0,0,9.74,33C3.57,34.05,0,34.87,0,34.87V83a275.4,275.4,0,0,1,29.49-4.9c10.38,15.78,23,28.11,35.52,36.24,12.54-8.13,25.14-20.46,35.53-36.24A274.86,274.86,0,0,1,130,83V34.87S126.45,34.05,120.28,33Zm8.35,48.3c-3.95-.86-14.54-3-28.8-4.63C89.35,92.75,76.74,104.9,65,112.69c-11.73-7.79-24.33-19.94-34.82-36-14.26,1.63-24.85,3.77-28.8,4.63V36c1.64-.35,5.15-1.07,10.08-1.9A149.9,149.9,0,0,1,8.05,16.82L20.92,6.65A22.9,22.9,0,0,0,28.3,8.51c7.92,0,17.35-7.12,36.71-7.12S93.8,8.51,101.72,8.51a22.9,22.9,0,0,0,7.38-1.86L122,16.82a147.8,147.8,0,0,1-3.42,17.27c4.93.83,8.44,1.55,10.08,1.9Z"/><path class="cls-2" d="M58.94,25.89a4.44,4.44,0,0,0,0,2.29,7.13,7.13,0,0,1,12.1,0A5.29,5.29,0,0,0,70.6,25a14.71,14.71,0,0,1,1.44.41,8.7,8.7,0,0,0-4.41-3.21c.14.23.27.45.37.64a6.05,6.05,0,0,1,2.19,1.69,9,9,0,0,0-2.73-1.26,4.24,4.24,0,0,0-2.45.92,5.14,5.14,0,0,0-3.45-.73,12,12,0,0,1,.83-1.26A8.7,8.7,0,0,0,58,25.39c.26-.07.51-.12.71-.16A6.09,6.09,0,0,1,61,23.68,8.67,8.67,0,0,0,58.94,25.89Z"/><path class="cls-2" d="M56.36,30.38a.43.43,0,0,1,0,.05A8.69,8.69,0,0,0,58,35.56c0-.27,0-.52.07-.72a6.1,6.1,0,0,1-.77-2.65,8.78,8.78,0,0,0,.79,1.65A7,7,0,0,1,57.87,32,7.06,7.06,0,0,1,58.49,29a5.24,5.24,0,0,0-1.2,2.52A12.54,12.54,0,0,1,56.36,30.38Z"/><path class="cls-2" d="M72.15,32a7.14,7.14,0,0,1-.36,2.23l.13-.12A13.05,13.05,0,0,1,72,35.55a8.57,8.57,0,0,0,1.69-5.12v-.05c-.17.2-.34.4-.49.55a6,6,0,0,1-.93,2.59,8.92,8.92,0,0,0,.35-3,4.91,4.91,0,0,0-1.15-1.67A7.21,7.21,0,0,1,72.15,32Z"/><path class="cls-2" d="M67.61,38.6a7.2,7.2,0,0,1-2.6.49,8.82,8.82,0,0,0,2.73-.44Z"/><path class="cls-2" d="M62.29,38.65a8.71,8.71,0,0,0,2.72.44,7.34,7.34,0,0,1-2.58-.48Z"/><polygon class="cls-2" points="106.52 46.94 111.86 47.69 112.69 46.96 105.68 45.99 105.68 63.44 106.52 62.72 106.52 46.94"/><path class="cls-2" d="M114.6,47.8V64.31c0,.32-.47.62-1.61.46l-7.61-1a2.93,2.93,0,0,1-1.27-.43l-.52.59a3.66,3.66,0,0,0,1.79.68l7.61,1c2.45.35,2.45-1.15,2.45-1.15V48.31l2.64-1.76-2.38.51Z"/><polygon class="cls-2" points="66.45 61.12 65.36 61.93 68.95 62.02 70.46 55.66 70.03 53.82 68.28 61.16 66.45 61.12"/><polygon class="cls-2" points="70.03 53.82 70.97 53.54 72.28 48.04 72.46 48.05 73.13 47.22 71.61 47.19 70.03 53.82"/><polygon class="cls-2" points="73.53 43.2 78.29 61.41 76.18 61.36 75.79 62.19 79.38 62.28 74.18 42.38 73.53 43.2"/><polygon class="cls-2" points="51.34 61.45 49.43 61.51 48.59 62.38 52.18 62.26 52.18 51.35 51.34 48.41 51.34 61.45"/><polygon class="cls-2" points="50.83 42.54 50.36 43.39 58.36 56.16 57.52 53.22 50.83 42.54"/><polygon class="cls-2" points="60.27 61.14 59.34 61.18 58.87 62.03 61.1 61.95 61.1 42.19 60.27 43.05 60.27 61.14"/><polygon class="cls-2" points="37.84 50.66 35.01 43.63 34.43 44.52 37.84 52.97 37.84 50.66"/><polygon class="cls-2" points="38.8 54.52 38.8 62.23 36.89 62.39 36.05 63.3 39.64 62.99 39.64 54.61 44.34 42.81 43.09 43.76 38.8 54.52"/><path class="cls-2" d="M18.17,47.73l3.52-.49a1.57,1.57,0,0,1,1.48.55l.66-.61a2.28,2.28,0,0,0-2.14-.78L17.33,47V64.45l.84-1Z"/><polygon class="cls-2" points="15.42 47.84 14.32 47.1 11.94 46.59 14.58 48.35 15.42 47.84"/><path class="cls-2" d="M26.17,45.8l-.67.63a1.55,1.55,0,0,1,.76,1.1V61.44c0,.11-.17,2.12-4.36,2.7l-6.48.9-.84,1,7.32-1c5.19-.73,5.19-3.64,5.19-3.64V47.4A2.15,2.15,0,0,0,26.17,45.8Z"/><polygon class="cls-2" points="86.38 61.9 84.47 61.74 83.63 62.51 87.22 62.81 87.22 51.47 86.38 48.95 86.38 61.9"/><polygon class="cls-2" points="95.09 49.54 91.19 60.57 91.11 60.56 90.51 61.35 91.79 61.46 95.09 52.13 95.09 49.54"/><polygon class="cls-2" points="86.48 42.98 85.95 43.77 90.38 53.83 90.92 53.03 86.48 42.98"/><polygon class="cls-2" points="97.84 62.86 95.93 62.7 95.09 63.47 98.68 63.77 98.68 44 97.84 44.77 97.84 62.86"/><path class="cls-3" d="M118.55,34.09A147.8,147.8,0,0,0,122,16.82L109.1,6.65a22.9,22.9,0,0,1-7.38,1.86C93.8,8.51,84.37,1.39,65,1.39S36.22,8.51,28.3,8.51a22.9,22.9,0,0,1-7.38-1.86L8.05,16.82a149.9,149.9,0,0,0,3.42,17.27C6.54,34.92,3,35.64,1.39,36V81.27c4-.86,14.54-3,28.8-4.63C40.68,92.75,53.28,104.9,65,112.69c11.73-7.79,24.34-19.94,34.82-36,14.26,1.63,24.85,3.77,28.8,4.63V36C127,35.64,123.48,34.92,118.55,34.09Zm6.2,42.4c-5.83-1.14-15.24-2.76-26.9-4C88.08,88.11,76.23,100.08,65,108,53.79,100.08,42,88.11,32.17,72.49c-11.66,1.24-21.07,2.86-26.9,4V39.16c2.62-.51,6.41-1.2,11.13-1.93a145.58,145.58,0,0,1-4.15-18.78l9.36-7.4A21.93,21.93,0,0,0,28.3,12.4c9.12,0,17.83-7.13,36.71-7.13S92.6,12.4,101.72,12.4a21.93,21.93,0,0,0,6.69-1.35l9.37,7.4a147.27,147.27,0,0,1-4.16,18.78c4.72.73,8.52,1.42,11.13,1.93Z"/><path class="cls-3" d="M90.58,69.58,71,77.45,83.8,69.08,82.26,69,70.33,76.58l8.06-7.79-1.29-.05-7.7,7,5.09-7.13-1.09,0-5,6.43,3-6.48-1,0-3.12,6,1.56-6.07-1,0-1.77,5.76.42-5.77h-.94L65,73.93l-.61-5.44h-.94l.43,5.77L62.11,68.5l-1,0,1.57,6.07-3.12-6-1,0,3,6.48-4.95-6.43-1.1,0,5.09,7.13-7.69-7-1.3.05,8.06,7.79L47.76,69l-1.54.09L59,77.45,39.44,69.58c-.6,0-1.18.1-1.77.15l20.81,8.9L38.6,74.23l.62.88,18.9,4.8-16-.76c.24.33.49.66.73,1l15.18,1.1-13,1.63.5.61,12.63-1.09L47.5,85.76l.57.66,10.38-2.84-8.71,4.7.53.57L59,84.67l-7.26,5.75.55.57,7.36-5.39-5.94,6.82c.2.2.4.41.6.6l6.18-6.57-4.76,8,.65.6,5.18-7.88-3.48,9.44.63.57,3.92-9.49-2.19,11,.66.56L63.81,88l-.67,12.82c.23.18.45.35.65.49L65,88.06l1.23,13.23.65-.49L66.22,88l2.7,11.19.66-.56-2.19-11,3.92,9.49.63-.57-3.47-9.44L73.65,95l.64-.6-4.76-8L75.72,93l.59-.6L70.38,85.6,77.73,91c.18-.19.37-.37.55-.57L71,84.67l8.73,4.18.53-.57-8.71-4.7L82,86.42l.57-.66L71.83,82.37l12.63,1.09c.17-.2.34-.4.5-.61L72,81.22l15.17-1.1.74-1-16,.76,18.9-4.8.62-.88-19.88,4.4,20.82-8.9C91.77,69.68,91.18,69.62,90.58,69.58ZM67.39,81.86l1.47,4.53L65,83.59l-3.85,2.8,1.47-4.53-3.85-2.79h4.76L65,74.54l1.47,4.53h4.76Z"/><path class="cls-3" d="M33.84,37.24,22.13,21.94,32.77,37.35Z"/><path class="cls-3" d="M25.65,38.18,18.86,31l6,7.31Z"/><path class="cls-3" d="M60,20.85,58.66,9.39l.75,11.78C59.59,21.06,59.77,21,60,20.85Z"/><path class="cls-3" d="M53.25,35.85,46,11.7l6,24.2Z"/><path class="cls-3" d="M44.19,36.35,33.73,15.89,43,36.44Z"/><path class="cls-3" d="M97.25,37.35l10.64-15.41L96.18,37.24Z"/><path class="cls-3" d="M105.16,38.27l6-7.31-6.78,7.22Z"/><path class="cls-3" d="M71.37,9.39,70.06,20.85l.56.32Z"/><path class="cls-3" d="M84.07,11.7l-7.3,24.15,1.28,0Z"/><path class="cls-3" d="M96.3,15.89,85.83,36.35l1.22.09Z"/><path class="cls-3" d="M11.13,70v.89A330.42,330.42,0,0,1,65,66.2a330.42,330.42,0,0,1,53.88,4.64V70A328.16,328.16,0,0,0,65,65.32,328.26,328.26,0,0,0,11.13,70Z"/><path class="cls-3" d="M57.26,38a325.83,325.83,0,0,0-46.13,4.66v.9a325.06,325.06,0,0,1,47.07-4.7C57.87,38.59,57.56,38.3,57.26,38Z"/><path class="cls-3" d="M71.82,38.86a324.9,324.9,0,0,1,47.07,4.7v-.9A325.83,325.83,0,0,0,72.76,38C72.46,38.3,72.15,38.59,71.82,38.86Z"/><path class="cls-3" d="M65,30.1V27.5a7.72,7.72,0,0,0-2.74,2,23.94,23.94,0,0,0,.93,2.6Z"/><path class="cls-3" d="M63.83,23a4.88,4.88,0,0,1,2.68-1.2,6.19,6.19,0,0,0-3.19.14,3.63,3.63,0,0,0-.72.94A4.55,4.55,0,0,1,63.83,23Z"/><path class="cls-3" d="M57.05,30.38a4.45,4.45,0,0,1,.48-1.13,4.89,4.89,0,0,1-.31-2.92,6.2,6.2,0,0,0-.85,3.08A3.69,3.69,0,0,0,57.05,30.38Z"/><path class="cls-3" d="M61.36,38.33A3.84,3.84,0,0,0,62.51,38a4.23,4.23,0,0,1-.94-.81,4.86,4.86,0,0,1-2.87-.61A6.24,6.24,0,0,0,61.36,38.33Z"/><path class="cls-3" d="M71.4,36.34a4,4,0,0,0,0-1.19,4.52,4.52,0,0,1-1.07.64,4.85,4.85,0,0,1-1.46,2.54A6.22,6.22,0,0,0,71.4,36.34Z"/><path class="cls-3" d="M73.72,29.18a6.21,6.21,0,0,0-1.11-3,3.76,3.76,0,0,0-1.13-.4A4.47,4.47,0,0,1,71.76,27,4.83,4.83,0,0,1,73.72,29.18Z"/><path class="cls-3" d="M118.08,45.75,105.38,44c-2.58-.36-3.26,1.05-3.26,1.85V62.61c0,.79.68,2.39,3.26,2.75L113,66.42c2.58.36,3.26-1,3.26-1.85V48.81l2.34-1.56a.74.74,0,0,0,.3-.58A1,1,0,0,0,118.08,45.75Zm-2.64,2.56V64.46s0,1.5-2.45,1.15l-7.61-1a3.66,3.66,0,0,1-1.79-.68,1.63,1.63,0,0,1-.66-1.16V45.94s0-1.5,2.45-1.15l12.7,1.76Z"/><path class="cls-3" d="M111.86,47.69l-5.34-.75V62.71l5.34.75Zm-.81,14.85L107.32,62V47.86l3.73.52Z"/><path class="cls-3" d="M72.46,48h-.18L71,53.54l3.44,2.79Zm-.09,3.11.73,3.09-1.23-1Z"/><path class="cls-3" d="M63.83,47.67a.82.82,0,0,0,0,1.08L67,52.65l-2.4,9.06a.83.83,0,0,0,.78,1l3.59.09a.77.77,0,0,0,.78-.61l1.15-4.8,4.3,5.27a.77.77,0,0,0,.61.3l3.59.09a.79.79,0,0,0,.78-1L75,42.19a.83.83,0,0,0-.78-.62l-3.62-.08a.78.78,0,0,0-.78.58l-2.07,7.82-2.8-2.26A.81.81,0,0,0,63.83,47.67Zm4.34,3.62,2.39-9,3.62.09,5.2,19.9-3.59-.09-5.33-6.53L69,62l-3.59-.09,2.5-9.46-3.45-4.22Z"/><path class="cls-3" d="M57.52,41.5a.85.85,0,0,0-.81.84v8l-5.19-8.3a.79.79,0,0,0-.69-.36l-2.24.08a.84.84,0,0,0-.8.83V62.41a.78.78,0,0,0,.8.78l3.59-.13a.83.83,0,0,0,.8-.83v-8l5.2,8.3a.79.79,0,0,0,.69.36l2.24-.08a.84.84,0,0,0,.8-.83V42.16a.78.78,0,0,0-.8-.78ZM61.11,62,58.87,62,52.18,51.35V62.26l-3.59.12V42.61l2.24-.07,6.69,10.68V42.31l3.59-.12Z"/><path class="cls-3" d="M36.05,64.11l3.59-.31a.9.9,0,0,0,.8-.88V54.7l4.64-11.65a.74.74,0,0,0-.74-1l-3.66.32a.88.88,0,0,0-.75.57l-2.09,5.54-2.08-5.17a.73.73,0,0,0-.75-.45l-3.66.32a.89.89,0,0,0-.75,1.18l4.65,10.84v8.21A.72.72,0,0,0,36.05,64.11ZM31.35,44,35,43.63l2.83,7,2.84-7.53,3.66-.32-4.7,11.8V63l-3.59.32V54.93Z"/><path class="cls-3" d="M11.43,47.29l2.34,1.56V66.11a.69.69,0,0,0,.81.69l7.32-1c5.93-.82,6-4.4,6-4.55V47.29c0-.15-.07-3.71-6-2.89l-10,1.39a1,1,0,0,0-.81.92A.74.74,0,0,0,11.43,47.29ZM21.9,45.21c2.27-.32,3.55.06,4.27.59a2.15,2.15,0,0,1,.92,1.6V61.34s0,2.91-5.19,3.64l-7.32,1V48.35l-2.64-1.76Z"/><path class="cls-3" d="M23.51,60.94V48.8a1.62,1.62,0,0,0-.34-1,1.57,1.57,0,0,0-1.48-.55l-3.52.49V63.5L21.69,63A2.17,2.17,0,0,0,23.51,60.94ZM19,48.42,21.69,48a.86.86,0,0,1,1,.87V61.06a1.19,1.19,0,0,1-1,1.14L19,62.58Z"/><path class="cls-3" d="M95.09,64.28l3.59.3a.72.72,0,0,0,.8-.74V44.07a.89.89,0,0,0-.8-.87L95.82,43a.72.72,0,0,0-.73.41l-3.94,8.27-3.93-8.93a.91.91,0,0,0-.74-.54l-2.85-.24a.74.74,0,0,0-.8.74V62.44a.89.89,0,0,0,.8.87l3.59.3a.72.72,0,0,0,.8-.73V56.37l1.73,5.18a.91.91,0,0,0,.76.61l1.28.11a.75.75,0,0,0,.77-.49l1.72-4.88v6.5A.9.9,0,0,0,95.09,64.28Zm-3.3-2.82-1.28-.11-3.29-9.88V62.81l-3.59-.3V42.74l2.85.24L90.92,53l.47,0,4.43-9.31,2.86.24V63.77l-3.59-.3V52.13Z"/><rect x="85.64" y="17.71" width="5.04" height="1.78" transform="translate(44.97 97.68) rotate(-73.28)"/><rect x="40.98" y="16.08" width="1.78" height="5.04" transform="translate(-3.58 12.81) rotate(-16.69)"/><path d="M22.7,61.06V48.91a.86.86,0,0,0-1-.87L19,48.42V62.58l2.72-.38A1.19,1.19,0,0,0,22.7,61.06Z"/><polygon points="107.32 62.02 111.05 62.54 111.05 48.38 107.32 47.86 107.32 62.02"/><path d="M110.75,39a143,143,0,0,0,4.63-19.66L108,13.53a22.44,22.44,0,0,1-6.25,1.08c-9.39,0-18.51-7.12-36.71-7.12S37.69,14.61,28.3,14.61a22.51,22.51,0,0,1-6.25-1.08l-7.41,5.85A144.49,144.49,0,0,0,19.27,39c-4.81.71-8.82,1.4-11.78,2V73.81c6.17-1.14,15.11-2.57,25.83-3.67C42.69,85.47,54.1,97.31,65,105.26c10.91-8,22.32-19.79,31.69-35.12,10.72,1.1,19.66,2.53,25.84,3.67V41C119.58,40.44,115.57,39.75,110.75,39Zm8.14,3.62v.9a324.9,324.9,0,0,0-47.07-4.7c.33-.27.64-.56.94-.86A325.83,325.83,0,0,1,118.89,42.66ZM92.56,61.78a.75.75,0,0,1-.77.49l-1.28-.11a.91.91,0,0,1-.76-.61L88,56.37v6.51a.72.72,0,0,1-.8.73l-3.59-.3a.89.89,0,0,1-.8-.87V42.67a.74.74,0,0,1,.8-.74l2.85.24a.91.91,0,0,1,.74.54l3.93,8.93,3.94-8.27a.72.72,0,0,1,.73-.41l2.86.24a.89.89,0,0,1,.8.87V63.84a.72.72,0,0,1-.8.74l-3.59-.3a.9.9,0,0,1-.81-.88V56.9Zm-28.77-13a.82.82,0,0,1,0-1.08.81.81,0,0,1,1.08,0l2.8,2.26,2.07-7.82a.78.78,0,0,1,.78-.58l3.62.08a.83.83,0,0,1,.78.62l5.2,19.9a.79.79,0,0,1-.78,1L75.79,63a.77.77,0,0,1-.61-.3l-4.3-5.27-1.15,4.8a.77.77,0,0,1-.78.61l-3.59-.09a.83.83,0,0,1-.78-1L67,52.65Zm-1.88-6.59V61.93a.84.84,0,0,1-.8.83l-2.24.08a.79.79,0,0,1-.69-.36L53,54.18v8a.83.83,0,0,1-.8.83l-3.59.13a.78.78,0,0,1-.8-.78V42.64a.84.84,0,0,1,.8-.83l2.24-.08a.79.79,0,0,1,.69.36l5.19,8.3v-8a.85.85,0,0,1,.81-.84l3.59-.12A.78.78,0,0,1,61.91,42.16ZM57.53,29.25a4.45,4.45,0,0,0-.48,1.13,3.69,3.69,0,0,1-.68-1,6.2,6.2,0,0,1,.85-3.08A4.89,4.89,0,0,0,57.53,29.25Zm-1.17,1.13a12.54,12.54,0,0,0,.93,1.18A5.24,5.24,0,0,1,58.49,29a4.21,4.21,0,0,1,.57-.54,1.71,1.71,0,0,1-.11-.32,4.44,4.44,0,0,1,0-2.29,8.67,8.67,0,0,1,2-2.21,6.09,6.09,0,0,0-2.28,1.55c-.2,0-.45.09-.71.16a8.7,8.7,0,0,1,4.41-3.21,12,12,0,0,0-.83,1.26,5.14,5.14,0,0,1,3.45.73,4.24,4.24,0,0,1,2.45-.92,9,9,0,0,1,2.73,1.26A6.05,6.05,0,0,0,68,22.82c-.1-.19-.23-.41-.37-.64A8.7,8.7,0,0,1,72,25.39,14.71,14.71,0,0,0,70.6,25a5.29,5.29,0,0,1,.45,3.16c0,.12,0,.24-.08.36a3.56,3.56,0,0,1,.48.37,4.91,4.91,0,0,1,1.15,1.67,8.92,8.92,0,0,1-.35,3,6,6,0,0,0,.93-2.59c.15-.15.32-.35.49-.55v.05A8.57,8.57,0,0,1,72,35.55a13.05,13.05,0,0,0-.06-1.49l-.13.12a5.06,5.06,0,0,1-3.1,1.32,4.2,4.2,0,0,1-1.44,2.18,8.7,8.7,0,0,1-2.94.59,6,6,0,0,0,2.76.08c.15.08.34.16.54.25l.13,0a8.82,8.82,0,0,1-2.73.44,8.71,8.71,0,0,1-2.72-.44l.14,0c.39-.13.84-.29,1.27-.48a5.18,5.18,0,0,1-2.37-2.63,4.19,4.19,0,0,1-2.52-.7,7.88,7.88,0,0,1-.68-1,8.78,8.78,0,0,1-.79-1.65,6.1,6.1,0,0,0,.77,2.65c0,.2,0,.45-.07.72a8.69,8.69,0,0,1-1.69-5.13A.43.43,0,0,0,56.36,30.38Zm7-8.48a6.19,6.19,0,0,1,3.19-.14A4.88,4.88,0,0,0,63.83,23a4.55,4.55,0,0,0-1.23-.12A3.63,3.63,0,0,1,63.32,21.9Zm10.4,7.28a4.83,4.83,0,0,0-2-2.18,4.47,4.47,0,0,0-.28-1.21,3.76,3.76,0,0,1,1.13.4A6.21,6.21,0,0,1,73.72,29.18ZM68.9,38.33a4.85,4.85,0,0,0,1.46-2.54,4.52,4.52,0,0,0,1.07-.64,4,4,0,0,1,0,1.19A6.22,6.22,0,0,1,68.9,38.33ZM58.7,36.57a4.86,4.86,0,0,0,2.87.61,4.23,4.23,0,0,0,.94.81,3.84,3.84,0,0,1-1.15.34A6.24,6.24,0,0,1,58.7,36.57ZM111.16,31l-6,7.31-.78-.09ZM97.25,37.35l-1.07-.11,11.71-15.3Zm2-18.42.74,4.17L101.41,20l2.48,1.15-1.3.4L100,27.09l-1-.45-.74-4.18L96.81,25.6l-1.56-.73,3-6.39ZM87.05,36.44l-1.22-.09L96.3,15.89Zm-2.17-16,1.54-5.12a.87.87,0,0,1,1.07-.58l3.37,1a.87.87,0,0,1,.57,1.07l-1.54,5.13a.85.85,0,0,1-1.06.57l-3.38-1A.87.87,0,0,1,84.88,20.41ZM78.05,35.9l-1.28,0,7.3-24.15ZM74.63,12.18l5.18.76-.15,1L78,13.7l-.87,6-1.76-.26.87-6-1.71-.25ZM71.37,9.39l-.75,11.78-.56-.32Zm-8.54,7.22h1.72v1.11h.92V16.35L63,14.3a.78.78,0,0,1-.21-.47v-1.3a.86.86,0,0,1,.85-.86h2.66a.87.87,0,0,1,.86.86v1.05H65.47v-.89h-.92v1L67,15.71a.69.69,0,0,1,.22.47v1.7a.87.87,0,0,1-.86.86H63.68a.86.86,0,0,1-.85-.86ZM60,20.85c-.19.1-.37.21-.55.32L58.66,9.39Zm-8-8.16.88,6,1.76-.26-.88-6,1.71-.25.9,6.15a.86.86,0,0,1-.72,1l-3.48.51a.85.85,0,0,1-1-.72l-.9-6.15Zm1.33,23.16L52,35.9,46,11.7ZM39.17,15.72l3.37-1a.86.86,0,0,1,1.06.58l1.54,5.12a.86.86,0,0,1-.57,1.07l-3.37,1a.85.85,0,0,1-1.07-.57l-1.54-5.13A.87.87,0,0,1,39.17,15.72Zm5,20.63L43,36.44,33.73,15.89ZM28.61,20l1.28,2.74,1.61-.76L30.22,19.2l1.56-.72,3,6.39-1.57.73-1.28-2.73-1.61.75,1.28,2.74L30,27.09l-2.61-5.58-1.3-.4Zm5.23,17.28-1.07.11L22.13,21.94ZM18.86,31l6.79,7.22-.79.09Zm-7.73,11.7A325.83,325.83,0,0,1,57.26,38c.3.3.61.59.94.86a325.06,325.06,0,0,0-47.07,4.7ZM30.6,44.32a.89.89,0,0,1,.75-1.18L35,42.82a.73.73,0,0,1,.75.45l2.08,5.17,2.09-5.54a.88.88,0,0,1,.75-.57L44.34,42a.74.74,0,0,1,.74,1L40.44,54.7v8.22a.9.9,0,0,1-.8.88l-3.59.31a.72.72,0,0,1-.8-.74V55.16ZM11.94,45.79l10-1.39c5.93-.82,6,2.74,6,2.89V61.23c0,.15-.07,3.73-6,4.55l-7.32,1a.69.69,0,0,1-.81-.69V48.85l-2.34-1.56a.74.74,0,0,1-.3-.58A1,1,0,0,1,11.94,45.79ZM91.42,74.23l-.62.88-18.9,4.8,16-.76-.74,1L72,81.22l13,1.63c-.16.21-.33.41-.5.61L71.83,82.37l10.69,3.39-.57.66L71.57,83.58l8.71,4.7-.53.57L71,84.67l7.26,5.75c-.18.2-.37.38-.55.57L70.38,85.6l5.93,6.82-.59.6-6.19-6.57,4.76,8-.64.6-5.18-7.88,3.47,9.44-.63.57-3.92-9.49,2.19,11-.66.56L66.22,88l.67,12.82-.65.49L65,88.06l-1.22,13.23c-.2-.14-.42-.31-.65-.49L63.81,88,61.1,99.17l-.66-.56,2.19-11-3.92,9.49-.63-.57,3.48-9.44L56.38,95l-.65-.6,4.76-8L54.31,93c-.2-.19-.4-.4-.6-.6l5.94-6.82L52.29,91l-.55-.57L59,84.67l-8.73,4.18-.53-.57,8.71-4.7L48.07,86.42l-.57-.66,10.69-3.39L45.56,83.46l-.5-.61,13-1.63-15.18-1.1c-.24-.31-.49-.64-.73-1l16,.76-18.9-4.8-.62-.88,19.88,4.4-20.81-8.9c.59,0,1.17-.11,1.77-.15L59,77.45,46.22,69.08,47.76,69l11.93,7.59-8.06-7.79,1.3-.05,7.69,7-5.09-7.13,1.1,0L61.58,75l-3-6.48,1,0,3.12,6-1.57-6.07,1,0,1.78,5.76-.43-5.77h.94L65,73.93l.61-5.44h.94l-.42,5.77,1.77-5.76,1,0-1.56,6.07,3.12-6,1,0-3,6.48,5-6.43,1.09,0L69.4,75.77l7.7-7,1.29.05-8.06,7.79L82.26,69l1.54.09L71,77.45l19.57-7.87c.6,0,1.19.1,1.78.15l-20.82,8.9Zm27.47-3.39A330.42,330.42,0,0,0,65,66.2a330.42,330.42,0,0,0-53.88,4.64V70A328.26,328.26,0,0,1,65,65.32,328.16,328.16,0,0,1,118.89,70Zm-.3-23.59-2.34,1.56V64.57c0,.8-.68,2.21-3.26,1.85l-7.61-1.06c-2.58-.36-3.26-2-3.26-2.75V45.83c0-.8.68-2.21,3.26-1.85l12.7,1.77a1,1,0,0,1,.81.92A.74.74,0,0,1,118.59,47.25Z"/><polygon points="72.37 51.15 71.87 53.25 73.1 54.24 72.37 51.15"/><path d="M62.81,32.53s-.9,1.43-1.31,2.3A15,15,0,0,0,63.42,33a10.42,10.42,0,0,0,1.59.14A10.29,10.29,0,0,0,66.6,33a15,15,0,0,0,1.92,1.82,25.47,25.47,0,0,0-1.31-2.3,18,18,0,0,0,1.06-2.86,13.64,13.64,0,0,0,2.06-1.1c-.72.08-1.81.31-2.32.43a6.89,6.89,0,0,0-2.65-1.91A12,12,0,0,0,65,24.83a12.88,12.88,0,0,0-.35,2.26A6.89,6.89,0,0,0,62,29c-.51-.12-1.6-.35-2.32-.43a13.64,13.64,0,0,0,2.06,1.1A19.1,19.1,0,0,0,62.81,32.53Zm2.2-5v2.6l-1.81,2a23.94,23.94,0,0,1-.93-2.6A7.72,7.72,0,0,1,65,27.5Z"/></g></g></svg>