<?xml version="1.0" encoding="iso-8859-1"?>
<!-- Generator: Adobe Illustrator 22.1.0, SVG Export Plug-In . SVG Version: 6.00 Build 0)  -->
<!DOCTYPE svg PUBLIC "-//W3C//DTD SVG 1.1//EN" "http://www.w3.org/Graphics/SVG/1.1/DTD/svg11.dtd">
<svg version="1.1" id="Layer_1" xmlns="http://www.w3.org/2000/svg" xmlns:xlink="http://www.w3.org/1999/xlink" x="0px" y="0px"
	 viewBox="0 0 113.334 143.333" style="enable-background:new 0 0 113.334 143.333;" xml:space="preserve">
<g>
	<path style="fill:#FFD200;" d="M56.668,121.137L56.668,121.137c-26.33-13.755-42.665-51.191-42.935-82.249
		C22.699,36.825,40.516,33.144,56.668,12c16.15,21.144,33.965,24.825,42.931,26.888C99.331,69.945,82.995,107.382,56.668,121.137"/>
	<path style="fill:#0065A4;" d="M19.313,42.995c0.661,13.586,4.499,28.353,10.795,41.069c6.84,13.814,16.217,24.562,26.557,30.641
		c10.341-6.079,19.717-16.826,26.558-30.641c6.296-12.716,10.138-27.483,10.797-41.069c-8.86-2.168-23.558-6.878-37.354-22.76
		C42.872,36.117,28.171,40.827,19.313,42.995"/>
	<path style="fill:#00245D;" d="M22.036,44.908c0.838,12.807,4.445,26.235,10.273,38.001c6.264,12.655,14.89,22.751,24.356,28.634
		c9.469-5.883,18.092-15.979,24.359-28.634c5.825-11.765,9.432-25.194,10.273-38.001c-9.245-2.417-22.205-7.366-34.632-20.957
		C44.238,37.543,31.279,42.49,22.036,44.908"/>
	<path style="fill:#EEB111;" d="M55.454,17.887l1.211-1.397L56.668,12C40.516,33.144,22.699,36.825,13.733,38.888l2.988,2.199
		l1.014-0.249C27.109,38.544,42.964,33.311,55.454,17.887"/>
	<path style="fill:#EEB111;" d="M99.551,38.876l-3.067,2.194l-0.052,1.076c-0.052,13.993-4.856,30.57-11.245,43.473
		c-6.905,13.947-17.083,25.135-27.707,31.382l-0.814,0.479l0.002,3.657c26.327-13.755,42.663-51.191,42.931-82.249
		C99.585,38.883,99.569,38.88,99.551,38.876"/>
	<polygon style="fill:#00245D;" points="84.437,103.511 83.69,103.511 83.69,102.987 85.813,102.987 85.813,103.511 85.062,103.511 
		85.062,105.749 84.437,105.749 	"/>
	<path style="fill:#00245D;" d="M88.468,104.692c-0.013-0.33-0.025-0.729-0.025-1.136h-0.01c-0.089,0.354-0.205,0.746-0.312,1.07
		l-0.334,1.076h-0.489l-0.296-1.063c-0.091-0.328-0.18-0.717-0.249-1.083h-0.01c-0.013,0.373-0.026,0.801-0.045,1.145l-0.052,1.048
		h-0.579l0.176-2.762h0.833l0.27,0.927c0.091,0.315,0.174,0.659,0.234,0.983h0.016c0.076-0.321,0.17-0.679,0.262-0.99l0.292-0.92
		h0.82l0.148,2.762h-0.608L88.468,104.692z"/>
	<path style="fill:#C4C7DC;" d="M52.78,78.222h-14c-0.944,0-1.757-0.34-2.438-1.021c-0.679-0.68-1.019-1.493-1.019-2.438V53.956
		h5.183v19.413H52.78V78.222z"/>
	<path style="fill:#FFFFFF;" d="M36.268,54.561v19.611c0,0.633,0.212,1.14,0.668,1.595c0.456,0.459,0.963,0.673,1.593,0.673h12.804
		v-2.464H39.061V54.561H36.268z"/>
	<path style="fill:#C4C7DC;" d="M55.106,78.23h5.311l2.076-5.312h8.046l-1.73-4.436h-4.539l3.239-8.224l6.921,17.972h5.508
		c0,0-8.211-20.242-8.523-21.089c-0.645-1.746-1.658-3.174-3.908-3.174h-0.047c-2.248,0-3.183,1.417-3.825,3.164L55.106,78.23z"/>
	<path style="fill:#FFFFFF;" d="M56.585,76.445h2.684c0.43-1.094,2.076-5.311,2.076-5.311h7.626
		c-0.371-0.955-0.574-1.476-0.797-2.045h-6.031l5.085-13.003l5.973,15.323c0.009,0.017,1.283,3.479,1.855,5.035h2.923
		c-1.138-2.796-7.152-17.782-7.795-19.361c-0.644-1.577-1.394-2.368-2.623-2.368l-0.059-0.005c-1.804-0.03-2.447,0.789-3.09,2.367
		C64.412,57.079,57.48,74.223,56.585,76.445"/>
	<path style="fill:#FFD200;" d="M82.474,86.756c-7.791-1.496-16.559-2.336-25.829-2.336c-9.693,0-18.831,0.915-26.883,2.541
		c-3.433,0.692-6.508,1.376-8.596,2.053c1.98,3.095,4.247,6.695,6.163,9.624c1.912-0.477,3.935-0.922,6.021-1.343
		c6.975-1.405,14.897-2.202,23.295-2.202c8.035,0,15.631,0.727,22.381,2.023c2.473,0.474,4.817,0.943,6.982,1.442
		c1.987-3.031,4.182-6.487,6.161-9.509C89.884,88.356,86.476,87.523,82.474,86.756"/>
	<path style="fill:#00245D;" d="M31.77,90.96c0,0.933,0.346,1.574,1.027,1.91c0.677,0.333,1.321,0.282,2.093,0.179l3.168-0.41
		v-3.124l-2.851,0.336v1.08c0.756-0.066,0.897-0.072,1.233-0.119v0.852c-0.292,0.04-1.551,0.196-1.551,0.196
		c-0.769,0.106-1.28-0.06-1.28-1.195c0-1.308,0.613-1.57,1.28-1.659l3.168-0.414v-1.149l-3.168,0.415
		C32.794,88.137,31.77,89.151,31.77,90.96 M43.618,86.863l-2.792,5.427l1.809-0.152c0,0,0.266-0.603,0.358-0.801l2.829-0.236
		c0.094,0.181,0.38,0.739,0.38,0.739l1.875-0.159l-2.82-4.956L43.618,86.863z M43.541,90.024c0.166-0.355,0.626-1.344,0.852-1.824
		c0.23,0.441,0.699,1.35,0.87,1.679L43.541,90.024z M52.381,90.135c-0.162-0.142-0.175-0.399-0.175-0.781V86.33l-1.689,0.079v3.06
		c0,0.69,0.096,1.142,0.614,1.546c0.617,0.49,1.297,0.499,2.194,0.457l1.841-0.086v-1.114l-1.731,0.082
		C52.865,90.377,52.591,90.322,52.381,90.135 M60.169,86.336l-2.798,5.106l1.814,0.058c0,0,0.287-0.598,0.376-0.785l2.795,0.086
		c0.089,0.189,0.389,0.814,0.389,0.814l1.881,0.057l-2.815-5.282L60.169,86.336z M60.086,89.476
		c0.168-0.338,0.633-1.275,0.854-1.729c0.233,0.47,0.717,1.438,0.891,1.791L60.086,89.476z M72.947,87.201l-1.973-0.168
		c0,0-0.922,1.039-1.168,1.319c-0.248-0.322-1.18-1.522-1.18-1.522l-2-0.167c0,0,2.097,2.609,2.236,2.781
		c-0.142,0.152-2.312,2.404-2.312,2.404l2.027,0.174c0,0,1.017-1.16,1.277-1.46c0.246,0.342,1.201,1.67,1.201,1.67l2.037,0.177
		c0,0-2.142-2.696-2.275-2.863C70.952,89.402,72.947,87.201,72.947,87.201 M80.211,88.216c0,0-1.192,1.26-1.456,1.535
		c-0.259-0.355-1.423-1.943-1.423-1.943l-1.948-0.275c0,0,2.481,3.209,2.547,3.295v2.257l1.691,0.24v-2.259
		c0.071-0.066,2.574-2.567,2.574-2.567L80.211,88.216z"/>
	<path style="fill:#EEB111;" d="M88.649,90.124c-1.678,2.645-4.007,5.862-4.007,5.862c-2.066-0.412-4.304-0.805-6.659-1.199
		c-6.44-1.079-13.688-1.684-21.352-1.684c-8.008,0-15.564,0.659-22.219,1.831c-1.989,0.353-3.918,0.726-5.742,1.118l-1.354,2.576
		c1.446-0.359,3.721-0.854,4.504-1.027c0.014-0.003,1.681,2.506,1.716,2.455c0.054-0.082,1.188-1.211,1.88-1.829
		c0.747-0.666,2.096-1.691,2.146-1.698c5.906-0.803,12.326-1.442,19.07-1.442c8.034,0,15.635,0.728,22.382,2.022
		c3.324,0.638,5.736,1.178,7.06,1.48c2.002-3.071,4-6.315,6.084-9.525L88.649,90.124z"/>
	<path style="fill:#0065A4;" d="M56.537,28.473v0.008c0,4.401-1.704,8.543-4.799,11.667c-3.091,3.121-7.213,4.863-11.606,4.904
		c-0.091,0.001-0.165,0.075-0.165,0.167c0,0.092,0.074,0.167,0.165,0.167c4.395,0.044,8.515,1.783,11.599,4.89
		c3.089,3.114,4.791,7.25,4.791,11.646c0,0.058,0.028,0.11,0.077,0.141c0.049,0.032,0.11,0.035,0.162,0.01l0.038-0.019
		c0.057-0.027,0.095-0.085,0.095-0.15c0-4.401,1.703-8.541,4.796-11.658c3.092-3.114,7.218-4.853,11.62-4.896
		c0.089,0,0.163-0.074,0.163-0.167c0-0.091-0.074-0.166-0.164-0.167c-4.401-0.036-8.528-1.772-11.629-4.891
		c-3.103-3.118-4.81-7.255-4.81-11.646v-0.008c0-0.093-0.074-0.167-0.167-0.167C56.611,28.306,56.537,28.38,56.537,28.473"/>
	<path style="fill:#FFD200;" d="M56.672,34.118c0.023,0,0.05,0.018,0.051,0.058c0.458,5.847,5.053,10.516,10.882,11.028
		c0.027,0.007,0.058,0.021,0.058,0.054c0,0.034-0.04,0.05-0.064,0.05c-0.893,0.083-1.757,0.253-2.582,0.519
		c-4.554,1.447-7.902,5.524-8.3,10.463c-0.002,0.015-0.011,0.054-0.044,0.054c-0.035,0-0.044-0.039-0.045-0.054
		c-0.396-4.939-3.747-9.016-8.3-10.463c-0.826-0.265-1.688-0.436-2.582-0.519c-0.024,0-0.064-0.016-0.064-0.05
		c0-0.033,0.03-0.046,0.057-0.054c5.828-0.512,10.425-5.181,10.882-11.028C56.623,34.136,56.648,34.118,56.672,34.118"/>
	<path style="fill:#EEB111;" d="M56.672,34.118c-0.023,0-0.049,0.018-0.052,0.058c-0.457,5.847-5.054,10.516-10.882,11.028
		c-0.027,0.007-0.057,0.021-0.057,0.054h10.991V34.118z"/>
	<path style="fill:#EEB111;" d="M56.672,56.343c0.034,0,0.042-0.039,0.044-0.054c0.398-4.939,3.746-9.016,8.3-10.463
		c0.825-0.265,1.689-0.436,2.582-0.519c0.024,0,0.064-0.016,0.064-0.05H56.672V56.343z"/>
	<path style="fill:#FFFFFF;" d="M63.977,45.219c-4.009-0.036-7.267-3.264-7.267-7.196c0-0.021-0.018-0.038-0.039-0.038
		c-0.021,0-0.039,0.017-0.039,0.038c0,1.923-0.746,3.731-2.1,5.09c-1.352,1.357-3.157,2.115-5.081,2.134
		c-0.021,0-0.038,0.018-0.038,0.039c0,0.02,0.017,0.038,0.038,0.038c3.962,0.04,7.186,3.3,7.186,7.27
		c0,0.022,0.017,0.038,0.037,0.038c0.023,0,0.039-0.016,0.039-0.038c0-3.99,3.258-7.264,7.263-7.299
		c0.023,0,0.038-0.018,0.038-0.038S64,45.219,63.977,45.219"/>
</g>
</svg>
