<?xml version="1.0" encoding="iso-8859-1"?>
<!-- Generator: Adobe Illustrator 22.1.0, SVG Export Plug-In . SVG Version: 6.00 Build 0)  -->
<!DOCTYPE svg PUBLIC "-//W3C//DTD SVG 1.1//EN" "http://www.w3.org/Graphics/SVG/1.1/DTD/svg11.dtd">
<svg version="1.1" id="Layer_1" xmlns="http://www.w3.org/2000/svg" xmlns:xlink="http://www.w3.org/1999/xlink" x="0px" y="0px"
	 viewBox="0 0 113.334 143.333" style="enable-background:new 0 0 113.334 143.333;" xml:space="preserve">
<g>
	<radialGradient id="SVGID_1_" cx="53.6607" cy="73.1413" r="39.9027" gradientUnits="userSpaceOnUse">
		<stop  offset="0.3609" style="stop-color:#035BA9"/>
		<stop  offset="0.6706" style="stop-color:#035BA9"/>
		<stop  offset="1" style="stop-color:#003974"/>
	</radialGradient>
	<path style="fill:url(#SVGID_1_);" d="M17.793,36.203c0,0,16.129-6.319,35.142-6.319c0.194,0,0.391-0.002,0.586-0.002h0.142H53.8
		c0.196,0,0.392,0.002,0.587,0.002c19.012,0,35.141,6.319,35.141,6.319c0.247,3.139,0.393,6.848,0.365,9.989
		c-0.139,16.26-3.777,31.636-10.524,44.465c-6.498,12.356-15.625,21.494-25.707,25.745c-10.085-4.251-19.211-13.389-25.709-25.745
		c-6.746-12.829-10.386-28.205-10.524-44.465C17.401,43.051,17.547,39.342,17.793,36.203z"/>
	<g>
		<polygon style="fill:#BAC0C5;" points="69.568,32.372 70.227,34.443 72.407,34.443 70.634,35.703 71.324,37.771 69.569,36.475 
			67.816,37.771 68.504,35.704 66.731,34.443 68.911,34.443 		"/>
		<polygon style="fill:#BAC0C5;" points="77.712,36.478 78.37,38.55 80.551,38.549 78.778,39.809 79.468,41.876 77.713,40.582 
			75.96,41.877 76.649,39.809 74.875,38.55 77.055,38.55 		"/>
		<polygon style="fill:#BAC0C5;" points="80.47,44.743 81.128,46.814 83.309,46.814 81.536,48.073 82.226,50.142 80.471,48.847 
			78.717,50.142 79.406,48.074 77.633,46.814 79.813,46.815 		"/>
		<polygon style="fill:#BAC0C5;" points="76.328,52.667 76.987,54.738 79.167,54.737 77.393,55.997 78.084,58.065 76.329,56.77 
			74.576,58.066 75.264,55.998 73.491,54.738 75.67,54.738 		"/>
	</g>
	<linearGradient id="SVGID_2_" gradientUnits="userSpaceOnUse" x1="14.4399" y1="29.1824" x2="92.8823" y2="29.1824">
		<stop  offset="0.0349" style="stop-color:#BCBEC0"/>
		<stop  offset="0.4709" style="stop-color:#E8E8E9"/>
		<stop  offset="0.8779" style="stop-color:#BCBEC0"/>
	</linearGradient>
	<path style="fill:url(#SVGID_2_);" d="M52.929,29.342c0.197,0,0.394-0.002,0.591-0.002h0.142h0.14c0.197,0,0.394,0.002,0.59,0.002
		c19.015,0,35.28,6.304,35.632,6.438c0,0,0,0,0,0.001l2.859-5.881L90.747,29.1c-11.066-4.153-23.618-6.406-36.297-6.514
		c-0.264-0.002-0.526-0.002-0.788-0.003c-0.264,0-0.527,0.001-0.789,0.003c-12.679,0.108-25.23,2.36-36.298,6.514l-2.135,0.801
		l2.859,5.88C17.651,35.646,33.915,29.342,52.929,29.342z"/>
	<g>
		<g>
			<path style="fill:#6D6E70;" d="M22.62,30.278v2.172l-0.647,0.215v-2.172l-1.146,0.382v-0.507l2.932-0.978v0.508L22.62,30.278z"/>
			<path style="fill:#6D6E70;" d="M24.735,29.722c0-0.249,0.044-0.429,0.135-0.542c0.09-0.112,0.258-0.202,0.504-0.272l1.899-0.536
				c0.247-0.07,0.415-0.073,0.505-0.013c0.09,0.062,0.135,0.217,0.135,0.466v1.412c0,0.25-0.045,0.43-0.135,0.542
				c-0.09,0.112-0.258,0.203-0.505,0.272l-1.899,0.535c-0.246,0.07-0.414,0.074-0.504,0.013c-0.091-0.061-0.135-0.216-0.135-0.465
				V29.722z M25.335,31.096l1.978-0.558v-1.698l-1.978,0.558V31.096z"/>
			<path style="fill:#6D6E70;" d="M29.897,27.704v2.176l1.73-0.399v-2.176l0.607-0.14v2.046c0,0.25-0.045,0.428-0.137,0.536
				c-0.091,0.107-0.262,0.189-0.512,0.247l-1.648,0.38c-0.25,0.057-0.421,0.054-0.512-0.012c-0.092-0.065-0.137-0.223-0.137-0.472
				v-2.046L29.897,27.704z"/>
			<path style="fill:#6D6E70;" d="M35.957,26.918l-1.731,0.318v0.577l1.648-0.303c0.252-0.047,0.426-0.035,0.52,0.034
				c0.094,0.069,0.142,0.229,0.142,0.478v0.369c0,0.25-0.048,0.425-0.142,0.53c-0.093,0.103-0.266,0.178-0.518,0.225l-1.63,0.299
				c-0.251,0.046-0.424,0.035-0.519-0.035c-0.094-0.069-0.14-0.229-0.14-0.478l0.01-0.127l0.531-0.099v0.257l1.864-0.343v-0.612
				l-1.645,0.302c-0.252,0.047-0.424,0.035-0.516-0.035c-0.092-0.07-0.139-0.229-0.139-0.479V27.5c0-0.25,0.047-0.426,0.139-0.529
				c0.092-0.104,0.264-0.179,0.516-0.225l1.497-0.275c0.241-0.044,0.41-0.034,0.507,0.031c0.098,0.065,0.146,0.211,0.146,0.436
				v0.081l-0.541,0.099V26.918z"/>
			<path style="fill:#6D6E70;" d="M40.938,28.384v-2.679l2.281-0.255c0.398-0.044,0.599,0.106,0.599,0.452v0.695
				c0,0.346-0.2,0.542-0.599,0.586l-1.672,0.187v0.946L40.938,28.384z M42.941,25.938l-1.394,0.156v0.819l1.394-0.156
				c0.096-0.011,0.163-0.029,0.2-0.054c0.053-0.037,0.078-0.101,0.078-0.193v-0.387c0-0.091-0.025-0.149-0.078-0.176
				C43.104,25.93,43.037,25.927,42.941,25.938z"/>
			<path style="fill:#6D6E70;" d="M44.822,25.925c0-0.25,0.047-0.421,0.14-0.514c0.093-0.093,0.268-0.149,0.523-0.167l1.969-0.138
				c0.256-0.018,0.43,0.013,0.522,0.093c0.093,0.08,0.14,0.244,0.14,0.494v1.412c0,0.249-0.047,0.421-0.14,0.514
				c-0.093,0.093-0.267,0.149-0.522,0.167l-1.969,0.138c-0.256,0.018-0.431-0.013-0.523-0.093c-0.093-0.08-0.14-0.245-0.14-0.494
				V25.925z M45.444,27.424l2.051-0.144v-1.698l-2.051,0.144V27.424z"/>
			<path style="fill:#6D6E70;" d="M50.151,24.979v2.176l1.775-0.047v-2.176l0.623-0.016v2.045c0,0.25-0.047,0.419-0.141,0.507
				c-0.093,0.089-0.268,0.137-0.524,0.144l-1.691,0.045c-0.257,0.007-0.432-0.032-0.525-0.116c-0.094-0.083-0.141-0.25-0.141-0.5
				v-2.046L50.151,24.979z"/>
			<path style="fill:#6D6E70;" d="M54.025,27.588v-2.679l2.295,0.034c0.403,0.006,0.604,0.182,0.604,0.528V26.1
				c0,0.346-0.2,0.516-0.604,0.51l-0.352-0.005l1.235,1.031l-0.893-0.013l-1.08-1.029l-0.591-0.009v1.013L54.025,27.588z
				 M56.041,25.396l-1.401-0.021v0.752l1.401,0.021c0.097,0.001,0.164-0.008,0.202-0.029c0.052-0.03,0.077-0.091,0.077-0.182v-0.324
				c0-0.09-0.025-0.152-0.077-0.184C56.205,25.409,56.137,25.397,56.041,25.396z"/>
			<path style="fill:#6D6E70;" d="M63.48,25.834l-1.94-0.161v1.698l1.94,0.161v-0.555l-1.014-0.084v-0.457l1.618,0.134v0.882
				c0,0.249-0.045,0.413-0.14,0.492c-0.093,0.079-0.267,0.107-0.522,0.086l-1.842-0.152c-0.256-0.022-0.43-0.079-0.522-0.173
				c-0.093-0.094-0.141-0.266-0.141-0.515v-1.413c0-0.249,0.048-0.413,0.141-0.492c0.093-0.079,0.267-0.108,0.522-0.086l1.842,0.153
				c0.249,0.021,0.421,0.077,0.518,0.17c0.097,0.093,0.145,0.257,0.145,0.492v0.14l-0.605-0.056V25.834z"/>
			<path style="fill:#6D6E70;" d="M64.984,28.174l1.505-2.491l0.598,0.075l1.524,2.871l-0.695-0.087l-0.319-0.627l-1.685-0.211
				l-0.309,0.548L64.984,28.174z M66.175,27.254l1.163,0.146l-0.572-1.163L66.175,27.254z"/>
			<path style="fill:#6D6E70;" d="M72.149,27.011l-1.92-0.327v1.698l1.92,0.327v-0.532l-1.004-0.17v-0.457l1.603,0.273v0.859
				c0,0.249-0.046,0.41-0.139,0.48c-0.092,0.071-0.264,0.085-0.517,0.042l-1.822-0.31c-0.254-0.043-0.425-0.116-0.518-0.218
				c-0.092-0.102-0.138-0.278-0.138-0.527v-1.413c0-0.249,0.046-0.409,0.138-0.479c0.093-0.071,0.264-0.085,0.518-0.042l1.822,0.31
				c0.246,0.042,0.416,0.113,0.513,0.214c0.095,0.101,0.143,0.27,0.143,0.505v0.153l-0.599-0.112V27.011z"/>
			<path style="fill:#6D6E70;" d="M74.341,29.625v-2.679l0.415,0.092l1.842,1.985c0.131,0.143,0.23,0.262,0.298,0.357
				c-0.016-0.253-0.024-0.409-0.024-0.468v-1.407l0.548,0.121v2.679l-0.417-0.092l-1.921-2.081
				c-0.082-0.087-0.153-0.176-0.219-0.267c0.018,0.177,0.026,0.321,0.026,0.432v1.449L74.341,29.625z"/>
			<path style="fill:#6D6E70;" d="M79.051,30.714v-2.68l2.646,0.719v0.457l-2.044-0.556v0.597l1.191,0.324v0.457l-1.191-0.324v0.665
				l2.069,0.563v0.504L79.051,30.714z"/>
			<path style="fill:#6D6E70;" d="M83.127,31.861v-2.679l2.183,0.709c0.382,0.125,0.573,0.36,0.573,0.706v0.628
				c0,0.346-0.191,0.457-0.573,0.333l-0.336-0.109l1.02,1.342l-0.851-0.276l-0.87-1.294l-0.562-0.183v1.013L83.127,31.861z
				 M85.043,30.261l-1.333-0.434v0.753l1.333,0.434c0.092,0.03,0.156,0.041,0.192,0.031c0.05-0.015,0.074-0.068,0.074-0.159v-0.325
				c0-0.09-0.024-0.16-0.074-0.207C85.199,30.323,85.134,30.291,85.043,30.261z"/>
		</g>
	</g>
	<path style="fill:#A6ADB2;" d="M27.472,90.908c3.267,6.213,7.155,11.602,11.554,16.019c4.47,4.486,9.357,7.858,14.531,10.019
		l0.104,0.043v0.001l0.001-0.001v0.001v-0.001l0.103-0.043c5.173-2.161,10.062-5.532,14.531-10.019
		c4.399-4.417,8.286-9.807,11.553-16.019c6.786-12.904,10.446-28.366,10.586-44.712c0.028-3.31-0.102-6.559-0.411-10.415
		c-0.352-0.135-16.617-6.438-35.632-6.438c-0.195,0-0.393-0.002-0.59-0.002h-0.14H53.52c-0.197,0-0.393,0.002-0.591,0.002
		c-19.015,0-35.278,6.304-35.63,6.438c-0.31,3.856-0.439,7.105-0.413,10.415C17.026,62.542,20.686,78.004,27.472,90.908z
		 M17.793,36.203c0,0,16.129-6.319,35.142-6.319c0.194,0,0.391-0.002,0.586-0.002h0.142H53.8c0.196,0,0.392,0.002,0.587,0.002
		c19.012,0,35.141,6.319,35.141,6.319c0.247,3.139,0.393,6.848,0.365,9.989c-0.139,16.26-3.777,31.636-10.524,44.465
		c-6.498,12.356-15.625,21.494-25.707,25.745c-10.085-4.251-19.211-13.389-25.709-25.745c-6.746-12.829-10.386-28.205-10.524-44.465
		C17.401,43.051,17.547,39.342,17.793,36.203z"/>
	<g>
		<path style="fill:#231F20;" d="M91.746,79.293h-0.255v-1.124h-0.504v-0.244h1.264v0.244h-0.505V79.293z"/>
		<path style="fill:#231F20;" d="M92.559,77.925h0.207l0.516,0.827l0.505-0.827h0.205v1.368h-0.236v-0.846
			c0-0.026,0.002-0.075,0.009-0.147c-0.023,0.061-0.045,0.111-0.064,0.144l-0.411,0.685h-0.052l-0.412-0.687
			c-0.025-0.044-0.049-0.089-0.064-0.142c0.004,0.056,0.006,0.102,0.006,0.147v0.846h-0.207V77.925z"/>
	</g>
	<linearGradient id="SVGID_3_" gradientUnits="userSpaceOnUse" x1="17.4251" y1="51.5105" x2="40.3315" y2="51.5105">
		<stop  offset="0.0349" style="stop-color:#BCBEC0"/>
		<stop  offset="0.4709" style="stop-color:#FAFAFA"/>
		<stop  offset="0.5581" style="stop-color:#FAFAFA"/>
		<stop  offset="0.8779" style="stop-color:#BCBEC0"/>
	</linearGradient>
	<path style="fill:url(#SVGID_3_);" d="M17.94,55.916c0.985-2.078,2.41-3.283,4.28-3.554c2.467-0.356,4.87,0.241,6.579,1.67
		c2.646,2.215,2.659,5.614,2.659,5.614h-6.085l1.353,5.196c0,0,9.086-0.006,10.684,0c-0.417,2.243-3.707,4.086-7.122,4.455
		c0.094,0.23,0.229,0.482,0.516,0.731c0.544,0.479,1.906,1.198,4.982,0.649l1.265-0.225c0,0-0.134,0.771,0.001,1.821l3.28-1.001
		V30.747c-3.12,0.415-6.038,0.943-8.672,1.508c-0.549,1.713-0.726,3.615-0.328,5.708c0.093,0.503,0.218,1.014,0.38,1.535
		c1.175,3.756,4.428,11.635,5.235,14.784c0.806,3.149,1.156,5.365,1.156,5.365s-1.866,0.005-3.067,0
		c-0.668-3.336-1.404-6.015-3.322-10.165c-3.523-7.62-8.245-11.617-13.214-10.891c-0.298,0.043-0.59,0.106-0.878,0.184
		c-0.139,2.478-0.213,5.101-0.193,7.417C17.456,49.474,17.629,52.719,17.94,55.916z"/>
	<linearGradient id="SVGID_4_" gradientUnits="userSpaceOnUse" x1="13.4146" y1="75.3254" x2="53.6616" y2="75.3254">
		<stop  offset="0.0349" style="stop-color:#8D8F91"/>
		<stop  offset="0.1257" style="stop-color:#949597"/>
		<stop  offset="0.2535" style="stop-color:#A6A8A9"/>
		<stop  offset="0.4024" style="stop-color:#C4C5C6"/>
		<stop  offset="0.5462" style="stop-color:#E8E8E9"/>
		<stop  offset="0.8663" style="stop-color:#8D8F91"/>
	</linearGradient>
	<path style="fill:url(#SVGID_4_);" d="M53.662,116.989L53.662,116.989L53.662,116.989l-0.104-0.043
		c-5.174-2.161-10.062-5.532-14.531-10.019c-4.398-4.417-8.286-9.807-11.554-16.019c-6.786-12.904-10.446-28.366-10.586-44.712
		c-0.026-3.31,0.103-6.559,0.413-10.415l-2.859-5.88l-0.266,2.265c-0.541,4.626-0.795,9.356-0.756,14.06
		c0.093,10.877,1.703,21.387,4.715,31.067c0-0.001-0.001-0.003-0.001-0.004c-2.505,1.329-3.824,3.592-3.842,6.638
		c-0.021,3.65-0.001,14.648,0,14.759l0.001,0.8l15.572,1.904c6.276,8.744,13.994,15.264,22.354,18.757l1.444,0.604V116.989
		L53.662,116.989z"/>
	<linearGradient id="SVGID_5_" gradientUnits="userSpaceOnUse" x1="53.6616" y1="75.3254" x2="99.9192" y2="75.3254">
		<stop  offset="0.0349" style="stop-color:#8D8F91"/>
		<stop  offset="0.1039" style="stop-color:#949597"/>
		<stop  offset="0.2009" style="stop-color:#A6A8A9"/>
		<stop  offset="0.314" style="stop-color:#C4C5C6"/>
		<stop  offset="0.4232" style="stop-color:#E8E8E9"/>
		<stop  offset="0.4255" style="stop-color:#E7E7E8"/>
		<stop  offset="0.5581" style="stop-color:#C0C1C3"/>
		<stop  offset="0.6801" style="stop-color:#A4A6A7"/>
		<stop  offset="0.7868" style="stop-color:#939597"/>
		<stop  offset="0.8663" style="stop-color:#8D8F91"/>
	</linearGradient>
	<path style="fill:url(#SVGID_5_);" d="M99.91,53.364l-0.001-0.502l-6.066-3.784c0.031-0.948,0.053-1.899,0.06-2.852
		c0.04-4.704-0.214-9.434-0.756-14.06l-0.265-2.265l-2.859,5.881c0.31,3.856,0.439,7.105,0.411,10.414
		c-0.14,16.346-3.8,31.808-10.586,44.712c-3.267,6.213-7.153,11.602-11.553,16.019c-4.47,4.486-9.358,7.858-14.531,10.019
		l-0.103,0.043v0.001v3.76l1.444-0.604c10.982-4.59,20.861-14.4,27.813-27.623c2.551-4.851,4.673-10.047,6.354-15.504l5.011-1.528
		c3.66-1.117,5.604-3.665,5.626-7.368C99.931,64.473,99.91,53.475,99.91,53.364z"/>
	<path style="fill:#FFFFFF;" d="M48.22,68.866c-2.54-0.748-4.641-2.262-4.967-4.024c1.596-0.006,10.683,0,10.683,0l1.352-5.196
		h-6.084c0,0,0.014-3.399,2.661-5.614c1.706-1.429,4.11-2.026,6.577-1.67c2.76,0.401,4.553,2.831,5.389,7.107
		c2.376-0.775,5.189-3.203,6.062-7.753c1.287-6.728-2.699-12.382-7.729-13.125c-4.971-0.726-9.692,3.271-13.214,10.892
		c-1.918,4.149-2.656,6.828-3.323,10.164c-1.202,0.005-3.066,0-3.066,0s0.349-2.215,1.155-5.365
		c0.809-3.15,4.06-11.028,5.234-14.784c0.163-0.521,0.288-1.032,0.381-1.535c0.577-3.05-0.057-5.697-1.301-7.941
		c-2.664,0.146-5.244,0.4-7.698,0.726v40.527L48.22,68.866z"/>
	<g>
		<path style="fill:#626366;" d="M15.196,98.683l13.964,1.708c-1.106-1.599-2.163-3.268-3.171-5.003L15.196,98.683z"/>
		<path style="fill:#626366;" d="M93.801,50.12c-0.069,1.654-0.174,3.298-0.313,4.93l5.517-1.684L93.801,50.12z"/>
	</g>
	<path style="fill:#231F20;" d="M99.004,53.365l-78.823,24.06c-2.753,0.84-4.963,2.715-4.985,6.506c-0.022,3.688,0,14.752,0,14.752
		l14.736-4.498c1.803,3.017,3.768,5.807,5.869,8.347V92.394l4.528-1.382v16.405c1.882,1.803,3.844,3.418,5.868,4.83V89.221
		l4.529-1.383v27.174c0.967,0.508,1.945,0.973,2.935,1.39c0.987-0.417,1.965-0.882,2.934-1.391V86.047l4.318-1.318v27.665
		c2.023-1.395,3.985-2.994,5.868-4.778V82.938l4.319-1.319v21.418c2.096-2.479,4.061-5.208,5.868-8.158V79.827l4.318-1.317v8.245
		c1.382-3.006,2.601-6.134,3.658-9.361l9.073-2.77c2.753-0.841,4.963-2.715,4.985-6.507C99.026,64.429,99.004,53.365,99.004,53.365z
		"/>
	<g>
		<g>
			<g>
				<path style="fill:#BAC0C5;" d="M49.161,73.541c-0.006-1.262,1.17-2.532,2.643-2.982c1.173-0.358,1.957-0.089,1.959,0.415
					c0,0.307-0.236,0.59-0.55,0.686c-0.345,0.105-0.583,0-0.585-0.274c0-0.084,0.023-0.173,0.054-0.233
					c-0.146-0.052-0.438-0.058-0.899,0.084c-0.98,0.298-1.729,1.152-1.723,2.026c0.002,0.84,0.711,1.293,1.775,0.968
					c0.591-0.181,1.073-0.545,1.447-0.997l0.575,0.321c-0.487,0.603-1.214,1.099-2.02,1.345
					C50.282,75.373,49.167,74.846,49.161,73.541z"/>
				<path style="fill:#BAC0C5;" d="M57.443,72.465l0.629-0.192l-0.015-2.924l-0.934,0.286l0.003,0.661l-0.82,0.251L56.3,69.262
					l4.376-1.336l0.005,1.284l-0.819,0.251l-0.003-0.662l-0.936,0.286l0.015,2.923l0.628-0.192l0.002,0.645l-2.122,0.649
					L57.443,72.465z"/>
			</g>
			<polygon style="fill:#BAC0C5;" points="23.199,80.021 23.809,79.19 23.809,79.19 21.669,79.843 21.672,80.486 22.333,80.286 
				22.344,83.189 21.672,83.396 21.676,84.038 23.919,83.353 23.917,82.71 23.211,82.925 23.199,80.021 			"/>
			<polygon style="fill:#BAC0C5;" points="32.044,77.318 32.044,77.318 32.669,76.482 32.669,76.482 31.297,76.901 29.761,79.705 
				28.202,77.847 26.823,78.268 26.823,78.269 27.456,78.72 27.456,78.72 27.456,78.72 27.456,78.72 27.456,78.72 27.305,81.674 
				26.71,81.855 26.711,82.5 28.766,81.872 28.762,81.229 28.157,81.413 28.247,79.226 29.696,80.887 29.811,80.851 31.243,78.31 
				31.353,80.438 30.747,80.622 30.75,81.266 32.819,80.633 32.816,79.99 32.218,80.173 			"/>
			<path style="fill:#BAC0C5;" d="M37.653,74.96l-2.031,0.62l0.578,0.468l0,0l0,0l0,0l0,0l0.014,2.903l-0.574,0.177l0.002,0.644
				l2.068-0.633l-0.002-0.644l-0.628,0.192l-0.005-0.751c0.108-0.027,0.254-0.072,0.492-0.145c1.187-0.362,2.004-1.085,2-2.046
				C39.563,74.893,38.732,74.63,37.653,74.96z M38.672,76.021c0,0.497-0.382,0.919-1.033,1.118c-0.352,0.106-0.475,0.14-0.566,0.16
				l-0.008-1.516l0.545-0.165C38.231,75.428,38.669,75.581,38.672,76.021z"/>
			<path style="fill:#BAC0C5;" d="M46.506,75.807l-1.27-2.527l0.551-0.167l-0.002-0.637l-2.852,0.87l0,0l0.556,0.469l-0.002,0.001
				l0.002-0.001l-1.244,3.293l-0.435,0.134l0.003,0.644l1.938-0.593l-0.002-0.638l-0.615,0.189l0.283-0.775l1.883-0.575l0.287,0.6
				l-0.582,0.18l0.004,0.637l1.938-0.593l-0.004-0.644L46.506,75.807z M43.649,75.398l0.697-1.866l0.714,1.434L43.649,75.398z"/>
		</g>
		<g>
			<g>
				<g>
					<path style="fill:#FFFFFF;" d="M32.374,86.238c-0.009-1.984,1.717-4.036,4.191-4.791c2.463-0.753,4.154,0.265,4.162,2.24
						c0.01,1.985-1.716,4.036-4.19,4.793C34.073,89.232,32.383,88.215,32.374,86.238z M39.28,84.13
						c-0.008-1.409-1.164-2.075-2.734-1.597c-1.584,0.484-2.73,1.844-2.724,3.265c0.006,1.408,1.161,2.075,2.747,1.591
						C38.139,86.908,39.286,85.55,39.28,84.13z"/>
					<path style="fill:#FFFFFF;" d="M54.337,81.877l1.013-0.311l-0.021-4.72l-1.511,0.462l0.005,1.068L52.5,78.782l-0.008-2.079
						l7.065-2.159l0.01,2.078l-1.324,0.404l-0.006-1.069l-1.511,0.462l0.021,4.721l1.017-0.31l0.004,1.038l-3.427,1.047
						L54.337,81.877z"/>
				</g>
			</g>
			<polygon style="fill:#FFFFFF;" points="47.54,78.216 47.544,79.255 48.559,78.944 48.578,82.381 44.094,79.269 42.152,79.863 
				42.152,79.863 43.083,80.619 43.083,80.619 43.083,80.619 43.106,85.309 42.178,85.593 42.182,86.63 45.424,85.64 45.419,84.602 
				44.404,84.912 44.386,81.217 49.14,84.505 49.901,84.271 49.879,78.542 50.768,78.271 50.762,77.23 			"/>
			<path style="fill:#FFFFFF;" d="M67.627,74.128c-0.006-1.378-1.346-1.639-3.214-1.066l-3.156,0.964l0,0l0.933,0.755l0,0
				l0.023,4.69l-0.93,0.283l0.004,1.04l3.342-1.022l-0.004-1.038l-1.016,0.31l-0.008-1.522c0.175-0.042,0.41-0.114,0.669-0.192
				c0.161-0.051,0.388-0.143,0.561-0.207l1.667,2.08l1.795-0.55l-0.006-1.037l-0.928,0.282L66.1,76.438
				C66.991,75.867,67.63,75.002,67.627,74.128z M66.179,74.611c0.005,0.71-0.738,1.368-1.79,1.691
				c-0.444,0.135-0.644,0.186-0.792,0.221l-0.01-2.171l0.756-0.23C65.468,73.777,66.176,73.902,66.179,74.611z"/>
			<polygon style="fill:#FFFFFF;" points="76.122,71.419 76.112,69.484 70.038,71.342 70.968,72.097 70.969,72.097 70.991,76.787 
				70.063,77.071 70.068,78.109 76.158,76.249 76.148,74.315 74.811,74.725 74.815,75.63 72.389,76.37 72.381,74.457 74.843,73.706 
				74.839,72.717 72.377,73.471 72.369,71.659 74.78,70.921 74.786,71.827 			"/>
			<path style="fill:#FFFFFF;" d="M85.839,72.25l-2.05-4.082l0.891-0.271l-0.006-1.028l-4.602,1.407l0.894,0.755h0.001l-2.008,5.321
				l-0.766,0.231l0.008,1.042l3.127-0.956l-0.004-1.018l-0.931,0.272l0.453-1.251l3.045-0.931l0.463,0.971l-0.865,0.273l0.003,1.022
				l3.06-0.936l-0.006-1.039L85.839,72.25z M81.226,71.588l1.127-3.012l1.15,2.317L81.226,71.588z"/>
			<polygon style="fill:#FFFFFF;" points="92.954,69.128 92.958,70.085 90.717,70.769 90.696,66.068 91.773,65.738 91.768,64.701 
				88.369,65.74 89.298,66.495 89.298,66.495 89.298,66.495 89.298,66.495 89.298,66.495 89.32,71.185 88.391,71.47 88.397,72.509 
				94.312,70.701 94.302,68.716 			"/>
			<polygon style="fill:#FFFFFF;" points="30.085,84.591 30.085,84.591 31.093,83.244 31.093,83.241 28.879,83.918 26.397,88.448 
				23.879,85.445 21.652,86.125 21.652,86.127 22.672,86.856 22.671,86.856 22.433,91.626 21.467,91.921 21.473,92.957 
				24.789,91.944 24.785,90.907 23.807,91.206 23.952,87.67 26.294,90.354 26.481,90.296 28.792,86.191 28.967,89.629 
				27.991,89.929 27.995,90.964 31.337,89.944 31.332,88.907 30.366,89.201 			"/>
			<polygon style="fill:#BAC0C5;" points="74.786,68.503 74.782,67.362 70.866,69.829 			"/>
		</g>
	</g>
</g>
</svg>
