<svg xmlns="http://www.w3.org/2000/svg" viewBox="0 0 133.42 107.91"><defs><style>.cls-1{fill:#fff;}.cls-2{fill:#c1c6c8;}.cls-3{fill:#ffc82d;}.cls-4{fill:#c8202f;}.cls-5{fill:#182852;}</style></defs><title>NYRB</title><g id="Layer_2" data-name="Layer 2"><g id="Layer_1-2" data-name="Layer 1"><rect class="cls-1" x="86.88" y="76.51" width="1.78" height="5.9" transform="translate(-30.15 68.82) rotate(-37)"/><path class="cls-1" d="M76.07,18.92H74.5V16H75a2.17,2.17,0,0,0,0-4.33H72.71v12.4h3.36a2.57,2.57,0,0,0,0-5.14"/><path class="cls-1" d="M61.53,21.15a3,3,0,1,0-6,0,3,3,0,1,0,6,0"/><path class="cls-1" d="M45.59,17.75a3,3,0,0,0-2.7,1.94h5.4a3,3,0,0,0-2.7-1.94"/><rect class="cls-1" x="80.44" y="80.75" width="1.78" height="13.58" transform="translate(-26.87 36.83) rotate(-22)"/><path class="cls-1" d="M53.65,53.26c.65,0,1.6,1.28,1.71,2.16.06.45-.06.84.29.84s.43-.7.43-1.32a3.5,3.5,0,0,0-1-2.12c-.63-.71-.69-1.41-1.41-1.41-.43,0-.43.69-1,1.67a1.35,1.35,0,0,0-.2,1.18c.15.11.68-1,1.24-1"/><path class="cls-1" d="M52.33,61.73c1.1,0,1.37-.18,1.37-1.09,0-.46-.2-.47-.4-.47-.76,0-1.49,1.1-1.49,1.37,0,.08.09.19.52.19"/><path class="cls-1" d="M44.92,47.13c.66-2.18-.34-4.29-1.11-4.29a.42.42,0,0,0-.42.44c0,.72.86.67,1.36,3.87Z"/><path class="cls-1" d="M132.94,66.72c0-1.94-1.12-2.94-2-2.78a1.47,1.47,0,0,0-.76-1.34l-.89-.63a1.73,1.73,0,0,0-1.25-.55c-1.07,0-1.57,1.38-1.57,1.38-.84-.56-1-.94-1.34-2.06A2.33,2.33,0,0,0,122.53,59c-.63,0-.82-.08-2.16-.89a9.73,9.73,0,0,0,.93-4.53,8.41,8.41,0,0,0,2.14.3A5.93,5.93,0,0,0,129.59,48c0-3.22-2.15-4.62-4.54-6.55,2.26.15,5.19-1.52,5.19-4.57a4.27,4.27,0,0,0-1.11-2.61,9,9,0,0,1-4,2.14c-1.23.21-4.47.78-4.47,3.85,0,3.62,5.33,4.64,5.33,7.72a2.22,2.22,0,0,1-2.29,2.19c-3.33,0-5.26-3.52-9.21-4.72V0H19V45.46c-4,1.2-5.89,4.72-9.21,4.72A2.22,2.22,0,0,1,7.47,48c0-3.08,5.33-4.1,5.33-7.72,0-3.07-3.25-3.64-4.47-3.85a9,9,0,0,1-4-2.14,4.29,4.29,0,0,0-1.1,2.61c0,3,2.92,4.72,5.18,4.57C6,43.39,3.83,44.79,3.83,48A5.93,5.93,0,0,0,10,53.83a8.43,8.43,0,0,0,2.15-.3,9.59,9.59,0,0,0,.93,4.53c-1.34.81-1.54.86-2.17.89a2.32,2.32,0,0,0-2.58,1.79C7.93,61.86,7.8,62.24,7,62.8c0,0-.5-1.38-1.57-1.38A1.75,1.75,0,0,0,4.14,62l-.89.63a1.47,1.47,0,0,0-.76,1.34c-.89-.16-2,.84-2,2.78A2,2,0,0,0,0,67.86c0,.88,1,1.23,3.11,1.55l.08-.26,2.37.36c2.14,0,2.38-1.68,3.15-2.45l1.26.25c3.28-.56,3.2-2.36,4.86-2.36.77,0,2.29.36,3.09.36a3.75,3.75,0,0,0,1-.15V76.34c0,12.17,21.85,31.57,47.74,31.57s47.75-19.4,47.75-31.57V65.16a3.67,3.67,0,0,0,1,.15c.8,0,2.32-.36,3.09-.36,1.66,0,1.58,1.8,4.86,2.36l1.26-.25c.77.77,1,2.45,3.15,2.45l2.38-.36.07.26c2.08-.32,3.11-.67,3.11-1.55a2,2,0,0,0-.48-1.14M2.48,68.4S.89,68.11.89,67.86s.43-.54.48-1.06c.09-1,0-1.47.91-2a2,2,0,0,1,1,.83c0,.34-.37,1.19-.77,2.77M19.85.89h93.72V45.24a9.09,9.09,0,0,0-1.42-.15V2.31H21.28V45.08a10.59,10.59,0,0,0-1.43.16ZM70.63,64c-.33.43-.36,1.75,1.18,1.75,2.81,0,3.71-1.19,5.06-2.25a4.35,4.35,0,0,0,2.67,1.3L81,64.67c1.62,0,2.89,1.06,4.57,1.06l.17,0a24.61,24.61,0,0,1-38.08,0l.17,0c1.68,0,3-1.06,4.57-1.06l1.47.11a4.37,4.37,0,0,0,2.68-1.3c1.34,1.06,2.25,2.25,5,2.25,1.54,0,1.52-1.32,1.18-1.75,1.32.24,2.26-.73,1.51-2C62,61.32,62,59.17,59.94,57.4c-2.13-5.09-1.34-8.39-3-10.63-3.17-4.23-3.81-5.08-5.74-6.69a37.63,37.63,0,0,0-4.83-3.79,24.72,24.72,0,0,1,11.31-9.06A6.17,6.17,0,0,1,58.54,15a4,4,0,0,1,3,1.19V7.82h3.25v16a12.94,12.94,0,0,0-11,12.77,12.93,12.93,0,1,0,21.64-9.54,24.66,24.66,0,0,1,11.66,9.2,38.34,38.34,0,0,0-4.83,3.79c-1.93,1.61-2.57,2.46-5.74,6.69-1.68,2.24-.9,5.54-3,10.63-2,1.77-2,3.92-4.36,4.61-.75,1.24.2,2.21,1.51,2M22,63.67a6.46,6.46,0,0,0,2.4-4.05l.29.07V76.34c0,8.52,19.47,25.88,42.06,25.88s42.06-17.36,42.06-25.88V59.69l.29-.07a6.51,6.51,0,0,0,2.4,4.05V76.34c0,10.76-20.91,28.57-44.75,28.57S22,87.1,22,76.34ZM55.13,85.59l1.4.48c-.36,1.94-.54,3.87-1.17,6.65l4.18-11.83,1.7.58-6.12,16L53.55,97l1.5-8.77L50.78,96l-1.56-.53,5-16.39,1.7.58-4,11.9c1.21-2.57,2.26-4.22,3.17-6m-3.64-6.16-2.91-2L45.2,82.23l2.18,1.53-1,1.45-2.18-1.53-3.39,4.84,2.91,2-1,1.45-2.91-2a1.78,1.78,0,0,1-.43-2.48l7.79-11.12a1.77,1.77,0,0,1,2.47-.44l2.91,2ZM31.17,82.09,30,80.78,42.71,69.31l1.12,1.25-6.76,8.87,8-7.48,1.18,1.32L33.54,84.73l-1.12-1.24,6.77-8.88ZM45.52,60.33a12,12,0,0,1-1.1-2.08,5.76,5.76,0,0,0,1.93-.48,7.88,7.88,0,0,0,1-.07,4.38,4.38,0,0,0-.21.67,7,7,0,0,0-1.63,2m-10,1.22c.62,0,1.63-.13,1.79-.13s.49,0,.57.67.49,1,.49,1.25-.77.76-1.62.76c-.69,0-.77-1.57-1.46-1.95-.52-.29-.39-.6.23-.6m35.91,20,1.76-.21L74,88.2a2.72,2.72,0,0,1-1.46,2.72l.94,7.59-1.77.23-.93-7.6a2.77,2.77,0,0,1-2.07-2.29l-.85-6.91,1.76-.21.94,7.64,1.76-.21Zm24.1-8.13-3.3-2.76a3.29,3.29,0,0,1-.85-1.24L92.53,68a2.26,2.26,0,0,0,.59,1.09L96,71.48a3.11,3.11,0,0,1,.8,4.29,2.71,2.71,0,0,1,4-.23l3.25,2.72a3.06,3.06,0,0,0,1.56.74l-1.17,1.39a2.3,2.3,0,0,1-1.3-.57l-3.9-3.27C98.15,75.6,97,77,97,77l6.07,5.09L102,83.4l-13.13-11L90,71l5.65,4.74a1.58,1.58,0,0,0-.11-2.4m-4.13,6.45a1.37,1.37,0,0,1,.2,1.57c.44-.12.94-.05,1.58.79l3.44,4.56a2.38,2.38,0,0,0,1.11.76l-1.46,1.1a2.85,2.85,0,0,1-1.07-.79L91.32,82.7,89.9,83.77l4.62,6.13L93.11,91,82.8,77.29l2.83-2.14a1.78,1.78,0,0,1,2.49.35ZM86.06,92.15a2.66,2.66,0,0,1-4.94,2L76.59,82.93a2.66,2.66,0,0,1,4.94-2Zm11.86-30.6c.63,0,.75.31.24.6-.7.38-.77,1.95-1.46,1.95-.85,0-1.63-.5-1.63-.76s.41-.62.49-1.25.43-.67.58-.67,1.16.13,1.78.13M86.27,58.37a5.88,5.88,0,0,0-.2-.67,7.72,7.72,0,0,0,1,.07,5.87,5.87,0,0,0,1.93.48,10.79,10.79,0,0,1-1.1,2.08,6.7,6.7,0,0,0-1.63-2M45.59,24.54a2.93,2.93,0,0,0,2.57-1.67l2.47,1.63a6,6,0,0,1-5,2.8,6.16,6.16,0,1,1,6-6.15,4.53,4.53,0,0,1,0,.52H42.64a3.13,3.13,0,0,0,3,2.87m-9.88-5.09L40.56,27H36.24l-3.85-6V16.7h1.12a2.52,2.52,0,0,0,0-5H31.25V27H27.54V8.75h6.82a5.45,5.45,0,0,1,1.35,10.7M82.29,21.5A5.43,5.43,0,0,1,76.92,27h-1.6A12.91,12.91,0,0,0,69,23.91V8.75h6.8a5,5,0,0,1,5,5.08,4.3,4.3,0,0,1-1.36,3.24,4.67,4.67,0,0,1,2.88,4.43m-5.5,8.68A12,12,0,1,1,55,39.26l1.88,1.94L59.27,45a13,13,0,0,0,4.88,1l1.55-2.18,5.17-.14L71,44a13,13,0,0,0,4.78-5.31,15,15,0,0,1-2.18.72s-1.43-2.4-2.47-4.59a30.52,30.52,0,0,1,2.3-4A22.74,22.74,0,0,1,77,32.93a3.76,3.76,0,0,1,.09.43c0-.12,0-.22,0-.33a12.77,12.77,0,0,0-.31-2.85m-13.86.58A37.43,37.43,0,0,1,66,34.91c-.72,1.4-2.79,4.7-2.79,4.7-2.8-.67-4.71-1.35-4.71-1.35a29.94,29.94,0,0,1,0-5.4c1.22-.63,4.5-2.1,4.5-2.1m0-5.48a11.83,11.83,0,0,1,3.78-.61,12,12,0,0,1,4.43.84l-.66,1.67a29.64,29.64,0,0,0-5.27-.07ZM56.7,31.39l-1.55,2.17a12,12,0,0,1,3.47-5.74Zm31.92-7.18a2.32,2.32,0,0,0,2.29-2.34V15.61h3.24v6a5.53,5.53,0,1,1-11.06,0v-6h3.24v6.26a2.32,2.32,0,0,0,2.29,2.34m7.7-16.39h3.25V27H96.32Zm6.31,0h3.25V27h-3.25Zm-78-2.14v37.7A6.6,6.6,0,0,1,22,45V3h89.5V45a6.6,6.6,0,0,1-2.69-1.65V5.68ZM3.7,63.37c1.16-.67,1.15-1.06,1.69-1.06.37,0,.67.65.67.65-.54.89-1.07,1.83-1.78,1.83-.45,0-.9-.29-.9-.58s-.08-.61.32-.84m14.22,1.05c-.92,0-1.88-.36-3.09-.36-1.8,0-1.84,1-2.92,1.56s-1.45.8-1.94.8-.86-.24-1.26-.24c-1.29,0-1.16,2.45-3.15,2.45a20.19,20.19,0,0,1-2-.32,4.84,4.84,0,0,1,.88-2.55c1.23,0,1.93-1.55,1.93-1.55,2.44-1.36,2.31-1.8,2.8-3.17s1.09-1.1,2.6-1.24c1.55-.7,2.47-1.22,2.2-1.94A9,9,0,0,1,13,54.27c0-1.37,0-1.76-.34-1.76a14.71,14.71,0,0,1-2.7.43A5,5,0,0,1,4.72,48c0-4.22,4.81-5.34,4.81-6.83,0-.51-.62-.62-1.34-.62a3.84,3.84,0,0,1-4.12-3.67,2.55,2.55,0,0,1,.41-1.3A8.83,8.83,0,0,0,8.17,37.3c2.1.36,3.74,1,3.74,3,0,3.09-5.33,4.08-5.33,7.72a3.09,3.09,0,0,0,3.18,3.07c4.47,0,6-5,12-5.11,3.1-.36,4.06-3.8,7.46-3.74a2.18,2.18,0,0,0,2.17-.73c1-1,1.27-1.76,4.54-2.64,3.51-1,4-2.81,7.12-2.81,2.44,0,5.68,3.17,7.55,4.73s2.56,2.37,5.59,6.52c1.36,1.92.89,5.79,3,10.62,2.08,1.75,1.87,3.71,4.46,4.79.2.43-.43.42-.71.42-2.9,0-3.18-3.46-5.11-4.34-.48-.22-.43,0-.22.31,2.11,2.72.65,3.41,4,5.08,1,.48.3.68,0,.68-3.45,0-4.15-2.41-5.23-2.37a4.53,4.53,0,0,1-2.5,1.42c-.25,0-1.06-.11-1.47-.11-1.94,0-2.94,1.06-4.57,1.06-1.19,0-1.17-.94-1.17-.94a5.72,5.72,0,0,1-.18-.95c0-.71.8-1.29.8-1.51,0-.7-1,.33-1-.4s.61-1.15,1.66-2.19a5,5,0,0,1,1-2.08c0-.53-1.23.19-2.72.11-2,.89-2.8.39-2.43-.16a5.7,5.7,0,0,0,1-3.5c0-1-.42-1-.51-.48-.75,3.2-1.26,4-3,4.2-.57.07-1.29.3-.83,1.12l2.1,3.8c.23.41-.7,2.5-.39,2.5s1.87-1.7,1.29-2.89l-1.78-3.54c.44-.51,1.23-.17,1.71,0a12.28,12.28,0,0,0,1.22,2.54A2.08,2.08,0,0,1,45.1,62a6.29,6.29,0,0,1-1.2,2.48c-.52.86-1.2.91-2.51.9a22,22,0,0,1-5.54,2c-2.12,0-2-2.51-3.1-2.51-.25,0-.9.09-1.06-.09a22.19,22.19,0,0,1-1.39-2.49c0-.5.82-.69,2.53-.69S35,65,36.47,65s3.19-.91,3.19-1.84c0-1.92-2.24-2.79-3.65-3.91-1.58-1.25-1.12-2.58-1.67-2.58-.73,0-.09,1.49-.09,1.84s-.37.54-1,.54c-2.65,0-3.13-.56-4.8-.56-1.46,0-2.05.4-3.14.4-3.05,0-1.87-4-1.87-5a.35.35,0,0,0-.38-.28c-.35,0-.51,1.66-.9,4.1C21.85,59,20.29,61.84,15.76,62c-3.61.1-5.4,1.27-6.39,2.94-.15.19.08.64.43.22a7.51,7.51,0,0,1,6.07-2.37c3.64.1,5.58-1.15,7-3.76.26,0,.47.29.63.47,0,.76-.47,1.07-.74,1.73-.21.51-.75,1.6-1.3,1.76-1.28.35-2,1.46-3.54,1.46m95.65,11.92C113.57,88.1,91.66,107,66.71,107S19.85,88.1,19.85,76.34V64.8c.52-.28,1-.6,1.43-.83V76.34c0,11,21.23,29.25,45.43,29.25s45.44-18.23,45.44-29.25V64c.46.23.91.55,1.42.83Zm14.29-7.71c-2,0-1.85-2.45-3.15-2.45-.4,0-.86.24-1.26.24s-.85-.21-1.93-.8-1.13-1.56-2.93-1.56c-1.2,0-2.17.36-3.09.36-1.5,0-2.26-1.11-3.54-1.46-.55-.16-1.08-1.25-1.29-1.76-.28-.66-.75-1-.75-1.73.17-.18.37-.47.64-.47,1.42,2.61,3.36,3.86,7,3.76a7.53,7.53,0,0,1,6.07,2.37c.35.42.57,0,.43-.22-1-1.67-2.79-2.84-6.39-2.94-4.54-.13-6.09-3-6.38-4.28-.38-2.44-.55-4.1-.9-4.1a.35.35,0,0,0-.38.28c0,1,1.18,5-1.87,5-1.09,0-1.68-.4-3.13-.4-1.68,0-2.16.56-4.81.56-.66,0-1-.18-1-.54s.64-1.84-.08-1.84c-.55,0-.1,1.33-1.68,2.58-1.41,1.12-3.64,2-3.64,3.91C93.77,64.1,95.45,65,97,65s2-3.41,3.63-3.41,2.54.19,2.54.69a22.15,22.15,0,0,1-1.4,2.49c-.15.18-.8.09-1,.09-1.12,0-1,2.51-3.11,2.51a22,22,0,0,1-5.54-2c-1.31,0-2,0-2.51-.9A6.29,6.29,0,0,1,88.32,62a2.09,2.09,0,0,1,.53-1.5A12.29,12.29,0,0,0,90.06,58c.49-.21,1.27-.55,1.71,0L90,61.47c-.58,1.19,1,2.89,1.3,2.89s-.62-2.09-.4-2.5l2.1-3.8c.46-.82-.25-1.05-.82-1.12-1.74-.24-2.26-1-3-4.2-.09-.54-.5-.55-.5.48a5.7,5.7,0,0,0,1,3.5c.37.55-.39,1.05-2.43.16-1.5.08-2.72-.64-2.72-.11a5,5,0,0,1,1,2.08c1,1,1.66,1.52,1.66,2.19s-1-.3-1,.4c0,.22.8.8.8,1.51a5.72,5.72,0,0,1-.18.95s0,.94-1.17.94C84,64.84,83,63.78,81,63.78c-.4,0-1.21.11-1.47.11a4.51,4.51,0,0,1-2.49-1.42c-1.09,0-1.79,2.37-5.24,2.37-.29,0-1-.2,0-.68,3.37-1.67,1.9-2.36,4-5.08.21-.34.26-.53-.22-.31-1.93.88-2.22,4.34-5.12,4.34-.28,0-.9,0-.71-.42,2.59-1.08,2.38-3,4.46-4.79,2.11-4.83,1.63-8.7,3-10.62,3-4.15,3.71-5,5.59-6.52S87.94,36,90.37,36c3.11,0,3.61,1.86,7.12,2.81,3.28.88,3.49,1.62,4.54,2.64a2.19,2.19,0,0,0,2.18.73c3.39-.06,4.35,3.38,7.46,3.74,6,.14,7.53,5.11,12,5.11A3.09,3.09,0,0,0,126.84,48c0-3.64-5.32-4.63-5.32-7.72,0-2,1.63-2.61,3.73-3a8.83,8.83,0,0,0,3.7-1.71,2.59,2.59,0,0,1,.4,1.3,3.83,3.83,0,0,1-4.12,3.67c-.72,0-1.33.11-1.33.62,0,1.49,4.81,2.61,4.81,6.83a5,5,0,0,1-5.27,4.93,15.06,15.06,0,0,1-2.7-.43c-.35,0-.33.39-.33,1.76a9.18,9.18,0,0,1-.92,3.59c-.28.72.65,1.24,2.19,1.94,1.51.14,2.08-.22,2.61,1.24s.36,1.81,2.79,3.17c0,0,.71,1.52,1.93,1.55a4.84,4.84,0,0,1,.88,2.55,19.74,19.74,0,0,1-2,.32M130,64.21c0,.29-.45.58-.9.58-.71,0-1.24-.94-1.77-1.83,0,0,.3-.65.66-.65.54,0,.54.39,1.7,1.06.39.23.31.55.31.84m.9,4.19c-.39-1.58-.76-2.43-.76-2.77,0-.14.7-.83,1-.83.93.53.83,1,.92,2,0,.52.48.71.48,1.06s-1.6.54-1.6.54"/><path class="cls-1" d="M80.12,60.17c-.2,0-.39,0-.39.47,0,.91.27,1.09,1.36,1.09.44,0,.53-.11.53-.19,0-.27-.74-1.37-1.5-1.37"/><path class="cls-1" d="M89.61,42.84c-.77,0-1.76,2.11-1.11,4.29l.18,0C89.17,44,90,44,90,43.28a.41.41,0,0,0-.42-.44"/><path class="cls-1" d="M81,54.26a1.32,1.32,0,0,0-.21-1.18c-.6-1-.6-1.67-1-1.67-.72,0-.79.7-1.42,1.41a3.5,3.5,0,0,0-1,2.12c0,.62.18,1.32.43,1.32s.24-.39.29-.84c.12-.88,1.06-2.16,1.71-2.16s1.1,1.11,1.25,1"/><path class="cls-2" d="M76.79,30.18A12.77,12.77,0,0,1,77.1,33c0,.11,0,.21,0,.33a21.29,21.29,0,0,1,0,4.69,11,11,0,0,1-1.36.64A13,13,0,0,1,71,44l.87,2.46a18.5,18.5,0,0,1-4.31,1.77,10.78,10.78,0,0,1-3.89-1.61l.48-.66a13,13,0,0,1-4.88-1l.26.42L59,45.8A12,12,0,0,0,76.79,30.18"/><path class="cls-3" d="M87.07,57.77a7.72,7.72,0,0,1-1-.07,5.88,5.88,0,0,1,.2.67,6.7,6.7,0,0,1,1.63,2A10.79,10.79,0,0,0,89,58.25a5.87,5.87,0,0,1-1.93-.48"/><path class="cls-3" d="M44.42,58.25a12,12,0,0,0,1.1,2.08,7,7,0,0,1,1.63-2,4.38,4.38,0,0,1,.21-.67,7.88,7.88,0,0,1-1,.07,5.76,5.76,0,0,1-1.93.48"/><path class="cls-3" d="M81,64.67l-1.47.11a4.35,4.35,0,0,1-2.67-1.3c-1.35,1.06-2.25,2.25-5.06,2.25-1.54,0-1.51-1.32-1.18-1.75-1.31.24-2.25-.73-1.51-2,2.34-.69,2.33-2.84,4.36-4.61,2.13-5.09,1.35-8.39,3-10.63,3.17-4.23,3.81-5.08,5.74-6.69a38.34,38.34,0,0,1,4.83-3.79,24.66,24.66,0,0,0-11.66-9.2,12.93,12.93,0,1,1-17.6.17l-.17,0a24.72,24.72,0,0,0-11.31,9.06,37.63,37.63,0,0,1,4.83,3.79c1.93,1.61,2.57,2.46,5.74,6.69,1.69,2.24.9,5.54,3,10.63,2,1.77,2,3.92,4.36,4.61.75,1.24-.19,2.21-1.51,2,.34.43.36,1.75-1.18,1.75-2.8,0-3.71-1.19-5-2.25a4.37,4.37,0,0,1-2.68,1.3l-1.47-.11c-1.61,0-2.89,1.06-4.57,1.06l-.17,0a24.61,24.61,0,0,0,38.08,0l-.17,0c-1.68,0-3-1.06-4.57-1.06"/><path class="cls-4" d="M31.25,11.67h2.26a2.52,2.52,0,0,1,0,5H32.39V21l3.85,6h4.32l-4.85-7.54a5.45,5.45,0,0,0-1.35-10.7H27.54V27h3.71Z"/><path class="cls-4" d="M76.92,27a5.43,5.43,0,0,0,5.37-5.49,4.67,4.67,0,0,0-2.88-4.43,4.3,4.3,0,0,0,1.36-3.24,5,5,0,0,0-5-5.08H69V23.91A12.91,12.91,0,0,1,75.32,27ZM72.71,11.67H75A2.17,2.17,0,0,1,75,16H74.5v2.92h1.57a2.57,2.57,0,0,1,0,5.14H72.71Z"/><rect class="cls-4" x="102.63" y="7.82" width="3.25" height="19.18"/><rect class="cls-4" x="96.32" y="7.82" width="3.25" height="19.18"/><path class="cls-4" d="M88.62,27.31a5.6,5.6,0,0,0,5.53-5.67v-6H90.91v6.26a2.29,2.29,0,1,1-4.58,0V15.61H83.09v6a5.6,5.6,0,0,0,5.53,5.67"/><path class="cls-4" d="M45.59,27.3a6,6,0,0,0,5-2.8l-2.46-1.63a3,3,0,0,1-2.58,1.67,3.13,3.13,0,0,1-3-2.87h8.94a4.53,4.53,0,0,0,0-.52,6,6,0,1,0-6,6.15m0-9.55a3,3,0,0,1,2.7,1.94h-5.4a3,3,0,0,1,2.7-1.94"/><path class="cls-4" d="M61.53,16.18a4,4,0,0,0-3-1.19,6.17,6.17,0,0,0-.89,12.24l.17,0a12.8,12.8,0,0,1,7-3.4v-16H61.53Zm-3,8.36a3.21,3.21,0,0,1-3-3.39,3,3,0,1,1,6,0,3.21,3.21,0,0,1-3,3.39"/><path class="cls-4" d="M36.73,64.1c.85,0,1.62-.5,1.62-.76s-.4-.62-.49-1.25-.42-.67-.57-.67-1.17.13-1.79.13-.75.31-.23.6c.69.38.77,1.95,1.46,1.95"/><path class="cls-4" d="M4.28,64.79c.71,0,1.24-.94,1.78-1.83,0,0-.3-.65-.67-.65-.54,0-.53.39-1.69,1.06-.39.23-.32.55-.32.84s.45.58.9.58"/><path class="cls-4" d="M2.28,64.8c-.92.53-.82,1-.91,2-.05.52-.48.71-.48,1.06s1.59.54,1.59.54c.4-1.58.77-2.43.77-2.77a2,2,0,0,0-1-.83"/><path class="cls-4" d="M59.18,57.9c-2.11-4.83-1.63-8.7-3-10.62-3-4.15-3.71-5-5.59-6.52S45.49,36,43.05,36c-3.11,0-3.61,1.86-7.12,2.81-3.27.88-3.49,1.62-4.54,2.64a2.18,2.18,0,0,1-2.17.73c-3.4-.06-4.36,3.38-7.46,3.74-6,.13-7.53,5.11-12,5.11A3.09,3.09,0,0,1,6.58,48c0-3.64,5.33-4.63,5.33-7.72,0-2-1.64-2.61-3.74-3a8.83,8.83,0,0,1-3.69-1.71,2.55,2.55,0,0,0-.41,1.3,3.84,3.84,0,0,0,4.12,3.67c.72,0,1.33.11,1.33.62,0,1.49-4.8,2.61-4.8,6.83A5,5,0,0,0,10,52.94a14.71,14.71,0,0,0,2.7-.43c.35,0,.34.39.34,1.76a9,9,0,0,0,.92,3.59c.27.72-.65,1.24-2.2,1.93-1.51.15-2.07-.21-2.6,1.25s-.36,1.81-2.8,3.17c0,0-.7,1.52-1.93,1.55a4.79,4.79,0,0,0-.88,2.55,20.19,20.19,0,0,0,2,.32c2,0,1.86-2.45,3.15-2.45.4,0,.86.24,1.26.24s.85-.21,1.94-.8,1.12-1.56,2.92-1.56c1.2,0,2.17.36,3.09.36,1.51,0,2.26-1.11,3.54-1.46.55-.16,1.09-1.25,1.3-1.76.27-.66.74-1,.74-1.73-.16-.18-.37-.47-.63-.47-1.42,2.61-3.36,3.86-7,3.76A7.51,7.51,0,0,0,9.8,65.13c-.35.42-.58,0-.43-.22,1-1.67,2.78-2.84,6.39-2.94,4.53-.13,6.09-3,6.37-4.28.39-2.44.55-4.1.9-4.1s.39.15.39.28c0,1-1.19,5,1.86,5,1.09,0,1.68-.4,3.14-.4,1.67,0,2.15.56,4.8.56.66,0,1-.18,1-.54s-.64-1.84.09-1.84c.55,0,.09,1.33,1.67,2.58,1.41,1.12,3.65,2,3.65,3.91C39.66,64.1,38,65,36.47,65s-2-3.41-3.64-3.41-2.53.19-2.53.69a22.19,22.19,0,0,0,1.39,2.49c.16.18.81.09,1.06.09,1.12,0,1,2.51,3.1,2.51a22,22,0,0,0,5.54-2c1.31,0,2,0,2.51-.9A6.29,6.29,0,0,0,45.1,62a2.08,2.08,0,0,0-.52-1.5A12.28,12.28,0,0,1,43.36,58c-.48-.21-1.27-.55-1.71,0l1.78,3.54c.58,1.19-1,2.89-1.29,2.89s.62-2.09.39-2.5l-2.1-3.8c-.46-.82.26-1.05.83-1.12,1.74-.24,2.25-1,3-4.2.09-.54.5-.55.5.48a5.71,5.71,0,0,1-1,3.5c-.38.55.38,1.05,2.43.16,1.49.08,2.72-.64,2.72-.11a4.85,4.85,0,0,0-1,2.08c-1,1-1.66,1.52-1.66,2.19s1-.3,1,.4c0,.22-.8.8-.8,1.51a5.72,5.72,0,0,0,.18.95s0,.94,1.17.94c1.63,0,2.63-1.06,4.57-1.06.41,0,1.22.11,1.47.11a4.53,4.53,0,0,0,2.5-1.42c1.08,0,1.78,2.37,5.23,2.37.3,0,1-.2,0-.68-3.36-1.67-1.9-2.36-4-5.08-.21-.34-.26-.53.22-.31,1.93.87,2.21,4.34,5.11,4.34.28,0,.91,0,.71-.42-2.59-1.08-2.37-3-4.46-4.79M44.92,47.13l-.17,0c-.5-3.2-1.36-3.15-1.36-3.87a.42.42,0,0,1,.42-.44c.77,0,1.77,2.11,1.11,4.29m7.41,14.6c-.43,0-.52-.11-.52-.19,0-.27.73-1.37,1.49-1.37.2,0,.4,0,.4.47,0,.91-.27,1.09-1.37,1.09m3.32-5.47c-.35,0-.23-.39-.29-.84-.11-.88-1.06-2.16-1.71-2.16s-1.09,1.11-1.25,1a1.38,1.38,0,0,1,.21-1.18c.61-1,.61-1.67,1-1.67.72,0,.78.7,1.41,1.41a3.5,3.5,0,0,1,1,2.12c0,.62-.18,1.32-.43,1.32"/><path class="cls-4" d="M96.14,61.42c-.15,0-.5,0-.58.67s-.49,1-.49,1.25.78.76,1.63.76c.69,0,.76-1.57,1.46-1.95.51-.29.39-.6-.24-.6s-1.63-.13-1.78-.13"/><path class="cls-4" d="M129.73,63.37c-1.16-.67-1.16-1.06-1.7-1.06-.36,0-.66.65-.66.65.53.89,1.06,1.83,1.77,1.83.45,0,.9-.29.9-.58s.08-.61-.31-.84"/><path class="cls-4" d="M132.06,66.8c-.09-1,0-1.47-.92-2-.26,0-1,.69-1,.83,0,.34.37,1.19.76,2.77,0,0,1.6-.29,1.6-.54s-.44-.54-.48-1.06"/><path class="cls-4" d="M127.08,64.21c-2.43-1.36-2.3-1.8-2.79-3.17s-1.1-1.1-2.61-1.25c-1.54-.69-2.47-1.21-2.19-1.93a9.18,9.18,0,0,0,.92-3.59c0-1.37,0-1.76.33-1.76a15.06,15.06,0,0,0,2.7.43A5,5,0,0,0,128.71,48c0-4.22-4.81-5.34-4.81-6.83,0-.51.61-.62,1.33-.62a3.83,3.83,0,0,0,4.12-3.67,2.59,2.59,0,0,0-.4-1.3,8.83,8.83,0,0,1-3.7,1.71c-2.1.36-3.73,1-3.73,3,0,3.09,5.32,4.08,5.32,7.72a3.09,3.09,0,0,1-3.17,3.07c-4.47,0-6-5-12-5.11-3.11-.36-4.07-3.8-7.46-3.74a2.19,2.19,0,0,1-2.18-.73c-1-1-1.26-1.76-4.54-2.64-3.51-1-4-2.81-7.12-2.81-2.43,0-5.67,3.17-7.55,4.73s-2.56,2.37-5.59,6.52c-1.36,1.92-.88,5.79-3,10.62-2.08,1.75-1.87,3.71-4.46,4.79-.19.43.43.42.71.42,2.9,0,3.19-3.47,5.12-4.34.48-.22.43,0,.22.31-2.12,2.72-.65,3.41-4,5.08-1,.48-.29.68,0,.68,3.45,0,4.15-2.41,5.24-2.37a4.51,4.51,0,0,0,2.49,1.42c.26,0,1.07-.11,1.47-.11,1.94,0,2.94,1.06,4.57,1.06,1.2,0,1.17-.94,1.17-.94a5.72,5.72,0,0,0,.18-.95c0-.71-.8-1.29-.8-1.51,0-.7,1,.33,1-.4s-.62-1.15-1.66-2.19a5,5,0,0,0-1-2.08c0-.53,1.22.19,2.72.11,2,.89,2.8.39,2.43-.16a5.7,5.7,0,0,1-1-3.5c0-1,.41-1,.5-.48.75,3.2,1.27,4,3,4.2.57.07,1.28.3.82,1.12l-2.1,3.8c-.22.41.71,2.5.4,2.5s-1.88-1.7-1.3-2.89l1.78-3.54c-.44-.51-1.22-.17-1.71,0a12.29,12.29,0,0,1-1.21,2.54,2.09,2.09,0,0,0-.53,1.5,6.29,6.29,0,0,0,1.2,2.48c.53.86,1.2.91,2.51.9a22,22,0,0,0,5.54,2c2.13,0,2-2.51,3.11-2.51.25,0,.9.09,1-.09a22.15,22.15,0,0,0,1.4-2.49c0-.5-.83-.69-2.54-.69S98.41,65,97,65s-3.19-.91-3.19-1.84c0-1.92,2.23-2.79,3.64-3.91C99,58,98.54,56.68,99.09,56.68c.72,0,.08,1.49.08,1.84s.37.54,1,.54c2.65,0,3.13-.56,4.81-.56,1.45,0,2,.4,3.13.4,3,0,1.87-4,1.87-5a.35.35,0,0,1,.38-.28c.35,0,.52,1.66.9,4.1.29,1.26,1.84,4.15,6.38,4.28,3.6.1,5.4,1.27,6.39,2.94.14.19-.08.64-.43.22a7.53,7.53,0,0,0-6.07-2.37c-3.64.1-5.58-1.15-7-3.76-.27,0-.47.29-.64.47,0,.76.47,1.07.75,1.73.21.51.74,1.6,1.29,1.76,1.28.35,2,1.46,3.54,1.46.92,0,1.89-.36,3.09-.36,1.8,0,1.84,1,2.93,1.56s1.44.8,1.93.8.86-.24,1.26-.24c1.3,0,1.17,2.45,3.15,2.45a19.74,19.74,0,0,0,2-.32,4.79,4.79,0,0,0-.88-2.55c-1.22,0-1.93-1.55-1.93-1.55m-49-8.79c0,.45.07.84-.29.84s-.43-.7-.43-1.32a3.5,3.5,0,0,1,1-2.12c.63-.71.69-1.41,1.42-1.41.43,0,.43.69,1,1.67A1.35,1.35,0,0,1,81,54.26c-.15.11-.69-1-1.25-1s-1.59,1.28-1.71,2.16m3,6.31c-1.09,0-1.36-.18-1.36-1.09,0-.46.19-.47.39-.47.76,0,1.5,1.1,1.5,1.37,0,.08-.09.19-.53.19m7.59-14.58-.18,0c-.65-2.18.34-4.29,1.11-4.29a.41.41,0,0,1,.42.44c0,.72-.85.67-1.35,3.87"/><path class="cls-5" d="M19.85,45.24a9.22,9.22,0,0,1,1.43-.15V2.31h90.87V45.09a9.09,9.09,0,0,1,1.42.15V.89H19.85Z"/><path class="cls-5" d="M112.15,76.34c0,11-21.24,29.25-45.44,29.25S21.28,87.36,21.28,76.34V64c-.47.23-.91.55-1.43.83V76.34C19.85,88.1,41.76,107,66.71,107s46.86-18.92,46.86-30.68V64.8c-.51-.28-1-.6-1.42-.83Z"/><path class="cls-5" d="M111.46,45V3H22V45a6.6,6.6,0,0,0,2.69-1.65V5.68h84.12v37.7A6.6,6.6,0,0,0,111.46,45"/><path class="cls-5" d="M22,76.34c0,10.76,20.92,28.57,44.75,28.57s44.75-17.81,44.75-28.57V63.67a6.51,6.51,0,0,1-2.4-4.05l-.29.07V76.34c0,8.52-19.47,25.88-42.06,25.88S24.65,84.86,24.65,76.34V59.69l-.29-.07A6.46,6.46,0,0,1,22,63.67Z"/><polygon class="cls-5" points="33.54 84.73 46.27 73.27 45.09 71.95 37.07 79.43 43.83 70.56 42.71 69.31 29.98 80.78 31.16 82.09 39.19 74.61 32.42 83.49 33.54 84.73"/><path class="cls-5" d="M51.49,79.43l1-1.45-2.91-2a1.77,1.77,0,0,0-2.47.44L39.34,87.5A1.77,1.77,0,0,0,39.77,90l2.91,2,1-1.45-2.91-2,3.39-4.84,2.18,1.53,1-1.45L45.2,82.23l3.38-4.83Z"/><path class="cls-5" d="M55.12,97.49l6.12-16-1.7-.58L55.36,92.73c.63-2.79.81-4.72,1.17-6.66l-1.4-.48c-.91,1.74-2,3.39-3.17,6l4-11.9-1.7-.58-5,16.39,1.56.53,4.27-7.81L53.55,97Z"/><path class="cls-5" d="M74,88.2l-.85-6.9-1.76.21.93,7.65-1.76.21-.94-7.64-1.76.21.85,6.91a2.77,2.77,0,0,0,2.07,2.29l.93,7.6,1.77-.22-.94-7.6A2.72,2.72,0,0,0,74,88.2"/><path class="cls-5" d="M81.12,94.15a2.66,2.66,0,1,0,4.94-2L81.53,80.94a2.66,2.66,0,0,0-4.94,2ZM79.6,80.91,84.69,93.5l-1.64.67L78,81.58Z"/><path class="cls-5" d="M95.18,87.82a2.85,2.85,0,0,0,1.07.79l1.45-1.1a2.4,2.4,0,0,1-1.1-.76l-3.44-4.56c-.64-.84-1.14-.92-1.58-.79a1.37,1.37,0,0,0-.2-1.57L88.12,75.5a1.78,1.78,0,0,0-2.49-.35L82.8,77.29,93.11,91l1.41-1.07L89.9,83.77l1.42-1.07Zm-6.34-5.47-3.56-4.71,1.42-1.07,3.56,4.72Z"/><path class="cls-5" d="M99.28,76.55l3.9,3.27a2.3,2.3,0,0,0,1.3.57L105.65,79a3.06,3.06,0,0,1-1.56-.74l-3.25-2.72a2.71,2.71,0,0,0-4,.23,3.11,3.11,0,0,0-.8-4.29l-2.88-2.41A2.35,2.35,0,0,1,92.53,68l-1.17,1.4a3.29,3.29,0,0,0,.85,1.24l3.3,2.76a1.58,1.58,0,0,1,.11,2.4L90,71,88.83,72.4,102,83.4l1.13-1.35L97,77s1.13-1.36,2.26-.41"/><path class="cls-5" d="M71.87,46.46,71,44l-.13-.36-5.17.14L64.15,46l-.48.66a10.89,10.89,0,0,0,3.89,1.61,18.5,18.5,0,0,0,4.31-1.77"/><path class="cls-5" d="M77.14,38.05a21.29,21.29,0,0,0,0-4.69,3.76,3.76,0,0,0-.09-.43,22.74,22.74,0,0,0-3.57-2.07,30.52,30.52,0,0,0-2.3,4c1,2.19,2.47,4.59,2.47,4.59a15,15,0,0,0,2.18-.72,11,11,0,0,0,1.36-.64"/><path class="cls-5" d="M66,34.91a38.49,38.49,0,0,0-3.05-4.15s-3.28,1.47-4.5,2.1a29.94,29.94,0,0,0,0,5.4s1.91.68,4.71,1.35c0,0,2.07-3.3,2.79-4.7"/><path class="cls-5" d="M55.15,33.56l1.55-2.17,1.92-3.57a12,12,0,0,0-3.47,5.74"/><path class="cls-5" d="M70.48,27.18l.66-1.67a12,12,0,0,0-4.43-.84,11.83,11.83,0,0,0-3.78.61l2.28,1.83a29.64,29.64,0,0,1,5.27.07"/><path class="cls-5" d="M59,45.8l.49-.39L59.27,45,56.92,41.2,55,39.26a12,12,0,0,0,4,6.54"/></g></g></svg>