<svg xmlns="http://www.w3.org/2000/svg" viewBox="0 0 103.59 118.63"><defs><style>.cls-1{fill:#603393;}.cls-2{fill:#fff;}.cls-3{fill:#eed484;}</style></defs><title>ORL</title><g id="Layer_2" data-name="Layer 2"><g id="Layer_1-2" data-name="Layer 1"><path class="cls-1" d="M51.79,118.06c-8.35-3.35-24.68-11.49-36.95-27.44C-7,62.29,1.17,28.47,6.75,9.26,15.51,5.5,30.27.52,51.79.52s36.28,5,45,8.74c5.58,19.21,13.74,53-8.08,81.36-12.28,15.95-28.61,24.09-37,27.44"/><path class="cls-2" d="M51.79.52c21.52,0,36.28,5,45,8.74,5.58,19.21,13.74,53-8.08,81.36-12.28,15.95-28.61,24.09-37,27.44-8.35-3.35-24.68-11.49-36.95-27.44C-7,62.29,1.17,28.47,6.75,9.26,15.51,5.5,30.27.52,51.79.52m0-.52C35.11,0,20.31,2.87,6.55,8.79l-.23.09-.07.24C3.17,19.74,0,32.49,0,46.52c0,17,4.84,32,14.42,44.42,12.29,16,28.57,24.15,37.18,27.61l.19.08.2-.08c8.61-3.46,24.88-11.65,37.17-27.61,9.58-12.45,14.43-27.39,14.43-44.42,0-14-3.17-26.78-6.26-37.4l-.07-.24L97,8.79C83.27,2.87,68.47,0,51.79,0"/><path class="cls-2" d="M51.79,5.3c15.09,0,28.49,2.53,41,7.74,2.78,9.74,5.53,21.3,5.54,33.89,0,15.63-4.42,29.33-13.15,40.71-10.89,14.2-25.23,21.74-33.35,25.12-8.11-3.38-22.45-10.92-33.34-25.12C9.71,76.26,5.29,62.56,5.3,46.93c0-12.59,2.75-24.15,5.54-33.89C23.3,7.83,36.71,5.3,51.79,5.3m0-2.29C31.32,3,17.27,7.77,8.94,11.36,3.63,29.69-4.13,62,16.63,89c11.68,15.22,27.22,23,35.16,26.2,8-3.21,23.48-11,35.17-26.2C107.71,62,100,29.69,94.65,11.36,86.31,7.77,72.27,3,51.79,3"/><path class="cls-3" d="M59.1,59.22V62s-.05,0-.05,0l-1-.19a3,3,0,0,1-.85,1.76A9.41,9.41,0,0,0,55,65s0,0,0,0c-.22-.53-1.44-.6-1.44-.6l-1.74,2.11L50,64.42s-1.22.07-1.44.6c0,0,0,0,0,0-.53-.67-1.77-1.1-2.17-1.41a3,3,0,0,1-.85-1.76l-1.06.2a0,0,0,0,1,0,0v-2.8c0-.41.15-.71.76-1.1a12,12,0,0,1,2.41-1,16.76,16.76,0,0,1,4.14-.47h0a16.62,16.62,0,0,1,4.13.47,11.84,11.84,0,0,1,2.42,1c.6.39.76.69.76,1.1m22.58-5.94a9,9,0,0,1-6-.35,11.32,11.32,0,0,1,1.59,2.86c.85,2,3.1,4.4,5,3.87.82-.23-1.63,2-4.61,2a9.76,9.76,0,0,1-5.54-1.91,11.44,11.44,0,0,1,.58,3c.23,2.18,1.68,5.11,3.63,5.16.85,0-2.15,1.44-5,.52a10.08,10.08,0,0,1-5-3.72,11.32,11.32,0,0,1-.29,3.45c-.44,2.14.06,5.37,1.91,6,.8.28-2.49.73-4.91-1a10.09,10.09,0,0,1-3.57-4.86,11,11,0,0,1-1.17,3c-1.05,1.92-1.52,5.15.06,6.3.68.51-2.68,0-4.48-2.39A14.3,14.3,0,0,1,51.8,71.6a14.3,14.3,0,0,1-2.09,3.57c-1.8,2.36-5.16,2.9-4.48,2.39,1.58-1.15,1.11-4.38.06-6.3a10.65,10.65,0,0,1-1.17-3,10.09,10.09,0,0,1-3.57,4.86c-2.42,1.73-5.72,1.28-4.91,1,1.85-.64,2.35-3.87,1.91-6a11,11,0,0,1-.29-3.45,10.08,10.08,0,0,1-5,3.72c-2.83.92-5.83-.5-5-.52,1.95,0,3.4-3,3.62-5.16a11.87,11.87,0,0,1,.59-3A9.76,9.76,0,0,1,26,61.62c-3,.06-5.43-2.19-4.61-2,1.88.53,4.12-1.85,5-3.87a11.32,11.32,0,0,1,1.59-2.86,9,9,0,0,1-6,.35c-2.86-.82-4.55-3.68-3.83-3.22,1.64,1,4.49-.49,5.89-2.17a12.32,12.32,0,0,1,2.51-2.41,10,10,0,0,1-6-1.58C18,42.26,17.25,39,17.8,39.68c1.26,1.5,4.45.81,6.29-.37A11.28,11.28,0,0,1,27,37.89a10.08,10.08,0,0,1-5.08-3.24C20,32.35,20.25,29,20.58,29.82c.76,1.8,4,2.09,6.12,1.5a11.85,11.85,0,0,1,3.26-.5A10.06,10.06,0,0,1,26,26.18c-1.12-2.75.09-5.85.17-5,.19,1.94,3.26,3.14,5.45,3.21a24.74,24.74,0,0,1,2.85.17,10.07,10.07,0,0,1-2.08-5.2c-.25-3,1.82-5.56,1.64-4.73-.39,1.92,2.13,4,4.2,4.71a23.77,23.77,0,0,1,2.94,1,10,10,0,0,1-.47-5.72c.65-2.91,3.4-4.76,3-4-1,1.71.83,4.45,2.59,5.75.41.31.83.62,1.24,1,2.49-4,4-8,4.28-8s1.78,4.05,4.28,8c.41-.34.82-.64,1.22-.95,1.76-1.3,3.54-4,2.59-5.75-.41-.74,2.34,1.11,3,4a10,10,0,0,1-.47,5.72,23.77,23.77,0,0,1,2.94-1c2.07-.72,4.59-2.79,4.2-4.71-.18-.83,1.89,1.77,1.64,4.73a10.07,10.07,0,0,1-2.08,5.2A24.49,24.49,0,0,1,72,24.39c2.19-.07,5.26-1.27,5.45-3.21.08-.85,1.29,2.25.16,5a10,10,0,0,1-4,4.64,11.92,11.92,0,0,1,3.27.5c2.11.59,5.36.3,6.12-1.5.33-.78.57,2.53-1.32,4.83a10.12,10.12,0,0,1-5.08,3.24,11.05,11.05,0,0,1,2.88,1.42c1.85,1.18,5,1.87,6.3.37.54-.65-.21,2.58-2.69,4.22a10,10,0,0,1-6,1.58,12.59,12.59,0,0,1,2.51,2.41c1.4,1.68,4.24,3.22,5.89,2.17.72-.46-1,2.4-3.83,3.22M35.61,25.85a5.16,5.16,0,0,1,2-.25,11.35,11.35,0,0,1,4.43,1.16c2.16,1,3.86-1,2.48-2,0,0,0,0,0,0A9.18,9.18,0,0,1,51.8,28.2,9.2,9.2,0,0,1,59,24.74s0,0,0,.05c-1.35,1,.34,2.93,2.5,2A11.31,11.31,0,0,1,66,25.6a5.16,5.16,0,0,1,2,.23c.1,0,.12,0,0-.11a7.27,7.27,0,0,0-5.1-1c-.81-.18-3.24-1.1-2-3.41a0,0,0,0,0,0-.05c-1.89.8-4.43,1.08-5.34,2.26-1.87-1.54-3.41-5.62-3.65-5.94,0,0,0,0,0,0l0,0C51.54,18,50,22,48.13,23.56c-.91-1.17-3.41-1.45-5.31-2.25,0,0-.09,0-.08.05,1.28,2.31-1.16,3.22-2,3.4a7.19,7.19,0,0,0-5.21,1c-.07.05,0,.09,0,.06M54.29,48.73c.34-.21,1.36,0,1.65-.21a3.8,3.8,0,0,0,1.77-2.13c0-.07,0-.09,0-.06a2.78,2.78,0,0,1-1.44.43,8.28,8.28,0,0,0-1.64-.27c-1,0-1.26.5-2.8.5h0c-1.55,0-1.79-.5-2.8-.5a8.43,8.43,0,0,0-1.64.27,2.81,2.81,0,0,1-1.42-.42c-.06,0-.09,0-.07,0a3.77,3.77,0,0,0,1.78,2.16c.29.17,1.31,0,1.64.21s0,.8.34,1.06a4.62,4.62,0,0,1,2.11,2.53.06.06,0,0,0,.12,0A4.64,4.64,0,0,1,54,49.79c.36-.26,0-.85.34-1.06m-8.24-6a3.78,3.78,0,0,0-.09.48c0,.11,0,.13.06,0,.36-.73,1.62-3.28,2.07-4.06.8-1.43,1.19-2.32,1-2.66-2.6,2.7-4.3-1.37-6.41-1.7-1.51-.23-2-.07-3.32-.27a4.62,4.62,0,0,0,2.3,3.19c2.48,1.32,3.82.71,4.92,1.27.74.38-.18,2.85-.5,3.74m15.92-5a4.55,4.55,0,0,0,2.26-3.19c-1.32.2-1.77,0-3.28.27-2.11.33-3.81,4.4-6.41,1.7-.23.34.16,1.23,1,2.66.46.8,1.77,3.45,2.09,4.11,0,.09.07.08,0,0a4.6,4.6,0,0,0-.1-.53c-.32-.89-1.24-3.36-.5-3.74,1.1-.56,2.44,0,4.92-1.27m2.87,9.8c1-2.19,4.32-3.57,7.12-3.65,0,0,0,0,0-.05a8.58,8.58,0,0,0-4.1-1.09s0,0,0,0c1.28-2.17,1.84-3.91,1.44-7.51a6.78,6.78,0,0,0,1.13-5.4c0-.1-.09-.11-.1,0a7.1,7.1,0,0,1-1.18,2.67l-.05.06h0a.69.69,0,0,1-.54.26.69.69,0,0,1,0-1.37,0,0,0,0,0,0,0c-1.08-2-3-1.73-3.3-2.63a.76.76,0,0,1,.09-.71c-1.09-.05-2,.63-1.47,1.45.29.49,1.39.63,2.68,1.6a0,0,0,0,1,0,0h0c-1,.45,0,1.42.26,2.12a8,8,0,0,1,.73,5.56,11,11,0,0,1-4.59,6.6c0,.39,0,1.79-2.4,4.38-.29.31.37.15,1.11-.24h0A14.91,14.91,0,0,1,62,52l0,0a23,23,0,0,0-4.27,0c-.44.06.39.42.84.47a29.29,29.29,0,0,1,3.33.71l0,0a4.4,4.4,0,0,1-.29,1.28s0,0,0,0a24.59,24.59,0,0,0-5-1c-.44,0,.17.38.56.49.83.23,2.32.94,4,1.67,0,0,0,0,0,0a6.2,6.2,0,0,1-1.58,2h0a16.83,16.83,0,0,0-2.8-1.29c-.56-.2-1.19-.46-1.81-.71-1-.53-2.79-1.15-3.06-1.84h-.06c-.26.67-1.89,1.26-2.94,1.77-.67.28-1.35.56-2,.78a17.14,17.14,0,0,0-2.79,1.28h0a6.07,6.07,0,0,1-1.57-1.93,0,0,0,0,1,0,0c1.67-.72,3.15-1.44,4-1.67.39-.11,1-.52.55-.49a24.81,24.81,0,0,0-5.05,1h0a3.94,3.94,0,0,1-.29-1.29,0,0,0,0,1,0,0A28.94,28.94,0,0,1,45,52.47c.45,0,1.28-.41.83-.47a22.94,22.94,0,0,0-4.27,0,0,0,0,0,1,0,0,13.27,13.27,0,0,1,.37-2.44h0c.75.39,1.41.55,1.13.24-2.45-2.59-2.36-4-2.4-4.38a11,11,0,0,1-4.6-6.6,8,8,0,0,1,.74-5.56c.3-.7,1.21-1.67.26-2.12,0,0,0,0,0,0h0c1.29-1,2.38-1.11,2.67-1.6.49-.82-.37-1.5-1.47-1.45a.73.73,0,0,1,.1.71c-.33.9-2.23.65-3.3,2.64,0,0,0,0,0,0A.69.69,0,0,1,35,32.77a.69.69,0,0,1-.6-.36,7.17,7.17,0,0,1-1.17-2.68c0-.07-.07,0-.09.05a6.8,6.8,0,0,0,1.13,5.43c-.39,3.6.17,5.33,1.45,7.5v0a8.76,8.76,0,0,0-4.13,1.1s0,0,0,0c2.81.07,6.13,1.45,7.15,3.65l0,0c-2.26-.75-4.51.68-6.52,2.31,0,0,0,0,0,0,2.63-.8,6.07-.44,7.71,1.4,0,0,0,0,0,0-2.38,0-3.7,2-5.13,4.34,0,0,0,.08,0,.06a11.11,11.11,0,0,1,5.41-1.17v0c-2.14,4,1,7.57,5.17,10.46a41.25,41.25,0,0,1,6.41,4.52A31.13,31.13,0,0,1,58.17,65c4.19-2.89,7.34-6.5,5.2-10.48l0,0a11,11,0,0,1,5.4,1.18s0,0,0-.06c-1.43-2.35-2.76-4.34-5.14-4.31,0,0,0,0,0,0,1.65-1.83,5.08-2.21,7.7-1.43,0,0,0,0,0,0-2-1.62-4.25-3-6.5-2.3,0,0,0,0,0,0"/><polygon class="cls-2" points="49.07 99.77 47.68 99.77 47.68 91.86 49.12 91.86 49.12 99.77 49.07 99.77"/><polygon class="cls-2" points="54.24 99.77 52.87 99.77 52.87 93.3 50.61 93.3 50.61 91.86 56.34 91.86 57 93.3 54.34 93.3 54.34 99.77 54.24 99.77"/><polygon class="cls-2" points="61.79 99.77 60.42 99.77 60.42 96.45 57.87 91.86 59.51 91.86 61.16 94.95 62.81 91.86 64.45 91.86 61.9 96.45 61.9 99.77 61.79 99.77"/><path class="cls-2" d="M27.15,89.69a4.09,4.09,0,1,1,4.12-4.08,4.11,4.11,0,0,1-4.12,4.08m0-6.76A2.68,2.68,0,1,0,29.8,85.6a2.67,2.67,0,0,0-2.65-2.67"/><path class="cls-2" d="M76.45,89.69a4.09,4.09,0,1,1,4.11-4.08,4.11,4.11,0,0,1-4.11,4.08m0-6.76A2.68,2.68,0,1,0,79.1,85.6a2.67,2.67,0,0,0-2.65-2.67"/><polygon class="cls-2" points="41.35 89.53 41.35 81.65 42.8 81.65 42.8 88.17 46.7 88.17 46.02 89.53 41.35 89.53"/><polygon class="cls-2" points="62.61 89.58 57.52 84.72 57.52 89.56 56.09 86.58 56.09 81.38 61.16 86.12 61.16 81.65 62.61 81.65 62.61 89.58"/><path class="cls-2" d="M66.68,89.56H64.39V81.65H66.7a3.92,3.92,0,0,1,2.9.95,4,4,0,0,1-2.92,7m-.84-1.39h.89a2.55,2.55,0,0,0,2.06-.69,2.85,2.85,0,0,0,0-3.8,2.65,2.65,0,0,0-2-.65h-.89Z"/><path class="cls-2" d="M38,89.55l-3.31-4h.62a5.29,5.29,0,0,0,1-.06,1.19,1.19,0,0,0,.89-1.26,1.12,1.12,0,0,0-.65-1,2.84,2.84,0,0,0-1.27-.17h-.86v6.46H33v-7.9h2.4a4.41,4.41,0,0,1,1.9.29,2.55,2.55,0,0,1,1.43,2.32,2.42,2.42,0,0,1-1.41,2.22s0,0,0,0l2.57,3.06Z"/><polygon class="cls-2" points="55.7 89.53 54.17 89.53 53.19 87.38 51.21 87.38 51.84 86.02 52.57 86.02 51.83 84.49 49.45 89.53 47.93 89.53 51.83 81.39 55.7 89.53"/><path class="cls-2" d="M45.89,97.21a2.63,2.63,0,0,1-2.25,1.27,2.68,2.68,0,1,1,2.25-4.07v-2a4.1,4.1,0,1,0-2.25,7.5,4,4,0,0,0,2.25-.67Z"/></g></g></svg>