<?xml version="1.0" encoding="iso-8859-1"?>
<!-- Generator: Adobe Illustrator 22.1.0, SVG Export Plug-In . SVG Version: 6.00 Build 0)  -->
<!DOCTYPE svg PUBLIC "-//W3C//DTD SVG 1.1//EN" "http://www.w3.org/Graphics/SVG/1.1/DTD/svg11.dtd">
<svg version="1.1" id="Layer_1" xmlns="http://www.w3.org/2000/svg" xmlns:xlink="http://www.w3.org/1999/xlink" x="0px" y="0px"
	 viewBox="0 0 113.334 143.333" style="enable-background:new 0 0 113.334 143.333;" xml:space="preserve">
<g>
	<path style="fill:#B4975A;" d="M56.668,22.25c-25.602,0-46.432,20.829-46.432,46.433c0,25.603,20.83,46.432,46.432,46.432
		c25.601,0,46.431-20.829,46.431-46.432C103.098,43.079,82.268,22.25,56.668,22.25"/>
	<path style="fill:#002B5C;" d="M56.668,24.053c-24.608,0-44.628,20.021-44.628,44.63c0,24.608,20.02,44.627,44.628,44.627
		c24.607,0,44.627-20.019,44.627-44.627C101.294,44.074,81.275,24.053,56.668,24.053"/>
	<path style="fill:#FFFFFF;" d="M56.668,100.49c-17.539,0-31.808-14.267-31.808-31.808c0-17.541,14.268-31.81,31.808-31.81
		c17.538,0,31.807,14.269,31.807,31.81C88.474,86.223,74.206,100.49,56.668,100.49 M56.668,38.131
		c-16.845,0-30.549,13.705-30.549,30.552c0,16.845,13.705,30.551,30.549,30.551s30.55-13.706,30.55-30.551
		C87.217,51.836,73.512,38.131,56.668,38.131z"/>
	<path style="fill:#B4975A;" d="M56.668,38.131c-16.845,0-30.549,13.705-30.549,30.552c0,16.845,13.705,30.551,30.549,30.551
		s30.55-13.706,30.55-30.551C87.217,51.836,73.512,38.131,56.668,38.131"/>
	<path style="fill:#002B5C;" d="M82.743,66.531c-0.632-0.22-1.25-0.416-1.25-0.416c-7.763-2.319-16.119-3.505-24.864-3.505
		c-8.636,0-17.206,1.222-24.887,3.514c0,0-0.566,0.18-1.228,0.407l1.457,1.321c1.214-0.367,2.454-0.703,3.709-1.014
		c2.296,13.469,10.237,24.737,21.016,30.698c10.771-5.957,18.709-17.214,21.011-30.669c1.214,0.302,2.409,0.627,3.581,0.981
		L82.743,66.531"/>
	<path style="fill:#002B5C;" d="M56.677,61.066c7.485,0,14.683,0.869,21.476,2.567c0.161-1.591,0.246-3.207,0.246-4.845
		c0-3.602-0.406-7.097-1.155-10.441c-2.137,0.745-4.408,1.15-6.765,1.15c-5.199,0-9.981-1.959-13.785-5.237
		c-3.803,3.278-8.582,5.237-13.785,5.237c-2.355,0-4.628-0.405-6.766-1.15c-0.748,3.344-1.151,6.839-1.151,10.441
		c0,1.638,0.084,3.254,0.246,4.845C42.002,61.955,49.317,61.066,56.677,61.066"/>
	<path style="fill:#5191CD;" d="M35.238,63.632c-0.161-1.59-0.246-3.207-0.246-4.844c0-3.602,0.403-7.097,1.151-10.441
		c0.025,0.008,0.05,0.016,0.075,0.025l-0.075-0.129l-0.631,0.864c-0.774,3.503-1.508,7.852-1.508,11.641
		c0,1.063,0.035,2.117,0.099,3.161C34.478,63.811,34.86,63.725,35.238,63.632"/>
	<path style="fill:#5191CD;" d="M77.245,48.349c0.001-0.001,0.002-0.001,0.003-0.001c0.748,3.344,1.152,6.839,1.152,10.441
		c0,1.637-0.085,3.253-0.246,4.844c0.378,0.093,0.762,0.179,1.136,0.277c0.063-1.044,0.099-2.098,0.099-3.161
		c0-3.789-0.733-8.139-1.509-11.641l-0.632-0.864l-0.074,0.126c0.023-0.007,0.048-0.015,0.07-0.022
		C77.244,48.348,77.245,48.348,77.245,48.349"/>
	<path style="fill:#5191CD;" d="M56.694,38.131c-3.591,0-7.033,0.636-10.235,1.78v9.276c3.83-0.668,7.334-2.405,10.26-4.927
		c2.904,2.502,6.377,4.232,10.17,4.912v-9.285C63.7,38.754,60.269,38.131,56.694,38.131"/>
	<path style="fill:#5191CD;" d="M56.694,99.233c16.844,0,30.549-13.706,30.549-30.551c0-4.839-1.142-9.414-3.154-13.482h-0.362
		c1.525,3.548,2.374,7.455,2.374,11.563c0,12.628-7.981,23.389-19.174,27.521v-0.861c6.356-6.875,10.716-16.018,12.015-26.257
		l-1.261-0.327c-2.295,13.469-10.209,24.737-20.987,30.698c-10.779-5.961-18.693-17.229-20.989-30.698l-1.261,0.327
		c1.3,10.239,5.659,19.382,12.015,26.257v0.861c-11.193-4.132-19.175-14.893-19.175-27.521c0-4.107,0.851-8.014,2.375-11.563h-0.362
		c-2.013,4.068-3.153,8.644-3.153,13.482C26.144,85.527,39.849,99.233,56.694,99.233"/>
	<path style="fill:#B4975A;" d="M19.635,60.992c0.105-0.198,0.172-0.366,0.2-0.503c0.058-0.279,0.009-0.489-0.148-0.632
		c-0.155-0.142-0.464-0.259-0.927-0.355c-0.62-0.128-1.066-0.142-1.335-0.041c-0.197,0.067-0.333,0.272-0.403,0.62
		c-0.063,0.299-0.056,0.522,0.021,0.663c0.04,0.088,0.101,0.151,0.181,0.192c0.081,0.042,0.217,0.083,0.408,0.123l3.218,0.662
		c0.156,0.031,0.284,0.057,0.379,0.072c0.096,0.017,0.177,0.026,0.239,0.028c0.066,0.001,0.118,0,0.163-0.01
		c0.042-0.008,0.091-0.024,0.139-0.051c0.111-0.055,0.196-0.135,0.256-0.24c0.062-0.103,0.122-0.283,0.178-0.533l0.687,0.143
		l-0.773,3.75l-0.685-0.141c0.034-0.242,0.041-0.424,0.012-0.548c-0.028-0.122-0.098-0.227-0.208-0.313
		c-0.036-0.031-0.069-0.054-0.102-0.075c-0.03-0.02-0.074-0.038-0.132-0.053c-0.059-0.016-0.128-0.034-0.213-0.055
		c-0.082-0.021-0.194-0.045-0.33-0.075l-3.139-0.645c-0.15-0.031-0.273-0.054-0.375-0.072c-0.097-0.018-0.18-0.025-0.243-0.029
		c-0.063-0.001-0.118,0.004-0.163,0.015c-0.044,0.012-0.091,0.026-0.137,0.045c-0.112,0.056-0.194,0.129-0.247,0.223
		c-0.057,0.09-0.112,0.245-0.17,0.459l-0.688-0.14l0.463-2.239c0.058-0.288,0.108-0.542,0.147-0.767
		c0.039-0.228,0.078-0.466,0.115-0.713c0.022-0.144,0.045-0.282,0.068-0.412c0.024-0.129,0.044-0.24,0.064-0.329
		c0.145-0.701,0.437-1.167,0.885-1.4c0.443-0.232,1.1-0.259,1.964-0.081c0.824,0.17,1.396,0.466,1.708,0.886
		c0.319,0.419,0.402,0.991,0.251,1.713c-0.112,0.546-0.323,0.974-0.638,1.287L19.635,60.992"/>
	<path style="fill:#B4975A;" d="M27.118,48.981c-0.122,0.203-0.222,0.344-0.303,0.419c-0.078,0.078-0.178,0.127-0.299,0.15
		c-0.053,0.012-0.102,0.016-0.149,0.012c-0.045-0.005-0.099-0.016-0.158-0.036c-0.059-0.019-0.133-0.049-0.223-0.092
		c-0.088-0.042-0.202-0.099-0.345-0.173l-2.842-1.478c-0.123-0.065-0.224-0.118-0.297-0.162c-0.076-0.042-0.138-0.08-0.191-0.11
		c-0.05-0.029-0.088-0.059-0.114-0.087c-0.022-0.029-0.049-0.062-0.077-0.102c-0.087-0.113-0.125-0.237-0.115-0.364
		c0.011-0.127,0.072-0.308,0.178-0.543l-0.621-0.321l-1.324,2.547l2.337,1.179l-0.953,1.834l-2.333-1.191l-1.295,2.491l0.62,0.326
		c0.115-0.194,0.214-0.327,0.294-0.404c0.077-0.076,0.179-0.126,0.299-0.148c0.05-0.006,0.099-0.008,0.144-0.008
		c0.048,0,0.102,0.011,0.161,0.032c0.062,0.019,0.137,0.051,0.229,0.095c0.088,0.043,0.204,0.099,0.34,0.17l2.842,1.479
		c0.125,0.063,0.223,0.118,0.298,0.16c0.075,0.043,0.14,0.08,0.189,0.112c0.053,0.029,0.088,0.059,0.113,0.088
		c0.025,0.028,0.05,0.061,0.077,0.099c0.089,0.115,0.129,0.237,0.119,0.359c-0.011,0.125-0.066,0.303-0.17,0.531l0.62,0.321
		l1.311-2.517l-2.819-1.456l0.953-1.831l2.823,1.445l1.3-2.5L27.118,48.981"/>
	<path style="fill:#B4975A;" d="M26.035,43.436c-0.118-0.099-0.216-0.181-0.293-0.245c-0.078-0.062-0.144-0.112-0.2-0.146
		c-0.05-0.031-0.102-0.055-0.147-0.066c-0.046-0.012-0.091-0.02-0.142-0.027c-0.124-0.005-0.234,0.02-0.327,0.075
		c-0.095,0.058-0.22,0.164-0.375,0.323l-0.531-0.456l2.47-2.849l0.527,0.459c-0.153,0.197-0.249,0.356-0.287,0.475
		c-0.04,0.118-0.027,0.246,0.03,0.378c0.017,0.043,0.034,0.08,0.052,0.114c0.02,0.036,0.047,0.072,0.092,0.112
		c0.04,0.042,0.094,0.092,0.157,0.152c0.063,0.06,0.148,0.135,0.253,0.226l2.42,2.098c0.12,0.106,0.219,0.188,0.296,0.249
		c0.075,0.064,0.14,0.11,0.194,0.143c0.054,0.03,0.104,0.056,0.144,0.071c0.044,0.013,0.091,0.021,0.145,0.022
		c0.126,0.006,0.234-0.019,0.33-0.076c0.095-0.055,0.221-0.164,0.379-0.322l0.525,0.459l-2.465,2.844l-0.529-0.458
		c0.153-0.198,0.249-0.355,0.288-0.474c0.036-0.118,0.028-0.245-0.032-0.38c-0.015-0.042-0.036-0.08-0.051-0.114
		c-0.018-0.034-0.047-0.072-0.09-0.112c-0.042-0.042-0.095-0.092-0.157-0.152c-0.066-0.059-0.149-0.134-0.253-0.225L26.035,43.436"
		/>
	<path style="fill:#B4975A;" d="M38.193,39.266l-4.74,3.594l-0.422-0.557c0.191-0.164,0.317-0.299,0.379-0.405
		c0.063-0.108,0.078-0.235,0.048-0.377c-0.008-0.048-0.019-0.087-0.029-0.124c-0.006-0.036-0.03-0.078-0.063-0.129
		c-0.033-0.047-0.074-0.107-0.123-0.179c-0.051-0.073-0.117-0.164-0.201-0.275l-1.936-2.551c-0.094-0.122-0.172-0.222-0.234-0.301
		c-0.065-0.079-0.118-0.138-0.167-0.183c-0.044-0.043-0.089-0.076-0.131-0.098c-0.041-0.021-0.085-0.038-0.133-0.055
		c-0.12-0.031-0.234-0.029-0.337,0.007C30,37.667,29.856,37.748,29.67,37.87l-0.422-0.557l3.007-2.283l0.424,0.558
		c-0.191,0.161-0.319,0.297-0.383,0.409c-0.065,0.109-0.082,0.239-0.051,0.38c0.008,0.046,0.016,0.087,0.028,0.124
		c0.007,0.034,0.03,0.078,0.062,0.127c0.034,0.049,0.074,0.109,0.125,0.181c0.051,0.071,0.117,0.162,0.199,0.272l1.989,2.621
		c0.072,0.093,0.13,0.166,0.172,0.219c0.046,0.055,0.086,0.098,0.118,0.129c0.031,0.031,0.063,0.053,0.089,0.064
		c0.025,0.012,0.055,0.016,0.091,0.016c0.043,0,0.082-0.003,0.12-0.012c0.038-0.012,0.079-0.028,0.125-0.05
		c0.047-0.023,0.106-0.059,0.172-0.104c0.065-0.046,0.148-0.107,0.247-0.182l0.109-0.081c0.117-0.092,0.211-0.164,0.285-0.225
		c0.072-0.058,0.13-0.114,0.175-0.165c0.045-0.05,0.074-0.1,0.099-0.146c0.022-0.049,0.034-0.102,0.042-0.16
		c0.029-0.145,0.018-0.29-0.036-0.443c-0.053-0.151-0.158-0.338-0.31-0.564l0.691-0.524L38.193,39.266"/>
	<path style="fill:#B4975A;" d="M41.598,29.831c0.052,0.071,0.094,0.132,0.134,0.188c0.036,0.057,0.077,0.11,0.116,0.162
		c0.04,0.05,0.082,0.103,0.127,0.155c0.042,0.054,0.098,0.117,0.165,0.187l3.005,3.391c0.165,0.182,0.309,0.329,0.427,0.44
		c0.122,0.112,0.236,0.195,0.344,0.249c0.109,0.053,0.218,0.082,0.327,0.084c0.114,0.004,0.238-0.012,0.383-0.049l0.264,0.647
		l-3.3,1.355l-0.267-0.648c0.24-0.113,0.392-0.216,0.458-0.311c0.067-0.094,0.073-0.208,0.021-0.335
		c-0.035-0.085-0.158-0.259-0.374-0.523l-0.118-0.156l-1.65,0.678l0.011,0.197c0,0.127,0.01,0.243,0.028,0.345
		c0.019,0.1,0.044,0.188,0.072,0.257c0.062,0.149,0.145,0.23,0.255,0.247c0.107,0.015,0.295-0.017,0.562-0.097l0.268,0.646
		L40.2,38.03l-0.266-0.647c0.115-0.085,0.208-0.167,0.278-0.244c0.07-0.076,0.123-0.168,0.152-0.271
		c0.034-0.103,0.052-0.231,0.061-0.38c0.006-0.148,0.006-0.342,0-0.581l-0.212-4.503c-0.008-0.261-0.024-0.464-0.045-0.615
		c-0.019-0.15-0.038-0.266-0.056-0.347L41.598,29.831 M42.105,33.074c-0.025-0.027-0.051-0.055-0.07-0.084
		c-0.02-0.03-0.042-0.059-0.068-0.085l-0.132-0.159c-0.056-0.077-0.109-0.141-0.16-0.195l-0.143-0.177
		c-0.025-0.036-0.052-0.067-0.08-0.104c-0.023-0.035-0.052-0.069-0.081-0.101l0.049,0.892l0.061,1.217l1.198-0.492L42.105,33.074z"
		/>
	<path style="fill:#B4975A;" d="M49.15,29.604c-0.018-0.152-0.034-0.278-0.048-0.378c-0.016-0.099-0.032-0.18-0.05-0.242
		c-0.018-0.061-0.04-0.109-0.065-0.149c-0.025-0.038-0.055-0.078-0.086-0.115c-0.087-0.089-0.186-0.144-0.291-0.167
		c-0.108-0.022-0.273-0.027-0.498-0.016l-0.082-0.694l2.012-0.234c0.416-0.049,0.769-0.092,1.062-0.13
		c0.292-0.036,0.534-0.07,0.717-0.098c0.166-0.028,0.325-0.051,0.48-0.073c0.155-0.019,0.272-0.037,0.348-0.046
		c0.574-0.065,1.049-0.036,1.43,0.091c0.379,0.128,0.69,0.359,0.93,0.697c0.195,0.285,0.363,0.637,0.503,1.06
		c0.139,0.422,0.239,0.882,0.297,1.378c0.132,1.142-0.01,2.029-0.426,2.666c-0.415,0.637-1.107,1.011-2.065,1.123
		c-0.076,0.011-0.167,0.02-0.268,0.032c-0.104,0.013-0.227,0.024-0.366,0.032c-0.258,0.017-0.495,0.035-0.717,0.058
		c-0.222,0.021-0.443,0.046-0.664,0.072l-2.466,0.286l-0.084-0.693c0.249-0.044,0.427-0.095,0.535-0.158
		c0.107-0.06,0.185-0.161,0.232-0.3c0.016-0.043,0.031-0.083,0.041-0.12c0.009-0.035,0.011-0.083,0.009-0.143
		c-0.004-0.058-0.009-0.131-0.015-0.218c-0.007-0.086-0.019-0.2-0.035-0.338L49.15,29.604 M51.438,32.563
		c0.015,0.117,0.026,0.212,0.039,0.279c0.014,0.069,0.024,0.125,0.041,0.168c0.017,0.045,0.033,0.078,0.054,0.105
		c0.02,0.024,0.048,0.052,0.088,0.083c0.079,0.069,0.172,0.107,0.277,0.119c0.106,0.013,0.259,0.008,0.461-0.017
		c0.31-0.036,0.565-0.107,0.761-0.216c0.199-0.106,0.348-0.263,0.45-0.472c0.103-0.208,0.164-0.475,0.181-0.8
		c0.02-0.322,0-0.72-0.057-1.19c-0.05-0.448-0.121-0.822-0.211-1.12c-0.091-0.298-0.209-0.534-0.355-0.705
		c-0.148-0.172-0.329-0.286-0.545-0.341c-0.217-0.055-0.479-0.065-0.783-0.03c-0.193,0.022-0.346,0.047-0.457,0.075
		c-0.115,0.027-0.197,0.07-0.254,0.128c-0.055,0.059-0.087,0.139-0.096,0.233c-0.005,0.092,0,0.223,0.02,0.38L51.438,32.563z"/>
	<path style="fill:#B4975A;" d="M65.327,30.115l-0.847-0.127c0.013-0.216,0.004-0.399-0.022-0.548
		c-0.026-0.147-0.078-0.271-0.162-0.366c-0.08-0.097-0.19-0.172-0.333-0.224c-0.146-0.054-0.33-0.099-0.557-0.131l-0.136-0.022
		c-0.17-0.026-0.311-0.038-0.414-0.04c-0.106-0.004-0.188,0.014-0.245,0.045c-0.058,0.034-0.1,0.092-0.127,0.173
		c-0.023,0.079-0.049,0.189-0.069,0.326l-0.175,1.166l1.477,0.221c0.148,0.024,0.273,0.037,0.368,0.041
		c0.094,0.004,0.196,0,0.301-0.013l-0.182,1.217c-0.095-0.027-0.188-0.052-0.279-0.072c-0.093-0.021-0.238-0.046-0.438-0.075
		l-1.412-0.214l-0.187,1.239c-0.024,0.164-0.038,0.292-0.038,0.385c0,0.092,0.026,0.164,0.074,0.215
		c0.048,0.053,0.129,0.094,0.246,0.123c0.114,0.028,0.275,0.058,0.481,0.088l0.259,0.039c0.221,0.04,0.403,0.055,0.552,0.048
		c0.149-0.011,0.273-0.051,0.37-0.125c0.1-0.073,0.184-0.183,0.253-0.331c0.067-0.149,0.131-0.346,0.189-0.589l0.854,0.129
		l-0.332,2.218l-5.984-0.901l0.103-0.691c0.249,0.023,0.432,0.019,0.555-0.011c0.123-0.032,0.223-0.107,0.305-0.229
		c0.027-0.038,0.049-0.073,0.068-0.105c0.021-0.032,0.034-0.078,0.046-0.135c0.013-0.057,0.027-0.129,0.043-0.215
		c0.016-0.084,0.035-0.197,0.059-0.334l0.476-3.168c0.021-0.152,0.038-0.279,0.052-0.378c0.01-0.1,0.016-0.183,0.014-0.246
		c0-0.063-0.009-0.117-0.025-0.161c-0.011-0.046-0.03-0.09-0.052-0.136c-0.06-0.106-0.141-0.184-0.24-0.235
		c-0.099-0.051-0.255-0.098-0.474-0.146l0.103-0.691l4.501,0.675c0.179,0.027,0.328,0.048,0.442,0.061
		c0.12,0.016,0.227,0.023,0.318,0.029c0.096,0.002,0.186,0.001,0.267-0.004c0.083-0.003,0.182-0.016,0.297-0.033L65.327,30.115"/>
	<path style="fill:#B4975A;" d="M72.71,37.866l-5.496-2.276l0.268-0.646c0.238,0.083,0.42,0.125,0.541,0.122
		c0.126-0.001,0.244-0.051,0.352-0.148c0.034-0.03,0.066-0.059,0.092-0.084c0.025-0.03,0.053-0.068,0.079-0.122
		c0.025-0.053,0.058-0.12,0.094-0.198c0.038-0.078,0.079-0.183,0.135-0.312l1.227-2.959c0.059-0.14,0.105-0.259,0.142-0.354
		c0.034-0.093,0.06-0.171,0.073-0.235c0.013-0.061,0.019-0.114,0.017-0.162c-0.004-0.046-0.009-0.094-0.02-0.142
		c-0.033-0.12-0.092-0.215-0.175-0.288c-0.083-0.072-0.226-0.157-0.425-0.256l0.267-0.646l3.49,1.447l-0.268,0.646
		c-0.237-0.082-0.419-0.124-0.545-0.125c-0.131,0-0.25,0.049-0.356,0.147c-0.035,0.03-0.066,0.058-0.092,0.085
		c-0.027,0.027-0.053,0.067-0.076,0.121c-0.028,0.053-0.058,0.119-0.097,0.197c-0.036,0.082-0.08,0.184-0.135,0.312l-1.258,3.037
		c-0.047,0.11-0.079,0.197-0.104,0.262c-0.023,0.066-0.041,0.121-0.052,0.166c-0.011,0.045-0.015,0.079-0.011,0.109
		c0.005,0.026,0.013,0.055,0.031,0.086c0.022,0.037,0.047,0.071,0.071,0.096c0.027,0.027,0.063,0.053,0.108,0.084
		c0.044,0.031,0.101,0.063,0.176,0.096c0.071,0.033,0.167,0.074,0.282,0.122l0.124,0.052c0.136,0.058,0.247,0.1,0.337,0.135
		c0.086,0.031,0.165,0.054,0.229,0.066c0.067,0.013,0.126,0.016,0.179,0.012c0.05-0.006,0.102-0.019,0.158-0.043
		c0.141-0.046,0.261-0.132,0.364-0.255c0.104-0.122,0.215-0.305,0.332-0.553l0.8,0.333L72.71,37.866"/>
	<path style="fill:#B4975A;" d="M78.564,37.992c0.135,0.18,1.003,0.711,1.114,0.795c0.229,0.168,0.44,0.215,0.634,0.135
		c0.196-0.081,0.435-0.31,0.718-0.69c0.38-0.507,0.579-0.903,0.604-1.19c0.024-0.208-0.104-0.417-0.389-0.629
		c-0.246-0.184-0.451-0.272-0.612-0.262c-0.097-0.003-0.179,0.024-0.251,0.08c-0.07,0.054-0.163,0.161-0.281,0.316l-1.968,2.633
		c-0.095,0.129-0.171,0.233-0.227,0.314c-0.054,0.078-0.098,0.147-0.126,0.204c-0.03,0.057-0.049,0.105-0.063,0.15
		c-0.011,0.045-0.013,0.093-0.011,0.146c0.004,0.125,0.039,0.236,0.107,0.336c0.072,0.1,0.206,0.229,0.408,0.388l-0.418,0.56
		l-3.07-2.292l0.42-0.561c0.203,0.136,0.366,0.217,0.491,0.244c0.12,0.027,0.246,0.008,0.371-0.054
		c0.042-0.021,0.078-0.04,0.11-0.06c0.031-0.019,0.066-0.052,0.104-0.097c0.038-0.046,0.085-0.104,0.141-0.169
		c0.056-0.069,0.124-0.158,0.208-0.271l1.919-2.566c0.09-0.122,0.164-0.225,0.223-0.307c0.057-0.083,0.101-0.152,0.13-0.209
		c0.028-0.057,0.045-0.107,0.058-0.153c0.005-0.047,0.01-0.095,0.016-0.146c-0.006-0.123-0.036-0.229-0.095-0.317
		c-0.061-0.087-0.176-0.206-0.346-0.349l0.418-0.56l1.83,1.368c0.234,0.174,0.446,0.328,0.635,0.46
		c0.188,0.132,0.386,0.267,0.594,0.404c0.122,0.083,0.237,0.162,0.346,0.238c0.107,0.078,0.197,0.142,0.269,0.196
		c0.574,0.428,0.872,0.895,0.894,1.396c0.02,0.503-0.234,1.106-0.763,1.815c-0.505,0.675-1.015,1.064-1.527,1.171
		c-0.514,0.106-1.068-0.061-1.658-0.502c-0.443-0.333-1.089-0.925-1.237-1.341L78.564,37.992"/>
	<path style="fill:#B4975A;" d="M90.265,44.19l-2.084,1.589l-1.26-1.639l2.083-1.587l-1.732-2.252l-0.556,0.427
		c0.125,0.185,0.205,0.331,0.242,0.433c0.036,0.105,0.039,0.217,0.007,0.336c-0.016,0.048-0.032,0.093-0.052,0.136
		c-0.021,0.042-0.054,0.086-0.095,0.132c-0.044,0.046-0.104,0.101-0.182,0.164c-0.077,0.065-0.18,0.143-0.301,0.238l-2.539,1.953
		c-0.108,0.084-0.203,0.153-0.273,0.202c-0.071,0.052-0.132,0.093-0.18,0.125c-0.048,0.034-0.093,0.055-0.127,0.066
		c-0.038,0.01-0.078,0.021-0.123,0.027c-0.143,0.033-0.27,0.018-0.377-0.043c-0.109-0.062-0.245-0.188-0.409-0.378l-0.554,0.427
		l1.719,2.235l2.519-1.928l1.262,1.638l-2.519,1.928l1.736,2.259l0.554-0.429c-0.134-0.196-0.218-0.345-0.257-0.45
		c-0.035-0.103-0.036-0.214-0.004-0.337c0.011-0.052,0.027-0.098,0.052-0.136c0.021-0.04,0.053-0.082,0.098-0.129
		c0.041-0.045,0.102-0.099,0.177-0.164c0.076-0.062,0.174-0.141,0.302-0.24l2.541-1.953c0.109-0.084,0.199-0.153,0.271-0.202
		c0.072-0.051,0.133-0.093,0.181-0.127c0.048-0.033,0.091-0.054,0.127-0.065c0.037-0.01,0.075-0.019,0.121-0.028
		c0.146-0.032,0.273-0.015,0.382,0.05c0.111,0.064,0.25,0.193,0.419,0.389l0.555-0.426L90.265,44.19"/>
	<path style="fill:#B4975A;" d="M92.511,51.61c0.141-0.062,0.255-0.117,0.347-0.161c0.091-0.045,0.16-0.083,0.215-0.119
		c0.053-0.036,0.095-0.072,0.122-0.106c0.03-0.037,0.06-0.076,0.085-0.118c0.058-0.111,0.083-0.22,0.071-0.329
		c-0.013-0.109-0.056-0.27-0.134-0.477l0.64-0.286l1.535,3.44l-0.636,0.285c-0.118-0.222-0.221-0.376-0.31-0.459
		c-0.093-0.088-0.21-0.132-0.356-0.135c-0.049-0.001-0.092-0.001-0.127-0.001c-0.038,0.002-0.084,0.014-0.14,0.034
		c-0.057,0.021-0.125,0.048-0.204,0.08c-0.082,0.033-0.186,0.077-0.312,0.135l-2.925,1.307c-0.145,0.066-0.262,0.119-0.352,0.161
		c-0.085,0.043-0.156,0.082-0.208,0.118c-0.055,0.034-0.097,0.069-0.124,0.101c-0.034,0.034-0.062,0.074-0.085,0.122
		c-0.06,0.11-0.082,0.222-0.069,0.33c0.01,0.109,0.055,0.27,0.131,0.479l-0.637,0.284l-1.537-3.438l0.638-0.285
		c0.115,0.223,0.218,0.378,0.311,0.461c0.091,0.085,0.207,0.129,0.356,0.133c0.045,0.003,0.088,0.003,0.125,0
		c0.039-0.002,0.083-0.012,0.138-0.033c0.057-0.021,0.125-0.05,0.204-0.08c0.082-0.032,0.187-0.077,0.314-0.134L92.511,51.61"/>
	<path style="fill:#B4975A;" d="M97.635,61.083c-0.076,0.036-0.148,0.069-0.206,0.097c-0.063,0.026-0.125,0.054-0.182,0.083
		c-0.059,0.03-0.117,0.062-0.178,0.097c-0.062,0.033-0.132,0.076-0.214,0.126l-3.892,2.321c-0.21,0.128-0.38,0.238-0.512,0.338
		c-0.136,0.098-0.236,0.196-0.309,0.291c-0.074,0.098-0.122,0.199-0.147,0.306c-0.022,0.108-0.03,0.235-0.021,0.382l-0.684,0.142
		l-0.715-3.498l0.685-0.139c0.066,0.257,0.142,0.425,0.221,0.509c0.081,0.083,0.189,0.11,0.325,0.082
		c0.09-0.017,0.285-0.108,0.584-0.268l0.174-0.088l-0.357-1.75l-0.192-0.022c-0.129-0.025-0.243-0.037-0.345-0.037
		c-0.104,0-0.192,0.007-0.268,0.023c-0.157,0.032-0.252,0.1-0.288,0.202c-0.036,0.103-0.041,0.294-0.013,0.572l-0.684,0.14
		l-0.574-2.812l0.685-0.14c0.064,0.129,0.124,0.236,0.189,0.317c0.062,0.084,0.141,0.151,0.237,0.202
		c0.096,0.052,0.217,0.095,0.358,0.13c0.148,0.034,0.34,0.069,0.573,0.106l4.464,0.635c0.259,0.038,0.462,0.063,0.61,0.071
		c0.151,0.007,0.271,0.011,0.354,0.007L97.635,61.083 M94.355,60.975c0.03-0.02,0.064-0.037,0.097-0.05
		c0.032-0.014,0.064-0.03,0.096-0.051l0.182-0.102c0.083-0.038,0.159-0.078,0.221-0.12l0.201-0.106
		c0.038-0.02,0.076-0.041,0.117-0.058c0.038-0.021,0.077-0.04,0.114-0.062l-0.888-0.116l-1.207-0.17l0.263,1.267L94.355,60.975z"/>
	<polyline style="fill:#B4975A;" points="21.815,72.697 19.723,73.664 19.999,75.955 18.431,74.264 16.34,75.231 17.463,73.22 
		15.896,71.531 18.156,71.977 19.279,69.962 19.554,72.252 21.815,72.697 	"/>
	<polyline style="fill:#B4975A;" points="23.781,80.965 21.983,82.403 22.803,84.562 20.872,83.298 19.075,84.742 19.683,82.517 
		17.753,81.256 20.056,81.142 20.661,78.919 21.478,81.076 23.781,80.965 	"/>
	<polyline style="fill:#B4975A;" points="27.675,88.515 26.278,90.346 27.591,92.242 25.414,91.479 24.019,93.312 24.071,91.008 
		21.895,90.246 24.103,89.584 24.157,87.278 25.47,89.176 27.675,88.515 	"/>
	<polyline style="fill:#B4975A;" points="33.274,94.907 32.356,97.021 34.086,98.546 31.793,98.328 30.876,100.444 30.373,98.195 
		28.078,97.979 30.064,96.805 29.56,94.555 31.289,96.08 33.274,94.907 	"/>
	<polyline style="fill:#B4975A;" points="40.242,99.768 39.862,102.037 41.908,103.103 39.628,103.444 39.248,105.717 
		38.219,103.653 35.94,103.997 37.583,102.38 36.554,100.315 38.598,101.382 40.242,99.768 	"/>
	<polyline style="fill:#B4975A;" points="48.176,102.808 48.353,105.104 50.596,105.644 48.464,106.524 48.642,108.821 
		47.148,107.067 45.019,107.948 46.223,105.982 44.728,104.228 46.971,104.769 48.176,102.808 	"/>
	<polyline style="fill:#B4975A;" points="56.609,103.851 57.334,106.036 59.64,106.022 57.781,107.389 58.508,109.576 
		56.635,108.232 54.779,109.6 55.477,107.403 53.604,106.06 55.91,106.046 56.609,103.851 	"/>
	<polyline style="fill:#B4975A;" points="65.045,102.836 66.272,104.784 68.509,104.214 67.033,105.988 68.264,107.937 
		66.126,107.083 64.651,108.856 64.799,106.557 62.659,105.701 64.894,105.135 65.045,102.836 	"/>
	<polyline style="fill:#B4975A;" points="72.99,99.822 74.651,101.417 76.683,100.328 75.678,102.404 77.342,103.999 
		75.057,103.685 74.054,105.76 73.649,103.491 71.364,103.178 73.396,102.09 72.99,99.822 	"/>
	<polyline style="fill:#B4975A;" points="79.975,94.988 81.971,96.136 83.682,94.589 83.208,96.847 85.206,97.995 82.912,98.237 
		82.439,100.496 81.496,98.39 79.203,98.636 80.916,97.091 79.975,94.988 	"/>
	<polyline style="fill:#B4975A;" points="85.594,88.611 87.808,89.25 89.097,87.336 89.177,89.642 91.392,90.274 89.226,91.063 
		89.309,93.366 87.889,91.551 85.721,92.342 87.013,90.429 85.594,88.611 	"/>
	<polyline style="fill:#B4975A;" points="89.515,81.076 91.819,81.161 92.608,78.992 93.241,81.212 95.543,81.295 93.629,82.58 
		94.264,84.797 92.451,83.375 90.536,84.662 91.328,82.496 89.515,81.076 	"/>
	<polyline style="fill:#B4975A;" points="91.509,72.815 93.764,72.345 94.011,70.049 95.158,72.053 97.413,71.579 95.863,73.284 
		97.014,75.286 94.911,74.343 93.363,76.052 93.611,73.759 91.509,72.815 	"/>
	<path style="fill:#B4975A;" d="M43.718,58.848l-1.293,0.187v-7.307l-1.384,0.199v7.622c0,0.423,0.269,0.696,0.685,0.696
		c0.049,0,0.101-0.004,0.153-0.012l2.415-0.35c0.475-0.067,0.807-0.433,0.807-0.891v-7.651l-1.382,0.201V58.848"/>
	<polyline style="fill:#B4975A;" points="51.176,54.909 49.252,50.94 48.464,50.991 48.464,59.415 49.774,59.33 49.774,55.369 
		51.677,59.205 52.488,59.151 52.488,50.728 51.176,50.812 51.176,54.909 	"/>
	<polyline style="fill:#B4975A;" points="55.914,50.646 55.919,59.07 57.334,59.064 57.31,50.641 55.914,50.646 	"/>
	<path style="fill:#B4975A;" d="M64.228,50.888l-2.616-0.15c-0.381,0-0.791,0.281-0.791,0.737v6.868
		c0,0.504,0.477,0.799,0.819,0.819l2.575,0.151l0.042,0.001c0.381,0,0.792-0.282,0.792-0.738v-6.867
		C65.049,51.208,64.572,50.91,64.228,50.888 M63.656,51.972v6.19l-1.441-0.085v-6.189L63.656,51.972z M64.257,59.198V59.2V59.198z"
		/>
	<polyline style="fill:#B4975A;" points="71.113,51.638 71.113,55.714 69.215,51.377 68.423,51.27 68.423,59.695 69.723,59.874 
		69.723,55.939 71.597,60.13 72.413,60.244 72.413,51.818 71.113,51.638 	"/>
	<path style="fill:#B4975A;" d="M42.881,69.941c0.151,0.061,0.312,0.121,0.488,0.17c0.535,0.161,1.212,0.26,2.048,0.156l0.322-0.035
		l-0.256,0.225c-0.226,0.198-0.891,0.625-1.559,0.888c1.157-0.149,3.25-1.081,4.487-1.814c-0.121-0.065-0.251-0.158-0.355-0.247
		C46.252,69.987,44.281,70.104,42.881,69.941"/>
	<path style="fill:#B4975A;" d="M47.714,82.046c-0.304,0.518-0.459,1.049-0.462,1.584c-0.007,0.877,0.392,1.742,1.149,2.503
		c1.576,1.585,4.532,2.569,7.715,2.569c4.907,0,8.912-2.276,8.928-5.074c0.002-0.535-0.147-1.065-0.443-1.583
		c-1.208,2.066-4.636,3.49-8.465,3.49C52.31,85.535,48.898,84.111,47.714,82.046"/>
	<path style="fill:#B4975A;" d="M66.297,82.193c0.121,0.015,0.362,0.041,0.684,0.041c0.854,0,2.095-0.164,3.356-0.906
		c-0.904,0.016-2.777-0.101-4.759-0.975C65.842,80.811,66.157,81.466,66.297,82.193"/>
	<path style="fill:#B4975A;" d="M56.172,67.269l0.065,0.001c2.322,0,4.375,1.293,4.404,2.881c0.011,0.684-0.338,1.398-0.98,1.922
		c-0.525,0.407-1.278,0.697-1.966,0.956c-0.001,0-1.607,0.575-2.936,1.042c-0.068,0.021-6.308,1.997-6.308,5.779
		c-0.005,0.742,0.327,1.47,0.955,2.104c1.373,1.379,4.042,2.209,6.917,2.136c4.36-0.112,7.919-2.202,7.933-4.658
		c0.008-1.564-1.54-2.782-3.918-3.419c-0.565,0.217-1.209,0.42-1.888,0.633c-0.661,0.208-1.411,0.444-2.196,0.729
		c-1.787,0.647-2.134,1.203-2.184,1.479c-0.032,0.176,0.042,0.307,0.098,0.379c0.681-0.396,1.678-0.687,2.751-0.801
		c0.306-0.031,0.613-0.047,0.908-0.047c1.646,0,2.755,0.458,2.757,1.21c0,0.211-0.091,0.413-0.273,0.597
		c-0.572,0.576-2.001,0.947-3.64,0.947c-1.381,0-2.671-0.438-3.373-1.139c-0.358-0.362-0.546-0.779-0.545-1.205
		c0-1.531,2.221-2.287,3.691-2.789c0.18-0.062,0.348-0.118,0.498-0.173c1.292-0.467,2.85-1.041,2.85-1.041
		c2.488-0.8,3.804-2.951,3.478-5.027c-0.386-2.45-2.799-4.162-5.867-4.162c-0.297,0-0.603,0.017-0.907,0.05
		c-0.002,0.001-0.28,0.052-0.614,0.052c-0.35,0-0.626-0.055-0.824-0.163c-0.443-0.243-0.894-0.275-0.897-0.276
		c-3.583,0.791-5.649,2.309-6.038,2.614c0.119,0.317,0.682,1.45,2.46,1.192c0.667-0.095,1.197-0.11,1.664-0.123
		c1.058-0.029,1.641-0.044,2.437-0.964C55.257,67.32,55.966,67.269,56.172,67.269"/>
	<path style="fill:#002B5C;" d="M52.661,67.127c0.296-0.184,0.477-0.911,0.477-0.911c-1.231,0.309-2.532,0.972-2.532,0.972
		S52.366,67.314,52.661,67.127"/>
	<path style="fill:#B4975A;" d="M91.85,105.19h-0.662v1.813h-0.623v-1.813h-0.661v-0.502h1.946V105.19 M95.155,107.004h-0.621v-1.81
		h-0.066l-0.569,1.265h-0.435l-0.574-1.287h-0.083v1.832h-0.589v-2.315h1.007l0.467,1.132l0.486-1.132h0.978V107.004z"/>
</g>
</svg>
