<svg xmlns="http://www.w3.org/2000/svg" viewBox="0 0 108.43 113.09"><defs><style>.cls-1{fill:#2c5235;}.cls-2{fill:#c8982c;}.cls-3{fill:#fff;}</style></defs><title>POR</title><g id="Layer_2" data-name="Layer 2"><g id="Layer_1-2" data-name="Layer 1"><path class="cls-1" d="M108.43,54.22A54,54,0,0,0,91.22,14.61,30.09,30.09,0,0,0,89,8.36L87.62,5.85l-2.69.9c-1,.33-1.94.63-2.92.92a54.24,54.24,0,0,0-55.68,0c-1.76-.52-2.74-.89-2.78-.91L20.64,5.69,19.31,8.51a34.17,34.17,0,0,0-2.23,6.21,54.22,54.22,0,0,0,26.49,92.67c-.13,1.23-.21,2.09-.22,2.49a15.37,15.37,0,0,0,2.07,1.38,18.92,18.92,0,0,0,8.69,1.83h.29c6.61,0,9.81-2.36,10.76-3.21,0-.39-.11-1.25-.27-2.5A54.22,54.22,0,0,0,108.43,54.22Z"/><path class="cls-2" d="M94.44,23.05A36.3,36.3,0,0,0,88.86,8.17l.1.19a34.07,34.07,0,0,1,3.26,12.06c0,.51.09,1,.12,1.57v.09c0,.56,0,1.13,0,1.71v0c.59.74,1.16,1.5,1.7,2.27a48.89,48.89,0,0,1,7.5,40L70.46,35.41c-1.1-.24-2.27-.47-3.51-.67l34,33.49a47.7,47.7,0,0,1-3.82,9.2L62.87,43.13c-.1,1.44-.17,3-.21,4.71L95.34,80.52a50.09,50.09,0,0,1-5.69,7.27L62.71,60.86c0,.92,0,1.87,0,2.85L88.25,89.2a48.72,48.72,0,0,1-20.88,12c-.45.13-.91.25-1.37.36l-.34.08c-.47.12-.94.23-1.41.32h0v.1c0,.63.11,1.26.16,1.85l0,.14c.28,2,.49,3.52.61,4.56a46.87,46.87,0,0,0,1.75-5.1A50.89,50.89,0,0,0,94.44,23.05ZM45.83,43.19,11.35,77.58a48.23,48.23,0,0,1-3.92-9.42L41.05,34.83c-1.25.21-2.42.44-3.53.69L6.83,66a48.92,48.92,0,0,1,7.49-39.85c.55-.76,1.11-1.51,1.69-2.25v-.05c0-1.08,0-2.19.12-3.34h0A34.17,34.17,0,0,1,19.26,8.63,36,36,0,0,0,14,23.09,50.9,50.9,0,0,0,41.6,103.53a43.81,43.81,0,0,0,1.83,5.28c.12-1.37.39-3.75.75-6.81-.48-.1-1-.21-1.42-.33l-.34-.08c-.46-.11-.92-.23-1.37-.36A48.68,48.68,0,0,1,20.51,89.52L45.94,63.87c0-1,0-1.94,0-2.87L19.1,88.12a49.48,49.48,0,0,1-5.91-7.45L46,47.9C46,46.2,45.93,44.62,45.83,43.19ZM74.15,9.64h0c.84-.17,1.67-.36,2.5-.55L76.92,9l.5-.12h0c2.46-.6,4.88-1.28,7.27-2.07l-9.57,1a51,51,0,0,0-41.79,0l-9.67-1A66.51,66.51,0,0,0,31,8.94h0l.14,0,.79.18.25.06.77.16.22,0,1,.21h0l.1,0a49,49,0,0,1,39.86,0Z"/><path class="cls-3" d="M86,9.86c-34.19,11.41-63.75,0-63.75,0-6.69,14.17,0,27.78,0,27.78s10.64-7.29,32-7.29S86,37.63,86,37.63A33.31,33.31,0,0,0,86,9.86ZM61.35,107.65c-1.8-15-2.16-48-2.16-57.36a108.66,108.66,0,0,1,1.27-16.46c-2-.16-4.05-.25-6.24-.25s-4.2.08-6.15.23a111.3,111.3,0,0,1,1.26,16.48c0,9.35-.35,42.37-2.16,57.36h0s1.72,1.79,7.08,1.79h0c5.36,0,7.07-1.79,7.07-1.79Z"/></g></g></svg>