<svg xmlns="http://www.w3.org/2000/svg" xmlns:xlink="http://www.w3.org/1999/xlink" viewBox="0 0 72 114.8"><defs><style>.cls-1{isolation:isolate;}.cls-2{fill:#f1cb00;}.cls-3{fill:#b30838;}.cls-11,.cls-4{fill:#020202;}.cls-4{opacity:0.3;}.cls-11,.cls-4,.cls-7{mix-blend-mode:multiply;}.cls-5{fill:#013a81;}.cls-10,.cls-6{opacity:0.5;}.cls-10,.cls-6,.cls-9{mix-blend-mode:overlay;}.cls-6{fill:url(#radial-gradient);}.cls-7{fill:url(#linear-gradient);}.cls-8{fill:#fff;}.cls-9{fill:url(#linear-gradient-2);}.cls-10{fill:url(#linear-gradient-3);}.cls-12{fill:#676767;}.cls-13{fill:#8b8b8b;}.cls-14{fill:url(#linear-gradient-4);}</style><radialGradient id="radial-gradient" cx="56.34" cy="64.13" r="33.38" gradientUnits="userSpaceOnUse"><stop offset="0" stop-color="#fff"/><stop offset="1"/></radialGradient><linearGradient id="linear-gradient" x1="56.67" y1="100.29" x2="56.67" y2="33.03" xlink:href="#radial-gradient"/><linearGradient id="linear-gradient-2" x1="56.67" y1="32.62" x2="56.67" y2="95.09" xlink:href="#radial-gradient"/><linearGradient id="linear-gradient-3" x1="56.76" y1="21.6" x2="56.31" y2="121.6" gradientUnits="userSpaceOnUse"><stop offset="0" stop-color="#fff"/><stop offset="1" stop-color="#221f1f"/></linearGradient><linearGradient id="linear-gradient-4" x1="53.08" y1="13.44" x2="61.06" y2="13.44" gradientUnits="userSpaceOnUse"><stop offset="0" stop-color="#e4e1de"/><stop offset="0" stop-color="#dcd8d5"/><stop offset="0.06" stop-color="#cdc9c8"/><stop offset="0.18" stop-color="#a6a2a5"/><stop offset="0.26" stop-color="#89858b"/><stop offset="0.52" stop-color="#f1f2f2"/><stop offset="0.59" stop-color="#e3e3e4"/><stop offset="0.71" stop-color="#bebcbe"/><stop offset="0.87" stop-color="#827e82"/><stop offset="0.88" stop-color="#807c80"/><stop offset="1" stop-color="#d0d1d2"/><stop offset="1" stop-color="#a5a7aa"/></linearGradient></defs><title>RSL</title><g class="cls-1"><g id="Layer_1" data-name="Layer 1"><path class="cls-2" d="M20.67,24.13v37c0,41.56,36,60,36,60s36-18.46,36-60v-37Z" transform="translate(-20.67 -6.38)"/><path class="cls-3" d="M22,25.49V61.16C22,98.38,52,116.88,56.67,119.57c4.72-2.69,34.64-21.19,34.64-58.41V25.49ZM88.58,61.16c0,33.62-24.76,50.87-31.91,55.19C49.51,112,24.75,94.78,24.75,61.16V28.21H88.58Z" transform="translate(-20.67 -6.38)"/><path class="cls-4" d="M56.67,116.35C49.51,112,24.75,94.78,24.75,61.16v.62c0,33.62,24.76,50.88,31.92,55.2,7.15-4.32,31.91-21.58,31.91-55.2v-.62C88.58,94.78,63.82,112,56.67,116.35ZM22,25.49v.62H91.31v-.62Z" transform="translate(-20.67 -6.38)"/><path class="cls-5" d="M26.11,29.57V61.16c0,31.88,22.81,48.74,30.56,53.59C64.41,109.9,87.22,93,87.22,61.16V29.57Z" transform="translate(-20.67 -6.38)"/><path class="cls-6" d="M26.11,29.57V61.16c0,31.88,22.81,48.74,30.56,53.59C64.41,109.9,87.22,93,87.22,61.16V29.57Z" transform="translate(-20.67 -6.38)"/><path class="cls-7" d="M60.7,57.59H56.26A1.59,1.59,0,0,1,57.48,59v2.36c2.07-.74,3.25-2.06,3.25-3.32A3.64,3.64,0,0,0,60.7,57.59Zm9.51-7.16a.86.86,0,0,0,.1-.41c0-1.92-6.11-3.47-13.64-3.47S43,48.1,43,50a1,1,0,0,0,.1.41C46,48.9,51,47.88,56.67,47.88S67.31,48.9,70.21,50.43ZM51,57.61v1.64a3.26,3.26,0,0,1,2.1,2.83A2.69,2.69,0,0,0,54.62,60C54.62,58.68,53,58,51,57.61Zm.71,29.1a4.31,4.31,0,0,1,1.76-1.89,4.4,4.4,0,0,0-2.72,1.89ZM74.48,76.09s-1.13,2-4.56,2H61.78V71.18l-4.3-4V78a1.61,1.61,0,0,1-1.22,1.45H70.68C76.46,79.48,74.48,76.09,74.48,76.09ZM39.69,40.51c.58,1.38.83,1.86.83,1.86l-.47,1.72,1.82.8L43,47.33a36.09,36.09,0,0,1,13.67-2.4,36.06,36.06,0,0,1,13.66,2.4l1.13-2.44,1.82-.8-.47-1.72s.25-.48.83-1.86,3.41-2.86,3.41-2.86c-2.39-2.46-4.36,2.45-6.88.07-.87,1.3,1,2.86,1,2.86A2.87,2.87,0,0,1,69,42.21c-1.92.32-3.92.2-4.3-3.33,0,0-1.3,3.57-4.3,2.79a4.37,4.37,0,0,1-3-2.86c2-.23,3.43-1.42,3.43-2.85H58a4.83,4.83,0,0,0-1.3-2.65A4.81,4.81,0,0,0,55.36,36H52.53c0,1.43,1.48,2.62,3.43,2.85a4.37,4.37,0,0,1-3,2.86c-3,.78-4.3-2.79-4.3-2.79-.39,3.53-2.39,3.65-4.3,3.33a2.87,2.87,0,0,1-2.13-1.63s1.81-1.56,1-2.86c-2.52,2.38-4.5-2.53-6.89-.07C36.28,37.65,39.11,39.13,39.69,40.51ZM56.3,73.2c0-6.84-14.16-6.7-14.16-11.2a3.23,3.23,0,0,1,2.12-2.73V57.66c-2.91.68-5.7,2.37-5.7,5.34,0,6.34,13.73,6.13,13.73,11.12,0,2.56-1.79,4.31-5.22,4.31-3.88,0-7.17-2-6.35-5,0,0-2.52.59-2.52,2.69,0,1.94,3.69,3.69,8.87,3.69C53.58,79.77,56.3,76.39,56.3,73.2Zm4,12.58a4.29,4.29,0,0,1,2.34,1.08,4.41,4.41,0,0,0-2.63-2ZM45.1,69.84V73.4c0,.82-1.31,1.51-1.31,1.51h7.8s-1.4-.69-1.4-1.51V72.2A27.58,27.58,0,0,0,45.1,69.84Zm3.62,23a4.42,4.42,0,0,0,1,3.17l.3-.92A4.24,4.24,0,0,1,48.72,92.89Zm6.21,7a4.43,4.43,0,0,0,3.31.07l-.79-.57A4.22,4.22,0,0,1,54.93,99.93Zm8.91-6.28a4.27,4.27,0,0,1-.3,2.55,4.4,4.4,0,0,0,1.09-3.12Zm9.08-47.52-.39.17A26.12,26.12,0,0,1,66.2,89.48,9.83,9.83,0,0,1,66.49,91a26.54,26.54,0,0,0,6.43-44.88ZM32.21,66a23.43,23.43,0,0,1,9-18.48L40.46,46a24.16,24.16,0,0,0,7.09,42.36l.09-.23A23.43,23.43,0,0,1,32.21,66ZM71.78,48.29l-.29.61A23.42,23.42,0,0,1,78.6,62.31,24.1,24.1,0,0,0,71.78,48.29ZM72,73.58l-8.18-7.75a9.66,9.66,0,0,0-5.3-2.52s8.64-.66,8.64-5.68c0-2.42-3-5.68-12.43-5.68h-11s1.47.82,1.47,1.52V64.18c1.37.67,3.24,1.28,5.09,2V64.14h3a4.7,4.7,0,0,1,3.37,1.07l8.81,8.2a10.17,10.17,0,0,0,5.82,2.35c2.73,0,3.82-.92,3.82-.92A5.86,5.86,0,0,1,72,73.58ZM53.87,62.81H50.19V53.34h3.68c4.62,0,7.7,1.58,7.7,4.73C61.57,60.63,58.37,62.81,53.87,62.81ZM32.58,78.41a26.53,26.53,0,0,0,14.23,13c0-.3.06-.59.1-.89A26.07,26.07,0,0,1,32.58,78.41ZM60,87.57l-1-3.09a7.92,7.92,0,0,0-4.72,0l-1,3.09-3.24,0A8.07,8.07,0,0,0,48.65,92l2.64,1.87-1,3.06a8.07,8.07,0,0,0,3.81,2.78l2.6-1.94,2.59,1.94A8.09,8.09,0,0,0,63.08,97l-1-3.06L64.68,92a8.06,8.06,0,0,0-1.45-4.49Z" transform="translate(-20.67 -6.38)"/><path class="cls-8" d="M64.68,91.64a8.05,8.05,0,0,0-1.45-4.48L60,87.2l-1-3.09a7.92,7.92,0,0,0-4.72,0l-1,3.09-3.24,0a8.06,8.06,0,0,0-1.46,4.48l2.64,1.87-1,3.07a8,8,0,0,0,3.81,2.77l2.6-1.93,2.59,1.93a8,8,0,0,0,3.82-2.77l-1-3.07Z" transform="translate(-20.67 -6.38)"/><path class="cls-2" d="M71.49,48.53A23.39,23.39,0,0,1,78.6,61.94a24.07,24.07,0,0,0-6.82-14Z" transform="translate(-20.67 -6.38)"/><path class="cls-2" d="M47.64,87.71A23.49,23.49,0,0,1,41.2,47.17l-.74-1.6a24.16,24.16,0,0,0,7.09,42.36Z" transform="translate(-20.67 -6.38)"/><path class="cls-2" d="M63.77,65.46a9.68,9.68,0,0,0-5.3-2.53s8.64-.66,8.64-5.68c0-2.41-3-5.68-12.43-5.68h-11s1.47.82,1.47,1.53V63.8c1.37.67,3.24,1.29,5.09,2V63.77h3a4.7,4.7,0,0,1,3.37,1.06L65.41,73a10.16,10.16,0,0,0,5.82,2.34c2.73,0,3.82-.91,3.82-.91A5.86,5.86,0,0,1,72,73.21Zm-9.9-3H50.19V53h3.68c4.62,0,7.7,1.58,7.7,4.74C61.57,60.25,58.37,62.43,53.87,62.43Z" transform="translate(-20.67 -6.38)"/><path class="cls-2" d="M45.1,69.47V73c0,.82-1.31,1.51-1.31,1.51h7.8s-1.4-.69-1.4-1.51V71.82A28.29,28.29,0,0,0,45.1,69.47Z" transform="translate(-20.67 -6.38)"/><path class="cls-2" d="M39.69,40.14c.58,1.38.83,1.86.83,1.86l-.47,1.71,1.82.81L43,47a36.09,36.09,0,0,1,13.67-2.4A36.06,36.06,0,0,1,70.33,47l1.13-2.43,1.82-.81L72.81,42s.25-.48.83-1.86,3.41-2.87,3.41-2.87c-2.39-2.45-4.36,2.46-6.88.07-.87,1.3,1,2.87,1,2.87A2.85,2.85,0,0,1,69,41.83c-1.92.33-3.92.21-4.3-3.32,0,0-1.3,3.57-4.3,2.79a4.37,4.37,0,0,1-3-2.86c2-.24,3.43-1.42,3.43-2.85H58a4.88,4.88,0,0,0-1.3-2.66,4.86,4.86,0,0,0-1.31,2.66H52.53C52.53,37,54,38.2,56,38.44a4.37,4.37,0,0,1-3,2.86c-3,.78-4.3-2.79-4.3-2.79-.39,3.53-2.39,3.65-4.3,3.32a2.85,2.85,0,0,1-2.13-1.62s1.81-1.57,1-2.87c-2.52,2.39-4.5-2.52-6.89-.07C36.28,37.27,39.11,38.76,39.69,40.14Z" transform="translate(-20.67 -6.38)"/><path class="cls-2" d="M70.21,50.06a.9.9,0,0,0,.1-.42c0-1.91-6.11-3.46-13.64-3.46S43,47.73,43,49.64a1,1,0,0,0,.1.42C46,48.52,51,47.51,56.67,47.51S67.31,48.52,70.21,50.06Z" transform="translate(-20.67 -6.38)"/><path class="cls-2" d="M50.21,89.67l2.61-2-2.36,0a7.42,7.42,0,0,0-1.27,3.91l1.92,1.36Z" transform="translate(-20.67 -6.38)"/><path class="cls-2" d="M58.72,84.58a7.39,7.39,0,0,0-4.1,0l-.71,2.25L56.67,85l2.75,1.85Z" transform="translate(-20.67 -6.38)"/><path class="cls-2" d="M60.52,87.62l2.61,2-.91,3.19,1.92-1.36a7.5,7.5,0,0,0-1.26-3.91Z" transform="translate(-20.67 -6.38)"/><path class="cls-2" d="M51.54,94.15l-.76,2.23a7.43,7.43,0,0,0,3.32,2.41L56,97.39l-3.32-.13Z" transform="translate(-20.67 -6.38)"/><path class="cls-2" d="M60.66,97.26l-3.32.13,1.9,1.4a7.49,7.49,0,0,0,3.32-2.41l-.76-2.23Z" transform="translate(-20.67 -6.38)"/><path class="cls-3" d="M81.28,65.44A26.07,26.07,0,0,1,66.2,89.11a9.71,9.71,0,0,1,.29,1.52,26.53,26.53,0,0,0,6.43-44.87l-.39.17A26,26,0,0,1,81.28,65.44Z" transform="translate(-20.67 -6.38)"/><path class="cls-3" d="M46.81,91c0-.3.06-.6.1-.89A26.07,26.07,0,0,1,32.58,78,26.53,26.53,0,0,0,46.81,91Z" transform="translate(-20.67 -6.38)"/><path class="cls-3" d="M57.48,58.66V61c2.07-.74,3.25-2.06,3.25-3.32a3.91,3.91,0,0,0,0-.49H56.26A1.61,1.61,0,0,1,57.48,58.66Z" transform="translate(-20.67 -6.38)"/><path class="cls-3" d="M57.48,66.81V77.66a1.61,1.61,0,0,1-1.22,1.45H70.68c5.78,0,3.8-3.39,3.8-3.39s-1.13,2-4.56,2H61.78V70.8Z" transform="translate(-20.67 -6.38)"/><path class="cls-3" d="M53.13,61.7a2.67,2.67,0,0,0,1.49-2.09c0-1.31-1.64-2-3.59-2.37v1.64A3.25,3.25,0,0,1,53.13,61.7Z" transform="translate(-20.67 -6.38)"/><path class="cls-3" d="M38.2,75.71c0,1.94,3.69,3.68,8.87,3.68,6.51,0,9.23-3.37,9.23-6.56,0-6.84-14.16-6.7-14.16-11.2a3.23,3.23,0,0,1,2.12-2.73V57.28c-2.91.68-5.7,2.37-5.7,5.35,0,6.34,13.73,6.13,13.73,11.11,0,2.57-1.79,4.32-5.22,4.32-3.88,0-7.17-2-6.35-5C40.72,73,38.2,73.61,38.2,75.71Z" transform="translate(-20.67 -6.38)"/><path class="cls-3" d="M48.72,92.52a4.42,4.42,0,0,0,1,3.17l.3-.92A4.24,4.24,0,0,1,48.72,92.52Z" transform="translate(-20.67 -6.38)"/><path class="cls-3" d="M54.93,99.55a4.4,4.4,0,0,0,3.31.08l-.79-.57A4.17,4.17,0,0,1,54.93,99.55Z" transform="translate(-20.67 -6.38)"/><path class="cls-3" d="M63.84,93.27a4.3,4.3,0,0,1-.3,2.56,4.44,4.44,0,0,0,1.09-3.13Z" transform="translate(-20.67 -6.38)"/><path class="cls-3" d="M60,84.49l.29.92a4.29,4.29,0,0,1,2.34,1.08A4.41,4.41,0,0,0,60,84.49Z" transform="translate(-20.67 -6.38)"/><path class="cls-3" d="M53.5,84.45a4.41,4.41,0,0,0-2.72,1.88h1A4.31,4.31,0,0,1,53.5,84.45Z" transform="translate(-20.67 -6.38)"/><path class="cls-3" d="M58.87,89.45l.82-1.84L58.19,89h-3l-1.5-1.35.83,1.84-.94,2.9-1.76,1,2-.21,2.46,1.79.42,2,.42-2,2.46-1.79,2,.21-1.75-1ZM56,90.69l-1.68,2.24,1-3.15h3.15Z" transform="translate(-20.67 -6.38)"/><path class="cls-9" d="M60.7,57.21H56.26a1.61,1.61,0,0,1,1.22,1.45V61c2.07-.74,3.25-2.06,3.25-3.32A3.91,3.91,0,0,0,60.7,57.21Zm9.51-7.15a.9.9,0,0,0,.1-.42c0-1.91-6.11-3.46-13.64-3.46S43,47.73,43,49.64a1,1,0,0,0,.1.42C46,48.52,51,47.51,56.67,47.51S67.31,48.52,70.21,50.06ZM51,57.24v1.64a3.25,3.25,0,0,1,2.1,2.82,2.67,2.67,0,0,0,1.49-2.09C54.62,58.3,53,57.59,51,57.24Zm.71,29.09a4.31,4.31,0,0,1,1.76-1.88,4.41,4.41,0,0,0-2.72,1.88ZM74.48,75.72s-1.13,2-4.56,2H61.78V70.8l-4.3-4V77.66a1.61,1.61,0,0,1-1.22,1.45H70.68C76.46,79.11,74.48,75.72,74.48,75.72ZM39.69,40.14c.58,1.38.83,1.86.83,1.86l-.47,1.71,1.82.81L43,47a36.09,36.09,0,0,1,13.67-2.4A36.06,36.06,0,0,1,70.33,47l1.13-2.43,1.82-.81L72.81,42s.25-.48.83-1.86,3.41-2.87,3.41-2.87c-2.39-2.45-4.36,2.46-6.88.07-.87,1.3,1,2.87,1,2.87A2.85,2.85,0,0,1,69,41.83c-1.92.33-3.92.21-4.3-3.32,0,0-1.3,3.57-4.3,2.79a4.37,4.37,0,0,1-3-2.86c2-.24,3.43-1.42,3.43-2.85H58a4.88,4.88,0,0,0-1.3-2.66,4.86,4.86,0,0,0-1.31,2.66H52.53C52.53,37,54,38.2,56,38.44a4.37,4.37,0,0,1-3,2.86c-3,.78-4.3-2.79-4.3-2.79-.39,3.53-2.39,3.65-4.3,3.32a2.85,2.85,0,0,1-2.13-1.62s1.81-1.57,1-2.87c-2.52,2.39-4.5-2.52-6.89-.07C36.28,37.27,39.11,38.76,39.69,40.14ZM56.3,72.83c0-6.84-14.16-6.7-14.16-11.2a3.23,3.23,0,0,1,2.12-2.73V57.28c-2.91.68-5.7,2.37-5.7,5.35,0,6.34,13.73,6.13,13.73,11.11,0,2.57-1.79,4.32-5.22,4.32-3.88,0-7.17-2-6.35-5,0,0-2.52.59-2.52,2.69,0,1.94,3.69,3.68,8.87,3.68C53.58,79.39,56.3,76,56.3,72.83Zm4,12.58a4.29,4.29,0,0,1,2.34,1.08,4.41,4.41,0,0,0-2.63-2ZM45.1,69.47V73c0,.82-1.31,1.51-1.31,1.51h7.8s-1.4-.69-1.4-1.51V71.82A28.29,28.29,0,0,0,45.1,69.47Zm3.62,23a4.42,4.42,0,0,0,1,3.17l.3-.92A4.24,4.24,0,0,1,48.72,92.52Zm6.21,7a4.4,4.4,0,0,0,3.31.08l-.79-.57A4.17,4.17,0,0,1,54.93,99.55Zm8.91-6.28a4.3,4.3,0,0,1-.3,2.56,4.44,4.44,0,0,0,1.09-3.13Zm9.08-47.51-.39.17A26.12,26.12,0,0,1,66.2,89.11a9.71,9.71,0,0,1,.29,1.52,26.53,26.53,0,0,0,6.43-44.87ZM32.21,65.65a23.43,23.43,0,0,1,9-18.48l-.74-1.6a24.16,24.16,0,0,0,7.09,42.36l.09-.22A23.44,23.44,0,0,1,32.21,65.65ZM71.78,47.92l-.29.61A23.39,23.39,0,0,1,78.6,61.94,24.07,24.07,0,0,0,71.78,47.92ZM72,73.21l-8.18-7.75a9.68,9.68,0,0,0-5.3-2.53s8.64-.66,8.64-5.68c0-2.41-3-5.68-12.43-5.68h-11s1.47.82,1.47,1.53V63.8c1.37.67,3.24,1.29,5.09,2V63.77h3a4.7,4.7,0,0,1,3.37,1.06L65.41,73a10.16,10.16,0,0,0,5.82,2.34c2.73,0,3.82-.91,3.82-.91A5.86,5.86,0,0,1,72,73.21ZM53.87,62.43H50.19V53h3.68c4.62,0,7.7,1.58,7.7,4.74C61.57,60.25,58.37,62.43,53.87,62.43ZM32.58,78A26.53,26.53,0,0,0,46.81,91c0-.3.06-.6.1-.89A26.07,26.07,0,0,1,32.58,78ZM60,87.2l-1-3.09a7.92,7.92,0,0,0-4.72,0l-1,3.09-3.24,0a8.06,8.06,0,0,0-1.46,4.48l2.64,1.87-1,3.07a8,8,0,0,0,3.81,2.77l2.6-1.93,2.59,1.93a8,8,0,0,0,3.82-2.77l-1-3.07,2.64-1.87a8.05,8.05,0,0,0-1.45-4.48Z" transform="translate(-20.67 -6.38)"/><path class="cls-10" d="M20.67,24.13v37c0,41.56,36,60,36,60s36-18.46,36-60v-37Zm66.55,37c0,31.88-22.81,48.74-30.55,53.59C48.92,109.9,26.11,93,26.11,61.16V29.57H87.22Z" transform="translate(-20.67 -6.38)"/><rect class="cls-11" x="5.45" y="23.2" width="61.11" height="0.62"/><polygon class="cls-5" points="55.89 101.27 56.83 101.27 56.83 104.12 57.18 104.12 57.18 101.27 58.17 101.27 58.17 100.93 55.89 100.93 55.89 101.27"/><polygon class="cls-5" points="60 103.53 59.18 100.93 58.63 100.93 58.63 104.12 58.97 104.12 58.97 101.41 59.83 104.12 60.17 104.12 61.03 101.41 61.03 104.12 61.37 104.12 61.37 100.93 60.82 100.93 60 103.53"/><polygon class="cls-12" points="36.4 0.89 37.95 5.35 42.68 5.44 38.92 8.3 40.28 12.82 36.4 10.12 32.53 12.82 33.89 8.3 30.13 5.44 34.85 5.35 36.4 0.89"/><path class="cls-13" d="M56.79,7.17s-1.35,3.91-1.48,4.27L50,11.55l4.28,3.24-1.56,5.13,4.4-3.06,4.4,3.06S60,15.15,59.92,14.79l4.27-3.24-5.36-.11c-.12-.36-1.76-5.06-1.76-5.06ZM55.53,12h.2l1.34-3.85C57.45,9.23,58.41,12,58.41,12l4.09.09-3.26,2.47s.85,2.82,1.19,3.91l-3.36-2.34-3.35,2.34,1.18-3.91L51.64,12.1Z" transform="translate(-20.67 -6.38)"/><path class="cls-14" d="M55.94,12.48h.15l1-2.84c.27.79,1,2.84,1,2.84l3,.07-2.39,1.81.87,2.88-2.47-1.72-2.46,1.72c.23-.8.86-2.88.86-2.88l-2.39-1.81Z" transform="translate(-20.67 -6.38)"/><path class="cls-8" d="M57.88,13.65h0a7.88,7.88,0,0,1-.44,1.2l0,0a7.33,7.33,0,0,0,.45-1.23h0a7.51,7.51,0,0,1-.43,1.26.08.08,0,0,1,0,0,7.17,7.17,0,0,0,.59-1.89c0-.18-.13-.19-.13-.19s0,.06,0,.16a10.34,10.34,0,0,1-.64,1.76l0,0C57.66,14.26,57.88,13.65,57.88,13.65Z" transform="translate(-20.67 -6.38)"/><path class="cls-8" d="M57.41,15.11h.12a.35.35,0,0,0-.09-.15l0,0A.58.58,0,0,0,57.41,15.11Z" transform="translate(-20.67 -6.38)"/><path class="cls-8" d="M57.36,15l0-.05a.38.38,0,0,0-.16-.1h-.07l0,.09Z" transform="translate(-20.67 -6.38)"/><path class="cls-8" d="M57.19,15a.5.5,0,0,0-.13.09v.07h.3a.25.25,0,0,0,0-.1Z" transform="translate(-20.67 -6.38)"/><path class="cls-8" d="M56.2,12.77a.15.15,0,0,1,0-.14c.09-.06.32.16.32.16S56.28,12.58,56.2,12.77Z" transform="translate(-20.67 -6.38)"/><path class="cls-8" d="M58.08,12.85a.12.12,0,0,0-.17,0c-.1.07-.43.4-.62.58a.42.42,0,0,1-.18.11c.13-.14.59-.61.7-.69s.13-.12.2-.09l0,0h-.06a.54.54,0,0,0-.15.09c-.13.1-.64.62-.74.73H57c0-.06.68-.68.8-.78s.14-.12.2-.09h0s0,0-.07,0a.75.75,0,0,0-.15.09c-.13.11-.72.68-.82.79l0,0,0,.05a.44.44,0,0,0,.52-.09c.12-.11.22-.23.3-.18a3.33,3.33,0,0,1-.4,1.35h-.32a3,3,0,0,1-.41-1.33h.55l.05-.06h-.6a.76.76,0,0,1,.06-.26h.81l0,0h-.82l-.07-.13h1l.2-.17c.17-.12.25,0,.27,0A.83.83,0,0,1,58.08,12.85Zm-1,.24H57l.05,0,0,.06.05,0,0,0,0-.06.06,0h-.07l0-.06Z" transform="translate(-20.67 -6.38)"/><rect class="cls-8" x="36.21" y="8.33" width="0.37" height="0.06"/><path class="cls-8" d="M57.75,15.41v-.06h0v.06Zm0,0v-.07h0l0,.06,0-.06h0v.07h0v-.06l0,.06h0l0-.06v.06Z" transform="translate(-20.67 -6.38)"/><path class="cls-8" d="M56.7,15.16l0-.05h-.06a.43.43,0,0,1,0-.07A11.4,11.4,0,0,1,56,13.1a.58.58,0,0,1,0-.32c.06-.16.14-.17.14-.17s-.1,0-.07.31a15.28,15.28,0,0,0,.7,1.93.13.13,0,0,1,.07,0h.25l0,.09L57,15l-.15,0,0,0,.12,0s0,0,0,.06h-.09l0,.05h.67l.06.26H56.44l.06-.26Zm-.47-1.56h0a9.12,9.12,0,0,0,.53,1.56h0A11.12,11.12,0,0,1,56.23,13.6Zm0,0h0a12.92,12.92,0,0,0,.59,1.56h.06C56.52,14.33,56.27,13.6,56.27,13.6Z" transform="translate(-20.67 -6.38)"/></g></g></svg>