<svg xmlns="http://www.w3.org/2000/svg" viewBox="0 0 93.2 136.42"><defs><style>.cls-1{fill:#fff;}.cls-2{fill:#638c1c;}.cls-3{fill:#236092;}.cls-4{fill:#1d252c;}</style></defs><title>SEA</title><g id="Layer_2" data-name="Layer 2"><g id="Layer_1-2" data-name="Layer 1"><path class="cls-1" d="M93.2,34a118.56,118.56,0,0,1-13.13,1,189,189,0,0,0,.57-23L46.6,0l-34,12a189,189,0,0,0,.57,23A118.56,118.56,0,0,1,0,34,72,72,0,0,1,5.62,46.53C2.94,47.61.78,48.74.78,48.74V81.35s2.54-1.51,5.68-2.93a33.83,33.83,0,0,1-1.61,3.49S34.3,96.55,46.6,136.42C58.9,96.55,88.36,81.91,88.36,81.91a31.47,31.47,0,0,1-1.61-3.49c3.13,1.42,5.67,2.93,5.67,2.93V48.74s-2.16-1.13-4.84-2.21A72,72,0,0,1,93.2,34M90.61,49.85V78.28a64.24,64.24,0,0,0-6.7-3,28.46,28.46,0,0,0,2,5.9s-27.11,14.2-39.32,49.7C34.39,95.35,7.28,81.15,7.28,81.15a28.77,28.77,0,0,0,2-5.9,63,63,0,0,0-6.7,3V49.85s1.89-1,5.29-2.27A73.26,73.26,0,0,0,3.23,36.22s4.83.55,11.88.66a194.15,194.15,0,0,1-.77-23.59L46.6,1.93,78.86,13.29a192.25,192.25,0,0,1-.76,23.59c7-.11,11.87-.66,11.87-.66a72.7,72.7,0,0,0-4.65,11.36c3.39,1.31,5.29,2.27,5.29,2.27"/><path class="cls-1" d="M11.73,46.19c-.63-1.95-1.3-3.77-2-5.42,1.92.09,3.85.16,5.78.19l-.15-1.28c-3,0-5.54-.16-7.58-.29.83,1.94,1.8,4.41,2.7,7.22l1.21-.42"/><path class="cls-1" d="M79.38,73.6a44.35,44.35,0,0,0,1.49,5.83C73.44,84.19,57.3,96.65,46.6,120,35.9,96.65,19.76,84.19,12.33,79.43a44.35,44.35,0,0,0,1.49-5.83l-1.41.48A42.18,42.18,0,0,1,10.8,80c6.36,3.94,24.73,17.1,35.8,43.11C57.67,97.07,76,83.91,82.41,80a40.64,40.64,0,0,1-1.62-5.89l-1.41-.48"/><path class="cls-1" d="M81.47,46.19l1.22.42a76.34,76.34,0,0,1,2.7-7.22c-2,.13-4.62.25-7.59.29L77.65,41c1.94,0,3.86-.1,5.78-.19-.66,1.65-1.33,3.47-2,5.42"/><path class="cls-1" d="M21.43,43.4a170.05,170.05,0,0,1-1.65-26.21L45,8.32l-.47,6.21-.27.38a8.86,8.86,0,0,0-2.59,1.54,4,4,0,0,0-1.24,2.24c-3,.6-5.67,1.68-7,3.26-2.11.87-4.53,2.28-4.53,4.45,0,1.89,1.9,3.2,3.67,4.07,0,2.42,3.47,3.61,5.33,4.13l.84,6.08c.47,0,.93-.08,1.39-.1l-1-7.1c-2.81-.67-5.19-1.76-5.19-3a1.36,1.36,0,0,1,.29-.8c-2.3-.89-3.68-2-3.68-3.27s1.4-2.41,3.73-3.3c1.05-1.5,4-2.72,7.72-3.27-.71-1.1.6-2.35.6-2.35a6.86,6.86,0,0,1,2.53-1.39L45.85,15l.48-6.75c.26-.94.54,0,.54,0L47.35,15l.6.82a6.24,6.24,0,0,1,3,1.7l-.45,0c-2,.25-2.54,1.3-2.46,2,5.27.23,9.57,1.67,10.89,3.57,2.33.89,3.73,2,3.73,3.3S61.32,28.78,59,29.67a1.36,1.36,0,0,1,.29.8c0,1.25-2.37,2.34-5.19,3l-1,7.1c.46,0,.93.06,1.39.1l.84-6.08c1.86-.52,5.34-1.71,5.34-4.13,1.77-.87,3.66-2.18,3.66-4.07,0-2.17-2.41-3.58-4.53-4.45-1.35-1.58-4-2.66-7-3.26a4,4,0,0,0-1.23-2.24A9,9,0,0,0,49,14.91l-.28-.38-.47-6.21,25.18,8.87A168.81,168.81,0,0,1,71.77,43.4l1.79.44a175.29,175.29,0,0,0,1.7-28L46.6,5.78,17.94,15.88a175.29,175.29,0,0,0,1.7,28l1.79-.44"/><path class="cls-1" d="M40.15,68.4C39.6,74.78,38.57,81.49,37.36,88A90,90,0,0,1,28.15,69.9l-1.85.35c8.47,22.42,20.3,30.92,20.3,30.92s11.84-8.5,20.3-30.92l-1.85-.35A89.51,89.51,0,0,1,55.84,88c-1.21-6.48-2.24-13.19-2.79-19.57l-1.53-.08c.6,7.14,1.95,15.31,3.09,21.43-.76,1.07-1.49,2-2.18,2.89-.8-4-1.63-8.27-2.26-11.65-.14-.78-.35-1.23-.69-1.18s-.41.39-.44,1.28L48,97.56c-.87.82-1.37,1.21-1.37,1.21s-.5-.39-1.36-1.21L44.16,81.09c0-.89-.16-1.25-.43-1.28s-.56.4-.7,1.18c-.62,3.38-1.46,7.67-2.25,11.65-.69-.87-1.43-1.82-2.18-2.89,1.13-6.12,2.48-14.29,3.09-21.43l-1.54.08"/><path class="cls-1" d="M56.72,29.55a3.12,3.12,0,0,0-1.1-3.25.62.62,0,0,1,.35-.77,12,12,0,0,1,1.44,1.34c1.15-3-5.33-6.53-9.22-3.86a12.22,12.22,0,0,1,6.46,1.63.63.63,0,0,1-.34.72,3.86,3.86,0,0,0-4.16.06s4.22,1.2,6.57,4.13"/><path class="cls-1" d="M51.47,40.48l.5-6s.15-.67-.65-.52l-1.57.25a.62.62,0,0,0-.56.73V40.4l2.28.08"/><path class="cls-1" d="M41.89,33.91c-.81-.15-.66.52-.66.52l.5,6L44,40.4V34.89a.62.62,0,0,0-.55-.73Z"/><path class="cls-1" d="M5.39,51.61V73.85a104.83,104.83,0,0,1,82.42,0V51.61a104.71,104.71,0,0,0-82.42,0m18.69.22,1.07-.21c0,.41.15.41.46.36l1.31-.26c.23,0,.46-.12.46-.41s-.13-.34-1.5-.07c-1.61.31-1.79.13-1.79-.81,0-.71.05-1.26,1.4-1.52L27,48.62c1.23-.24,1.35.2,1.35.88v.12l-1.07.21c0-.28,0-.39-.52-.3l-1.18.23c-.24.05-.41.17-.41.38s.13.32,1.28.09c1.66-.33,2-.29,2,.84s-.31,1.28-1.73,1.55l-1.3.26c-1,.18-1.36,0-1.36-.78ZM10.14,68.74a5,5,0,0,1-3,.14l.58-2.25a3.58,3.58,0,0,0,2.52,0,1.33,1.33,0,0,0,1-1.22c0-.5-.24-.76-1.62-.84-1.59-.1-2.14-.89-2.14-2a4.55,4.55,0,0,1,3.18-4,4.19,4.19,0,0,1,2.52-.17l-.53,2.2a3.12,3.12,0,0,0-2-.06c-.77.28-1.07.78-1.07,1.18,0,.63.45.67,1.58.77,1.69.14,2.2.83,2.2,2.06a4.64,4.64,0,0,1-3.22,4.19m8-2.93c-2.61.67-4.28-1-4.28-3.75a6.12,6.12,0,0,1,4.36-6c2.61-.67,4.28,1,4.28,3.76a6.12,6.12,0,0,1-4.36,6m12-11.39v4.64c0,2.63-1.27,4.22-3.42,4.6s-3.35-.75-3.35-3.34V54.93l1.85-.39v5.28c0,1.33.48,2,1.54,1.85s1.53-1.09,1.53-2.42V54l2.57-.39Zm1.53-6.58,3.81-.47v.9l-2.74.34v.62l2.6-.32-.37.85L32.72,50v.62l2.8-.35v.94l-3.87.47Zm7.26,13.93-5.8-4.58L34,58.48v3.57l-2.19.25V53.14l4.95,4.11V52.82l2.16-.17Zm.62-10.84L38.34,51l1.88-4,1.39-.1,1.92,3.74-1.19.08L42,50.07l-2.17.15Zm7.29,7.25A3,3,0,0,1,44,61.37c-1.79.06-3.18.07-3.18.07v-8L40,52.57s2.25-.14,4.23-.17c1.24.07,2.56.53,2.56,2.85Zm7.34-3.61-3.5-.21v1.73l2.94.26-1,1.51-2-.18v1.89l3.5.28v1.81l-5.57-.33V56.77l-1-1,1,.1V52.43l5.57.29Zm29.19,4.86A7.5,7.5,0,0,1,86,61.21l-.61,1.6a6.23,6.23,0,0,0-2-1.37c-1.6-.58-2.59.12-2.59,1.85A3.88,3.88,0,0,0,83.38,67a3.47,3.47,0,0,0,2.13.09l.59,2A4.26,4.26,0,0,1,83.35,69a7.13,7.13,0,0,1-4.67-6.49c0-2.76,1.89-4.11,4.67-3.09m-10.1.44V55.92l5.5,1.47v2l-3.48-.93V60.4l3,.81-1,1.35-2-.54v3.79l-2-.54V60.72l-1-1.13ZM64.46,48.46l3.81.74v.9l-2.75-.53v.62l2.6.5-.44.71L65.52,51v.62l2.81.54v.93l-3.87-.75Zm1.1,10.92c-1.54-.94-2.09-2-2.11-3.05,0-1.31,1-2.38,3-2a5.79,5.79,0,0,1,2.44,1.17l-.48,1.77a4.84,4.84,0,0,0-1.93-1.11c-.73-.15-1,.15-1,.52,0,.59.45.87,1.56,1.56,1.63,1,2.13,1.94,2.15,3.09,0,1.44-1,2.6-3,2.19a7.12,7.12,0,0,1-3-1.49l.53-1.78a5.46,5.46,0,0,0,2.44,1.35c.71.14,1-.15,1-.59s-.24-.84-1.58-1.65m-2.88,3.34-2.29-.39-1.57-3.54-.94-.14V62l-2-.22v-8l-1-1.05,4.61.5a3.16,3.16,0,0,1,2.72,3.26,2.12,2.12,0,0,1-1.48,2.17Zm-4.1-15.16,1.07.16v2.87l2.4.33v1l-3.47-.48ZM51.7,47l4.08.28v1l-1.5-.1V51L53.21,51V48.05L51.7,48Zm-2.08.88-1.5,0v2.91l-1.07,0V47.82l-1.5,0v-1l4.07.08Z"/><path class="cls-1" d="M18.18,58a3.43,3.43,0,0,0-2.24,3.5c0,1.68.9,2.68,2.24,2.33a3.45,3.45,0,0,0,2.23-3.5c0-1.69-.9-2.68-2.23-2.33"/><path class="cls-1" d="M42.73,54.22v5.3l.86,0A1.22,1.22,0,0,0,45,58.14V55.7c0-1.83-1.19-1.4-2.3-1.48"/><path class="cls-1" d="M59.27,55.13l-1.39-.21v2l1.45.22h.25a.76.76,0,0,0,.77-.83,1.2,1.2,0,0,0-1.08-1.19"/><polygon class="cls-1" points="40.24 49.37 41.61 49.26 40.92 47.86 40.24 49.37"/><path class="cls-2" d="M21.43,43.4a109.62,109.62,0,0,1,17.25-2.72l-.84-6.08c-1.86-.52-5.33-1.71-5.33-4.13-1.77-.87-3.67-2.18-3.67-4.07,0-2.17,2.42-3.58,4.53-4.45,1.35-1.58,4-2.66,7-3.26a4,4,0,0,1,1.24-2.24,8.86,8.86,0,0,1,2.59-1.54l.27-.38L45,8.32,19.78,17.19A170.05,170.05,0,0,0,21.43,43.4"/><path class="cls-2" d="M73.42,17.19,48.24,8.32l.47,6.21.28.38a9,9,0,0,1,2.59,1.54,4,4,0,0,1,1.23,2.24c3,.6,5.67,1.68,7,3.26,2.12.87,4.53,2.28,4.53,4.45,0,1.88-1.89,3.2-3.66,4.07,0,2.42-3.48,3.61-5.34,4.13l-.84,6.08A109.62,109.62,0,0,1,71.77,43.4a168.81,168.81,0,0,0,1.65-26.21"/><path class="cls-2" d="M37.36,88c1.21-6.48,2.24-13.19,2.79-19.57a101.8,101.8,0,0,0-12,1.5A89.51,89.51,0,0,0,37.36,88"/><path class="cls-2" d="M55.84,88A89.51,89.51,0,0,0,65.05,69.9a101.8,101.8,0,0,0-12-1.5c.55,6.38,1.58,13.09,2.79,19.57"/><path class="cls-3" d="M77.65,41c-.16,1.32-.33,2.6-.52,3.86,1.57.46,3,.92,4.34,1.37.63-1.95,1.3-3.77,2-5.42-1.92.09-3.84.16-5.78.19"/><path class="cls-3" d="M15.55,41c-1.93,0-3.86-.1-5.78-.19.66,1.65,1.33,3.47,2,5.42,1.32-.45,2.77-.91,4.34-1.37-.19-1.26-.36-2.54-.52-3.86"/><path class="cls-3" d="M70.59,71.07c-9.58,25.8-24,34.63-24,34.63s-14.4-8.83-24-34.63c-3.28.79-6.23,1.67-8.79,2.53a44.35,44.35,0,0,1-1.49,5.83C19.76,84.19,35.9,96.65,46.6,120,57.3,96.65,73.44,84.19,80.87,79.43a44.35,44.35,0,0,1-1.49-5.83c-2.56-.86-5.51-1.74-8.79-2.53"/><path class="cls-4" d="M90.61,49.85s-1.9-1-5.29-2.27A72.7,72.7,0,0,1,90,36.22s-4.83.55-11.87.66a192.25,192.25,0,0,0,.76-23.59L46.6,1.93,14.34,13.29a194.15,194.15,0,0,0,.77,23.59c-7-.11-11.88-.66-11.88-.66A73.26,73.26,0,0,1,7.89,47.58c-3.4,1.31-5.29,2.27-5.29,2.27V78.28a63,63,0,0,1,6.7-3,28.77,28.77,0,0,1-2,5.9s27.11,14.2,39.32,49.7c12.21-35.5,39.32-49.7,39.32-49.7a28.46,28.46,0,0,1-2-5.9,64.24,64.24,0,0,1,6.7,3ZM77.65,41l.15-1.28c3,0,5.55-.16,7.59-.29a76.34,76.34,0,0,0-2.7,7.22l-1.22-.42c-1.32-.45-2.77-.91-4.34-1.37.19-1.26.36-2.54.52-3.86M17.94,15.88,46.6,5.78l28.66,10.1a175.29,175.29,0,0,1-1.7,28l-1.79-.44a109.62,109.62,0,0,0-17.25-2.72c-.46,0-.93-.08-1.39-.1l1-7.1c2.82-.67,5.19-1.76,5.19-3a1.31,1.31,0,0,0-.29-.79c2.3-.9,3.68-2,3.68-3.28S61.3,24,59,23.1c-1.32-1.9-5.62-3.34-10.89-3.57-.08-.72.46-1.77,2.46-2l.45,0a6.24,6.24,0,0,0-3-1.7l-.6-.82-.48-6.75s-.28-.94-.54,0L45.85,15l-.77,1.07a6.86,6.86,0,0,0-2.53,1.39s-1.31,1.25-.6,2.35c-3.77.55-6.67,1.77-7.72,3.27-2.33.89-3.73,2-3.73,3.3s1.38,2.38,3.68,3.28a1.31,1.31,0,0,0-.29.79c0,1.25,2.38,2.34,5.19,3l1,7.1c-.46,0-.92.06-1.39.1A109.62,109.62,0,0,0,21.43,43.4l-1.79.44a175.29,175.29,0,0,1-1.7-28M41.23,34.43s-.15-.67.66-.52l1.57.25a.62.62,0,0,1,.55.73V40.4l-2.28.08ZM55.62,26.3a3.12,3.12,0,0,1,1.1,3.25c-2.35-2.93-6.57-4.13-6.57-4.13a3.86,3.86,0,0,1,4.16-.06.63.63,0,0,0,.34-.72A12.22,12.22,0,0,0,48.19,23c3.89-2.67,10.37.82,9.22,3.86A12,12,0,0,0,56,25.53a.61.61,0,0,0-.35.77m-5.87,7.86,1.57-.25c.8-.15.65.52.65.52l-.5,6-2.28-.08V34.89a.62.62,0,0,1,.56-.73M7.82,39.39c2,.13,4.61.25,7.58.29L15.55,41c.16,1.32.33,2.6.52,3.86-1.57.46-3,.92-4.34,1.37l-1.21.42c-.9-2.81-1.87-5.28-2.7-7.22M82.41,80C76,83.91,57.67,97.07,46.6,123.08,35.53,97.07,17.16,83.91,10.8,80a42.18,42.18,0,0,0,1.61-5.89l1.41-.48c2.56-.86,5.51-1.74,8.79-2.53,9.59,25.8,24,34.63,24,34.63s14.41-8.83,24-34.63c3.28.79,6.23,1.67,8.79,2.53l1.41.48A40.64,40.64,0,0,0,82.41,80M40.78,92.64c.79-4,1.63-8.27,2.25-11.65.14-.78.35-1.23.7-1.18s.4.39.43,1.28l1.08,16.47c.86.82,1.36,1.21,1.36,1.21s.5-.39,1.37-1.21L49,81.09c0-.89.16-1.25.44-1.28s.55.4.69,1.18c.63,3.38,1.46,7.67,2.26,11.65.69-.87,1.42-1.82,2.18-2.89-1.14-6.12-2.49-14.29-3.09-21.43l1.53.08a101.8,101.8,0,0,1,12,1.5l1.85.35c-8.46,22.42-20.3,30.92-20.3,30.92s-11.83-8.5-20.3-30.92l1.85-.35a101.8,101.8,0,0,1,12-1.5l1.54-.08c-.61,7.14-2,15.31-3.09,21.43.75,1.07,1.49,2,2.18,2.89m47-18.79a104.83,104.83,0,0,0-82.42,0V51.61a104.71,104.71,0,0,1,82.42,0Z"/><polygon class="cls-4" points="35.52 50.3 32.72 50.65 32.72 50.03 34.95 49.76 35.32 48.91 32.72 49.23 32.72 48.61 35.46 48.27 35.46 47.37 31.65 47.84 31.65 51.71 35.52 51.24 35.52 50.3"/><path class="cls-4" d="M18.22,56.05a6.12,6.12,0,0,0-4.36,6c0,2.76,1.67,4.42,4.28,3.75a6.12,6.12,0,0,0,4.36-6c0-2.78-1.67-4.43-4.28-3.76m0,7.8c-1.34.35-2.24-.65-2.24-2.33A3.43,3.43,0,0,1,18.18,58c1.33-.35,2.23.64,2.23,2.33a3.45,3.45,0,0,1-2.23,3.5"/><path class="cls-4" d="M28.27,59.25c0,1.33-.48,2.23-1.53,2.42s-1.54-.52-1.54-1.85V54.54l-1.85.39v5.39c0,2.59,1.2,3.71,3.35,3.34s3.42-2,3.42-4.6V54.42l.72-.85L28.27,54Z"/><path class="cls-4" d="M11.16,62.49c-1.13-.1-1.58-.14-1.58-.77,0-.4.3-.9,1.07-1.18a3.12,3.12,0,0,1,2,.06l.53-2.2a4.19,4.19,0,0,0-2.52.17,4.55,4.55,0,0,0-3.18,4c0,1.16.55,2,2.14,2,1.38.08,1.62.34,1.62.84a1.33,1.33,0,0,1-1,1.22,3.58,3.58,0,0,1-2.52,0L7.1,68.88a5,5,0,0,0,3-.14,4.64,4.64,0,0,0,3.22-4.19c0-1.23-.51-1.92-2.2-2.06"/><polygon class="cls-4" points="62.05 50.92 59.65 50.59 59.65 47.72 58.58 47.56 58.58 51.44 62.05 51.92 62.05 50.92"/><polygon class="cls-4" points="68.33 52.15 65.52 51.61 65.52 50.99 67.68 51.4 68.12 50.69 65.52 50.19 65.52 49.56 68.27 50.09 68.27 49.2 64.46 48.46 64.46 52.33 68.33 53.08 68.33 52.15"/><path class="cls-4" d="M25.44,52.88l1.3-.26c1.42-.27,1.73-.51,1.73-1.55s-.38-1.17-2-.84c-1.15.23-1.28.24-1.28-.09s.17-.33.41-.38l1.18-.23c.49-.09.52,0,.52.3l1.07-.21V49.5c0-.68-.12-1.12-1.35-.88l-1.49.29c-1.35.26-1.4.81-1.4,1.52,0,.94.18,1.12,1.79.81,1.37-.27,1.5-.27,1.5.07s-.23.37-.46.41L25.61,52c-.31.05-.46.05-.46-.36l-1.07.21v.27c0,.83.39,1,1.36.78"/><polygon class="cls-4" points="36.75 57.25 31.8 53.14 31.8 62.3 33.99 62.05 33.99 58.48 33.11 57.19 38.91 61.77 38.91 52.65 36.75 52.82 36.75 57.25"/><path class="cls-4" d="M66.17,61.62a5.46,5.46,0,0,1-2.44-1.35l-.53,1.78a7.12,7.12,0,0,0,3,1.49c2.09.41,3.07-.75,3-2.19,0-1.15-.52-2.05-2.15-3.09-1.11-.69-1.55-1-1.56-1.56,0-.37.29-.67,1-.52a4.84,4.84,0,0,1,1.93,1.11l.48-1.77a5.79,5.79,0,0,0-2.44-1.17c-2-.4-3,.67-3,2,0,1.09.58,2.11,2.11,3.05,1.34.81,1.57,1.18,1.58,1.65s-.26.73-1,.59"/><polygon class="cls-4" points="53.21 50.96 54.28 51.04 54.28 48.13 55.78 48.23 55.78 47.27 51.7 46.98 51.7 47.95 53.21 48.05 53.21 50.96"/><polygon class="cls-4" points="48.59 55.92 47.57 55.82 48.59 56.77 48.59 61.33 54.16 61.66 54.16 59.85 50.66 59.57 50.65 57.68 52.61 57.86 53.6 56.35 50.66 56.09 50.66 54.36 54.16 54.57 54.16 52.72 48.59 52.43 48.59 55.92"/><polygon class="cls-4" points="45.55 47.8 47.05 47.82 47.05 50.73 48.12 50.75 48.12 47.84 49.62 47.87 49.62 46.91 45.55 46.83 45.55 47.8"/><path class="cls-4" d="M83.35,69a4.26,4.26,0,0,0,2.75.14l-.59-2A3.47,3.47,0,0,1,83.38,67a3.88,3.88,0,0,1-2.59-3.73c0-1.73,1-2.43,2.59-1.85a6.23,6.23,0,0,1,2,1.37l.61-1.6a7.5,7.5,0,0,0-2.67-1.78c-2.78-1-4.67.33-4.67,3.09A7.13,7.13,0,0,0,83.35,69"/><path class="cls-4" d="M62.3,56.55a3.16,3.16,0,0,0-2.72-3.26L55,52.79l1,1.05v8l2,.22V58.65l.94.14,1.57,3.54,2.29.39-1.86-4a2.12,2.12,0,0,0,1.48-2.17m-2.72.6h-.25l-1.45-.22v-2l1.39.21a1.2,1.2,0,0,1,1.08,1.19.76.76,0,0,1-.77.83"/><path class="cls-4" d="M42.34,50.73l1.19-.08-1.92-3.74-1.39.1-1.88,4,1.19-.09.31-.71L42,50.07Zm-2.1-1.37.68-1.5.69,1.4Z"/><polygon class="cls-4" points="73.25 65.27 75.27 65.81 75.27 62.02 77.28 62.56 78.28 61.21 75.27 60.4 75.27 58.45 78.75 59.38 78.75 57.39 73.25 55.92 73.25 59.87 72.24 59.59 73.25 60.72 73.25 65.27"/><path class="cls-4" d="M44.26,52.4c-2,0-4.23.17-4.23.17l.78.89v8s1.39,0,3.18-.07a3,3,0,0,0,2.83-3.19V55.25c0-2.32-1.32-2.78-2.56-2.85M45,58.14a1.22,1.22,0,0,1-1.44,1.34l-.86,0v-5.3c1.11.08,2.3-.35,2.3,1.48Z"/></g></g></svg>