<svg xmlns="http://www.w3.org/2000/svg" viewBox="0 0 100.25 125.81"><defs><style>.cls-1{fill:#1b459c;}.cls-2{fill:#fff;}.cls-3{fill:#c8202f;}.cls-4{fill:#a8aaad;}.cls-5{fill:#333;}.cls-6{fill:#c8c9c6;}.cls-7{fill:#97999a;}.cls-8{fill:#53565a;}.cls-9{fill:#75787b;}</style></defs><title>SJE</title><g id="Layer_2" data-name="Layer 2"><g id="Layer_1-2" data-name="Layer 1"><path d="M97.67,6.67a140,140,0,0,0-14-3.35c-5-1-10-1.72-15-2.28A169.52,169.52,0,0,0,50.18,0h-.1A169.84,169.84,0,0,0,31.61,1c-5,.56-10.07,1.32-15,2.28a140,140,0,0,0-14,3.35L0,7.47c0,4.5,0,56.46,0,57a70.25,70.25,0,0,0,.87,8.3,64.93,64.93,0,0,0,1.74,7.62,62,62,0,0,0,5.57,13.2,66.31,66.31,0,0,0,16,18.76,74.63,74.63,0,0,0,8.51,6,78.05,78.05,0,0,0,7.58,4.07,43.11,43.11,0,0,0,9.23,3.34l.58.07.58-.07a43.09,43.09,0,0,0,9.22-3.34,77.06,77.06,0,0,0,7.59-4.07,75.9,75.9,0,0,0,8.51-6,66.47,66.47,0,0,0,16-18.76,62,62,0,0,0,5.57-13.2,68,68,0,0,0,1.74-7.62,72.18,72.18,0,0,0,.87-8.3v-57Z"/><path class="cls-1" d="M13.9,89.64A58.8,58.8,0,0,0,28,106.22c10.51,8.63,20.77,11.73,22,11.9l.19,0,.19,0c1.18-.17,11.44-3.26,22-11.9A58.8,58.8,0,0,0,86.34,89.64,57.08,57.08,0,0,0,93.5,64.06c0-.62,0-51.19,0-51.19l-.67-.21a160.92,160.92,0,0,0-42.66-6h-.1a160.92,160.92,0,0,0-42.66,6l-.68.21s0,50.57,0,51.19A57.22,57.22,0,0,0,13.9,89.64ZM7.69,13.57A158.65,158.65,0,0,1,50.07,7.63h.1a158.65,158.65,0,0,1,42.38,5.94c0,1.07,0,49.41,0,50.44-1.35,28.4-20.71,43.05-32.84,49.31L49.41,94.67l-1.14-.07h0A20.76,20.76,0,0,1,31.63,64.44l.23-.43s.22-.42.31-.56l-13.23-24H17.85l13.23,24a21.51,21.51,0,0,0-2.7,10.46A21.77,21.77,0,0,0,48.82,95.6l10,18.16a41,41,0,0,1-8.68,3.41h-.11C47.39,116.79,9.59,104.09,7.69,64,7.64,63,7.69,14.64,7.69,13.57Z"/><polygon class="cls-1" points="79.73 39.48 69.52 39.48 74.42 49.14 79.73 39.48"/><path class="cls-1" d="M26.78,39.48,40,63.4a14.58,14.58,0,0,1,8.21-4l-10.78-20Z"/><polygon class="cls-1" points="63.72 68.58 63.74 68.61 69.08 58.88 58.99 39.48 48.27 39.48 62.17 65.66 63.72 68.58"/><path class="cls-1" d="M74.42,49.14l-5.34,9.74H87.47V49.14Z"/><path class="cls-1" d="M63.74,68.62a14.68,14.68,0,0,1,.32,9.74H84.81A51.69,51.69,0,0,0,87,68.62Z"/><path class="cls-1" d="M58.9,97.83H72.53a50.84,50.84,0,0,0,7.69-9.74H53.53Z"/><path class="cls-2" d="M26.68,109.15c11,9,22.2,12.12,23.4,12.3h.08c1.25-.19,12.4-3.34,23.4-12.29a60.34,60.34,0,0,0,22.79-45c0-.45,0-53.88,0-53.88A175.1,175.1,0,0,0,50.17,3.8h-.1A175,175,0,0,0,3.89,10.25s0,53.55,0,53.88A60.34,60.34,0,0,0,26.68,109.15ZM6.73,12.87l.68-.21a160.92,160.92,0,0,1,42.66-6h.1a160.92,160.92,0,0,1,42.66,6l.67.21s0,50.57,0,51.19a57.08,57.08,0,0,1-7.16,25.58,58.8,58.8,0,0,1-14.08,16.58,67.75,67.75,0,0,1-6.94,5l-12.69-23-.49.07a14.89,14.89,0,0,1-2,.15,14.55,14.55,0,0,1-11.07-24h0l.26-.31L25.69,39.48H22.54L36,63.88a17.3,17.3,0,0,0,14.1,27.34q.5,0,1,0L63,112.65a50.23,50.23,0,0,1-12.65,5.47l-.19,0-.19,0c-1.18-.17-11.44-3.27-21.95-11.9A58.8,58.8,0,0,1,13.9,89.64,57.22,57.22,0,0,1,6.73,64.06C6.71,63.44,6.73,12.87,6.73,12.87Z"/><path class="cls-2" d="M43,34h1.13v2.17a1,1,0,0,1-.23.72,1.22,1.22,0,0,1-.9.27H42.3v-.75h.25c.24,0,.39,0,.4-.32Z"/><path class="cls-2" d="M47.67,34.09a1.58,1.58,0,0,1,1,1.5,1.66,1.66,0,0,1-.23.86,1.49,1.49,0,0,1-.37.42,2.32,2.32,0,0,1-1.52.42,2,2,0,0,1-1.79-.71,1.52,1.52,0,0,1-.3-.95,1.67,1.67,0,0,1,.3-1,2.06,2.06,0,0,1,1.75-.74,3.11,3.11,0,0,1,1.18.19M45.61,35.6a.91.91,0,0,0,1,1A1.05,1.05,0,0,0,47,36.5a1,1,0,0,0,.47-.9.94.94,0,1,0-1.88,0"/><path class="cls-2" d="M50.11,34.83a.21.21,0,0,0,0,.12,1.41,1.41,0,0,0,.57.2l.65.14a3.11,3.11,0,0,1,.41.11.78.78,0,0,1,.55.76,1,1,0,0,1-.16.54c-.27.4-.8.58-1.65.58a2.09,2.09,0,0,1-1.32-.36,1,1,0,0,1-.33-.68l1.11,0c0,.21.25.36.7.36a.87.87,0,0,0,.39-.07.31.31,0,0,0,.16-.25A.27.27,0,0,0,51,36c-.14,0-.85-.17-1-.21a2.37,2.37,0,0,1-.36-.09.87.87,0,0,1-.63-.8.88.88,0,0,1,.26-.62,1.91,1.91,0,0,1,1.34-.41,3.31,3.31,0,0,1,1,.13.93.93,0,0,1,.7.8l-1.11.06c0-.11-.08-.29-.56-.29-.15,0-.49,0-.49.25"/><polygon class="cls-2" points="55.99 34.02 55.99 34.73 53.79 34.73 53.79 35.25 55.82 35.25 55.82 35.96 53.79 35.96 53.79 36.46 56.03 36.46 56.03 37.18 52.66 37.18 52.66 34.02 55.99 34.02"/><path class="cls-2" d="M30.44,34.83a.21.21,0,0,0,0,.12,1.41,1.41,0,0,0,.57.2l.65.14a3.11,3.11,0,0,1,.41.11.78.78,0,0,1,.55.76,1,1,0,0,1-.16.54c-.27.4-.8.58-1.65.58a2.09,2.09,0,0,1-1.32-.36,1.09,1.09,0,0,1-.34-.68l1.12,0c0,.21.25.36.7.36a.87.87,0,0,0,.39-.07.31.31,0,0,0,.16-.25.27.27,0,0,0-.21-.24c-.14,0-.85-.17-1-.21a2.37,2.37,0,0,1-.36-.09.87.87,0,0,1-.63-.8.88.88,0,0,1,.26-.62A1.91,1.91,0,0,1,31,33.88a3.31,3.31,0,0,1,1,.13.93.93,0,0,1,.7.8l-1.11.06c0-.11-.08-.29-.56-.29-.15,0-.5,0-.5.25"/><polygon class="cls-2" points="39.18 34.02 39.21 35.75 37.67 34.02 36.74 34.02 36.74 36.64 36.97 37.18 37.86 37.18 37.84 35.44 39.36 37.18 40.3 37.18 40.3 34.02 39.18 34.02"/><polygon class="cls-2" points="35.28 34.02 33.99 34.02 32.63 37.18 33.87 37.18 34.64 34.9 35.01 35.97 34.56 35.97 34.33 36.67 35.25 36.67 35.42 37.18 36.65 37.18 35.28 34.02"/><rect class="cls-2" x="12.77" y="35.12" width="14.2" height="0.95"/><path class="cls-2" d="M54.72,18.53h3.41V31.59H55.46l-.74-2.28Zm11.24,0H62l-3.8,6.27,4.1,6.79h4L62.15,24.8Z"/><polygon class="cls-2" points="50.98 31.59 50.43 29.92 46.62 29.92 47.51 27.2 49.54 27.2 48.03 22.56 45.08 31.59 41.61 31.59 45.91 18.53 50.17 18.53 54.47 31.59 50.98 31.59"/><path class="cls-2" d="M36.09,29a2.32,2.32,0,0,1-1.71-.63,2.56,2.56,0,0,1-.64-2V18.53H30.28V26c0,1.46.07,3,1.4,4.27a5.86,5.86,0,0,0,4.36,1.64,5.62,5.62,0,0,0,4.27-1.64c1.61-1.54,1.61-3.63,1.61-5.28V18.53H38.48v7.84a2.57,2.57,0,0,1-.66,2,2.53,2.53,0,0,1-1.73.61"/><path class="cls-2" d="M27.33,28.8a8.44,8.44,0,0,0,1.4-2.64,9.21,9.21,0,0,0,.42-2.73,8.28,8.28,0,0,0-.64-3.29,8.53,8.53,0,0,0-1.78-2.69,8.86,8.86,0,0,0-2.68-1.81,8.12,8.12,0,0,0-3.3-.68,8.24,8.24,0,0,0-3.3.66A8.42,8.42,0,0,0,13,20.14a8.78,8.78,0,0,0,0,6.58,8.35,8.35,0,0,0,4.49,4.48,8.08,8.08,0,0,0,3.3.67,8.55,8.55,0,0,0,1.89-.21A9.48,9.48,0,0,0,24.53,31l0,0,0,0,.36.57h4.15l-1.73-2.73ZM15.77,23.41a5,5,0,0,1,5-5,4.89,4.89,0,0,1,2.78.86l.09.06.11.08a5,5,0,0,1,2,4,5.08,5.08,0,0,1-.6,2.4H21.23L22.62,28l0,.05,0,0-.14.06h0l-.15.06-.09,0-.13,0-.11,0-.12,0-.12,0-.14,0-.09,0-.19,0h-.06l-.51,0h-.25A5,5,0,0,1,15.77,23.41Z"/><path class="cls-2" d="M82.51,23.33c-1.06-.2-1.75-.42-1.75-1.13s.54-1,1.48-1a5.26,5.26,0,0,1,2.28.5,2.7,2.7,0,0,1,.9.8l2.22-2A5.51,5.51,0,0,0,86,19.15a7.71,7.71,0,0,0-3.6-.82c-2.42,0-4.21,1-4.89,2.61a4.24,4.24,0,0,0-.33,1.63c0,2.5,1.83,3.33,3.2,3.71.17,0,.56.13,1,.22.83.17,1.86.39,2.14.5a1,1,0,0,1,.74.92c0,1-1.47,1.08-1.92,1.08a5.24,5.24,0,0,1-1.73-.3A3.08,3.08,0,0,1,79.43,28a3.27,3.27,0,0,1-.43-.5l-.08-.11a.84.84,0,0,1-.08-.14L76.4,28.87h-6v-2.7h4.65V23.45H70.41V21.26H76V18.53H67V31.59h9.53V29.65a5.84,5.84,0,0,0,2.88,1.91,9.09,9.09,0,0,0,2.77.39,5.9,5.9,0,0,0,4.54-1.64,4.14,4.14,0,0,0,1-2.86C87.77,24.3,85.09,23.81,82.51,23.33Z"/><rect class="cls-3" x="73.02" y="35.12" width="14.45" height="0.95"/><path class="cls-3" d="M58.17,34.48a1.8,1.8,0,0,0,1-.41H60v3H58.9v-2h-.73Z"/><path class="cls-3" d="M62,36.09c-.75,0-1.37-.29-1.37-1a1,1,0,0,1,.61-.9A3.44,3.44,0,0,1,62.44,34c1.06,0,1.75.43,1.75,1.5a1.61,1.61,0,0,1-.59,1.33,2.15,2.15,0,0,1-1.33.34,2.84,2.84,0,0,1-.87-.12,1,1,0,0,1-.73-.72l1.17,0a.54.54,0,0,0,.46.19.8.8,0,0,0,.52-.15.86.86,0,0,0,.27-.63,1.43,1.43,0,0,1-1.05.35m-.29-1c0,.37.5.37.62.37.45,0,.68-.12.68-.36s-.25-.4-.7-.39c-.24,0-.6.06-.6.38"/><path class="cls-3" d="M69.38,34.15h1.21v1.77h.53v.71h-.54v.55h-1v-.55h-2V36Zm.2.8-1,1h1Z"/><path class="cls-3" d="M67.88,34.73C66,36,66,37.18,66,37.18h-1.2a3.09,3.09,0,0,1,2-2.45H64.53V34h3.35Z"/><path class="cls-4" d="M39.05,76.18a16.66,16.66,0,0,1-1.55-5,4.78,4.78,0,0,1-.89.1,14,14,0,0,0-.25,2.67,13.68,13.68,0,0,0,2.27,7.58l.5-.23A9.46,9.46,0,0,1,39.05,76.18Z"/><path class="cls-5" d="M39.33,81.73l-.48.1a13.77,13.77,0,0,0,5.57,4.63,8.84,8.84,0,0,1-.68-1.67A12.61,12.61,0,0,1,39.33,81.73Z"/><path class="cls-2" d="M50,60.17l-.5,2.31A14.21,14.21,0,0,0,45.79,65a45.74,45.74,0,0,0-5,.45A5.58,5.58,0,0,1,40.57,64,13.65,13.65,0,0,1,50,60.17Zm.34,0,.5,2.31A14.21,14.21,0,0,1,54.45,65a45.8,45.8,0,0,1,5,.45A5.71,5.71,0,0,0,59.67,64,13.67,13.67,0,0,0,50.29,60.17Z"/><path class="cls-6" d="M56.09,75.86a37.93,37.93,0,0,1-2.7,5.47,18.29,18.29,0,0,1-3.41.33,14.66,14.66,0,0,1-3.13-.33,38.85,38.85,0,0,1-2.71-5.47A31.47,31.47,0,0,1,48,71.11h4.23A30.25,30.25,0,0,1,56.09,75.86Zm-10.86-9.6a28.06,28.06,0,0,0-4.46-.43,24.11,24.11,0,0,0-3,5.09,15.86,15.86,0,0,0,1.68,4.77c.74.07,1.52.1,2.31.1,1.07,0,1.85-.06,2.13-.08A43.87,43.87,0,0,1,46.6,70Zm14.25-.43a28.06,28.06,0,0,0-4.47.43L53.63,70a42.51,42.51,0,0,1,2.7,5.69c.29,0,1.07.08,2.13.08h0c.8,0,1.57,0,2.32-.1a15.56,15.56,0,0,0,1.68-4.78A23.69,23.69,0,0,0,59.48,65.83Z"/><path class="cls-7" d="M39.13,81.28l-.5.23a13.68,13.68,0,0,1-2.27-7.58,14,14,0,0,1,.25-2.67,4.78,4.78,0,0,0,.89-.1,16.66,16.66,0,0,0,1.55,5A9.46,9.46,0,0,0,39.13,81.28Zm22,0,.5.23a13.76,13.76,0,0,0,2.27-7.58,14,14,0,0,0-.26-2.67,5,5,0,0,1-.89-.1,16.26,16.26,0,0,1-1.54,5A9.68,9.68,0,0,1,61.11,81.28Z"/><path class="cls-8" d="M43.74,84.79a8.84,8.84,0,0,0,.68,1.67,13.77,13.77,0,0,1-5.57-4.63l.48-.1A12.61,12.61,0,0,0,43.74,84.79Zm12.76,0a8.84,8.84,0,0,1-.68,1.67,13.77,13.77,0,0,0,5.57-4.63l-.48-.1A12.53,12.53,0,0,1,56.5,84.79Z"/><path class="cls-9" d="M55.8,84.53c-.2-.2-.5-.5-.82-.84a14.23,14.23,0,0,1-1.5-1.88,14.23,14.23,0,0,1-6.73,0,21.51,21.51,0,0,1-2.45,2.87,8.27,8.27,0,0,0,.45,1.87l0,.08a13.82,13.82,0,0,0,10.59,0,8.63,8.63,0,0,0,.51-2.05Z"/></g></g></svg>