<?xml version="1.0" encoding="iso-8859-1"?>
<!-- Generator: Adobe Illustrator 22.1.0, SVG Export Plug-In . SVG Version: 6.00 Build 0)  -->
<!DOCTYPE svg PUBLIC "-//W3C//DTD SVG 1.1//EN" "http://www.w3.org/Graphics/SVG/1.1/DTD/svg11.dtd">
<svg version="1.1" xmlns="http://www.w3.org/2000/svg" xmlns:xlink="http://www.w3.org/1999/xlink" x="0px" y="0px"
	 viewBox="0 0 1224 792" style="enable-background:new 0 0 1224 792;" xml:space="preserve">
<g id="Black">
	<path d="M708.503,662.382h-3.755v9.243h-2.372v-9.227h-3.786v-2.372h9.913V662.382z M721.059,671.625h-2.372v-7.403l-3.268,4.762
		l-3.286-4.762v7.403h-2.372v-11.599h2.357l3.284,4.763l3.315-4.763h2.342V671.625z"/>
	<path d="M819.894,151.01c-0.966-0.303-24.063-7.457-61.145-14.627c-21.706-4.195-43.839-7.546-65.784-9.962
		c-27.424-3.013-54.589-4.55-80.74-4.568h-0.44c-26.15,0.018-53.316,1.555-80.741,4.568c-21.943,2.415-44.076,5.765-65.784,9.962
		c-37.08,7.17-60.174,14.323-61.139,14.624l-11.314,3.528c-0.002,19.652-0.024,246.894,0.022,249.211
		c0.58,12.292,1.869,24.513,3.829,36.288c1.892,11.347,4.446,22.556,7.593,33.313c5.898,20.179,14.094,39.601,24.366,57.728
		c17.43,30.772,41.032,58.374,70.151,82.041c11.625,9.446,24.138,18.259,37.191,26.195c10.773,6.554,21.932,12.526,33.168,17.754
		c18.085,8.412,33.983,13.727,40.339,14.628l2.555,0.327l2.519-0.327c6.347-0.901,22.253-6.217,40.336-14.628
		c11.262-5.24,22.423-11.214,33.172-17.754c13.077-7.954,25.59-16.768,37.19-26.195c29.114-23.664,52.718-51.267,70.147-82.041
		c10.27-18.118,18.468-37.54,24.369-57.728c3.156-10.794,5.71-22.002,7.595-33.314c1.957-11.766,3.248-23.985,3.83-36.317
		l0.001-12.459V154.53L819.894,151.01z"/>
</g>
<g id="Blue">
	<g>
		<path style="fill:#003DA6;" d="M453.592,513.854c15.274,27.088,35.984,51.475,61.552,72.477
			c45.97,37.756,90.808,51.303,95.985,52.032l0.83,0.14l0.827-0.14c5.176-0.729,50.018-14.266,95.996-52.032
			c25.569-21.002,46.278-45.389,61.553-72.477c18.863-33.466,29.405-71.109,31.337-111.892c0.13-2.701,0.007-223.846,0.007-223.846
			l-2.942-0.915c-0.836-0.261-84.722-26.086-186.577-26.155l0,0h-0.197h-0.2c-101.854,0.069-185.738,25.895-186.574,26.155
			l-2.938,0.915c0,0-0.127,221.145,0.003,223.852C424.184,442.744,434.726,480.388,453.592,513.854z M426.438,181.196
			c0,0,82.933-25.894,185.324-25.963h0.2h0.197c102.391,0.069,185.33,25.963,185.33,25.963c0,4.686,0.216,216.056,0,220.567
			c-5.875,124.182-90.559,188.247-143.594,215.639l-45.047-81.584c-1.664-0.056-3.312-0.153-4.95-0.294l0.007,0.012
			c-46.401-4.074-82.804-43.025-82.804-90.486c0-14.912,3.62-28.977,9.994-41.392c0.331-0.64,0.67-1.278,1.014-1.911
			c0.088-0.163,0.992-1.796,1.371-2.439l-57.867-104.81h-4.782l57.859,104.8c-7.495,13.58-11.772,29.174-11.772,45.751
			c0,50.507,39.606,91.895,89.385,94.831l43.85,79.418c-19.946,9.942-34.745,14.465-37.959,14.919l-0.236,0.035l-0.238-0.035
			c-11.696-1.663-176.994-57.18-185.281-232.454C426.218,397.252,426.438,185.881,426.438,181.196z"/>
		<g>
			<polygon style="fill:#003DA6;" points="741.424,294.498 696.81,294.498 718.244,336.747 			"/>
			<path style="fill:#003DA6;" d="M509.895,294.498l57.723,104.61c9.587-9.236,22.043-15.498,35.907-17.325l-47.127-87.286H509.895z
				"/>
			<polygon style="fill:#003DA6;" points="671.455,421.772 671.528,421.902 694.885,379.324 650.748,294.498 603.875,294.498 
				664.664,408.981 			"/>
			<path style="fill:#003DA6;" d="M718.239,336.763l-23.356,42.581h80.391c0.014-9.693,0.019-23.388,0.016-42.581H718.239z"/>
			<path style="fill:#003DA6;" d="M671.517,421.924c2.814,7.203,4.372,15.029,4.372,23.223c0,6.748-1.052,13.247-2.99,19.355h90.762
				c4.539-13.583,7.768-27.785,9.707-42.582H671.519L671.517,421.924z"/>
		</g>
		<path style="fill:#003DA6;" d="M650.353,549.648h59.619c13.195-13.175,24.419-27.376,33.631-42.578H626.859L650.353,549.648z"/>
	</g>
</g>
<g id="White">
	<path style="fill:#FFFFFF;" d="M509.449,599.172c48.231,39.2,97.083,52.987,102.337,53.736l0.175,0.021l0.176-0.024
		c5.477-0.824,54.233-14.641,102.335-53.733c42.841-34.825,94.912-97.25,99.624-196.888c0.095-1.98,0-235.616,0-235.616
		c-7.104-2.144-95.411-28.138-201.919-28.208h-0.431c-106.505,0.07-194.811,26.065-201.921,28.208c0,0-0.067,234.181,0,235.616
		C414.535,501.922,466.602,564.347,509.449,599.172z M422.25,178.116l2.938-0.915c0.835-0.261,84.72-26.086,186.574-26.155h0.2
		h0.197l0,0c101.855,0.069,185.741,25.895,186.577,26.155l2.942,0.915c0,0,0.123,221.145-0.007,223.846
		c-1.932,40.782-12.474,78.426-31.337,111.892c-15.275,27.088-35.983,51.475-61.553,72.477
		c-10.32,8.477-20.577,15.728-30.347,21.891L622.93,507.75c-0.699,0.123-1.408,0.228-2.116,0.33
		c-2.895,0.397-5.85,0.627-8.865,0.627c-35.154,0-63.653-28.501-63.653-63.658c0-15.771,5.748-30.189,15.245-41.31l-0.007-0.009
		c0.39-0.456,0.771-0.921,1.173-1.366l-59.582-107.865H491.38l58.942,106.7c-8.843,12.378-14.062,27.512-14.062,43.851
		c0,41.736,33.958,75.689,75.688,75.689c1.458,0,2.902-0.047,4.336-0.128l51.84,93.836c-28.979,16.712-51.742,23.408-55.338,23.917
		l-0.827,0.14l-0.83-0.14c-5.177-0.729-50.016-14.276-95.985-52.032c-25.567-21.002-46.278-45.389-61.552-72.477
		c-18.867-33.466-29.409-71.109-31.339-111.886C422.123,399.261,422.25,178.116,422.25,178.116z"/>
	<g>
		<path style="fill:#FFFFFF;" d="M580.605,270.609h4.954v9.485c-0.015,0.9-0.033,2.153-1.033,3.173
			c-1.061,1.08-2.531,1.136-3.92,1.174h-2.841v-3.271h1.119c1.056-0.037,1.667-0.077,1.722-1.43V270.609z"/>
		<path style="fill:#FFFFFF;" d="M601.248,270.906c3.175,1.291,4.292,4.192,4.292,6.564c0,1.291-0.31,2.624-1,3.758
			c-0.432,0.725-0.975,1.355-1.644,1.863c-1.879,1.49-4.113,1.841-6.621,1.841c-4.821,0-6.8-1.705-7.816-3.093
			c-0.943-1.257-1.316-2.59-1.316-4.176c0-1.547,0.393-3.079,1.275-4.33c1.938-2.742,5.229-3.192,7.681-3.233
			C597.822,270.085,599.66,270.259,601.248,270.906 M592.239,277.508c0,2.136,1.152,4.348,4.149,4.348c0.688,0,1.392-0.077,2-0.391
			c1.529-0.766,2.058-2.566,2.058-3.957c0-1.508-0.667-4.293-4.058-4.33C593.275,273.136,592.239,275.608,592.239,277.508"/>
		<path style="fill:#FFFFFF;" d="M611.9,274.176c0,0.197,0.055,0.373,0.153,0.492c0.337,0.43,1.725,0.744,2.492,0.902
			c0.941,0.212,1.903,0.391,2.842,0.607c0.607,0.112,1.193,0.257,1.781,0.49c1.843,0.684,2.431,2.057,2.431,3.31
			c0,0.919-0.316,1.764-0.727,2.37c-1.152,1.745-3.484,2.507-7.207,2.507c-1.391,0-4.156-0.118-5.782-1.566
			c-1.192-1.059-1.373-2.333-1.448-2.958l4.876-0.139c0.174,0.902,1.099,1.591,3.058,1.591c0.511,0,1.234-0.062,1.723-0.333
			c0.334-0.199,0.691-0.588,0.691-1.062c0-0.644-0.534-0.92-0.924-1.057c-0.605-0.195-3.722-0.744-4.41-0.902
			c-0.545-0.114-1.06-0.251-1.585-0.43c-0.53-0.192-2.743-0.981-2.743-3.505c0-1.04,0.431-1.997,1.116-2.705
			c1.546-1.607,4.33-1.762,5.854-1.762c1.69,0,3.356,0.234,4.214,0.529c2.591,0.818,2.923,2.76,3.058,3.504l-4.853,0.275
			c-0.124-0.452-0.356-1.274-2.431-1.274C613.426,273.06,611.9,273.159,611.9,274.176"/>
		<polygon style="fill:#FFFFFF;" points="637.634,270.609 637.634,273.727 628.015,273.727 628.015,275.979 636.906,275.979 
			636.906,279.114 627.994,279.114 627.994,281.309 637.83,281.309 637.83,284.441 623.06,284.441 623.06,270.609 		"/>
		<path style="fill:#FFFFFF;" d="M525.928,274.176c0,0.197,0.06,0.373,0.158,0.492c0.333,0.43,1.726,0.744,2.49,0.902
			c0.94,0.212,1.899,0.391,2.839,0.607c0.61,0.112,1.194,0.257,1.782,0.49c1.843,0.684,2.433,2.057,2.433,3.31
			c0,0.919-0.316,1.764-0.726,2.37c-1.158,1.745-3.488,2.507-7.21,2.507c-1.389,0-4.15-0.118-5.781-1.566
			c-1.192-1.059-1.37-2.333-1.446-2.958l4.877-0.139c0.177,0.902,1.099,1.591,3.057,1.591c0.512,0,1.232-0.062,1.722-0.333
			c0.334-0.199,0.689-0.588,0.689-1.062c0-0.644-0.531-0.92-0.92-1.057c-0.61-0.195-3.725-0.744-4.414-0.902
			c-0.545-0.114-1.056-0.251-1.588-0.43c-0.521-0.192-2.74-0.981-2.74-3.505c0-1.04,0.433-1.997,1.122-2.705
			c1.543-1.607,4.327-1.762,5.855-1.762c1.68,0,3.35,0.234,4.21,0.529c2.588,0.818,2.923,2.76,3.058,3.504l-4.858,0.275
			c-0.116-0.452-0.354-1.274-2.429-1.274C527.454,273.06,525.928,273.159,525.928,274.176"/>
		<polygon style="fill:#FFFFFF;" points="564.141,270.609 564.241,278.175 557.542,270.609 553.445,270.609 553.445,282.083 
			554.47,284.441 558.342,284.441 558.264,276.821 564.903,284.441 569.02,284.441 569.02,270.609 		"/>
		<polygon style="fill:#FFFFFF;" points="547.069,270.609 541.424,270.609 535.472,284.441 540.897,284.441 544.263,274.449 
			545.894,279.135 543.944,279.135 542.916,282.191 546.935,282.191 547.676,284.441 553.064,284.441 		"/>
		<rect x="448.655" y="275.409" style="fill:#FFFFFF;" width="62.122" height="4.168"/>
	</g>
	<g>
		<g>
			<g>
				<path style="fill:#FFFFFF;" d="M632.092,202.861h14.909v57.135h-11.672l-3.237-9.962V202.861z M681.205,202.861h-17.429
					l-16.613,27.465L665.113,260h17.428l-17.948-29.673L681.205,202.861z"/>
			</g>
		</g>
		<polygon style="fill:#FFFFFF;" points="615.739,259.988 613.342,252.702 596.638,252.702 600.555,240.786 609.418,240.786 
			602.831,220.522 589.921,259.988 574.773,259.988 593.558,202.898 612.182,202.898 630.974,259.988 		"/>
		<path style="fill:#FFFFFF;" d="M550.625,248.681c-3.11,0-5.772-0.986-7.486-2.777c-2.781-2.711-2.781-6.197-2.781-8.75v-34.255
			h-15.129v32.351l0.003,0.25c0.169,6.404,0.342,13.033,6.138,18.675c5.174,4.961,11.062,7.175,19.076,7.175
			c9.106,0,14.086-2.873,18.661-7.189c7.036-6.697,7.036-15.84,7.036-23.061v-28.202h-15.077v34.255c0,2.553,0,6.05-2.903,8.854
			C557.089,247.007,554.605,248.681,550.625,248.681"/>
		<g>
			<g>
				<path style="fill:#FFFFFF;" d="M512.305,247.808c2.878-3.71,4.844-7.563,6.112-11.564c1.296-4.103,1.867-8.087,1.867-11.949
					c0-5.074-0.887-9.856-2.821-14.355c-1.937-4.506-4.451-8.421-7.789-11.759c-3.343-3.329-7.247-5.98-11.726-7.95
					c-4.47-1.965-9.278-2.953-14.422-2.953c-5.143,0-9.951,0.969-14.423,2.905c-4.474,1.927-8.396,4.581-11.773,7.949
					c-3.371,3.369-5.9,7.302-7.838,11.808c-1.936,4.499-2.822,9.281-2.822,14.355c0,5.132,0.886,9.934,2.822,14.401
					c1.938,4.47,4.467,8.371,7.838,11.702c3.376,3.338,7.299,5.969,11.773,7.906c4.473,1.935,9.28,2.902,14.423,2.902
					c2.804,0,5.561-0.301,8.263-0.904c2.708-0.599,5.46-1.565,8.268-2.898l0.125-0.098l0.087,0.147l1.572,2.492h18.163
					l-7.556-11.911L512.305,247.808z M461.772,224.242c0-12.097,9.605-21.907,21.707-21.907c4.536,0,8.721,1.378,12.181,3.741
					c0.131,0.089,0.258,0.185,0.385,0.276c0.156,0.109,0.309,0.217,0.46,0.33c5.285,3.996,8.67,10.371,8.67,17.553
					c0,3.797-0.945,7.366-2.617,10.479h-16.931l6.093,9.443l0.156,0.237l-0.137,0.119c-0.202,0.083-0.403,0.165-0.608,0.242
					c-0.074,0.027-0.146,0.057-0.219,0.082c-0.218,0.08-0.436,0.152-0.656,0.225c-0.128,0.042-0.253,0.085-0.381,0.123
					c-0.185,0.059-0.373,0.109-0.561,0.162c-0.157,0.044-0.312,0.089-0.471,0.13c-0.182,0.045-0.366,0.086-0.549,0.127
					c-0.164,0.037-0.324,0.077-0.49,0.11c-0.209,0.042-0.418,0.078-0.629,0.112c-0.14,0.024-0.278,0.052-0.42,0.074
					c-0.275,0.04-0.552,0.074-0.83,0.105c-0.08,0.009-0.157,0.022-0.237,0.03c-0.729,0.073-1.471,0.112-2.222,0.112
					c-0.375,0-0.747-0.01-1.118-0.028C470.784,245.53,461.772,235.965,461.772,224.242z"/>
			</g>
		</g>
		<path style="fill:#FFFFFF;" d="M753.59,223.872c-4.613-0.886-7.636-1.823-7.636-4.95c0-2.646,2.353-4.167,6.456-4.167
			c1.396,0,6.243,0.155,10.001,2.154c2.114,1.171,3.1,2.464,3.896,3.528l9.705-8.866c-1.778-1.989-3.653-4.033-7.297-5.97
			c-4.349-2.341-9.777-3.575-15.709-3.575c-10.619,0-18.423,4.152-21.404,11.396c-0.928,2.164-1.439,4.692-1.439,7.124
			c0,10.939,7.99,14.561,14.002,16.243c0.742,0.192,2.438,0.544,4.402,0.957c3.626,0.758,8.139,1.703,9.374,2.191
			c2.814,0.989,3.229,2.932,3.229,3.998c0,4.396-6.425,4.737-8.396,4.737c-2.56,0-5.315-0.482-7.56-1.317
			c-2.425-0.854-3.974-1.908-5.094-3.018c-0.714-0.71-1.328-1.434-1.878-2.165c-0.046-0.066-0.162-0.237-0.325-0.49
			c-0.215-0.333-0.391-0.644-0.391-0.644l-10.645,7.034h-26.206v-11.767h20.356v-11.924h-20.356v-9.559h24.428v-11.925h-39.32
			v57.092h41.646v-8.474c2.438,2.879,6.195,6.381,12.622,8.362c3.591,1.132,7.557,1.68,12.124,1.68
			c8.835,0,15.508-2.417,19.833-7.19c2.092-2.298,4.585-6.327,4.585-12.46C776.594,228.111,764.898,225.957,753.59,223.872z"/>
	</g>
</g>
<g id="Red">
	<g>
		<g>
			<rect x="712.119" y="275.409" style="fill:#CE0E2D;" width="63.17" height="4.168"/>
			<path style="fill:#CE0E2D;" d="M647.154,272.638c2.323-0.256,3.39-1.046,4.371-1.792h3.46v13.339h-4.603v-8.712h-3.229V272.638z"
				/>
			<path style="fill:#CE0E2D;" d="M664.061,279.68c-3.245,0-5.964-1.28-5.964-4.306c0-1.301,0.611-2.955,2.678-3.898
				c1.83-0.826,4.561-0.866,5.075-0.866c4.626,0,7.617,1.909,7.617,6.573c0,1.475-0.278,4.092-2.559,5.821
				c-1.732,1.298-3.874,1.477-5.819,1.477c-1.088,0-2.447-0.078-3.82-0.51c-2.129-0.671-2.833-1.832-3.186-3.148l5.153-0.122
				c0.314,0.377,0.724,0.869,1.987,0.869c0.809,0,1.631-0.175,2.259-0.689c1.066-0.867,1.164-2.165,1.182-2.733
				C667.975,278.736,666.917,279.68,664.061,279.68 M662.821,275.176c0,1.611,2.164,1.632,2.734,1.632
				c1.948,0,2.952-0.531,2.952-1.615c0-1.297-1.104-1.73-3.087-1.671C664.377,273.561,662.821,273.758,662.821,275.176"/>
			<path style="fill:#CE0E2D;" d="M696.181,271.18h5.311v7.736h2.311v3.117h-2.352v2.408h-4.408v-2.408h-8.7v-2.9L696.181,271.18z
				 M697.059,274.686l-4.188,4.23h4.188V274.686z"/>
			<path style="fill:#CE0E2D;" d="M689.616,273.727c-8.413,5.578-8.128,10.714-8.128,10.714h-5.25c0,0,0.352-6.952,8.817-10.714
				h-10.073v-3.117h14.634V273.727z"/>
		</g>
	</g>
</g>
<g id="Ball">
	<path style="fill:#FFFFFF;" d="M611.212,384.98l-2.184,10.098c-9.365,4.383-16.012,11.202-16.012,11.202
		c-5.396,0.186-13.485,0.679-21.754,1.973c-0.857-2.702-1.038-5.408-1.072-6.423C581.279,391.13,595.819,385.165,611.212,384.98z
		 M612.694,384.98l2.181,10.098c9.37,4.383,16.013,11.202,16.013,11.202c5.398,0.186,13.488,0.679,21.756,1.973
		c0.858-2.702,1.039-5.408,1.075-6.423C642.63,391.13,628.087,385.165,612.694,384.98z"/>
	<path style="fill:#C8C8C8;" d="M638.088,453.592c-2.809,8.297-10.136,20.979-11.839,23.881c-1.593,0.336-7.492,1.444-14.886,1.444
		c-4.9,0-9.506-0.483-13.701-1.439c-1.698-2.893-9.023-15.587-11.837-23.886c2.692-4.032,9.468-13.711,16.886-20.78h18.492
		C628.618,439.881,635.393,449.56,638.088,453.592z M590.566,411.577c-7.5-1.434-15.333-1.781-19.483-1.854
		c-7.048,8.799-11.889,19.519-13.064,22.251c1.591,10.131,6.369,19.213,7.316,20.874c3.269,0.289,6.668,0.438,10.124,0.438
		c4.663,0,8.066-0.265,9.319-0.377c4.561-11.953,10.428-22.46,11.801-24.872L590.566,411.577z M652.871,409.723
		c-4.163,0.074-12.02,0.42-19.539,1.862l-6.004,16.441c1.373,2.411,7.244,12.927,11.804,24.883c1.251,0.112,4.656,0.377,9.321,0.377
		h0.001c3.456,0,6.864-0.149,10.142-0.441c0.95-1.668,5.731-10.765,7.324-20.908C664.726,429.143,659.952,418.511,652.871,409.723z"
		/>
	<path style="fill:#98989A;" d="M563.918,477.275l-2.206,0.989c-6.494-9.835-9.93-21.279-9.93-33.116
		c0-3.935,0.38-7.864,1.131-11.696c0.713-0.012,2.115-0.094,3.888-0.439c0.41,3.032,2.028,12.872,6.739,21.978
		C562.511,458.425,561.042,466.23,563.918,477.275z M659.998,477.275l2.201,0.989c6.498-9.835,9.934-21.279,9.934-33.116
		c0-3.935-0.38-7.864-1.135-11.696c-0.713-0.012-2.114-0.094-3.887-0.439c-0.407,3.032-2.027,12.872-6.736,21.978
		C661.402,458.425,662.87,466.23,659.998,477.275z"/>
	<path style="fill:#54565A;" d="M584.075,492.607c1.498,4.553,2.546,6.598,2.969,7.32c-9.78-4.454-18.144-11.41-24.341-20.237
		l2.093-0.456C569.885,486.002,580.671,491.107,584.075,492.607z M639.855,492.607c-1.496,4.553-2.542,6.598-2.965,7.32
		c9.779-4.454,18.143-11.41,24.341-20.237l-2.091-0.456C654.051,486.002,643.264,491.107,639.855,492.607z"/>
	<path style="fill:#76777A;" d="M636.801,491.479c-0.853-0.845-2.171-2.173-3.587-3.686c-2.986-3.186-5.186-6.075-6.551-8.186
		c-14.541,3.489-26.508,0.747-29.415-0.05c-2.809,4.359-8.501,10.33-10.746,12.522c0.191,1.408,0.799,5.354,1.968,8.213
		c0.056,0.118,0.103,0.227,0.159,0.342c7.393,3.109,15.236,4.687,23.326,4.687c7.954,0,15.676-1.527,22.974-4.543
		c1.387-3.069,2.061-7.797,2.21-8.96C637.033,491.712,636.929,491.607,636.801,491.479z"/>
</g>
</svg>
