<?xml version="1.0" encoding="iso-8859-1"?>
<!-- Generator: Adobe Illustrator 22.1.0, SVG Export Plug-In . SVG Version: 6.00 Build 0)  -->
<!DOCTYPE svg PUBLIC "-//W3C//DTD SVG 1.1//EN" "http://www.w3.org/Graphics/SVG/1.1/DTD/svg11.dtd">
<svg version="1.1" id="Layer_1" xmlns="http://www.w3.org/2000/svg" xmlns:xlink="http://www.w3.org/1999/xlink" x="0px" y="0px"
	 viewBox="0 0 113.334 143.333" style="enable-background:new 0 0 113.334 143.333;" xml:space="preserve">
<g>
	<g>
		<path style="fill:#9FA1A4;" d="M94.38,33.05c-0.002-0.006-0.024-0.027-0.035-0.032C83.283,26.627,70.351,22.982,56.672,22.98v0
			c-0.001,0-0.01,0-0.014,0c0,0,0,0,0,0s-0.003,0-0.006,0c-0.002,0-0.005,0-0.005,0l-0.002,0
			c-13.673,0.001-26.547,3.544-37.608,9.931c-0.013,0.006-0.051,0.052-0.058,0.067c-4.542,11.156-8.305,29.51-2.529,45.715
			c5.071,14.237,13.579,23.646,23.148,30.659c9.569,7.015,16.688,10.332,16.764,10.369c0,0,0.237,0.106,0.296,0.106
			s0.297-0.106,0.297-0.106c0.077-0.037,7.194-3.354,16.763-10.369c9.571-7.014,18.078-16.422,23.148-30.659
			C102.646,62.475,98.927,44.204,94.38,33.05z"/>
		<path style="fill:#FFFFFF;" d="M55.823,117.379c-0.57-0.253-14.113-6.293-25.398-18.671C19.889,87.148,9.548,67.765,20.123,41.066
			l0.229-0.578l0.518-0.344c0.604-0.4,15.038-9.822,35.75-9.822c20.715,0,35.147,9.422,35.752,9.822l0.516,0.344l0.23,0.578
			c10.573,26.699,0.234,46.082-10.303,57.642c-11.284,12.378-24.826,18.418-25.397,18.671l-0.798,0.35L55.823,117.379z"/>
		<path style="fill:#002B5C;" d="M91.304,41.865c-0.011-0.023-0.05-0.083-0.091-0.11c-1.035-0.669-15.013-9.451-34.593-9.451
			c-19.643,0-33.648,8.84-34.603,9.458c-0.034,0.022-0.068,0.076-0.076,0.095c-19.673,49.804,34.679,73.706,34.679,73.706
			S110.968,91.664,91.304,41.865z"/>
		<g>
			<g>
				<path style="fill:none;" d="M69.113,71.547l-0.026,0.11c-0.016,0.05-0.022,0.099-0.033,0.147
					c0.002-0.01,0.007-0.025,0.017-0.043C69.104,71.681,69.117,71.61,69.113,71.547z"/>
				<polygon style="fill:none;" points="78.053,83.052 78.053,83.053 78.053,83.053 				"/>
				<path style="fill:#FFFFFF;" d="M72.964,64.075c-0.168,0.051-0.051,0.226,0.033,0.329c0.149,0.176,1.058,1.29,1.203,1.437
					c0.126,0.125,0.146,0.229,0.388,0.2c0.256-0.075,0.502-0.14,0.737-0.185c0.379-0.065,0.775-0.105,1.171-0.126
					c0.081-0.001,0.153-0.003,0.215-0.006c1.271-0.036,2.182,0.161,2.197,0.165c2.645,0.442,2.889,2.641,2.897,2.725l0.002,0.068
					c0.019,0.504,0.058,1.551-1.05,2.405c-0.049,0.035-0.066,0.094-0.05,0.151c0.014,0.055,0.062,0.095,0.12,0.1
					c0.425,0.045,0.864,0.066,1.309,0.066c0.121,0,0.241-0.001,0.366-0.003c1.042-0.026,1.837-0.269,2.365-0.725
					c0.538-0.461,0.798-1.143,0.777-2.016c0-0.034-0.009-3.183-4.55-4.629c-1.384-0.441-2.853-0.534-3.841-0.534
					c-0.776,0-1.287,0.056-1.3,0.058c-0.027,0-0.683,0.035-1.691,0.229C73.784,63.868,73.42,63.955,72.964,64.075z"/>
				<path style="fill:#FFFFFF;" d="M85.979,84.862c-0.049-0.038-0.118-0.043-0.168-0.007c-1.43,0.968-3.133,1.459-5.069,1.459
					c-1.146,0-2.321-0.175-3.492-0.516c-0.275-0.078-0.497-0.156-0.71-0.239c-0.352-0.13-0.68-0.274-1.005-0.44
					c-0.61-0.306-1.208-0.683-1.778-1.115c-0.218-0.167-0.424-0.34-0.621-0.511c-2.378-2.095-3.319-4.622-3.33-4.65
					c-0.647-1.616-1.046-2.994-1.025-4.889c0.011-0.717,0.103-1.438,0.271-2.143c0.001-0.001,0.001-0.003,0.003-0.007
					c0.011-0.048,0.041-0.231,0.041-0.231c0.023-0.097-0.023-0.169-0.083-0.236c-0.147-0.161-2.239-2.712-2.37-2.845
					c-0.111-0.11-0.188-0.31-0.343-0.27c-0.525,0.707-0.861,1.357-1.088,1.847c-0.045,0.096-0.091,0.197-0.133,0.293
					c-0.022,0.052-0.046,0.101-0.066,0.151c-0.003,0.008-0.005,0.016-0.008,0.025c-0.605,1.48-0.892,3.171-0.842,5.026
					c0,0.053,0.211,5.248,4.017,8.8c1.026,0.958,2.158,1.76,3.362,2.388c0.231,0.121,0.461,0.23,0.691,0.335
					c0.944,0.434,1.936,0.764,2.95,0.979c0.299,0.064,0.58,0.115,0.824,0.151c0.652,0.1,1.293,0.15,1.901,0.15
					c0.536,0,0.841-0.04,0.841-0.04c4.695-0.17,6.778-2.154,7.27-3.3C86.045,84.969,86.027,84.903,85.979,84.862z"/>
				<path style="fill:#FFFFFF;" d="M67.731,66.464l3.028,3.751c0.003,0.005,0.02,0.024,0.023,0.028l0.033,0.045
					c0.141,0.174,0.283,0.345,0.418,0.515l0.068,0.1c2.307,3.323,3.476,6.457,3.476,9.309c0,0.241-0.013,0.481-0.025,0.721
					l-0.015,0.187c-0.013,0.173-0.034,0.343-0.055,0.514l-0.003,0.037c-0.009,0.076-0.021,0.15-0.033,0.23
					c-0.016,0.109-0.035,0.22-0.053,0.33c-0.074,0.409-0.194,0.833-0.334,1.289c-0.036,0.112,0.101,0.18,0.205,0.248
					c0.176,0.119,1.5,0.898,2.856,1.351c0.114,0.036,0.152,0.036,0.187-0.038c0.28-0.659,0.505-1.304,0.675-1.955
					c0.006-0.02,0.01-0.036,0.011-0.055c0.387-1.407,0.581-2.858,0.581-4.315c0-2.479-0.535-4.875-1.589-7.122
					c-0.535-1.157-1.299-2.429-2.267-3.776c-0.144-0.205-0.296-0.408-0.448-0.615c-0.04-0.053-0.083-0.106-0.125-0.161l-0.117-0.154
					c-0.154-0.202-0.314-0.408-0.479-0.609c-0.084-0.111-0.168-0.216-0.26-0.329c-0.121-0.142-0.238-0.282-0.357-0.424l-0.251-0.3
					c-0.152-0.175-0.299-0.352-0.449-0.532l-0.636-0.757c-0.909-1.083-1.818-2.166-2.707-3.248
					c-2.531-3.215-3.857-5.624-3.938-7.158c-0.049-0.887,0.25-1.574,0.919-2.103c0.719-0.566,1.44-0.797,2.498-0.797
					c0.648,0,1.386,0.361,1.874,0.915c0.469,0.583,0.694,1.111,0.694,1.613l0.003,0.072c0.003,0.504,0.011,1.552-1.118,2.378
					c-0.045,0.035-0.067,0.092-0.051,0.146c0.015,0.056,0.059,0.098,0.118,0.105c0.54,0.069,1.103,0.103,1.675,0.103
					c2.105,0,3.187-0.897,3.213-2.667c0.02-0.864-0.274-2.132-1.807-3.262c-1.175-0.866-2.687-1.423-4.047-1.491
					c-2.038-0.101-3.933,0.418-5.665,1.546c-1.615,1.053-2.466,2.643-2.466,4.591c0,2.123,1.21,4.762,3.599,7.85
					C65.639,63.866,66.686,65.165,67.731,66.464z M78.053,83.052L78.053,83.052L78.053,83.052L78.053,83.052z"/>
				<path style="fill:#FFFFFF;" d="M71.725,89.044c-0.227-0.102-0.284-0.096-0.421,0.095c-0.229,0.302-0.473,0.61-0.724,0.914
					c-2.417,2.848-5.521,5.274-9.231,7.213c-0.062,0.033-0.09,0.104-0.07,0.17c0.02,0.06,0.073,0.098,0.134,0.098
					c0.008,0,0.016-0.002,0.021-0.002c4.173-0.668,7.815-2.405,10.842-5.172c0.012-0.011,0.023-0.021,0.047-0.045l0.043-0.04
					c0.413-0.384,0.782-0.75,1.123-1.115c0.217-0.202,0.527-0.587,0.952-1.119c0.048-0.059,0.004-0.118-0.055-0.127
					C72.959,89.651,71.94,89.141,71.725,89.044z"/>
				<path style="fill:#002B5C;" d="M69.05,71.811c0.001-0.001,0.001-0.006,0.003-0.007C69.051,71.808,69.051,71.81,69.05,71.811z"/>
			</g>
		</g>
		<g>
			<path style="fill:#FFFFFF;" d="M30.464,40.6c-1.829,0.808-3.597,1.655-5.353,2.646c-0.345,0.195-0.626,0.537-0.723,0.871
				c-0.145,0.501-0.328,1.095-0.471,1.597c-0.079,0.264-0.039,0.367,0.241,0.279c1.413-0.415,2.875-0.773,4.388-1.07
				c-0.065,0.27-0.165,0.703-0.23,0.971c-1.236,0.572-2.486,1.246-3.691,1.898c0.088-0.318,0.172-0.595,0.26-0.915
				c-0.519,0.28-1.049,0.604-1.562,0.9c-0.14,0.483-0.263,0.93-0.402,1.411c-0.096,0.334,0.075,0.411,0.441,0.205
				c1.855-1.047,3.789-2.078,5.722-2.933c0.381-0.168,0.675-0.48,0.748-0.802c0.121-0.523,0.243-1.115,0.362-1.639
				c0.059-0.249-0.013-0.364-0.294-0.316c-1.519,0.265-2.991,0.59-4.411,0.971c0.065-0.236,0.197-0.657,0.262-0.894
				c1.117-0.616,2.268-1.179,3.495-1.742c-0.065,0.269-0.128,0.538-0.195,0.806c0.522-0.24,1.048-0.476,1.575-0.702
				c0.098-0.426,0.195-0.852,0.292-1.278C30.992,40.549,30.816,40.446,30.464,40.6z"/>
			<path style="fill:#FFFFFF;" d="M39.259,37.487c-2.08,0.591-4.125,1.253-6.144,2.069c-0.399,1.879-0.826,3.872-1.226,5.752
				c0.548-0.222,1.099-0.435,1.652-0.641c0.299-1.52,0.626-3.168,0.924-4.687c1.203-0.449,2.413-0.842,3.639-1.212
				c-0.093,0.577-0.208,1.269-0.301,1.846c-1.154,0.348-2.298,0.731-3.434,1.148c0.372,0.179,0.75,0.36,1.133,0.546
				c1.047-0.358,2.104-0.688,3.168-0.989c0.385-0.111,0.655-0.376,0.699-0.694c0.13-0.905,0.279-1.879,0.408-2.785
				C39.823,37.524,39.629,37.383,39.259,37.487z"/>
			<path style="fill:#FFFFFF;" d="M48.72,35.674c-2.165,0.265-4.307,0.612-6.433,1.101c-0.381,0.088-0.637,0.349-0.68,0.666
				c-0.203,1.489-0.415,3.036-0.614,4.497c-0.042,0.307,0.168,0.448,0.565,0.356c2.213-0.503,4.457-0.896,6.711-1.17
				c0.397-0.049,0.663-0.27,0.689-0.577c0.112-1.449,0.228-2.95,0.345-4.428C49.328,35.802,49.102,35.626,48.72,35.674z
				 M47.249,40.318c-1.505,0.209-2.996,0.465-4.482,0.778c0.141-1.126,0.299-2.418,0.44-3.56c1.381-0.289,2.9-0.546,4.369-0.752
				C47.471,37.924,47.352,39.197,47.249,40.318z"/>
			<path style="fill:#FFFFFF;" d="M58.116,38.763c0.39,0.01,0.641-0.17,0.635-0.471c-0.017-0.827-0.035-1.696-0.052-2.53
				c-0.006-0.314-0.26-0.523-0.636-0.532c-2.194-0.048-4.378,0.011-6.542,0.196c-0.07,1.805-0.14,3.624-0.21,5.392
				c0.57-0.044,1.143-0.082,1.718-0.111c0.037-1.438,0.071-2.966,0.11-4.427c1.293-0.073,2.594-0.095,3.898-0.086
				c0.003,0.525,0.008,1.077,0.012,1.598c-1.248-0.008-2.491,0.007-3.729,0.071c0.291,0.199,3.104,2.053,4.228,2.787
				c0.706,0.011,1.413,0.035,2.121,0.071c-0.001-0.017-0.001-0.032-0.001-0.049c-1.022-0.663-1.886-1.308-2.872-1.927
				C57.297,38.744,57.615,38.75,58.116,38.763z"/>
			<path style="fill:#FFFFFF;" d="M60.133,36.288c0.991,0.053,1.982,0.133,2.975,0.235c0.107,1.474,0.214,3.048,0.318,4.482
				c0.566,0.06,1.133,0.127,1.697,0.202c-0.117-1.438-0.24-3.013-0.362-4.489c0.991,0.129,1.983,0.288,2.97,0.466
				c-0.035-0.356-0.058-0.634-0.094-0.992c-2.506-0.453-5.043-0.75-7.557-0.881C60.098,35.665,60.115,35.936,60.133,36.288z"/>
			<path style="fill:#FFFFFF;" d="M69.713,41.902c0.576,0.113,1.15,0.234,1.725,0.362c-0.232-1.814-0.471-3.699-0.703-5.514
				c-0.54-0.121-1.083-0.236-1.629-0.342C69.306,38.217,69.512,40.095,69.713,41.902z"/>
			<path style="fill:#FFFFFF;" d="M79.268,42.843c-1.615-1.703-3.24-3.522-4.829-5.152c-0.54-0.152-1.103-0.304-1.647-0.443
				c0.29,1.857,0.578,3.768,0.857,5.564c0.569,0.139,1.136,0.299,1.701,0.452c-0.204-1.23-0.419-2.595-0.628-3.854
				c1.606,1.646,3.278,3.508,4.913,5.226c0.534,0.188,1.026,0.382,1.597,0.603c-0.357-1.789-0.759-3.789-1.125-5.641
				c-0.523-0.204-1.047-0.401-1.575-0.592C78.768,40.247,79.04,41.631,79.268,42.843z"/>
			<path style="fill:#FFFFFF;" d="M90.267,49.05c-0.248-0.917-0.566-2.109-0.708-2.642c-1.415-0.796-1.938-1.083-3.595-1.917
				l0.866,1.226c0.751,0.385,0.884,0.458,1.487,0.787c0.137,0.451,0.291,1.025,0.391,1.377c-1.374-0.775-2.346-1.242-3.732-1.905
				c-0.365-1.42-0.66-2.67-0.952-3.862c1.417,0.654,2.338,1.115,3.608,1.792c0.069,0.286,0.16,0.635,0.16,0.635l1.479,0.835
				c0,0-0.209-0.751-0.333-1.184c-0.106-0.369-0.31-0.654-0.671-0.849c-1.858-1.004-3.164-1.674-5.462-2.699
				c-0.357-0.16-0.555-0.026-0.478,0.302c0.36,1.541,0.735,3.268,1.094,4.803c0.077,0.326,0.358,0.581,0.736,0.749
				c1.98,0.877,3.606,1.693,5.558,2.782C90.178,49.534,90.4,49.536,90.267,49.05z"/>
		</g>
		<g>
			<path style="fill:#FFFFFF;" d="M24.439,35.532c-0.423-0.215-0.837-0.423-1.24-0.622c-0.145,0.484-0.295,0.981-0.447,1.493
				c-0.291,0.154-0.583,0.312-0.878,0.475c0.404-1.257,0.784-2.435,1.141-3.539c0.256-0.126,0.512-0.252,0.765-0.375
				c-0.122,0.41-0.375,1.256-0.375,1.256l1.837-1.972c0,0,0.694-0.291,0.996-0.422c-0.002,0.008,0.127-0.053,0.125-0.044
				c-0.64,0.699-1.669,1.796-2.379,2.587c0.504,0.248,0.85,0.427,1.385,0.697c-0.002,0.008-0.004,0.019-0.006,0.026
				C25.008,35.261,24.803,35.353,24.439,35.532z"/>
			<path style="fill:#FFFFFF;" d="M31.191,32.659c-0.047-0.152-0.094-0.305-0.139-0.456c-0.619,0.229-1.241,0.471-1.866,0.724
				c-0.138,0.227-0.277,0.453-0.418,0.681c-0.276,0.115-0.551,0.231-0.829,0.351c0.001-0.002,0.002-0.005,0.002-0.008
				c0.821-1.297,1.615-2.555,2.382-3.777c0.266-0.103,0.533-0.205,0.797-0.302c0.248,0.83,0.51,1.67,0.786,2.522
				c0,0.002-0.002,0.004-0.003,0.007C31.667,32.485,31.43,32.57,31.191,32.659z M30.571,30.653c-0.32,0.53-0.646,1.066-0.975,1.608
				c0.439-0.174,0.876-0.344,1.314-0.507C30.794,31.385,30.68,31.018,30.571,30.653z"/>
			<path style="fill:#FFFFFF;" d="M38.217,30.491c-0.566-0.501-1.121-0.993-1.663-1.476c-0.128,0.674-0.256,1.354-0.386,2.038
				c-0.269,0.079-0.54,0.16-0.811,0.243c0.2-1.004,0.396-1.994,0.592-2.972c0.255-0.072,0.509-0.146,0.764-0.215
				c0.538,0.461,1.088,0.931,1.649,1.411c0.104-0.646,0.208-1.286,0.311-1.92c0.255-0.062,0.509-0.122,0.763-0.181
				c-0.143,0.946-0.29,1.905-0.437,2.876C38.739,30.358,38.479,30.424,38.217,30.491z"/>
			<path style="fill:#FFFFFF;" d="M46.196,28.926c-0.937,0.129-1.877,0.279-2.82,0.45c-0.187,0.035-0.293-0.046-0.273-0.208
				c0.026-0.23,0.054-0.463,0.081-0.696c0.265-0.048,0.53-0.095,0.793-0.14c-0.017,0.154-0.034,0.309-0.051,0.463
				c0.61-0.104,1.218-0.202,1.825-0.288c0.013-0.132,0.026-0.264,0.037-0.396c-0.779-0.107-1.557-0.201-2.332-0.281
				c-0.154-0.012-0.188-0.077-0.172-0.204c0.028-0.242,0.056-0.483,0.084-0.722c0.019-0.161,0.147-0.283,0.328-0.315
				c0.921-0.161,1.841-0.302,2.758-0.422c0.176-0.022,0.276,0.062,0.264,0.216c-0.018,0.207-0.038,0.417-0.055,0.625
				c-0.261,0.033-0.52,0.068-0.781,0.105c0.011-0.131,0.024-0.264,0.037-0.393c-0.598,0.082-1.197,0.177-1.795,0.276
				c-0.013,0.113-0.024,0.226-0.037,0.34c0.771,0.087,1.546,0.185,2.323,0.299c0.144,0.02,0.189,0.092,0.179,0.214
				c-0.022,0.258-0.045,0.516-0.068,0.773C46.508,28.783,46.381,28.901,46.196,28.926z"/>
			<path style="fill:#FFFFFF;" d="M53.766,28.24c-0.085-0.158-0.171-0.316-0.257-0.472c-0.635,0.029-1.267,0.066-1.9,0.114
				c-0.1,0.167-0.201,0.337-0.302,0.505c-0.277,0.022-0.552,0.046-0.829,0.071c0-0.002,0-0.005,0-0.008
				c0.592-0.953,1.175-1.9,1.744-2.837c0.277-0.02,0.554-0.036,0.831-0.051c0.506,0.875,1.025,1.754,1.554,2.641
				c0,0.001,0,0.004,0,0.006C54.326,28.217,54.045,28.228,53.766,28.24z M52.614,26.151c-0.234,0.409-0.473,0.819-0.712,1.231
				c0.448-0.032,0.898-0.059,1.346-0.081C53.034,26.917,52.824,26.533,52.614,26.151z"/>
			<path style="fill:#FFFFFF;" d="M62.019,28.386c-0.953-0.07-1.909-0.12-2.869-0.149c-0.189-0.006-0.315-0.11-0.318-0.268
				c-0.007-0.226-0.013-0.454-0.018-0.68c0.27,0.007,0.54,0.018,0.809,0.028c0.005,0.151,0.01,0.302,0.014,0.453
				c0.622,0.024,1.24,0.058,1.856,0.098c-0.007-0.128-0.013-0.259-0.02-0.389c-0.827-0.272-1.649-0.531-2.471-0.776
				c-0.161-0.044-0.207-0.117-0.21-0.241c-0.007-0.235-0.012-0.468-0.019-0.703c-0.004-0.157,0.112-0.25,0.295-0.245
				c0.937,0.034,1.869,0.087,2.798,0.159c0.179,0.013,0.297,0.118,0.305,0.27c0.013,0.205,0.025,0.41,0.04,0.614
				c-0.265-0.02-0.528-0.04-0.791-0.059c-0.009-0.129-0.016-0.257-0.023-0.385c-0.603-0.042-1.211-0.076-1.819-0.102
				c0.003,0.111,0.005,0.222,0.011,0.333c0.815,0.25,1.636,0.512,2.457,0.79c0.151,0.051,0.21,0.135,0.217,0.255
				c0.016,0.252,0.032,0.507,0.05,0.762C62.321,28.308,62.207,28.399,62.019,28.386z"/>
			<path style="fill:#FFFFFF;" d="M72.97,30.03c-1.005-0.232-2.003-0.438-2.998-0.621c-0.181-0.033-0.301-0.154-0.319-0.314
				c-0.088-0.753-0.176-1.509-0.261-2.269c-0.02-0.163,0.074-0.249,0.253-0.217c0.98,0.167,1.965,0.36,2.955,0.577
				c0.183,0.04,0.314,0.171,0.338,0.335c0.032,0.262,0.066,0.522,0.102,0.784c-0.263-0.061-0.527-0.119-0.79-0.176
				c-0.023-0.171-0.044-0.342-0.066-0.514c-0.666-0.142-1.328-0.273-1.988-0.393c0.068,0.588,0.139,1.174,0.208,1.758
				c0.666,0.126,1.337,0.263,2.008,0.411c-0.022-0.179-0.045-0.36-0.069-0.54c0.265,0.057,0.528,0.117,0.794,0.178
				c0.035,0.27,0.071,0.538,0.105,0.806C73.262,29.997,73.157,30.072,72.97,30.03z"/>
			<path style="fill:#FFFFFF;" d="M77.134,31.08c-0.191-0.985-0.379-1.96-0.568-2.924c0.256,0.074,0.513,0.15,0.769,0.226
				c0.196,0.97,0.395,1.951,0.599,2.941C77.667,31.241,77.399,31.158,77.134,31.08z"/>
			<path style="fill:#FFFFFF;" d="M82.854,30.685c0.203,0.833,0.409,1.684,0.621,2.55c-0.27-0.117-0.537-0.232-0.804-0.343
				c-0.193-0.846-0.384-1.673-0.57-2.485c-0.438-0.159-0.868-0.308-1.289-0.45c-0.04-0.183-0.077-0.366-0.113-0.547
				c1.078,0.348,2.218,0.752,3.421,1.219c0.054,0.204,0.109,0.408,0.165,0.614C83.797,31.045,83.32,30.859,82.854,30.685z"/>
			<path style="fill:#FFFFFF;" d="M89.72,34.908c0.111,0.373,0.266,0.954,0.379,1.327c-0.274-0.149-0.543-0.295-0.811-0.437
				c-0.106-0.366-0.203-0.794-0.312-1.158c-0.714-0.935-1.458-1.982-2.123-2.85c-0.003-0.008-0.005-0.017-0.006-0.024
				c0.255,0.111,0.84,0.372,1.101,0.49c0.499,0.665,0.987,1.38,1.318,1.784c0.308-0.332,0.688-0.829,0.688-0.829
				s0.457,0.241,0.756,0.393c0.004,0.01,0.006,0.018,0.008,0.028C90.389,34.063,90.055,34.489,89.72,34.908z"/>
		</g>
		<path style="fill:#91B0D5;" d="M56.621,75.817c0-2.278,0-4.566,0-6.835c-12.641,0.591-24.163,4.703-33.214,11.194
			c0.79,1.878,1.723,3.725,2.789,5.54C34.569,80.091,45.086,76.482,56.621,75.817z"/>
		<path style="fill:#91B0D5;" d="M19.882,62.949C26.871,58.25,35,54.83,43.839,53.08c-1.904-2.258-3.703-4.336-5.423-6.259
			c-6.209,1.668-12.031,4.17-17.322,7.366C20.321,57.39,19.919,60.161,19.882,62.949z"/>
		<path style="fill:#91B0D5;" d="M47.508,57.499c-10.19,1.608-19.499,5.473-27.244,10.996c0.227,1.585,0.554,3.258,0.981,5.086
			c0.134,0.573,0.283,1.141,0.444,1.708c8.598-6.148,19.303-10.217,31.073-11.283C50.928,61.703,49.179,59.537,47.508,57.499z"/>
		<path style="fill:#91B0D5;" d="M56.621,106.09c-2.977,0.366-5.846,0.938-8.573,1.686c3.893,2.565,7.079,4.215,8.573,4.945
			C56.621,111.874,56.621,109.506,56.621,106.09z"/>
		<path style="fill:#91B0D5;" d="M56.621,87.896c0-2.141,0-4.345,0-6.586c-10.37,0.748-19.857,3.915-27.549,8.788
			c1.176,1.616,2.461,3.203,3.847,4.761C39.708,91.102,47.813,88.623,56.621,87.896z"/>
		<path style="fill:#91B0D5;" d="M56.621,100.008c0-1.964,0-4.089,0-6.334c-7.183,0.705-13.856,2.588-19.644,5.375
			c1.688,1.598,3.396,3.06,5.071,4.387C46.502,101.748,51.412,100.569,56.621,100.008z"/>
	</g>
	<g>
		<path style="fill:#9FA1A4;" d="M77.089,113.109v2.704h-0.317v-2.704h-0.866v-0.285h2.049v0.285H77.089z"/>
		<path style="fill:#9FA1A4;" d="M80.756,115.813v-2.27l-0.818,1.8h-0.273l-0.832-1.8v2.27h-0.317v-2.989h0.317l0.977,2.121
			l0.947-2.121h0.319v2.989H80.756z"/>
	</g>
</g>
</svg>
