<?xml version="1.0" encoding="iso-8859-1"?>
<!-- Generator: Adobe Illustrator 22.1.0, SVG Export Plug-In . SVG Version: 6.00 Build 0)  -->
<!DOCTYPE svg PUBLIC "-//W3C//DTD SVG 1.1//EN" "http://www.w3.org/Graphics/SVG/1.1/DTD/svg11.dtd">
<svg version="1.1" id="Layer_1" xmlns="http://www.w3.org/2000/svg" xmlns:xlink="http://www.w3.org/1999/xlink" x="0px" y="0px"
	 viewBox="0 0 113.334 143.333" style="enable-background:new 0 0 113.334 143.333;" xml:space="preserve">
<g>
	<g>
		<path style="fill:#FFFFFF;" d="M105.532,68.187v-3.546c0,0-2.162-0.471-5.763-1.144l1.47-5.359c0,0-3.639-1.186-10.476-2.435
			V29.392c0,0-6.739-1.192-16.454-2.024l1.763-5.627l-6.217-4.513l-1.324-4.084l-2.165,1.572l0.828-2.546h-4.299l-6.228-4.522
			l-6.23,4.522h-4.298l0.83,2.546l-2.166-1.572l-1.324,4.084l-6.217,4.513l1.765,5.627c-9.716,0.832-16.455,2.024-16.455,2.024
			v26.312c-6.838,1.248-10.475,2.435-10.475,2.435l1.47,5.359c-3.602,0.673-5.765,1.144-5.765,1.144v3.546l-7.709,8.209l7.709,5.469
			v4.35c0,0,6.093-1.146,14.829-2.35c1.488,20.514,34.036,29.489,34.036,29.489s32.55-8.976,34.038-29.488
			c8.734,1.202,14.827,2.349,14.827,2.349v-4.35l7.709-5.469L105.532,68.187z M38.597,53.604c-2.75,0.235-5.301,0.511-7.646,0.811
			l3.736-4.829c1.308-0.142,2.612-0.271,3.911-0.389V53.604z M32.899,48.159l-3.139,4.48v-12.31
			c5.886-0.769,15.935-1.821,26.907-1.821c10.972,0,21.021,1.053,26.907,1.821v12.31l-3.14-4.48
			c-4.8-0.555-11.249-1.141-18.362-1.353v6.111c-1.75-0.043-3.55-0.066-5.405-0.066c-1.855,0-3.656,0.023-5.405,0.066v-6.111
			C44.15,47.018,37.7,47.604,32.899,48.159z M74.738,49.197c1.298,0.118,2.602,0.246,3.908,0.389l3.735,4.829
			c-2.344-0.3-4.894-0.576-7.643-0.811V49.197z M58.893,36.641l4.688-3.405c14.233,0.52,25.502,2.427,25.502,2.427v19.745
			c-1.103-0.187-2.276-0.374-3.52-0.557V38.695C80.719,38.021,70.411,36.787,58.893,36.641z M24.251,30.81
			c0,0,7.033-1.191,17.003-1.946l-2.03-6.475l5.682-4.125l0.78-2.406l4.477,3.25l-1.712-5.261h2.532l5.684-4.127l5.685,4.127h2.531
			l-1.712,5.261l4.476-3.25l0.782,2.406l5.681,4.125l-2.03,6.475c9.972,0.755,17.004,1.946,17.004,1.946v3.23
			c0,0-11.584-1.961-26.097-2.448l-6.319,4.592l-6.32-4.592c-14.511,0.487-26.096,2.448-26.096,2.448V30.81z M24.251,35.663
			c0,0,11.269-1.907,25.503-2.427l4.687,3.405c-11.518,0.146-21.826,1.38-26.669,2.054V54.85c-1.244,0.184-2.419,0.371-3.52,0.557
			V35.663z M56.667,54.529c26.189,0,42.517,4.759,42.517,4.759l-2.079,7.571l2.079,9.286c0,0-16.327-4.758-42.517-4.758
			c-26.189,0-42.515,4.758-42.515,4.758l2.076-9.286l-2.076-7.571C14.152,59.288,30.478,54.529,56.667,54.529z M90.763,76.029
			c3.522,0.658,6.219,1.297,8.022,1.77l-8.022,3.192V76.029z M67.114,81.479h4.496v1.12h-4.508c-1.052,0-1.903-0.684-1.903-1.526
			v-1.795c0-0.844,0.852-1.525,1.903-1.525h4.508v1.422l-0.483-0.302h-4.013c-0.3,0-0.544,0.18-0.544,0.403v1.8
			C66.57,81.298,66.814,81.479,67.114,81.479z M73.209,93.475v4.429c-1.937,1.359-3.978,2.564-5.959,3.611l-3.569-2.959
			C67.475,96.94,70.618,95.202,73.209,93.475z M65.694,102.313c-3.802,1.886-7.215,3.16-9.027,3.771
			c-1.812-0.611-5.226-1.885-9.027-3.771l3.622-3.003V73.137c1.752-0.047,3.552-0.07,5.405-0.07c1.853,0,3.652,0.023,5.405,0.07
			v26.174L65.694,102.313z M29.76,78.175v-3.313c2.675-0.372,5.626-0.717,8.837-1.004v15.729
			C38.597,89.587,30.54,83.919,29.76,78.175z M38.597,92.413v4.37c-4.604-3.542-8.328-7.996-8.786-13.277
			C31.102,85.531,33.733,88.889,38.597,92.413z M47.12,79.615v1.121h-3.708v1.478l0.445,0.385h-2.26l0.444-0.385v-4.077
			l-0.444-0.385h6.666v1.422l-0.483-0.302h-4.367v0.743H47.12z M40.125,93.475c2.592,1.728,5.732,3.466,9.527,5.081l-3.569,2.959
			c-1.982-1.047-4.021-2.252-5.959-3.611V93.475z M74.738,92.413c4.861-3.524,7.493-6.882,8.785-8.907
			c-0.459,5.281-4.183,9.735-8.785,13.277V92.413z M74.738,89.587V73.857c3.209,0.287,6.161,0.632,8.836,1.004v3.313
			C82.794,83.919,74.738,89.587,74.738,89.587z M22.571,80.991l-8.024-3.192c1.804-0.473,4.5-1.111,8.024-1.77V80.991z M9.48,84.2
			v-3.205L2.635,76.14l6.845-7.288v-2.85c0,0,1.68-0.354,4.53-0.885l0.489,1.781L11.894,78.55l9.503,3.781
			C14.264,83.328,9.48,84.2,9.48,84.2z M89.083,82.409c0,19.896-32.416,29.198-32.416,29.198s-32.416-9.303-32.416-29.198v-6.684
			c1.104-0.193,2.278-0.386,3.52-0.573v7.257c0,15.251,23.78,23.84,28.896,25.509c5.116-1.669,28.896-10.258,28.896-25.509v-7.257
			c1.241,0.188,2.414,0.38,3.52,0.573V82.409z M103.853,80.995V84.2c0,0-4.784-0.872-11.916-1.869l9.503-3.781l-2.604-11.651
			l0.489-1.781c2.85,0.53,4.528,0.885,4.528,0.885v2.85l6.846,7.288L103.853,80.995z"/>
		<polygon style="fill:#FFFFFF;" points="46.953,20.729 42.983,23.612 44.602,28.607 49.379,28.35 50.919,23.612 		"/>
		<polygon style="fill:#FFFFFF;" points="59.122,21.22 60.638,16.556 56.667,13.673 52.695,16.556 54.212,21.22 		"/>
		<polygon style="fill:#FFFFFF;" points="68.731,28.607 70.35,23.612 66.38,20.729 62.415,23.612 63.953,28.35 		"/>
		<polygon style="fill:#FFFFFF;" points="60.638,29.345 59.122,24.683 54.212,24.683 52.695,29.345 56.667,32.228 		"/>
		<path style="fill:#FFFFFF;" d="M53.799,66.802h4.715c1.173,0,2.132-0.96,2.132-2.133V60.38c0-1.173-0.959-2.134-2.132-2.134
			h-4.715c-1.173,0-2.133,0.96-2.133,2.134v4.288C51.666,65.842,52.626,66.802,53.799,66.802z M53.428,60.361
			c0-0.245,0.199-0.444,0.443-0.444h4.57c0.244,0,0.444,0.199,0.444,0.444v4.329c0,0.242-0.2,0.442-0.444,0.442h-4.57
			c-0.244,0-0.443-0.2-0.443-0.442V60.361z"/>
		<path style="fill:#FFFFFF;" d="M86.617,69.002l4.716,0.805c1.173,0.2,2.133-0.597,2.133-1.769v-4.253
			c0-1.173-0.96-2.297-2.133-2.497l-4.716-0.805c-1.172-0.201-2.132,0.594-2.132,1.768v4.252
			C84.485,67.677,85.445,68.801,86.617,69.002z M86.247,62.532c0-0.244,0.201-0.411,0.444-0.368l4.568,0.781
			c0.245,0.041,0.445,0.274,0.445,0.518v4.294c0,0.244-0.2,0.41-0.445,0.369l-4.568-0.782c-0.243-0.041-0.444-0.275-0.444-0.518
			V62.532z"/>
		<path style="fill:#FFFFFF;" d="M31.451,68.341l4.716-0.535c1.173-0.132,2.132-1.201,2.132-2.373v-4.254
			c0-1.172-0.959-2.023-2.132-1.891l-4.716,0.534c-1.172,0.132-2.132,1.201-2.132,2.375v4.253
			C29.318,67.622,30.278,68.474,31.451,68.341z M31.081,61.977c0-0.244,0.2-0.465,0.444-0.494l4.569-0.516
			c0.243-0.029,0.443,0.147,0.443,0.392v4.292c0,0.244-0.2,0.465-0.443,0.495l-4.569,0.516c-0.245,0.028-0.444-0.148-0.444-0.393
			V61.977z"/>
		<polygon style="fill:#FFFFFF;" points="22.457,62.943 22.457,69.028 21.754,69.853 24.92,69.289 24.218,68.716 24.218,62.629 
			27.128,62.111 27.828,62.688 27.828,60.317 18.847,61.914 18.847,64.287 19.546,63.461 		"/>
		<polygon style="fill:#FFFFFF;" points="77.623,61.056 77.623,67.158 76.921,67.78 80.087,68.122 79.385,67.346 79.385,61.246 
			82.294,61.56 82.995,62.337 82.995,59.965 74.014,58.998 74.014,61.37 74.713,60.742 		"/>
		<polygon style="fill:#FFFFFF;" points="62.137,66.871 65.303,66.976 64.601,66.24 64.601,60.786 69.551,67.192 72.523,67.396 
			71.82,66.662 71.82,59.542 72.523,58.877 69.355,58.665 70.058,59.399 70.058,64.893 65.111,58.451 62.137,58.354 62.839,59.088 
			62.839,66.208 		"/>
		<path style="fill:#FFFFFF;" d="M39.789,67.479l3.167-0.232l-0.703-0.66v-1.868l5.014-0.278c0.244-0.015,0.443,0.173,0.443,0.417
			v1.426l-0.702,0.738l3.166-0.121l-0.702-0.659v-1.369c0-0.673-0.421-1.228-1.014-1.43c0.592-0.268,1.014-0.87,1.014-1.545v-1.395
			c0-1.172-0.959-2.079-2.133-2.014l-7.551,0.472l0.703,0.661v7.119L39.789,67.479z M42.254,60.44l5.014-0.279
			c0.244-0.013,0.443,0.175,0.443,0.419v1.722c0,0.243-0.199,0.454-0.443,0.468l-5.014,0.278V60.44z"/>
	</g>
	<g>
		<path style="fill:#B0B7BC;" d="M38.597,49.197c-1.298,0.118-2.603,0.246-3.911,0.389l-3.736,4.829
			c2.345-0.3,4.896-0.576,7.646-0.811V49.197z"/>
		<path style="fill:#B0B7BC;" d="M29.76,78.175c0.78,5.744,8.837,11.412,8.837,11.412V73.857c-3.211,0.287-6.163,0.632-8.837,1.004
			V78.175z"/>
		<path style="fill:#B0B7BC;" d="M40.125,97.903c1.938,1.359,3.977,2.564,5.959,3.611l3.569-2.959
			c-3.795-1.615-6.935-3.354-9.527-5.081V97.903z"/>
		<path style="fill:#B0B7BC;" d="M78.646,49.585c-1.307-0.142-2.61-0.271-3.908-0.389v4.407c2.749,0.235,5.3,0.511,7.643,0.811
			L78.646,49.585z"/>
		<path style="fill:#B0B7BC;" d="M74.738,89.587c0,0,8.056-5.668,8.836-11.412v-3.313c-2.675-0.372-5.627-0.717-8.836-1.004V89.587z
			"/>
		<path style="fill:#B0B7BC;" d="M67.25,101.515c1.981-1.047,4.022-2.252,5.959-3.611v-4.429c-2.591,1.728-5.733,3.466-9.528,5.081
			L67.25,101.515z"/>
		<path style="fill:#B0B7BC;" d="M54.449,61.381c0-0.244,0.199-0.444,0.443-0.444h3.43v-0.459h-3.89c-0.243,0-0.442,0.2-0.442,0.444
			v3.647h0.459V61.381z"/>
		<path style="fill:#B0B7BC;" d="M61.209,60.38v4.288c0,1.486-1.209,2.695-2.695,2.695h-4.715c-0.109,0-0.215-0.007-0.321-0.019
			c0.367,0.297,0.834,0.477,1.342,0.477h4.152c1.485,0,2.695-1.209,2.695-2.693v-3.727c0-0.506-0.179-0.975-0.477-1.341
			C61.202,60.165,61.209,60.272,61.209,60.38z"/>
		<path style="fill:#B0B7BC;" d="M87.268,63.728c0-0.244,0.199-0.409,0.442-0.367l3.431,0.585v-0.459l-3.889-0.664
			c-0.243-0.041-0.443,0.124-0.443,0.368v3.611l0.459,0.078V63.728z"/>
		<path style="fill:#B0B7BC;" d="M94.009,63.558c0.012,0.107,0.018,0.215,0.018,0.323v4.253c0,1.486-1.208,2.489-2.694,2.235
			l-4.716-0.805c-0.106-0.02-0.213-0.044-0.32-0.073c0.367,0.36,0.834,0.619,1.342,0.705l4.154,0.71
			c1.485,0.252,2.694-0.75,2.694-2.235v-3.691C94.487,64.473,94.307,63.976,94.009,63.558z"/>
		<path style="fill:#B0B7BC;" d="M31.642,62.477v3.609l0.459-0.051v-3.154c0-0.242,0.2-0.465,0.444-0.492L35.975,62v-0.459
			l-3.888,0.439C31.842,62.009,31.642,62.23,31.642,62.477z"/>
		<path style="fill:#B0B7BC;" d="M38.862,61.116v4.254c0,1.484-1.209,2.831-2.695,2.998l-4.716,0.534
			c-0.108,0.011-0.214,0.019-0.319,0.017c0.367,0.258,0.834,0.384,1.341,0.326l4.152-0.469c1.486-0.17,2.695-1.515,2.695-3.002
			v-3.69c0-0.506-0.18-0.953-0.478-1.286C38.854,60.901,38.862,61.008,38.862,61.116z"/>
		<polygon style="fill:#B0B7BC;" points="19.868,65.126 20.567,64.298 21.894,64.063 21.894,63.604 19.868,63.965 		"/>
		<polygon style="fill:#B0B7BC;" points="24.78,63.091 24.78,68.381 25.239,68.757 25.239,63.468 27.351,63.092 26.895,62.714 		"/>
		<polygon style="fill:#B0B7BC;" points="28.39,63.147 28.849,63.527 28.849,61.157 28.39,61.238 		"/>
		<polygon style="fill:#B0B7BC;" points="23.236,70.152 22.774,70.693 25.942,70.131 25.481,69.752 		"/>
		<polygon style="fill:#B0B7BC;" points="75.734,61.873 77.061,62.018 77.061,61.559 75.034,61.339 75.034,62.5 		"/>
		<polygon style="fill:#B0B7BC;" points="82.061,62.097 79.947,61.869 79.947,67.175 80.406,67.681 80.406,62.377 82.518,62.604 		
			"/>
		<polygon style="fill:#B0B7BC;" points="83.557,62.957 84.015,63.467 84.015,61.096 83.557,61.047 		"/>
		<polygon style="fill:#B0B7BC;" points="77.942,68.913 81.109,69.253 80.647,68.744 78.402,68.503 		"/>
		<polygon style="fill:#B0B7BC;" points="70.204,67.787 70.571,68.266 73.544,68.468 73.083,67.985 		"/>
		<polygon style="fill:#B0B7BC;" points="72.383,66.456 72.841,66.937 72.841,60.615 73.544,59.951 72.383,59.892 		"/>
		<polygon style="fill:#B0B7BC;" points="65.864,67.567 63.619,67.51 63.159,67.943 66.324,68.048 		"/>
		<polygon style="fill:#B0B7BC;" points="65.623,63.017 65.164,62.419 65.164,66.036 65.623,66.517 		"/>
		<path style="fill:#B0B7BC;" d="M50.494,66.407v-0.57c0-0.436-0.177-0.823-0.462-1.096c0.001,0.033,0.003,0.066,0.003,0.099v1.135
			L50.494,66.407z"/>
		<polygon style="fill:#B0B7BC;" points="43.275,65.681 47.148,65.466 47.148,65.008 42.817,65.249 42.817,66.32 43.275,66.753 		
			"/>
		<polygon style="fill:#B0B7BC;" points="43.517,67.777 41.273,67.959 40.811,68.442 43.977,68.209 		"/>
		<path style="fill:#B0B7BC;" d="M49.432,63.387c0.086,0.086,0.164,0.178,0.234,0.278c0.492-0.302,0.828-0.845,0.828-1.446v-0.752
			c0-0.508-0.181-0.965-0.479-1.314c0.014,0.104,0.02,0.21,0.02,0.318v1.396C50.035,62.426,49.809,62.969,49.432,63.387z"/>
		<polygon style="fill:#B0B7BC;" points="43.275,61.404 47.148,61.188 47.148,60.731 42.817,60.971 42.817,62.455 43.275,62.429 		
			"/>
		<polygon style="fill:#B0B7BC;" points="48.49,67.501 48.03,67.984 51.196,67.864 50.735,67.431 		"/>
	</g>
	<g>
		<path style="fill:#E31837;" d="M103.853,68.852v-2.85c0,0-1.679-0.354-4.528-0.885l-0.489,1.781l2.604,11.651l-9.503,3.781
			c7.132,0.997,11.916,1.869,11.916,1.869v-3.205l6.846-4.855L103.853,68.852z"/>
		<path style="fill:#E31837;" d="M14.498,66.898l-0.489-1.781c-2.85,0.53-4.53,0.885-4.53,0.885v2.85L2.635,76.14l6.845,4.855V84.2
			c0,0,4.784-0.872,11.917-1.869l-9.503-3.781L14.498,66.898z"/>
		<path style="fill:#E31837;" d="M27.771,38.695c4.843-0.674,15.151-1.908,26.669-2.054l-4.687-3.405
			c-14.233,0.52-25.503,2.427-25.503,2.427v19.745c1.101-0.187,2.276-0.374,3.52-0.557V38.695z"/>
		<path style="fill:#E31837;" d="M89.083,55.407V35.663c0,0-11.269-1.907-25.502-2.427l-4.688,3.405
			c11.518,0.146,21.826,1.38,26.67,2.054V54.85C86.806,55.034,87.98,55.221,89.083,55.407z"/>
		<path style="fill:#E31837;" d="M85.563,82.409c0,15.251-23.78,23.84-28.896,25.509c-5.116-1.669-28.896-10.258-28.896-25.509
			v-7.257c-1.242,0.188-2.416,0.38-3.52,0.573v6.684c0,19.896,32.416,29.198,32.416,29.198s32.416-9.303,32.416-29.198v-6.684
			c-1.106-0.193-2.278-0.386-3.52-0.573V82.409z"/>
		<path style="fill:#E31837;" d="M56.667,36.184l6.319-4.592c14.513,0.487,26.097,2.448,26.097,2.448v-3.23
			c0,0-7.032-1.191-17.004-1.946l2.03-6.475l-5.681-4.125l-0.782-2.406l-4.476,3.25l1.712-5.261h-2.531l-5.685-4.127l-5.684,4.127
			h-2.532l1.712,5.261l-4.477-3.25l-0.78,2.406l-5.682,4.125l2.03,6.475c-9.97,0.755-17.003,1.946-17.003,1.946v3.23
			c0,0,11.585-1.961,26.096-2.448L56.667,36.184z M66.38,20.729l3.97,2.883l-1.619,4.995l-4.778-0.258l-1.538-4.737L66.38,20.729z
			 M56.667,13.673l3.972,2.882l-1.517,4.664h-4.91l-1.517-4.664L56.667,13.673z M54.212,24.683h4.91l1.517,4.663l-3.972,2.883
			l-3.971-2.883L54.212,24.683z M44.602,28.607l-1.619-4.995l3.97-2.883l3.967,2.883l-1.54,4.737L44.602,28.607z"/>
		<path style="fill:#E31837;" d="M86.691,67.344l4.568,0.782c0.245,0.041,0.445-0.125,0.445-0.369v-4.294
			c0-0.243-0.2-0.477-0.445-0.518l-4.568-0.781c-0.243-0.043-0.444,0.124-0.444,0.368v4.294
			C86.247,67.069,86.448,67.303,86.691,67.344z M86.809,63.19c0-0.244,0.2-0.409,0.443-0.368l3.889,0.664v0.459L87.71,63.36
			c-0.243-0.042-0.442,0.123-0.442,0.367v3.152l-0.459-0.078V63.19z"/>
		<path style="fill:#E31837;" d="M14.152,76.145c0,0,16.326-4.758,42.515-4.758c26.189,0,42.517,4.758,42.517,4.758l-2.079-9.286
			l2.079-7.571c0,0-16.327-4.759-42.517-4.759c-26.189,0-42.515,4.759-42.515,4.759l2.076,7.571L14.152,76.145z M19.868,65.126
			v-1.161l2.026-0.36v0.459l-1.327,0.234L19.868,65.126z M22.774,70.693l0.461-0.541l2.246-0.4l0.461,0.379L22.774,70.693z
			 M25.239,63.468v5.289l-0.459-0.376v-5.29l2.115-0.377l0.456,0.378L25.239,63.468z M40.811,68.442l0.462-0.483l2.245-0.182
			l0.46,0.432L40.811,68.442z M43.275,66.753l-0.458-0.433v-1.071l4.331-0.241v0.458l-3.873,0.215V66.753z M63.159,67.943
			l0.46-0.434l2.245,0.058l0.46,0.48L63.159,67.943z M65.623,66.517l-0.459-0.48v-3.617l0.459,0.598V66.517z M70.571,68.266
			l-0.367-0.479l2.879,0.198l0.462,0.482L70.571,68.266z M75.034,62.5v-1.161l2.027,0.22v0.459l-1.327-0.145L75.034,62.5z
			 M77.942,68.913l0.46-0.41l2.245,0.241l0.462,0.509L77.942,68.913z M80.406,62.377v5.304l-0.459-0.506v-5.306l2.114,0.228
			l0.457,0.507L80.406,62.377z M94.487,64.979v3.691c0,1.485-1.209,2.487-2.694,2.235l-4.154-0.71
			c-0.508-0.086-0.975-0.345-1.342-0.705c0.107,0.029,0.214,0.054,0.32,0.073l4.716,0.805c1.486,0.254,2.694-0.749,2.694-2.235
			v-4.253c0-0.108-0.006-0.216-0.018-0.323C94.307,63.976,94.487,64.473,94.487,64.979z M84.485,62.252
			c0-1.174,0.96-1.969,2.132-1.768l4.716,0.805c1.173,0.2,2.133,1.324,2.133,2.497v4.253c0,1.172-0.96,1.969-2.133,1.769
			l-4.716-0.805c-1.172-0.201-2.132-1.325-2.132-2.498V62.252z M83.557,61.047l0.458,0.048v2.371l-0.458-0.51V61.047z
			 M74.014,58.998l8.98,0.967v2.372l-0.701-0.777l-2.908-0.314v6.1l0.702,0.776l-3.166-0.342l0.701-0.622v-6.103l-2.909-0.313
			l-0.699,0.628V58.998z M72.841,60.615v6.322l-0.458-0.48v-6.564l1.161,0.059L72.841,60.615z M62.137,58.354l2.974,0.097
			l4.947,6.442v-5.494l-0.703-0.734l3.168,0.212l-0.703,0.665v7.12l0.703,0.734l-2.972-0.204l-4.95-6.406v5.454l0.702,0.735
			l-3.166-0.104l0.702-0.663v-7.12L62.137,58.354z M61.668,61.401v3.727c0,1.484-1.21,2.693-2.695,2.693H54.82
			c-0.508,0-0.975-0.18-1.342-0.477c0.106,0.012,0.212,0.019,0.321,0.019h4.715c1.486,0,2.695-1.209,2.695-2.695V60.38
			c0-0.108-0.007-0.216-0.018-0.32C61.489,60.427,61.668,60.895,61.668,61.401z M51.666,60.38c0-1.173,0.96-2.134,2.133-2.134h4.715
			c1.173,0,2.132,0.96,2.132,2.134v4.288c0,1.173-0.959,2.133-2.132,2.133h-4.715c-1.173,0-2.133-0.96-2.133-2.133V60.38z
			 M51.196,67.864l-3.165,0.12l0.46-0.483l2.245-0.07L51.196,67.864z M50.032,64.741c0.285,0.272,0.462,0.66,0.462,1.096v0.57
			l-0.459-0.433V64.84C50.035,64.808,50.034,64.774,50.032,64.741z M50.494,61.467v0.752c0,0.602-0.336,1.145-0.828,1.446
			c-0.07-0.101-0.148-0.192-0.234-0.278c0.377-0.418,0.603-0.961,0.603-1.521v-1.396c0-0.108-0.006-0.215-0.02-0.318
			C50.314,60.501,50.494,60.959,50.494,61.467z M39.789,58.959l7.551-0.472c1.173-0.065,2.133,0.841,2.133,2.014v1.395
			c0,0.675-0.421,1.276-1.014,1.545c0.592,0.202,1.014,0.757,1.014,1.43v1.369l0.702,0.659l-3.166,0.121l0.702-0.738v-1.426
			c0-0.244-0.199-0.432-0.443-0.417l-5.014,0.278v1.868l0.703,0.66l-3.167,0.232l0.703-0.739V59.62L39.789,58.959z M39.32,62.084
			v3.69c0,1.487-1.209,2.832-2.695,3.002l-4.152,0.469c-0.507,0.058-0.975-0.068-1.341-0.326c0.105,0.002,0.211-0.006,0.319-0.017
			l4.716-0.534c1.486-0.167,2.695-1.514,2.695-2.998v-4.254c0-0.108-0.008-0.215-0.02-0.318
			C39.141,61.131,39.32,61.578,39.32,62.084z M29.318,62.197c0-1.174,0.96-2.243,2.132-2.375l4.716-0.534
			c1.173-0.132,2.132,0.719,2.132,1.891v4.254c0,1.172-0.959,2.241-2.132,2.373l-4.716,0.535c-1.172,0.133-2.132-0.719-2.132-1.891
			V62.197z M28.39,61.238l0.459-0.081v2.37l-0.459-0.38V61.238z M18.847,61.914l8.981-1.597v2.371l-0.7-0.577l-2.911,0.518v6.087
			l0.702,0.573l-3.166,0.563l0.703-0.824v-6.085l-2.91,0.517l-0.7,0.826V61.914z"/>
		<path style="fill:#E31837;" d="M47.71,62.302V60.58c0-0.244-0.199-0.432-0.443-0.419l-5.014,0.279v2.608l5.014-0.278
			C47.511,62.756,47.71,62.545,47.71,62.302z M47.148,61.188l-3.873,0.216v1.024l-0.458,0.026v-1.484l4.331-0.24V61.188z"/>
		<path style="fill:#E31837;" d="M31.525,66.662l4.569-0.516c0.243-0.03,0.443-0.251,0.443-0.495v-4.292
			c0-0.245-0.2-0.421-0.443-0.392l-4.569,0.516c-0.245,0.029-0.444,0.25-0.444,0.494v4.293C31.081,66.514,31.28,66.69,31.525,66.662
			z M31.642,62.477c0-0.246,0.2-0.468,0.444-0.496l3.888-0.439V62l-3.429,0.389c-0.244,0.027-0.444,0.25-0.444,0.492v3.154
			l-0.459,0.051V62.477z"/>
		<path style="fill:#E31837;" d="M53.871,65.132h4.57c0.244,0,0.444-0.2,0.444-0.442v-4.329c0-0.245-0.2-0.444-0.444-0.444h-4.57
			c-0.244,0-0.443,0.199-0.443,0.444v4.329C53.428,64.932,53.627,65.132,53.871,65.132z M53.99,60.923
			c0-0.244,0.2-0.444,0.442-0.444h3.89v0.459h-3.43c-0.244,0-0.443,0.2-0.443,0.444v3.189H53.99V60.923z"/>
		<polygon style="fill:#E31837;" points="47.779,78.872 48.262,79.174 48.262,77.752 41.597,77.752 42.041,78.137 42.041,82.214 
			41.597,82.599 43.857,82.599 43.412,82.214 43.412,80.736 47.12,80.736 47.12,79.615 43.412,79.615 43.412,78.872 		"/>
		<path style="fill:#E31837;" d="M67.114,78.872h4.013l0.483,0.302v-1.422h-4.508c-1.052,0-1.903,0.682-1.903,1.525v1.795
			c0,0.843,0.852,1.526,1.903,1.526h4.508v-1.12h-4.496c-0.3,0-0.544-0.181-0.544-0.403v-1.8
			C66.57,79.052,66.814,78.872,67.114,78.872z"/>
	</g>
	<g>
		<path style="fill:#455560;" d="M90.763,76.029v4.962l8.022-3.192C96.982,77.326,94.286,76.688,90.763,76.029z"/>
		<path style="fill:#455560;" d="M22.571,80.991v-4.962c-3.525,0.658-6.22,1.297-8.024,1.77L22.571,80.991z"/>
		<path style="fill:#455560;" d="M29.811,83.506c0.459,5.281,4.183,9.735,8.786,13.277v-4.37
			C33.733,88.889,31.102,85.531,29.811,83.506z"/>
		<path style="fill:#455560;" d="M74.738,92.413v4.37c4.602-3.542,8.326-7.996,8.785-13.277
			C82.231,85.531,79.599,88.889,74.738,92.413z"/>
		<path style="fill:#455560;" d="M29.76,40.329v12.31l3.139-4.48c4.801-0.555,11.251-1.141,18.362-1.353v6.111
			c1.75-0.043,3.551-0.066,5.405-0.066c1.855,0,3.655,0.023,5.405,0.066v-6.111c7.113,0.212,13.562,0.797,18.362,1.353l3.14,4.48
			v-12.31c-5.886-0.769-15.936-1.821-26.907-1.821C45.695,38.508,35.646,39.561,29.76,40.329z"/>
		<path style="fill:#455560;" d="M62.072,73.137c-1.753-0.047-3.552-0.07-5.405-0.07c-1.854,0-3.653,0.023-5.405,0.07v26.174
			l-3.622,3.003c3.801,1.887,7.215,3.16,9.027,3.771c1.812-0.611,5.226-1.886,9.027-3.771l-3.622-3.003V73.137z"/>
		<polygon style="fill:#455560;" points="70.395,109.573 71.067,109.573 71.067,111.607 71.312,111.607 71.312,109.573 
			72.02,109.573 72.02,109.33 70.395,109.33 		"/>
		<polygon style="fill:#455560;" points="73.323,111.182 72.738,109.33 72.346,109.33 72.346,111.607 72.59,111.607 72.59,109.671 
			73.2,111.607 73.445,111.607 74.055,109.671 74.055,111.607 74.299,111.607 74.299,109.33 73.906,109.33 		"/>
	</g>
</g>
</svg>
