<svg xmlns="http://www.w3.org/2000/svg" viewBox="0 0 144.38 134.89"><defs><style>.cls-1{fill:#fff;}.cls-2{fill:#a2aaad;}.cls-3{fill:#a61e2f;}.cls-4{fill:#333f48;}</style></defs><title>TOR</title><g id="Layer_2" data-name="Layer 2"><g id="Layer_1-2" data-name="Layer 1"><path class="cls-1" d="M134.54,77.26V72.75s-2.76-.62-7.35-1.47l1.87-6.84a112.22,112.22,0,0,0-13.36-3.09V27.76s-8.6-1.52-21-2.58L97,18,89,12.21,87.33,7,84.56,9l1.06-3.25H80.14L72.19,0l-8,5.77H58.76L59.81,9,57.05,7l-1.69,5.18-8,5.76,2.27,7.21c-12.42,1.06-21,2.58-21,2.58V61.35a113.48,113.48,0,0,0-13.37,3.09l1.89,6.84c-4.61.85-7.37,1.47-7.37,1.47v4.51L0,87.74l9.83,7v5.59s7.77-1.49,18.91-3c1.9,26.17,43.45,37.61,43.45,37.61s41.54-11.44,43.44-37.61c11.15,1.52,18.91,3,18.91,3V94.7l9.84-7ZM49.13,58.67c-3.51.29-6.76.63-9.77,1l4.79-6.21,5-.46Zm-7.26-7-4,5.7V41.71A274.34,274.34,0,0,1,72.19,39.4a274.34,274.34,0,0,1,34.34,2.31v15.7l-4-5.7C96.39,51,88.16,50.25,79.09,50v7.8q-3.36-.08-6.9-.08c-2.37,0-4.68,0-6.91.08V50c-9.07.27-17.3,1-23.41,1.73M95.25,53l5,.46L105,59.71c-3-.41-6.25-.75-9.75-1ZM75,37l6-4.37a284.85,284.85,0,0,1,32.52,3.08V61c-1.39-.24-2.9-.5-4.48-.72V39.64A282.23,282.23,0,0,0,75,37m-44.2-7.47s9-1.52,21.68-2.49l-2.58-8.25,7.23-5.25,1-3.06,5.72,4.13L61.72,7.92h3.21l7.26-5.26,7.26,5.26h3.21l-2.17,6.72,5.71-4.13,1,3.06,7.24,5.25-2.59,8.25c12.74,1,21.69,2.49,21.69,2.49v4.16a277.55,277.55,0,0,0-33.29-3.16l-8.06,5.87-8.08-5.87a277.79,277.79,0,0,0-33.27,3.16Zm0,6.18a284.21,284.21,0,0,1,32.52-3.08l6,4.37a281.25,281.25,0,0,0-34,2.61v20.6c-1.59.22-3.09.48-4.49.72Zm41.35,24.1c33.42,0,54.26,6.08,54.26,6.08l-2.66,9.66,2.66,11.83s-20.84-6.07-54.26-6.07S18,87.41,18,87.41L20.6,75.58,18,65.92s20.82-6.08,54.24-6.08M115.7,87.26c4.49.87,7.93,1.65,10.23,2.27L115.7,93.59Zm-30.19,7h5.75v1.43H85.5a2.25,2.25,0,0,1-2.44-1.94v-2.3a2.25,2.25,0,0,1,2.44-2h5.76V91.3l-.63-.4H85.51c-.38,0-.68.21-.68.52v2.3a.62.62,0,0,0,.68.51m7.79,15.29v5.64a64.29,64.29,0,0,1-7.6,4.62L81.15,116a72.12,72.12,0,0,0,12.15-6.49m-9.59,11.3a102.44,102.44,0,0,1-11.52,4.82,96.62,96.62,0,0,1-11.51-4.82l4.6-3.83V83.57c2.25,0,4.54-.07,6.91-.07s4.66,0,6.9.07V117ZM37.85,90V85.79c3.43-.49,7.17-.93,11.28-1.29v20.06S38.84,97.33,37.85,90m11.28,18.15v5.56c-5.87-4.5-10.64-10.17-11.21-16.92a43.24,43.24,0,0,0,11.21,11.36M60,91.87v1.39H55.27v1.89l.58.51H53l.56-.51V90l-.56-.5h8.5V91.3l-.61-.4H55.27v1Zm-8.92,17.65A71.85,71.85,0,0,0,63.24,116l-4.55,3.77a62.82,62.82,0,0,1-7.61-4.62Zm44.17-1.34a43.33,43.33,0,0,0,11.22-11.36c-.59,6.75-5.34,12.42-11.22,16.92Zm0-3.62V84.5c4.11.36,7.86.8,11.28,1.29V90c-1,7.3-11.28,14.53-11.28,14.53m-66.57-11L18.44,89.53c2.31-.62,5.75-1.4,10.24-2.27ZM12,97.7V93.62L3.23,87.41,12,78.12V74.5s2.14-.48,5.77-1.14l.62,2.27L15.05,90.49l12.13,4.82C18.07,96.58,12,97.7,12,97.7m101.55-2.28c0,25.38-41.35,37.25-41.35,37.25S30.84,120.8,30.84,95.42V86.9c1.4-.27,2.9-.53,4.49-.75v9.27c0,19.46,30.33,30.42,36.86,32.53,6.52-2.11,36.87-13.07,36.87-32.53V86.15c1.58.22,3.09.48,4.48.75Zm18.86-1.8V97.7s-6.09-1.12-15.19-2.39l12.13-4.82L126,75.63l.62-2.27c3.62.66,5.78,1.14,5.78,1.14v3.62l8.73,9.29Z"/><polygon class="cls-1" points="59.8 16.72 54.73 20.37 56.79 26.75 62.88 26.44 64.86 20.37 59.8 16.72"/><polygon class="cls-1" points="75.32 17.32 77.25 11.37 72.19 7.72 67.12 11.37 69.04 17.32 75.32 17.32"/><polygon class="cls-1" points="87.58 26.75 89.66 20.37 84.58 16.72 79.51 20.37 81.49 26.44 87.58 26.75"/><polygon class="cls-1" points="77.25 27.7 75.32 21.75 69.04 21.75 67.11 27.7 72.19 31.37 77.25 27.7"/><path class="cls-1" d="M68.54,75.51h6a2.75,2.75,0,0,0,2.71-2.73V67.3a2.74,2.74,0,0,0-2.71-2.73h-6A2.75,2.75,0,0,0,65.8,67.3v5.48a2.76,2.76,0,0,0,2.74,2.73m-.48-8.23a.55.55,0,0,1,.57-.55h5.81a.58.58,0,0,1,.6.55v5.51a.6.6,0,0,1-.6.57H68.63a.57.57,0,0,1-.57-.57Z"/><path class="cls-1" d="M110.41,78.32l6,1a2.26,2.26,0,0,0,2.74-2.28V71.64a3.36,3.36,0,0,0-2.74-3.18l-6-1a2.22,2.22,0,0,0-2.73,2.25v5.4a3.38,3.38,0,0,0,2.73,3.22M109.94,70a.44.44,0,0,1,.55-.45l5.84,1a.69.69,0,0,1,.56.66v5.47a.46.46,0,0,1-.56.49l-5.84-1a.71.71,0,0,1-.55-.66Z"/><path class="cls-1" d="M40,77.47l6-.71a3.13,3.13,0,0,0,2.72-3V68.31A2.39,2.39,0,0,0,46,65.92l-6,.69a3.12,3.12,0,0,0-2.74,3V75A2.41,2.41,0,0,0,40,77.47m-.47-8.12a.65.65,0,0,1,.56-.64l5.83-.66a.48.48,0,0,1,.55.5V74a.65.65,0,0,1-.55.64l-5.83.67a.5.5,0,0,1-.56-.53Z"/><polygon class="cls-1" points="28.53 70.58 28.53 78.35 27.63 79.41 31.69 78.67 30.77 77.93 30.77 70.15 34.5 69.53 35.38 70.26 35.38 67.21 23.93 69.26 23.93 72.28 24.82 71.24 28.53 70.58"/><polygon class="cls-1" points="98.92 68.16 98.92 75.95 98.03 76.74 102.06 77.18 101.18 76.19 101.18 68.42 104.89 68.82 105.78 69.82 105.78 66.78 94.32 65.54 94.32 68.58 95.21 67.77 98.92 68.16"/><polygon class="cls-1" points="79.16 75.59 83.23 75.72 82.31 74.77 82.31 67.84 88.64 75.99 92.41 76.24 91.53 75.33 91.53 66.24 92.41 65.39 88.38 65.09 89.28 66.05 89.28 73.07 82.97 64.85 79.16 64.72 80.05 65.67 80.05 74.72 79.16 75.59"/><path class="cls-1" d="M50.65,76.37l4.05-.31-.9-.83v-2.4l6.39-.34a.51.51,0,0,1,.57.53v1.8l-.89.94,4-.13L63,74.77V73a1.92,1.92,0,0,0-1.3-1.83A2.25,2.25,0,0,0,63,69.26v-1.8a2.54,2.54,0,0,0-2.73-2.55l-9.64.59.9.83v9.09Zm3.15-9L60.19,67a.52.52,0,0,1,.57.54v2.16a.64.64,0,0,1-.57.63l-6.39.35Z"/><path class="cls-2" d="M49.13,53l-5,.46-4.79,6.21c3-.41,6.26-.75,9.77-1Z"/><path class="cls-2" d="M37.85,90c1,7.3,11.28,14.53,11.28,14.53V84.5c-4.11.36-7.85.8-11.28,1.29Z"/><path class="cls-2" d="M51.08,115.16a62.82,62.82,0,0,0,7.61,4.62L63.24,116a71.85,71.85,0,0,1-12.16-6.49Z"/><path class="cls-2" d="M100.23,53.5l-5-.46v5.63c3.5.29,6.75.63,9.76,1Z"/><path class="cls-2" d="M95.25,104.56s10.3-7.23,11.28-14.53V85.79c-3.42-.49-7.17-.93-11.28-1.29Z"/><path class="cls-2" d="M85.7,119.78a64.29,64.29,0,0,0,7.6-4.62v-5.64A72.12,72.12,0,0,1,81.15,116Z"/><path class="cls-2" d="M69.35,68.59a.59.59,0,0,1,.58-.59h4.38v-.55h-5a.54.54,0,0,0-.55.55v4.67h.57Z"/><path class="cls-2" d="M78,67.3v5.48a3.44,3.44,0,0,1-3.44,3.43h-6a2.88,2.88,0,0,1-.42,0,2.65,2.65,0,0,0,1.7.6h5.31a3.43,3.43,0,0,0,3.44-3.43V68.59A2.55,2.55,0,0,0,78,66.92c0,.11,0,.25,0,.38"/><path class="cls-2" d="M111.24,71.56a.46.46,0,0,1,.56-.45l4.38.74v-.57l-5-.86a.46.46,0,0,0-.56.46v4.63l.59.1Z"/><path class="cls-2" d="M119.83,71.35a1.6,1.6,0,0,1,0,.44V77.2a2.84,2.84,0,0,1-3.45,2.85l-6-1-.41-.12a3.12,3.12,0,0,0,1.71.89l5.3.91a2.81,2.81,0,0,0,3.44-2.8V73.17a3.12,3.12,0,0,0-.62-1.82"/><path class="cls-2" d="M40.26,70v4.61l.57-.06v-4a.64.64,0,0,1,.58-.63l4.37-.5v-.59l-5,.57a.65.65,0,0,0-.56.63"/><path class="cls-2" d="M49.46,68.23v5.43A3.92,3.92,0,0,1,46,77.48l-6,.71H39.6a2.32,2.32,0,0,0,1.71.4l5.3-.59a3.93,3.93,0,0,0,3.44-3.81V69.49a2.47,2.47,0,0,0-.6-1.65c0,.12,0,.25,0,.39"/><polygon class="cls-2" points="25.23 73.36 26.11 72.29 27.81 72 27.81 71.42 25.23 71.85 25.23 73.36"/><polygon class="cls-2" points="31.49 70.77 31.49 77.53 32.08 78 32.08 71.24 34.78 70.77 34.2 70.28 31.49 70.77"/><polygon class="cls-2" points="36.11 70.84 36.69 71.32 36.69 68.29 36.11 68.42 36.11 70.84"/><polygon class="cls-2" points="29.52 79.76 28.93 80.45 32.97 79.75 32.38 79.27 29.52 79.76"/><polygon class="cls-2" points="96.53 69.2 98.22 69.4 98.22 68.81 95.62 68.52 95.62 70 96.53 69.2"/><polygon class="cls-2" points="104.59 69.5 101.9 69.18 101.9 75.97 102.48 76.63 102.48 69.87 105.18 70.14 104.59 69.5"/><polygon class="cls-2" points="106.51 70.58 107.08 71.24 107.08 68.22 106.51 68.15 106.51 70.58"/><polygon class="cls-2" points="99.34 78.19 103.38 78.61 102.79 77.96 99.92 77.66 99.34 78.19"/><polygon class="cls-2" points="89.46 76.76 89.94 77.36 93.72 77.62 93.14 77 89.46 76.76"/><polygon class="cls-2" points="92.25 75.07 92.82 75.66 92.82 67.61 93.72 66.78 92.25 66.67 92.25 75.07"/><polygon class="cls-2" points="83.92 76.47 81.06 76.4 80.46 76.94 84.51 77.09 83.92 76.47"/><polygon class="cls-2" points="83.61 70.66 83.03 69.88 83.03 74.53 83.61 75.13 83.61 70.66"/><path class="cls-2" d="M64.31,75v-.74a1.94,1.94,0,0,0-.58-1.4v1.59Z"/><polygon class="cls-2" points="55.1 74.08 60.04 73.8 60.04 73.21 54.52 73.51 54.52 74.87 55.1 75.44 55.1 74.08"/><polygon class="cls-2" points="55.41 76.74 52.54 76.98 51.96 77.6 55.99 77.31 55.41 76.74"/><path class="cls-2" d="M63,71.13a3.57,3.57,0,0,1,.3.38,2.21,2.21,0,0,0,1.05-1.85v-1A2.49,2.49,0,0,0,63.7,67a1.63,1.63,0,0,1,0,.39v1.76A2.93,2.93,0,0,1,63,71.13"/><polygon class="cls-2" points="55.1 68.59 60.04 68.31 60.04 67.76 54.52 68.05 54.52 69.94 55.1 69.9 55.1 68.59"/><polygon class="cls-2" points="61.75 76.39 61.17 77 65.22 76.85 64.63 76.29 61.75 76.39"/><path class="cls-3" d="M132.4,78.12V74.5s-2.16-.48-5.78-1.14L126,75.63l3.34,14.85-12.13,4.83c9.1,1.27,15.19,2.39,15.19,2.39V93.62l8.73-6.21Z"/><path class="cls-3" d="M18.38,75.63l-.62-2.27C14.13,74,12,74.5,12,74.5v3.62L3.24,87.41,12,93.62V97.7s6.08-1.12,15.19-2.39L15.05,90.49Z"/><path class="cls-3" d="M35.33,39.64a281.25,281.25,0,0,1,34-2.61l-6-4.38a285.44,285.44,0,0,0-32.52,3.09V61c1.4-.24,2.9-.5,4.49-.72Z"/><path class="cls-3" d="M113.54,61V35.74A284.85,284.85,0,0,0,81,32.66L75,37a282.23,282.23,0,0,1,34,2.61v20.6c1.58.22,3.09.48,4.48.72"/><path class="cls-3" d="M109.06,95.42c0,19.46-30.35,30.42-36.87,32.53-6.53-2.11-36.86-13.07-36.86-32.53V86.15c-1.59.22-3.09.48-4.5.75v8.52c0,25.39,41.36,37.25,41.36,37.25s41.36-11.86,41.36-37.25V86.9c-1.4-.27-2.91-.53-4.49-.75Z"/><path class="cls-3" d="M72.19,36.43l8.06-5.87a277.88,277.88,0,0,1,33.3,3.16V29.55s-9-1.51-21.7-2.48l2.59-8.25L87.2,13.57l-1-3.06-5.71,4.13,2.17-6.72H79.44L72.19,2.66,64.93,7.92H61.72l2.18,6.72-5.72-4.13-1,3.06-7.23,5.25,2.58,8.25c-12.73,1-21.69,2.48-21.69,2.48v4.17a278.15,278.15,0,0,1,33.29-3.16ZM84.58,16.72l5.08,3.65-2.08,6.38-6.09-.31-2-6.07Zm-12.39-9,5.06,3.65-1.93,5.94H69l-1.93-5.94ZM69,21.75h6.28l1.93,5.95-5.06,3.67L67.11,27.7Zm-12.25,5-2.06-6.38,5.07-3.65,5,3.65-2,6.07Z"/><path class="cls-3" d="M110.49,76.19l5.84,1a.46.46,0,0,0,.56-.49V71.24a.69.69,0,0,0-.56-.66l-5.84-1a.44.44,0,0,0-.55.45v5.49a.71.71,0,0,0,.55.66m.16-5.31a.47.47,0,0,1,.56-.46l5,.86v.57l-4.38-.74a.46.46,0,0,0-.56.45v4l-.59-.09Z"/><path class="cls-3" d="M18,87.41s20.82-6.07,54.24-6.07,54.25,6.07,54.25,6.07l-2.65-11.83,2.65-9.66s-20.83-6.08-54.25-6.08S18,65.92,18,65.92l2.65,9.66Zm7.28-14V71.85l2.58-.43V72l-1.7.29Zm3.7,7.09.59-.69,2.87-.48.58.47Zm3.15-9.21V78l-.59-.47V70.77l2.71-.49.59.49ZM52,77.6l.58-.62,2.87-.24.58.57Zm3.14-2.16-.58-.57V73.51l5.52-.3v.59l-4.94.29Zm25.36,1.5.6-.54,2.87.07.58.62Zm3.15-1.81-.58-.6V69.88l.58.78Zm6.33,2.23-.48-.6,3.68.24.58.62ZM95.62,70V68.52l2.6.29v.59l-1.69-.2Zm3.72,8.19.58-.53,2.87.3.59.65Zm3.14-8.32v6.76L101.9,76V69.19l2.68.31.6.64Zm18,3.3v4.75a2.8,2.8,0,0,1-3.43,2.8l-5.3-.91a3.12,3.12,0,0,1-1.71-.89l.41.12,6,1a2.84,2.84,0,0,0,3.46-2.85V71.79a1.6,1.6,0,0,0,0-.44,3.11,3.11,0,0,1,.61,1.82M107.68,69.7a2.23,2.23,0,0,1,2.73-2.25l6,1a3.36,3.36,0,0,1,2.74,3.18v5.42a2.26,2.26,0,0,1-2.74,2.28l-6-1a3.38,3.38,0,0,1-2.73-3.22Zm-1.17-1.55.57.07v3l-.57-.66ZM94.32,65.54l11.46,1.24v3l-.9-1-3.7-.41v7.78l.88,1-4-.44.89-.79V68.16l-3.71-.4-.89.82Zm-1.5,2.07v8l-.57-.59v-8.4l1.47.11ZM79.16,64.72l3.81.13,6.31,8.22v-7l-.9-1,4,.29-.88.85v9.09l.88.91L88.63,76l-6.32-8.15v6.92l.92,1-4.07-.13.89-.87v-9Zm-.59,3.87v4.77a3.43,3.43,0,0,1-3.44,3.43H69.82a2.65,2.65,0,0,1-1.7-.6,2.88,2.88,0,0,0,.42,0h6A3.44,3.44,0,0,0,78,72.78V67.3c0-.13,0-.27,0-.37a2.49,2.49,0,0,1,.61,1.66M65.8,67.3a2.75,2.75,0,0,1,2.74-2.73h6a2.74,2.74,0,0,1,2.71,2.73v5.48a2.75,2.75,0,0,1-2.71,2.73h-6a2.76,2.76,0,0,1-2.74-2.73Zm-.58,9.55-4,.15.58-.61,2.88-.1Zm-1.49-4a1.94,1.94,0,0,1,.58,1.4V75l-.58-.55V72.86Zm.58-4.17v1a2.21,2.21,0,0,1-1.05,1.85,3.57,3.57,0,0,0-.3-.38,2.93,2.93,0,0,0,.77-1.94V67.42a1.63,1.63,0,0,0,0-.39,2.49,2.49,0,0,1,.61,1.66M50.65,65.5l9.64-.59A2.53,2.53,0,0,1,63,67.46v1.8a2.24,2.24,0,0,1-1.29,1.95A1.91,1.91,0,0,1,63,73v1.72l.89.87-4,.14.89-1V73a.51.51,0,0,0-.57-.53l-6.39.34v2.4l.9.83-4.05.31.9-1V66.33Zm-.6,4V74.2A3.93,3.93,0,0,1,46.61,78l-5.3.6a2.37,2.37,0,0,1-1.71-.41H40l6-.71a3.92,3.92,0,0,0,3.43-3.82V68.23c0-.14,0-.27,0-.39a2.47,2.47,0,0,1,.6,1.65m-12.77.13a3.12,3.12,0,0,1,2.74-3l6-.69a2.39,2.39,0,0,1,2.72,2.39v5.44a3.12,3.12,0,0,1-2.72,3l-6,.71A2.41,2.41,0,0,1,37.28,75Zm-1.17-1.21.58-.12v3l-.58-.48Zm-12.18.85,11.45-2.05v3.05l-.88-.73-3.73.62v7.78l.92.74-4.06.74.9-1.06V70.58l-3.71.66-.89,1Z"/><path class="cls-3" d="M60.76,69.73V67.57a.52.52,0,0,0-.57-.54l-6.39.35v3.33l6.39-.35a.64.64,0,0,0,.57-.63M60,68.31l-4.94.28V69.9l-.58,0V68L60,67.76Z"/><path class="cls-3" d="M40.11,75.33l5.83-.67a.65.65,0,0,0,.55-.64V68.55a.49.49,0,0,0-.55-.51l-5.83.67a.65.65,0,0,0-.56.64V74.8a.5.5,0,0,0,.56.53M40.26,70a.65.65,0,0,1,.56-.63l5-.57v.59l-4.37.5a.64.64,0,0,0-.58.63v4l-.57.06Z"/><path class="cls-3" d="M68.63,73.36h5.81a.6.6,0,0,0,.6-.57V67.28a.58.58,0,0,0-.6-.55H68.63a.55.55,0,0,0-.57.55v5.51a.57.57,0,0,0,.57.57M68.78,68a.54.54,0,0,1,.55-.55h5V68H69.93a.59.59,0,0,0-.58.59v4.08h-.57Z"/><polygon class="cls-3" points="60.85 90.9 61.46 91.3 61.46 89.47 52.96 89.47 53.52 89.96 53.52 95.15 52.96 95.66 55.85 95.66 55.27 95.15 55.27 93.26 60 93.26 60 91.87 55.27 91.87 55.27 90.9 60.85 90.9"/><path class="cls-3" d="M85.51,90.9h5.12l.63.4V89.46H85.5a2.25,2.25,0,0,0-2.44,2v2.3a2.25,2.25,0,0,0,2.44,1.94h5.76V94.23H85.51a.63.63,0,0,1-.68-.51v-2.3c0-.31.3-.52.68-.52"/><path class="cls-4" d="M115.7,87.27v6.32l10.23-4.06c-2.3-.62-5.74-1.4-10.23-2.26"/><path class="cls-4" d="M28.68,93.59V87.27c-4.49.86-7.93,1.64-10.24,2.26Z"/><path class="cls-4" d="M37.92,96.82c.57,6.75,5.34,12.42,11.21,16.92v-5.56A43.24,43.24,0,0,1,37.92,96.82"/><path class="cls-4" d="M95.25,108.18v5.56c5.88-4.5,10.62-10.17,11.22-16.92a43.48,43.48,0,0,1-11.22,11.36"/><path class="cls-4" d="M37.85,41.71v15.7l4-5.7C48,51,56.21,50.25,65.29,50v7.8c2.22,0,4.53-.08,6.9-.08s4.66,0,6.9.08V50c9.07.27,17.3,1,23.44,1.73l4,5.7V41.71A274.34,274.34,0,0,0,72.19,39.4a274.34,274.34,0,0,0-34.34,2.31"/><path class="cls-4" d="M79.09,83.57q-3.36-.07-6.9-.07c-2.37,0-4.66,0-6.9.07V117l-4.61,3.83a94.93,94.93,0,0,0,11.51,4.82,102.44,102.44,0,0,0,11.52-4.82L79.09,117Z"/></g></g></svg>