<?xml version="1.0" encoding="iso-8859-1"?>
<!-- Generator: Adobe Illustrator 22.1.0, SVG Export Plug-In . SVG Version: 6.00 Build 0)  -->
<!DOCTYPE svg PUBLIC "-//W3C//DTD SVG 1.1//EN" "http://www.w3.org/Graphics/SVG/1.1/DTD/svg11.dtd">
<svg version="1.1" id="Layer_1" xmlns="http://www.w3.org/2000/svg" xmlns:xlink="http://www.w3.org/1999/xlink" x="0px" y="0px"
	 viewBox="0 0 113.334 143.333" style="enable-background:new 0 0 113.334 143.333;" xml:space="preserve">
<g>
	<g>
		<g>
			<g>
				<path style="fill:#ADAFB2;" d="M56.666,14.738l9.396,15.72l4.594-7.686l26.596,44.499l-26.216,43.868l-4.719-7.896
					l-9.653,16.148l-9.65-16.148l-4.719,7.895L16.081,67.271l26.594-44.501l4.597,7.688L56.666,14.738 M56.666,12.212l-1.112,1.861
					l-8.282,13.859l-3.485-5.826l-1.111-1.862l-1.113,1.862L14.968,66.605l-0.398,0.666l0.398,0.664l26.214,43.866l1.112,1.863
					l1.113-1.863l3.605-6.031l8.538,14.285l1.112,1.861l1.112-1.861l8.541-14.287l3.607,6.037l1.113,1.859l1.111-1.859l26.216-43.87
					l0.398-0.664l-0.398-0.666L71.769,22.107l-1.113-1.861l-1.112,1.861l-3.482,5.825l-8.283-13.859L56.666,12.212L56.666,12.212z"
					/>
			</g>
			<polygon style="fill:#001B43;" points="47.013,103.242 56.664,119.391 66.317,103.242 71.036,111.139 97.252,67.271 
				70.656,22.772 66.062,30.458 56.666,14.738 47.271,30.458 42.674,22.771 16.081,67.271 42.294,111.137 			"/>
			<g>
				<path style="fill:#96C0E6;" d="M83.555,74.818l-12.52,20.943l-1.147-1.928l-2.951,4.934l4.099,6.859l18.415-30.809H83.555z
					 M42.295,95.762L29.78,74.818h-5.896l18.412,30.809l4.103-6.859l-2.95-4.934L42.295,95.762z M74.117,74.818l-17.448,29.193
					L39.217,74.818h-5.899l23.35,39.061l23.345-39.061H74.117z"/>
			</g>
			<path style="fill:#FFFFFF;" d="M23.887,59.721h5.74l13.05-21.832l1.121,1.873l2.872-4.801l-3.993-6.679L23.887,59.721z
				 M70.657,28.283l-3.992,6.677l2.872,4.805l1.12-1.875l13.048,21.832h5.742L70.657,28.283z"/>
			<polygon style="fill:#FFFFFF;" points="43.035,52.667 56.669,29.857 70.3,52.667 76.043,52.667 56.669,20.249 37.292,52.667 			
				"/>
			<g>
				<path style="fill:#FFFFFF;" d="M21.085,63.086h2.004l1.334,5.354h0.021l1.746-5.354h1.711l1.731,5.494h0.024l1.402-5.494h1.863
					l-2.44,8.348h-1.639l-1.84-5.778h-0.024l-1.839,5.778h-1.581L21.085,63.086z"/>
				<path style="fill:#FFFFFF;" d="M33.81,63.086h1.839v3.113h3.573v-3.113h1.84v8.348h-1.84v-3.608h-3.573v3.608H33.81V63.086z"/>
				<path style="fill:#FFFFFF;" d="M43.067,63.086h1.838v8.348h-1.838V63.086z"/>
				<path style="fill:#FFFFFF;" d="M48.657,64.712h-2.382v-1.627h6.604v1.627h-2.382v6.721h-1.84V64.712z"/>
				<path style="fill:#FFFFFF;" d="M54.314,63.086h5.674v1.699h-3.833v1.557h2.833v1.696h-2.833v1.699h4.044v1.697h-5.885V63.086z"
					/>
				<path style="fill:#FFFFFF;" d="M66.885,65.254c-0.365-0.436-0.896-0.683-1.581-0.683c-1.39,0-2.417,1.132-2.417,2.688
					c0,1.557,1.027,2.688,2.359,2.688c0.743,0,1.344-0.33,1.721-0.895l1.533,1.143c-0.696,0.992-1.874,1.451-3.019,1.451
					c-2.606,0-4.504-1.709-4.504-4.387c0-2.676,1.898-4.385,4.504-4.385c0.932,0,2.11,0.319,2.818,1.226L66.885,65.254z"/>
				<path style="fill:#FFFFFF;" d="M72.285,63.086h1.521l3.633,8.348h-2.076l-0.719-1.768h-3.242l-0.697,1.768h-2.027L72.285,63.086
					z M72.992,65.515l-1.012,2.595h2.039L72.992,65.515z"/>
				<path style="fill:#FFFFFF;" d="M78.267,63.086h3.102c1.734,0,3.17,0.554,3.17,2.535c0,1.958-1.331,2.559-3.088,2.559h-1.346
					v3.254h-1.838V63.086z M80.105,66.623h1.229c0.646,0,1.297-0.224,1.297-1.002c0-0.861-0.873-0.978-1.582-0.978h-0.943V66.623z"
					/>
				<path style="fill:#FFFFFF;" d="M90.056,65.125c-0.295-0.377-0.885-0.553-1.332-0.553c-0.52,0-1.238,0.235-1.238,0.861
					c0,1.521,3.844,0.542,3.844,3.466c0,1.863-1.498,2.748-3.219,2.748c-1.074,0-2.017-0.318-2.807-1.049l1.309-1.439
					c0.377,0.494,0.99,0.789,1.604,0.789c0.602,0,1.273-0.281,1.273-0.871c0-1.534-3.916-0.709-3.916-3.49
					c0-1.781,1.545-2.712,3.186-2.712c0.943,0,1.851,0.248,2.559,0.872L90.056,65.125z"/>
			</g>
			<g>
				<g>
					<path style="fill:#FFFFFF;" d="M49.912,74.771h5.6v1.699h-3.761v1.697h2.691v1.699h-2.691v3.254h-1.839V74.771z"/>
					<path style="fill:#FFFFFF;" d="M61.702,76.941c-0.364-0.436-0.895-0.684-1.58-0.684c-1.391,0-2.417,1.133-2.417,2.69
						c0,1.555,1.026,2.688,2.358,2.688c0.744,0,1.344-0.33,1.723-0.897l1.532,1.145c-0.695,0.99-1.875,1.451-3.019,1.451
						c-2.606,0-4.505-1.711-4.505-4.387c0-2.678,1.898-4.387,4.505-4.387c0.932,0,2.11,0.318,2.818,1.227L61.702,76.941z"/>
				</g>
			</g>
			<g>
				<g>
					<path style="fill:#FFFFFF;" d="M35.269,54.979h1.198l1.181,3.126h0.014l1.199-3.126h1.125l-1.967,4.771h-0.843L35.269,54.979z"
						/>
					<path style="fill:#FFFFFF;" d="M41.322,54.979h0.869l2.075,4.771h-1.185l-0.412-1.011h-1.854l-0.396,1.011h-1.158
						L41.322,54.979z M41.726,56.367l-0.58,1.483h1.166L41.726,56.367z"/>
					<path style="fill:#FFFFFF;" d="M44.839,54.979h1.429l2.027,3.315h0.015v-3.315h1.052v4.771h-1.375l-2.083-3.396h-0.013v3.396
						h-1.052V54.979z"/>
					<path style="fill:#FFFFFF;" d="M53.506,56.219c-0.208-0.249-0.513-0.39-0.902-0.39c-0.796,0-1.381,0.646-1.381,1.536
						c0,0.889,0.585,1.537,1.347,1.537c0.424,0,0.769-0.189,0.983-0.513l0.877,0.653c-0.397,0.566-1.073,0.829-1.727,0.829
						c-1.488,0-2.572-0.977-2.572-2.506c0-1.53,1.084-2.506,2.572-2.506c0.532,0,1.207,0.182,1.61,0.701L53.506,56.219z"/>
					<path style="fill:#FFFFFF;" d="M57.339,54.859c1.489,0,2.574,0.977,2.574,2.506c0,1.529-1.085,2.506-2.574,2.506
						c-1.49,0-2.573-0.977-2.573-2.506C54.766,55.835,55.849,54.859,57.339,54.859z M57.339,58.902c0.896,0,1.481-0.648,1.481-1.537
						c0-0.89-0.586-1.536-1.481-1.536c-0.896,0-1.483,0.646-1.483,1.536C55.856,58.254,56.443,58.902,57.339,58.902z"/>
					<path style="fill:#FFFFFF;" d="M64.825,57.911c0,1.125-0.688,1.961-2.01,1.961c-1.326,0-2.015-0.836-2.015-1.961v-2.932h1.052
						v2.891c0,0.586,0.404,1.031,0.963,1.031c0.554,0,0.957-0.445,0.957-1.031v-2.891h1.053V57.911z"/>
					<path style="fill:#FFFFFF;" d="M65.406,54.979h1.201l1.178,3.126h0.014l1.199-3.126h1.125l-1.967,4.771h-0.842L65.406,54.979z"
						/>
					<path style="fill:#FFFFFF;" d="M70.757,54.979h3.24v0.972h-2.189v0.889h2.068v0.97h-2.068v0.97h2.311v0.97h-3.361V54.979z"/>
					<path style="fill:#FFFFFF;" d="M75.054,54.979h1.844c0.979,0,1.801,0.337,1.801,1.449c0,0.667-0.357,1.185-1.031,1.308
						l1.213,2.014h-1.26l-0.997-1.907h-0.519v1.907h-1.051V54.979z M76.105,56.954h0.62c0.384,0,0.882-0.013,0.882-0.531
						c0-0.48-0.432-0.553-0.815-0.553h-0.687V56.954z"/>
				</g>
			</g>
		</g>
	</g>
</g>
</svg>
