<?xml version="1.0" encoding="iso-8859-1"?>
<!-- Generator: Adobe Illustrator 19.0.0, SVG Export Plug-In . SVG Version: 6.00 Build 0)  -->
<svg version="1.1" id="Capa_1" xmlns="http://www.w3.org/2000/svg" xmlns:xlink="http://www.w3.org/1999/xlink" x="0px" y="0px"
	 viewBox="0 0 463 463" style="enable-background:new 0 0 463 463;" xml:space="preserve">
<path d="M428.399,236.554l-79.601-9.95c-12.61-1.576-24.7-5.391-35.933-11.337l-117.648-62.284
	c-10.809-6.51-28.594-20.047-46.282-38.65c-1.467-1.543-3.524-2.387-5.65-2.329c-2.129,0.062-4.132,1.024-5.508,2.649
	c-7.738,9.135-17.631,31.351,0.316,50.046c0.183,0.189,7.165,7.173,20.741,20.743l-11.7,13.371
	C137.578,209.736,123.773,216,109.26,216c-16.218,0-31.527-7.879-40.954-21.076L52.253,172.45C46.685,164.654,37.641,160,28.06,160
	C12.588,160,0,172.588,0,188.06v91.44c0,23.639,17.36,43.295,40,46.902v9.098c0,8.547,6.953,15.5,15.5,15.5h16
	c8.547,0,15.5-6.953,15.5-15.5V327h17v8.5c0,8.547,6.953,15.5,15.5,15.5h16c8.547,0,15.5-6.953,15.5-15.5V327h97v8.5
	c0,8.547,6.953,15.5,15.5,15.5h16c8.547,0,15.5-6.953,15.5-15.5V327h17v8.5c0,8.547,6.953,15.5,15.5,15.5h16
	c8.547,0,15.5-6.953,15.5-15.5V327h17v8.5c0,8.547,6.953,15.5,15.5,15.5h16c8.547,0,15.5-6.953,15.5-15.5V327h8.5
	c17.369,0,31.5-14.131,31.5-31.5v-19.751C463,255.87,448.125,239.019,428.399,236.554z M148.91,154.306
	c-7.735-8.059-6.497-16.728-4.009-22.685c12.89,12.681,25.477,22.733,35.251,29.457l-11.419,13.051
	C161.066,166.464,149.346,154.746,148.91,154.306z M15,188.06c0-7.201,5.859-13.06,13.061-13.06c4.746,0,9.228,2.306,11.986,6.168
	L56.1,203.643C68.336,220.773,88.208,231,109.26,231c18.839,0,36.759-8.131,49.164-22.309l34.813-39.786l22.898,12.123
	l-9.208,13.812c-2.298,3.446-1.366,8.103,2.08,10.4c1.278,0.853,2.724,1.261,4.153,1.261c2.424,0,4.802-1.173,6.247-3.341
	l10.052-15.078l12.477,6.605l-9.509,14.264c-2.298,3.446-1.366,8.103,2.08,10.4c1.278,0.853,2.724,1.261,4.153,1.261
	c2.424,0,4.802-1.173,6.247-3.341l10.333-15.5c0.007-0.01,0.012-0.021,0.018-0.031l12.479,6.606l-9.81,14.715
	c-2.298,3.446-1.366,8.103,2.08,10.4c1.278,0.853,2.724,1.261,4.153,1.261c2.424,0,4.802-1.173,6.247-3.341l10.654-15.981
	l12.476,6.605l-10.111,15.167c-2.298,3.447-1.366,8.103,2.08,10.4c1.279,0.853,2.724,1.261,4.153,1.261
	c2.424,0,4.802-1.173,6.247-3.341l10.962-16.444c12.555,6.496,26.028,10.684,40.069,12.438l79.601,9.95
	C438.773,252.967,448,263.419,448,275.749V280H15.5c-0.164,0-0.325,0.014-0.487,0.024C15.01,279.849,15,279.676,15,279.5V188.06z
	 M72,335.5c0,0.276-0.225,0.5-0.5,0.5h-16c-0.275,0-0.5-0.224-0.5-0.5V327h17V335.5z M136,335.5c0,0.276-0.225,0.5-0.5,0.5h-16
	c-0.275,0-0.5-0.224-0.5-0.5V327h17V335.5z M280,335.5c0,0.276-0.225,0.5-0.5,0.5h-16c-0.275,0-0.5-0.224-0.5-0.5V327h17V335.5z
	 M344,335.5c0,0.276-0.225,0.5-0.5,0.5h-16c-0.275,0-0.5-0.224-0.5-0.5V327h17V335.5z M408,335.5c0,0.276-0.225,0.5-0.5,0.5h-16
	c-0.275,0-0.5-0.224-0.5-0.5V327h17V335.5z M431.5,312h-384c-12.312,0-23.046-6.882-28.559-17H448v0.5
	C448,304.598,440.599,312,431.5,312z"/>
<g>
</g>
<g>
</g>
<g>
</g>
<g>
</g>
<g>
</g>
<g>
</g>
<g>
</g>
<g>
</g>
<g>
</g>
<g>
</g>
<g>
</g>
<g>
</g>
<g>
</g>
<g>
</g>
<g>
</g>
</svg>
