<svg id="Layer_1" data-name="Layer 1" xmlns="http://www.w3.org/2000/svg" xmlns:xlink="http://www.w3.org/1999/xlink" viewBox="0 0 194.76 19.96"><defs><style>.cls-1{fill:none;}.cls-2,.cls-4{fill:#fff;}.cls-3{clip-path:url(#clip-path);}.cls-4{stroke:#fff;stroke-miterlimit:10;}</style><clipPath id="clip-path" transform="translate(-228.98 -442.88)"><rect class="cls-1" width="792" height="612"/></clipPath></defs><title>RSL-Wordmark(White)</title><rect class="cls-2" x="82.37" y="10.49" width="8.17" height="2.4"/><g class="cls-3"><path class="cls-2" d="M315.19,451c.16.28,2.8,5,3.16,5.66s-1,1.58-1,1.58h9.19a6.42,6.42,0,0,1-2-1.81c-.46-.74-8-13.59-8-13.59s-7.54,13.39-7.67,13.57a11.56,11.56,0,0,1-2,1.83h6.46s-1.57-.71-1.18-1.56,3-5.66,3-5.68" transform="translate(-228.98 -442.88)"/><path class="cls-2" d="M294.45,445.59a2.79,2.79,0,0,0-.82,2.08h0c.09,2.86,3.34,4,5.28,4.67l.52.19a16.79,16.79,0,0,1,3,1.31c.84.55.69,1.21.37,1.59a2.86,2.86,0,0,1-2.19.62c-2.62,0-5.08-1.44-3.07-3.2-2.34-.57-4.77.72-4.74,2.35.06,3.16,6.57,3.32,7.87,3.32,3.66,0,7.56-1.55,7.5-4.93,0-2.31-1.71-4-6-5.28-1-.3-2.25-.67-2.89-.93s-.73-.8-.09-1.07a6.47,6.47,0,0,1,2-.26c1.36,0,3.49.16,2.92,1.95.84.12,3.23-.29,3.22-1.48,0-1.84-2.34-2.75-7.06-2.75-.41,0-4.11.06-5.81,1.82" transform="translate(-228.98 -442.88)"/><path class="cls-2" d="M352.74,444H337v4.36s1.15-1.79,2.36-1.84l2.87-.13v10.06c0,.82-1.36,1.8-1.36,1.8h8.49s-1.35-1-1.35-1.82v-10s1.59,0,2.85.13,2.38,1.84,2.38,1.84V444Z" transform="translate(-228.98 -442.88)"/><path class="cls-2" d="M325,444s1.33.94,1.33,1.77v10.62c0,.61-.76,1.38-1.6.26l-1.29,1.6h12.13c2.28,0,3.92-.72,4.5-2a1.71,1.71,0,0,0,0-1.4,4.11,4.11,0,0,0-2.21-1.79l-1-.36.28,1a1.36,1.36,0,0,1-.23,1.14c-.45.6-1.49.9-3,.9h-1.88v-10c0-.72,1.43-1.77,1.43-1.77Z" transform="translate(-228.98 -442.88)"/></g><rect class="cls-2" x="146.63" y="10.49" width="8.17" height="2.4"/><g class="cls-3"><path class="cls-2" d="M379.45,451c.17.28,2.8,5,3.16,5.66s-1,1.58-1,1.58h9.93a10.39,10.39,0,0,1-2.73-1.81c-.48-.73-8-13.59-8-13.59s-7.19,12.73-7.68,13.57a8.19,8.19,0,0,1-1.45,1.83h6s-1.57-.71-1.19-1.56,3-5.66,3-5.68" transform="translate(-228.98 -442.88)"/><path class="cls-2" d="M397.56,444H389s1.43.89,1.43,1.73v10.81c0,.68-1.43,1.71-1.43,1.71h8.68s-1.47-.89-1.47-1.92v-3.22l2.07,2.13c1.31,1.35.92,1,1.48,1.55s-.6,1.46-.6,1.46H410a12.23,12.23,0,0,1-3.22-1.65l-6.66-7c1.28-1,4.68-3.55,5.14-3.84.77-.51,3.44-1.77,3.44-1.77h-8.33s1.34,1.07.64,1.59-4.32,3.16-4.75,3.48v-3.27c0-.88,1.32-1.8,1.32-1.8" transform="translate(-228.98 -442.88)"/><path class="cls-2" d="M246.08,444s1.43,1,1.43,1.94V456c0,.93-1.6,2.24-1.6,2.24h14.35l1.49-5.35s-.95,1-1.61,1.92a2.54,2.54,0,0,1-2.43,1h-4.42v-4.11h3.57a3.61,3.61,0,0,1,1.91.86v-4.17a3.26,3.26,0,0,1-1.91.93h-3.57v-2.95h4.43a4.47,4.47,0,0,1,3,1.47l-.34-3.83Z" transform="translate(-228.98 -442.88)"/><path class="cls-2" d="M357.13,444s1.34.94,1.34,1.77v10.69c0,.9-1.43,1.79-1.43,1.79h10.67c2.28,0,3.93-.72,4.5-2a1.67,1.67,0,0,0,0-1.4A4.11,4.11,0,0,0,370,453.1l-1-.36.28,1a1.29,1.29,0,0,1,0,.32,1.33,1.33,0,0,1-.27.82c-.45.6-1.49.9-3,.9h-1.88v-10c0-.72,1.43-1.77,1.43-1.77Z" transform="translate(-228.98 -442.88)"/></g><rect class="cls-2" x="32.77" y="10.49" width="8.18" height="2.4"/><g class="cls-3"><path class="cls-2" d="M265.59,451c.16.28,2.87,5.06,3.23,5.76s-1.07,1.48-1.07,1.48h8.4s-1.16-1.78-1.2-1.81l-.94-1.58-1.35-2.29-3.09-5.22-2.65-4.5-.46.83-2.31,4.16-.18.32-3,5.24c-1.11,2-1.64,2.85-1.78,3s-1.22,1.83-1.22,1.83h5.73s-1.57-.71-1.19-1.56,3-5.66,3-5.68" transform="translate(-228.98 -442.88)"/><path class="cls-2" d="M274.36,444s1.34.94,1.34,1.77v10.53c0,.6-.3.89-.75.14s-2.15,1.81-2.15,1.81h12.13c2.28,0,3.93-.72,4.5-2a1.67,1.67,0,0,0,0-1.4,4.11,4.11,0,0,0-2.21-1.79l-1-.36a2.37,2.37,0,0,1,0,2.06c-.38.64-1.69,1-3,1h-1.88v-10c0-.72,1.43-1.77,1.43-1.77Z" transform="translate(-228.98 -442.88)"/><path class="cls-2" d="M294.16,447.66c-.08-2.72,4.17-3.34,6.11-3.34,2.58,0,6.47.26,6.5,2.2,0,.94-2.1,1.11-2.1,1.11.53-1.39-1.29-2-3.31-2-1.12,0-3.33.12-3.31,1.28s2.6,1.39,4.31,2c4.13,1.39,5.28,2.94,5.31,4.73.05,3.1-3.76,4.39-7,4.39-2.61,0-7.28-.54-7.32-2.78,0-1.25,1.33-2.05,3.37-2.05-1.49,1.43.51,3.44,3.9,3.44,2.46,0,3.07-1.09,3-2s-1.84-1.73-4.1-2.55c-1.84-.67-5.35-1.64-5.44-4.36" transform="translate(-228.98 -442.88)"/><path class="cls-2" d="M347.51,456.87c0,.42.64.86.64.86h-6s.64-.44.64-.86v-11s-2.16.06-3.45.16a2.68,2.68,0,0,0-1.79.88v-2.31h15.17v2.31a2.59,2.59,0,0,0-1.81-.88l-3.42-.16Z" transform="translate(-228.98 -442.88)"/><path class="cls-2" d="M331.53,445.45v10.9H334c4.55,0,3.72-2.74,3.72-2.74s2.57.94,1.87,2.45c-.54,1.2-2.23,1.67-4,1.67h-9.36a.88.88,0,0,0,.66-.86V445.45a.92.92,0,0,0-.66-.87h6a.92.92,0,0,0-.64.87" transform="translate(-228.98 -442.88)"/><path class="cls-2" d="M316.06,451.48c-.41-.73-.71-1.24-.89-1.55-.13.23-.29.55-.49.92s-3.1,5.78-3.13,5.85a.84.84,0,0,0,.45,1h-3.68a5.25,5.25,0,0,0,.95-1c.16-.23.78-1.25,1.82-3.07s2.07-3.68,3.12-5.57,1.82-3.27,2.32-4.16l2.17,3.68c.93,1.58,1.95,3.32,3.09,5.22s1.9,3.21,2.32,3.9a3.52,3.52,0,0,0,.42.5c.09.07.35.22.78.46h-6.65s.56-.54.37-1-2.56-4.59-3-5.29" transform="translate(-228.98 -442.88)"/></g><rect class="cls-2" x="82.37" y="11.02" width="8.17" height="1.34"/><g class="cls-3"><path class="cls-2" d="M395.7,445.45v4.71c.43-.3,1-.73,1.72-1.27l2.39-1.75c.87-.64,1.58-1.17,2.14-1.57a.51.51,0,0,0,.22-.52c0-.19-.18-.35-.46-.47h4.88a8.13,8.13,0,0,0-1.66.77c-.57.4-5.63,4.22-5.63,4.22s6.67,7,7.08,7.44a4.1,4.1,0,0,0,1.09.72h-7.14s.63-.34.27-.84c-.05-.07-.68-.74-1.9-2s-2.21-2.29-3-3.08v5.05a.86.86,0,0,0,.64.86h-6a.88.88,0,0,0,.67-.86V445.45a.92.92,0,0,0-.67-.87h6a.91.91,0,0,0-.64.87" transform="translate(-228.98 -442.88)"/><path class="cls-2" d="M422.49,444.58l.15,2.1a2.22,2.22,0,0,0-1.7-.76c-.59,0-1.31-.05-2.15-.07h-3.56v4h4.57a2,2,0,0,0,1.07-.53v2.38a1.65,1.65,0,0,0-1.09-.54h-4.55v5.18c.36,0,2.3,0,3,0s1.49,0,2.32,0a8.24,8.24,0,0,0,1.78-.24,2.92,2.92,0,0,0,1.37-.92l-.64,2.53H409.85s.68-.41.68-.86V445.45a.87.87,0,0,0-.66-.87Z" transform="translate(-228.98 -442.88)"/><path class="cls-2" d="M363.71,445.45v10.9h2.42c4.54,0,3.73-2.74,3.73-2.74s2.57.94,1.86,2.45c-.54,1.2-2.23,1.67-4,1.67h-9.37s.66-.3.66-.86V445.45a.93.93,0,0,0-.66-.87h6a.92.92,0,0,0-.63.87" transform="translate(-228.98 -442.88)"/><path class="cls-2" d="M380.32,451.48l-.88-1.55c-.14.23-.3.55-.5.92s-3.1,5.78-3.12,5.85a.84.84,0,0,0,.44,1h-3.41a6.38,6.38,0,0,0,.68-1c.15-.25.78-1.25,1.82-3.07s2.07-3.68,3.13-5.57,1.82-3.27,2.31-4.16c.52.89,1.25,2.12,2.18,3.68s1.95,3.32,3.08,5.22,1.91,3.21,2.32,3.9a2.86,2.86,0,0,0,.43.5,8.49,8.49,0,0,0,.77.46h-6.66s.57-.54.38-1-2.56-4.59-3-5.29" transform="translate(-228.98 -442.88)"/></g><rect class="cls-2" x="146.63" y="11.02" width="8.17" height="1.34"/><g class="cls-3"><path class="cls-2" d="M280.93,445.45v10.9h2.42c4.55,0,3.73-2.74,3.73-2.74s2.57.94,1.86,2.45c-.54,1.2-2.23,1.67-4,1.67h-9.85s1.16-.41,1.16-1V445.45a.93.93,0,0,0-.67-.87h6a.92.92,0,0,0-.64.87" transform="translate(-228.98 -442.88)"/><path class="cls-4" d="M236.62,445.81h-.33v4.82h.61c1.75,0,3-1,3-2.58s-.82-2.24-2.9-2.24Zm.65-1.24c3.52,0,7.41.74,7.41,3.38,0,3-4.6,3.38-4.6,3.38,2.25,0,3.44.88,6,4.21,2,2.64,4.59,4.53,6.86,4.53a8.31,8.31,0,0,0,4.56-1.23s-2.45,3.5-6.53,3.5c-4.54,0-6.26-2.26-8.93-5.52-2.36-2.86-4.07-5-5.09-5h-.65V457c0,.4.61.76.61.76H231s.58-.3.58-.76V445.24c0-.37-.56-.67-.56-.67Z" transform="translate(-228.98 -442.88)"/><path class="cls-2" d="M266.46,451.48l-.88-1.55c-.14.23-.3.55-.5.92S262,456.63,262,456.7a.85.85,0,0,0,.45,1h-3.52s.56-.64.79-1,.79-1.25,1.82-3.07,2.08-3.68,3.13-5.57,1.82-3.27,2.31-4.16l2.17,3.68q1.39,2.37,3.1,5.22c1.12,1.91,1.89,3.22,2.31,3.9a2.72,2.72,0,0,0,1.2,1h-6.66s.57-.54.38-1-2.56-4.59-3-5.29" transform="translate(-228.98 -442.88)"/></g><rect class="cls-2" x="32.77" y="11.02" width="8.18" height="1.34"/><g class="cls-3"><path class="cls-2" d="M259.86,444.58l.13,1.89a3.37,3.37,0,0,0-2.11-.62h-5.13v4h4.62a1.6,1.6,0,0,0,.86-.46v2.12a1.5,1.5,0,0,0-.86-.35h-4.62v5.18c.36,0,4.86,0,5.69,0a2.63,2.63,0,0,0,2.19-1.16l-.79,2.53H247.11s.95-.62.95-1.45V445.6c0-.5-.61-1-.61-1Z" transform="translate(-228.98 -442.88)"/></g></svg>