<svg id="Layer_1" data-name="Layer 1" xmlns="http://www.w3.org/2000/svg" xmlns:xlink="http://www.w3.org/1999/xlink" viewBox="0 0 402.39 62.62"><defs><style>.cls-1{fill:none;}.cls-2{fill:#f3cf1e;}.cls-3{clip-path:url(#clip-path);}.cls-4{fill:#a90533;}.cls-5{fill:#003473;}</style><clipPath id="clip-path" transform="translate(-238.94 -219.12)"><rect class="cls-1" width="792" height="612"/></clipPath></defs><title>RSL-Wordmark</title><path class="cls-2" d="M312.42,257.64h-5.71l2.74-6.32Zm-7.65,1.28h9.65l-5-10.7Z" transform="translate(-238.94 -219.12)"/><g class="cls-3"><path class="cls-2" d="M253.2,250.17h-.54V238.78h.54c2.38,0,4.92,1.5,4.92,5.69,0,2.88-2.82,5.7-4.92,5.7m6.2-5.7c0-5.2-3.4-7-6.2-7h-1.82v13.93h1.82c2.8,0,6.2-3.39,6.2-7" transform="translate(-238.94 -219.12)"/><path class="cls-2" d="M348.13,269.23H317.72a2.87,2.87,0,0,0,.19-2.49l-2.42-5.58H303.67l-2.31,5.58a3,3,0,0,0,.38,2.49h-5.38a66.65,66.65,0,0,0,5-9.63l10.9-24,15,31.11a7.94,7.94,0,0,0,1.61,2c.79-.46,1.79-1.24,1.79-2.26V238.34a6.55,6.55,0,0,0-.81-3.08H340.2a6.61,6.61,0,0,0-.8,3.08v28.28h5.93c7.7,0,8.29-4,8.66-5.25,0,0,2.6,1.32,2.6,3.45,0,1-1.18,4.41-8.46,4.41m-67.37,11.24c-17.28,0-19.64-26.86-29.39-26.86v13.23a4.32,4.32,0,0,0,.78,2.39H241.9a4.35,4.35,0,0,0,.77-2.39V237.65a4.35,4.35,0,0,0-.77-2.39h12.84c5.37,0,13.61,1,13.61,8.19s-11.15,9.21-11.15,9.21c14.22,0,13.75,21.73,26.39,21.73,4.94,0,10.3-3.48,10.3-3.48s-4.5,9.56-13.13,9.56m71.68-21.69c.95,2.66.06,6.57-7.11,6.57h-4.66v-27a5.61,5.61,0,0,1,2.51-4.36H326.91a5.61,5.61,0,0,1,2.51,4.36v27.13a3,3,0,0,1-.52,1.52c-.16-.25-.3-.52-.45-.81l-16.2-33.55-12,26.45a69.52,69.52,0,0,1-4.88,9.36c-1.16,2.06-8.15,4.68-11.76,4.68-10.13,0-11.26-16.6-21.26-20.72,3.4-1.47,7.29-4.18,7.29-9,0-4.32-2.58-9.47-14.88-9.47h-15.8s2.46,1.8,2.46,3.67v29.19c0,1.87-2.46,3.67-2.46,3.67h16.17s-2.46-1.8-2.46-3.67V255.1c7.25,1.93,11,26.64,28.11,26.64,10.05,0,14.73-11.23,14.73-11.23h9.18s-2.66-2-2.12-3.29l2-4.78h10.12l2.09,4.81c.61,1.37-.94,2.11-2.55,3.26h33.94c7.7,0,9.73-3.72,9.73-5.69,0-3.74-5.42-6-5.42-6" transform="translate(-238.94 -219.12)"/><path class="cls-2" d="M284.79,235.47c8,0,10.71,9.82,10.71,9.82l-15.87,5.6s2.77,10,9.92,10c5.65,0,7.91-6.47,7.91-6.47.74,3-2.63,11.3-11.2,11.3-7.3,0-13.73-7.7-13.73-16.46,0-9.57,6.52-13.76,12.26-13.76m1.47,31.5a12.44,12.44,0,0,0,12.55-12.24c0-2.92-1-5.37-1.69-3.16,0,0-2,8-7.57,8-4.78,0-7.39-5.5-8.3-7.92l15.8-5.57s-2.59-11.9-12.26-11.9c-6.72,0-13.53,5.16-13.53,15,0,9.45,7,17.74,15,17.74" transform="translate(-238.94 -219.12)"/><path class="cls-2" d="M282.21,239.7c2.32,0,3.86,3,4.54,4.73l-6.94,2.45a11.11,11.11,0,0,1-.35-2.59c0-2.7,1.13-4.59,2.75-4.59m6.17,5.51s-1.89-6.78-6.16-6.78c-2.21,0-4,2.19-4,5.86a14.14,14.14,0,0,0,.79,4.24Z" transform="translate(-238.94 -219.12)"/><path class="cls-2" d="M269.05,225.1c.51,1.21.73,1.63.73,1.63l-.41,1.51,1.6.71,1,2.14a35.26,35.26,0,0,1,24,0l1-2.14,1.61-.71-.42-1.51s.22-.42.73-1.63,3-2.52,3-2.52c-2.1-2.16-3.84,2.16-6,.06-.77,1.14.83,2.52.83,2.52a2.54,2.54,0,0,1-1.87,1.43c-1.68.28-3.45.18-3.78-2.93,0,0-1.15,3.14-3.79,2.45a3.8,3.8,0,0,1-2.64-2.51c1.71-.2,3-1.25,3-2.5h-2.49a2.8,2.8,0,0,0-1.14-2,2.8,2.8,0,0,0-1.15,2h-2.49c0,1.25,1.3,2.3,3,2.5a3.8,3.8,0,0,1-2.64,2.51c-2.64.69-3.79-2.45-3.79-2.45-.33,3.11-2.09,3.21-3.78,2.93a2.54,2.54,0,0,1-1.87-1.43s1.6-1.38.83-2.52c-2.21,2.1-4-2.22-6.05-.06,0,0,2.49,1.3,3,2.52" transform="translate(-238.94 -219.12)"/><path class="cls-2" d="M295.88,233.82a.8.8,0,0,0,.09-.36c0-1.69-5.37-3.05-12-3.05s-12,1.36-12,3.05a.8.8,0,0,0,.09.36c2.55-1.35,6.93-2.24,11.91-2.24s9.35.89,11.9,2.24" transform="translate(-238.94 -219.12)"/><path class="cls-2" d="M385,269.9c-9.7,0-13.62-3.83-13.62-7,0-4.89,6.05-5.87,6.94-5.67a4.58,4.58,0,0,0-1.29,3.2c0,3.32,4.15,5.87,7.84,5.87,3.21,0,6.08-1.54,6.08-5.29,0-6.16-17.84-6.53-17.84-17.78,0-6.66,7-8.65,12.24-8.65,8.79,0,11.86,2.74,11.86,5.24,0,3.29-4.29,3.37-4.29,3.37,1-2-.4-5.29-6.39-5.29-3,0-6,.48-6,3.22,0,4.49,18,4.7,18,17.46,0,7.33-6.21,11.31-13.51,11.31m-3.23-28.77c0-.53,0-1.95,4.76-1.95,6.11,0,6.1,2.91,5.46,4.86,0,0,6.49.28,6.49-4.21,0-1.53-.94-6.52-13.13-6.52-6.24,0-13.52,2.6-13.52,9.93,0,11.88,17.84,13.05,17.84,17.78,0,3.49-3,4-4.8,4-3,0-6.57-2-6.57-4.59a6.41,6.41,0,0,1,1.5-3.85c-2.29-.8-9.7.74-9.7,6.32,0,4.11,4.61,8.27,14.9,8.27,8.71,0,14.79-5.18,14.79-12.59,0-13-18-14.83-18-17.46" transform="translate(-238.94 -219.12)"/><path class="cls-2" d="M631,269.23H607.22a2.88,2.88,0,0,0,1.44-2.39V237.65a2.88,2.88,0,0,0-1.44-2.39h22.34l.27,5.15a7.37,7.37,0,0,0-4.89-1.87h-7.58V249h6.69a3.39,3.39,0,0,0,2.44-1.18v5.64a3.39,3.39,0,0,0-2.44-1.18h-6.69V265.7h9.13a9.69,9.69,0,0,0,5.75-2.44Zm-26.15.29a14.28,14.28,0,0,1-4.06-3.41l-12.44-17.82,9.51-9.76a25.77,25.77,0,0,1,6.17-4.11c1.2.73,3.32,2.29,3.32,4.21v27.23c0,1.53-1.35,2.83-2.5,3.66m-16.27-.29a1.77,1.77,0,0,0,.42-2.39l-9.33-13.17v13.17a2.36,2.36,0,0,0,1.21,2.39H569.81s1.2-.46,1.2-2.39V237.65c0-1.94-1.2-2.39-1.2-2.39h11.11s-1.21.45-1.21,2.39V249.9l11.6-11.63c1.88-1.85,0-3,0-3h9.25a12.62,12.62,0,0,0-3.57,2.38l-10.25,10.51,13,18.69a7,7,0,0,0,2.46,2.39Zm-32.42,0a2.85,2.85,0,0,0,.2-2.49L554,261.16H542.16l-2.31,5.58a3,3,0,0,0,.37,2.49h-5.37a66.17,66.17,0,0,0,5-9.62l10.9-24,15,31.11a9.12,9.12,0,0,0,2.15,2.49Zm70-4.81h-7.54V253.6h5.41c1.61,0,3.26,2,3.71,2.61V245.15c-.45.59-2.1,2.61-3.71,2.61h-5.41v-7.95h6.3c2.77,0,5.55,2.75,6.31,3.56l-.47-9.39h-42.2s2.69,2.52,1.54,3.67L581,246.81V238c0-1.31,2.67-4,2.67-4H567.07s2.67,2.67,2.67,4v28.57a4.24,4.24,0,0,1-1,2.06,7.6,7.6,0,0,1-1.79-2.41l-16.2-33.55-12,26.45a67.17,67.17,0,0,1-4.88,9.36,9.44,9.44,0,0,1-2.55,2.07h11.88s-2.66-2-2.13-3.29l2-4.78h10.13l2.09,4.81c.6,1.37-.94,2.11-2.55,3.26h31s-2.67-2.67-2.67-4v-8.86l6.66,9.4c.67,1-1.83,3.44-1.83,3.44h46.27l2.11-10.59c-.73.73-4.79,4.5-8,4.5" transform="translate(-238.94 -219.12)"/></g><path class="cls-2" d="M550.9,257.64h-5.7l2.74-6.32Zm-7.64,1.28h9.65l-5-10.7Z" transform="translate(-238.94 -219.12)"/><g class="cls-3"><path class="cls-2" d="M455.1,269.23H434.89s2.78-1,2.78-2.74V238.34a6.61,6.61,0,0,0-.8-3.08h10.3a6.61,6.61,0,0,0-.8,3.08v28.28h5.93c7.71,0,8.3-4,8.67-5.25,0,0,2.59,1.32,2.59,3.45,0,1-1.17,4.41-8.46,4.41m-33.19,0a2.85,2.85,0,0,0,.2-2.49l-2.42-5.58H407.87l-2.31,5.58a3,3,0,0,0,.37,2.49h-5.37a65.91,65.91,0,0,0,5-9.63l10.9-24,15,31.11a9.12,9.12,0,0,0,2.15,2.49Zm37.5-10.45c1,2.66.07,6.57-7.11,6.57h-4.66v-27a5.61,5.61,0,0,1,2.51-4.36H433.88a5.61,5.61,0,0,1,2.52,4.36v27.13c0,1-.93,2.21-1.9,3.16a7.45,7.45,0,0,1-1.85-2.45l-16.2-33.55-12,26.45a68.67,68.67,0,0,1-4.87,9.36,9.59,9.59,0,0,1-2.56,2.07h11.88s-2.66-2-2.13-3.29l2-4.78h10.13l2.09,4.81c.6,1.37-.94,2.11-2.55,3.26H455.1c7.7,0,9.74-3.72,9.74-5.69,0-3.74-5.43-6-5.43-6" transform="translate(-238.94 -219.12)"/></g><path class="cls-2" d="M416.61,257.64h-5.7l2.74-6.32ZM409,258.92h9.65l-5-10.7Z" transform="translate(-238.94 -219.12)"/><g class="cls-3"><path class="cls-2" d="M523.6,269.23H504.92s2.78-1,2.78-2.74V238.34a6.55,6.55,0,0,0-.81-3.08H517.2a6.61,6.61,0,0,0-.8,3.08v28.28h4.4c7.71,0,8.3-4,8.67-5.25,0,0,2.59,1.32,2.59,3.45,0,1-1.17,4.41-8.46,4.41m9.73-4.41c0-3.74-5.42-6-5.42-6,1,2.66.06,6.57-7.11,6.57h-3.13v-27a5.61,5.61,0,0,1,2.51-4.36H503.91a5.61,5.61,0,0,1,2.51,4.36v27.13c0,2.22-4.18,5-4.18,5H523.6c7.7,0,9.73-3.72,9.73-5.69" transform="translate(-238.94 -219.12)"/><path class="cls-2" d="M481.36,238.54h-2.75v28.3a2.36,2.36,0,0,0,1.21,2.39H468.71s1.2-.46,1.2-2.39v-28.3h-2.74c-5.47,0-7.22,2-7.22,2l.08-5.3h28.46l.09,5.3s-1.75-2-7.22-2M458.78,234,458.62,244c1.14-1.64,2.81-4.23,8.55-4.23h1.47v27c0,1.82-3.17,3.67-3.17,3.67h17.59s-3.17-1.85-3.17-3.67v-27h1.47c5.73,0,7.41,2.59,8.55,4.23L489.75,234Z" transform="translate(-238.94 -219.12)"/><path class="cls-4" d="M461,261.37c-.37,1.21-1,5.25-8.67,5.25h-5.93V238.34a6.61,6.61,0,0,1,.8-3.08h-10.3a6.61,6.61,0,0,1,.8,3.08v28.15c0,1.7-2.78,2.74-2.78,2.74H455.1c7.29,0,8.46-3.44,8.46-4.41,0-2.13-2.59-3.45-2.59-3.45" transform="translate(-238.94 -219.12)"/><path class="cls-4" d="M529.47,261.37c-.37,1.21-1,5.25-8.67,5.25h-4.4V238.34a6.61,6.61,0,0,1,.8-3.08H506.89a6.55,6.55,0,0,1,.81,3.08v28.15c0,1.7-2.78,2.74-2.78,2.74H523.6c7.29,0,8.46-3.44,8.46-4.41,0-2.13-2.59-3.45-2.59-3.45" transform="translate(-238.94 -219.12)"/><path class="cls-4" d="M409,258.92l4.63-10.7,5,10.7Zm22.53,7.82-15-31.11-10.89,24a66.65,66.65,0,0,1-5,9.63h5.37a3,3,0,0,1-.37-2.49l2.31-5.58h11.82l2.42,5.58a2.85,2.85,0,0,1-.2,2.49h11.74a9.12,9.12,0,0,1-2.15-2.49" transform="translate(-238.94 -219.12)"/><path class="cls-4" d="M543.26,258.92l4.63-10.7,5,10.7Zm22.53,7.82-15-31.11-10.9,24a65.91,65.91,0,0,1-5,9.63h5.37a3,3,0,0,1-.37-2.49l2.31-5.58H554l2.42,5.58a2.85,2.85,0,0,1-.2,2.49h11.74a9.12,9.12,0,0,1-2.15-2.49" transform="translate(-238.94 -219.12)"/><path class="cls-4" d="M460,235.26l-.08,5.3s1.75-2,7.22-2h2.74v28.3c0,1.93-1.2,2.39-1.2,2.39h11.11a2.36,2.36,0,0,1-1.21-2.39v-28.3h2.75c5.47,0,7.22,2,7.22,2l-.09-5.3Z" transform="translate(-238.94 -219.12)"/><path class="cls-4" d="M599.78,266.84l-13-18.69L597,237.64a12.62,12.62,0,0,1,3.57-2.38h-9.25s1.88,1.16,0,3l-11.6,11.63V237.65c0-1.94,1.21-2.39,1.21-2.39H569.81s1.2.45,1.2,2.39v29.19c0,1.93-1.2,2.39-1.2,2.39h11.11a2.36,2.36,0,0,1-1.21-2.39V253.67L589,266.84a1.77,1.77,0,0,1-.42,2.39h13.62a7,7,0,0,1-2.46-2.39" transform="translate(-238.94 -219.12)"/><path class="cls-4" d="M617.36,265.7V252.32h6.69a3.39,3.39,0,0,1,2.44,1.18v-5.64a3.39,3.39,0,0,1-2.44,1.18h-6.69v-10.5h7.58a7.37,7.37,0,0,1,4.89,1.87l-.27-5.15H607.22a2.88,2.88,0,0,1,1.44,2.39v29.19a2.88,2.88,0,0,1-1.44,2.39H631l1.19-6a9.65,9.65,0,0,1-5.74,2.44Z" transform="translate(-238.94 -219.12)"/><path class="cls-4" d="M380.45,241.13c0-2.74,3.08-3.22,6-3.22,6,0,7.38,3.28,6.39,5.29,0,0,4.29-.08,4.29-3.37,0-2.5-3.07-5.24-11.86-5.24-5.23,0-12.24,2-12.24,8.65,0,11.25,17.84,11.62,17.84,17.78,0,3.75-2.87,5.29-6.08,5.29-3.69,0-7.84-2.55-7.84-5.87a4.58,4.58,0,0,1,1.29-3.2c-.89-.2-6.94.78-6.94,5.67,0,3.16,3.92,7,13.62,7,7.3,0,13.51-4,13.51-11.31,0-12.76-18-13-18-17.46" transform="translate(-238.94 -219.12)"/></g><polygon class="cls-4" points="395.93 46.75 397.04 46.75 397.04 50.11 397.45 50.11 397.45 46.75 398.62 46.75 398.62 46.35 395.93 46.35 395.93 46.75"/><polygon class="cls-4" points="401.74 46.35 400.77 49.41 399.81 46.35 399.16 46.35 399.16 50.11 399.56 50.11 399.56 46.91 400.57 50.11 400.97 50.11 401.98 46.91 401.98 50.11 402.38 50.11 402.38 46.35 401.74 46.35"/><g class="cls-3"><path class="cls-5" d="M278.18,244.29c0-3.67,1.83-5.86,4-5.86,4.27,0,6.16,6.78,6.16,6.78L279,248.53a14.22,14.22,0,0,1-.79-4.24m19.28,10.1s-2.26,6.47-7.91,6.47c-7.15,0-9.92-10-9.92-10l15.87-5.6s-2.69-9.82-10.71-9.82c-5.74,0-12.26,4.19-12.26,13.76,0,8.76,6.43,16.46,13.73,16.46,8.57,0,11.94-8.3,11.2-11.3" transform="translate(-238.94 -219.12)"/><path class="cls-5" d="M253.2,251.44h-1.82V237.51h1.82c2.8,0,6.2,1.76,6.2,7,0,3.58-3.4,7-6.2,7m4,1.22s11.14-1.92,11.14-9.21-8.24-8.19-13.61-8.19H241.9a4.35,4.35,0,0,1,.77,2.39v29.19a4.35,4.35,0,0,1-.77,2.39h10.25a4.32,4.32,0,0,1-.78-2.39V253.61c9.75,0,12.11,26.86,29.39,26.86,8.63,0,13.13-9.56,13.13-9.56s-5.36,3.48-10.3,3.48c-12.64,0-12.16-21.73-26.38-21.73" transform="translate(-238.94 -219.12)"/><path class="cls-5" d="M304.77,258.92l4.64-10.7,5,10.7ZM354,261.37c-.38,1.21-1,5.25-8.67,5.25H339.4V238.34a6.61,6.61,0,0,1,.8-3.08H329.89a6.55,6.55,0,0,1,.81,3.08v28.15c0,1-1,1.8-1.79,2.26a7.7,7.7,0,0,1-1.6-2l-15-31.11-10.9,24a66.65,66.65,0,0,1-5,9.63h5.38a3,3,0,0,1-.37-2.49l2.3-5.58h11.82l2.42,5.58a2.87,2.87,0,0,1-.19,2.49h30.41c7.28,0,8.46-3.44,8.46-4.41,0-2.13-2.59-3.45-2.59-3.45" transform="translate(-238.94 -219.12)"/></g></svg>