<svg id="Layer_1" data-name="Layer 1" xmlns="http://www.w3.org/2000/svg" xmlns:xlink="http://www.w3.org/1999/xlink" viewBox="0 0 395.78 39.95"><defs><style>.cls-1{fill:none;}.cls-2{fill:#ffd100;}.cls-3{clip-path:url(#clip-path);}.cls-4{fill:#a32035;}</style><clipPath id="clip-path" transform="translate(-238.69 -303.8)"><rect class="cls-1" width="792" height="612"/></clipPath></defs><title>RSL-Wordmark(Red)</title><rect class="cls-2" x="165" y="21.54" width="16.78" height="4.93"/><g class="cls-3"><path class="cls-2" d="M411.57,320.54c.33.59,5.74,10.22,6.49,11.63s-2.08,3.25-2.08,3.25h18.87a13.36,13.36,0,0,1-4.07-3.72c-.95-1.52-16.5-27.9-16.5-27.9s-15.5,27.48-15.76,27.86a24.37,24.37,0,0,1-4,3.76h13.28s-3.23-1.45-2.44-3.22,6.21-11.61,6.23-11.66" transform="translate(-238.69 -303.8)"/><path class="cls-2" d="M369,309.35a5.77,5.77,0,0,0-1.68,4.27v0c.19,5.86,6.87,8.19,10.84,9.59l1.07.37a35.23,35.23,0,0,1,6.25,2.7c1.72,1.12,1.41,2.48.77,3.26s-2.36,1.28-4.5,1.28c-5.39,0-10.44-3-6.32-6.58-4.8-1.17-9.78,1.48-9.73,4.82.13,6.49,13.5,6.83,16.17,6.83,7.5,0,15.52-3.19,15.39-10.12-.08-4.75-3.51-8.29-12.36-10.85-2.1-.61-4.61-1.38-5.93-1.9-1.53-.62-1.5-1.65-.18-2.2a13.06,13.06,0,0,1,4-.54c2.79,0,7.16.33,6,4,1.73.24,6.64-.6,6.6-3-.07-3.79-4.8-5.65-14.48-5.65-.86,0-8.45.12-11.95,3.73" transform="translate(-238.69 -303.8)"/><path class="cls-2" d="M488.67,306.16H456.43v8.95s2.37-3.67,4.86-3.78,5.88-.27,5.88-.27v20.66c0,1.68-2.79,3.69-2.79,3.69h17.43s-2.78-2-2.78-3.74V311.06s3.29.09,5.87.27,4.87,3.78,4.87,3.78v-8.95Z" transform="translate(-238.69 -303.8)"/><path class="cls-2" d="M431.63,306.16s2.73,1.92,2.73,3.63V331.6c0,1.24-1.56,2.83-3.29.54l-2.65,3.28h24.9c4.69,0,8.07-1.48,9.26-4.09a3.53,3.53,0,0,0,.08-2.88c-1-2.3-4.18-3.55-4.54-3.68l-2-.74.58,2.1a2.66,2.66,0,0,1,.07.66,2.78,2.78,0,0,1-.55,1.68c-.92,1.23-3.05,1.86-6.12,1.86h-3.85V309.79c0-1.48,2.93-3.63,2.93-3.63Z" transform="translate(-238.69 -303.8)"/></g><rect class="cls-2" x="296.95" y="21.54" width="16.79" height="4.93"/><g class="cls-3"><path class="cls-2" d="M543.53,320.54c.33.59,5.73,10.22,6.48,11.63s-2.07,3.25-2.07,3.25h20.41s-4.62-2.23-5.61-3.72-16.5-27.9-16.5-27.9-14.76,26.14-15.77,27.86a16.81,16.81,0,0,1-3,3.76h12.24s-3.22-1.45-2.43-3.22,6.2-11.61,6.22-11.66" transform="translate(-238.69 -303.8)"/><path class="cls-2" d="M580.7,306.16H563.19s2.94,1.83,2.94,3.54v22.2c0,1.41-2.94,3.52-2.94,3.52H581s-3-1.83-3-3.95v-6.61c1.81,1.87,4.26,4.37,4.26,4.37,2.69,2.78,1.87,1.95,3,3.19s-1.23,3-1.23,3H606.2s-5.1-1.83-6.59-3.39S589,320.92,585.92,317.67c2.63-2,9.61-7.28,10.55-7.88,1.58-1.05,7.07-3.63,7.07-3.63h-17.1s2.75,2.19,1.31,3.27-8.88,6.47-9.76,7.13v-6.71c0-1.8,2.71-3.69,2.71-3.69" transform="translate(-238.69 -303.8)"/><path class="cls-2" d="M497.7,306.16s2.73,1.92,2.73,3.63v21.94c0,1.86-2.93,3.69-2.93,3.69h21.91c4.68,0,8.06-1.48,9.24-4.09a3.41,3.41,0,0,0,.08-2.88c-1-2.3-4.17-3.55-4.54-3.68l-2-.74.57,2.1a2.75,2.75,0,0,1,.08.66,2.71,2.71,0,0,1-.55,1.68c-.93,1.23-3,1.86-6.1,1.86H512.3V309.79c0-1.48,2.93-3.63,2.93-3.63Z" transform="translate(-238.69 -303.8)"/><path class="cls-2" d="M269.66,306.16s2.94,2.1,2.94,4v20.68c0,1.91-3.29,4.61-3.29,4.61h29.46l3.06-11s-1.95,2.12-3.3,3.95-2.91,2-5,2l-9.08,0v-8.45h7.33c1.88,0,3.91,1.78,3.91,1.78v-8.57s-1.89,1.9-3.91,1.9h-7.33V311h9.08c3.67,0,6.25,3,6.25,3l-.7-7.87Z" transform="translate(-238.69 -303.8)"/></g><rect class="cls-2" x="63.15" y="21.54" width="16.79" height="4.93"/><g class="cls-3"><path class="cls-2" d="M309.73,320.54c.32.59,5.89,10.4,6.62,11.82s-2.21,3.06-2.21,3.06h17.27S329,331.76,329,331.7L327,328.45l-2.78-4.7L317.89,313l-5.45-9.24-.94,1.69L306.76,314l-.37.65-6.05,10.77c-2.28,4-3.38,5.84-3.66,6.2s-2.5,3.76-2.5,3.76h11.76s-3.23-1.45-2.44-3.22,6.21-11.61,6.23-11.66" transform="translate(-238.69 -303.8)"/><path class="cls-2" d="M327.73,306.16s2.74,1.92,2.74,3.63v21.63c0,1.23-.61,1.81-1.53.29s-4.41,3.71-4.41,3.71h24.89c4.7,0,8.07-1.48,9.25-4.09a3.49,3.49,0,0,0,.09-2.88c-1-2.3-4.18-3.55-4.54-3.68l-2-.74s1.23,2.4.1,4.24c-.79,1.32-3.48,2.06-6.1,2.06h-3.88V309.79c0-1.48,3-3.63,3-3.63Z" transform="translate(-238.69 -303.8)"/><path class="cls-4" d="M368.39,313.61c-.17-5.59,8.56-6.86,12.54-6.86,5.31,0,13.3.54,13.35,4.52,0,1.93-4.32,2.28-4.32,2.28,1.1-2.85-2.65-4.18-6.79-4.18-2.3,0-6.85.25-6.8,2.63,0,2.07,5.34,2.85,8.86,4.06,8.47,2.87,10.83,6.06,10.89,9.73.11,6.36-7.71,9-14.29,9-5.36,0-14.95-1.09-15-5.71,0-2.56,2.74-4.19,6.93-4.19-3.07,2.93,1,7.05,8,7.05,5,0,6.29-2.24,6.23-4.14s-3.78-3.56-8.41-5.25c-3.79-1.36-11-3.35-11.17-8.94" transform="translate(-238.69 -303.8)"/><path class="cls-4" d="M477.93,332.53c0,.85,1.31,1.77,1.31,1.77H467s1.32-.92,1.32-1.77V309.89s-4.44.14-7.07.33a5.45,5.45,0,0,0-3.68,1.8v-4.73h31.14V312a5.33,5.33,0,0,0-3.71-1.8l-7-.33Z" transform="translate(-238.69 -303.8)"/><path class="cls-4" d="M445.12,309.07v22.38h5c9.35,0,7.66-5.63,7.66-5.63s5.27,1.93,3.82,5.05c-1.1,2.45-4.57,3.43-8.24,3.43h-19.2a1.86,1.86,0,0,0,1.36-1.77V309.07a1.91,1.91,0,0,0-1.36-1.78h12.31a1.89,1.89,0,0,0-1.31,1.78" transform="translate(-238.69 -303.8)"/><path class="cls-4" d="M413.34,321.44c-.83-1.48-1.44-2.53-1.81-3.17-.27.48-.6,1.12-1,1.9s-6.36,11.85-6.41,12a1.74,1.74,0,0,0,.91,2.13h-7.55a12.13,12.13,0,0,0,2-2c.34-.48,1.61-2.58,3.73-6.31s4.26-7.56,6.42-11.44,3.74-6.71,4.75-8.53c1.07,1.82,2.57,4.35,4.47,7.54s4,6.83,6.34,10.72,3.91,6.6,4.75,8a6,6,0,0,0,.88,1c.19.15.72.46,1.59,1H418.68s1.15-1.11.78-2-5.27-9.42-6.12-10.88" transform="translate(-238.69 -303.8)"/></g><rect class="cls-4" x="165" y="22.64" width="16.78" height="2.76"/><g class="cls-3"><path class="cls-4" d="M576.88,309.07v9.68c.88-.63,2-1.5,3.54-2.61s3.13-2.31,4.9-3.6,3.25-2.41,4.4-3.23a1.06,1.06,0,0,0,.46-1.05,1.41,1.41,0,0,0-1-1h10a16.84,16.84,0,0,0-3.4,1.57c-1.17.82-11.57,8.67-11.57,8.67s13.71,14.41,14.55,15.28a8.47,8.47,0,0,0,2.24,1.49H586.38s1.31-.71.56-1.74c-.1-.15-1.4-1.52-3.89-4.09s-4.55-4.69-6.17-6.32v10.38a1.79,1.79,0,0,0,1.31,1.77H565.86a1.84,1.84,0,0,0,1.37-1.77V309.07a1.88,1.88,0,0,0-1.37-1.78h12.33a1.89,1.89,0,0,0-1.31,1.78" transform="translate(-238.69 -303.8)"/><path class="cls-4" d="M631.9,307.29l.3,4.31a4.5,4.5,0,0,0-3.49-1.56c-1.21-.07-2.68-.12-4.42-.15H617v8.26h9.38a4,4,0,0,0,2.18-1.1v4.89a3.36,3.36,0,0,0-2.23-1.11H617v10.65c.72,0,4.72.08,6.22.08s3.08-.05,4.78-.08a16.53,16.53,0,0,0,3.65-.49,6.12,6.12,0,0,0,2.82-1.91l-1.32,5.22H605.94s1.4-.86,1.4-1.77V309.07a1.79,1.79,0,0,0-1.36-1.78Z" transform="translate(-238.69 -303.8)"/><path class="cls-4" d="M511.19,309.07v22.38h5c9.32,0,7.65-5.63,7.65-5.63s5.28,1.93,3.83,5.05c-1.12,2.45-4.58,3.43-8.24,3.43H500.17s1.37-.63,1.37-1.77V309.07a1.92,1.92,0,0,0-1.37-1.78H512.5a1.91,1.91,0,0,0-1.31,1.78" transform="translate(-238.69 -303.8)"/><path class="cls-4" d="M545.29,321.44c-.82-1.48-1.42-2.53-1.79-3.17-.29.48-.63,1.12-1,1.9s-6.36,11.85-6.41,12a1.74,1.74,0,0,0,.92,2.13h-7a12.86,12.86,0,0,0,1.38-2c.33-.51,1.62-2.58,3.75-6.31s4.24-7.56,6.42-11.44,3.74-6.71,4.74-8.53c1.08,1.82,2.57,4.35,4.48,7.54s4,6.83,6.34,10.72,3.91,6.6,4.74,8a6.4,6.4,0,0,0,.89,1,18.22,18.22,0,0,0,1.59,1H550.63s1.16-1.11.78-2-5.26-9.42-6.12-10.88" transform="translate(-238.69 -303.8)"/></g><rect class="cls-4" x="296.95" y="22.64" width="16.79" height="2.76"/><g class="cls-3"><path class="cls-4" d="M341.22,309.07v22.38h5c9.34,0,7.65-5.63,7.65-5.63s5.28,1.93,3.83,5.05c-1.12,2.45-4.58,3.43-8.25,3.43H329.2s2.38-.86,2.38-2.09V309.07a1.89,1.89,0,0,0-1.38-1.78h12.32a1.9,1.9,0,0,0-1.3,1.78" transform="translate(-238.69 -303.8)"/><path class="cls-4" d="M250.23,309.82h-.68v9.89h1.26c3.59,0,6.19-2.07,6.19-5.29s-1.7-4.6-6-4.6Zm1.33-2.55c7.23,0,15.23,1.51,15.23,6.94,0,6.08-9.45,6.93-9.45,6.93,4.61,0,7.05,1.8,12.29,8.65,4.14,5.42,9.42,9.3,14.09,9.3a17,17,0,0,0,9.36-2.52s-5,7.18-13.4,7.18c-9.32,0-12.85-4.65-18.34-11.33-4.85-5.87-8.35-10.23-10.45-10.23h-1.35v10.56c0,.81,1.27,1.56,1.27,1.56H238.69s1.18-.63,1.18-1.56V308.64c0-.77-1.13-1.37-1.13-1.37Z" transform="translate(-238.69 -303.8)"/><path class="cls-4" d="M311.51,321.44l-1.82-3.17c-.28.48-.61,1.12-1,1.9s-6.35,11.85-6.42,12a1.75,1.75,0,0,0,.92,2.13h-7.23s1.16-1.32,1.63-2c.36-.48,1.61-2.58,3.73-6.31s4.26-7.56,6.43-11.44,3.74-6.71,4.74-8.53c1.07,1.82,2.56,4.35,4.46,7.54s4,6.83,6.35,10.72,3.89,6.61,4.75,8a5.58,5.58,0,0,0,2.48,2H316.83s1.16-1.11.78-2-5.26-9.42-6.1-10.88" transform="translate(-238.69 -303.8)"/></g><rect class="cls-4" x="63.15" y="22.64" width="16.79" height="2.76"/><g class="cls-3"><path class="cls-4" d="M298,307.29l.26,3.88a6.87,6.87,0,0,0-4.33-1.28H283.36v8.26h9.48a3.26,3.26,0,0,0,1.77-.95v4.36a3.1,3.1,0,0,0-1.77-.73h-9.48v10.65c.74,0,10,0,11.67,0a5.35,5.35,0,0,0,4.49-2.4l-1.6,5.22H271.77s1.94-1.28,1.94-3V309.38c0-1-1.24-2.09-1.24-2.09Z" transform="translate(-238.69 -303.8)"/></g></svg>