<svg xmlns="http://www.w3.org/2000/svg" viewBox="0 0 575.49 578.27"><defs><style>.cls-1{fill:#000001;}</style></defs><title>Asset 1</title><g id="Layer_2" data-name="Layer 2"><g id="_ÎÓÈ_1" data-name="—ÎÓÈ_1"><path class="cls-1" d="M565.7,197.52l-53.53-52.41-10.81,7a58.22,58.22,0,0,1-81.19-79.49l6.82-11L373.44,9.3a32.64,32.64,0,0,0-46.12.48L9.29,334.62a32.66,32.66,0,0,0,.49,46.13l54.08,52.94,10.28-5.21A58.24,58.24,0,0,1,153,505.64L148,516,202,569a32.65,32.65,0,0,0,46.13-.49l318-324.83A32.66,32.66,0,0,0,565.7,197.52Zm-96.6,99.33-20.21-19.79-22.5,23,20.21,19.79L225.19,546a.46.46,0,0,1-.65,0l-38.2-37.4A90.39,90.39,0,0,0,70.48,395.16l-38.2-37.39a.46.46,0,0,1,0-.65L253.69,131l20.21,19.79,22.49-23L276.18,108l74.11-75.7a.47.47,0,0,1,.66,0l35.81,35.07a90.36,90.36,0,0,0,120.63,118.1l35.82,35.06a.46.46,0,0,1,0,.65Z"/><path class="cls-1" d="M381.11,210.71l-22.49,23,50.83,49.77,22.5-23Zm-67.78-66.35-22.49,23,50.83,49.77,22.5-23Z"/></g></g></svg>