<svg xmlns="http://www.w3.org/2000/svg" viewBox="0 0 510.29 700.28"><defs><style>.cls-1{fill:#231f20;}.cls-2{fill:#fff;}</style></defs><title>Asset 1</title><g id="Layer_2" data-name="Layer 2"><g id="__1" data-name="‡_1"><path class="cls-1" d="M312.21,600.78a79.2,79.2,0,0,1,87.92-28.91,70.5,70.5,0,0,0-87.92,28.91Z"/><path class="cls-1" d="M230,645l1.26-629.16L195.4,31.42A78.66,78.66,0,1,1,51,93.93L0,116l38.5,89L214,610.59l38.81,89.69,51-22a78.63,78.63,0,0,1-6.53-33.16Z"/><path class="cls-2" d="M302.07,133.11l3.48,8L288,148.77l-3.48-8.06Zm-32.22,13.94,3.49,8L255,163,251.55,155ZM236.91,161.3l3.48,8-18.3,7.92-3.49-8.05ZM204,175.55l3.48,8.06-18.3,7.92-3.48-8.06Zm-33,14.26,3.49,8.05-18.31,7.92-3.48-8.05Zm-32.94,14.25,3.48,8.05L123.25,220,119.76,212Zm-32.95,14.25,3.48,8.06-18.3,7.92-3.48-8.06ZM72.17,232.57l3.49,8.05-18.31,7.92-3.48-8.06Z"/><path class="cls-1" d="M295.27.11l-56-.11-.2,97.17-.88,441.94L238,637l56,.11a78.73,78.73,0,1,1,157.45.31l57.57.12.19-97.89.88-441.94.2-97.17L452.72.43A78.38,78.38,0,0,1,373.84,79,78.39,78.39,0,0,1,295.27.11Z"/><path class="cls-2" d="M510,136.54l0,9-19,0,0-9Zm-35-.07,0,9-20,0,0-9Zm-36-.07,0,9-20,0,0-9Zm-36-.07,0,9-20,0,0-9Zm-36-.07,0,9-20,0,0-9Zm-36-.08,0,9-20,0,0-9Zm-36-.07,0,9-20,0,0-9ZM259,136l0,9-20,0,0-9Z"/></g></g></svg>