<svg xmlns="http://www.w3.org/2000/svg" viewBox="0 0 541 541"><defs><style>.cls-1{fill:#fff;stroke:#000;stroke-miterlimit:10;}</style></defs><title>Asset 2</title><g id="Layer_2" data-name="Layer 2"><g id="Layer_1-2" data-name="Layer 1"><path class="cls-1" d="M519.28,165.4A270,270,0,0,0,.5,270.5,270,270,0,0,0,453.16,469.35a270.3,270.3,0,0,0,66.12-304Zm-80,288.82V438.39c0-148.83-337.5-148.83-337.5,0v15.83A248.8,248.8,0,0,1,21.05,270.5C21.05,132.73,132.73,21,270.5,21S520,132.73,520,270.5A248.77,248.77,0,0,1,439.25,454.22ZM270.5,92.08A102.72,102.72,0,1,0,373.22,194.8,102.71,102.71,0,0,0,270.5,92.08Z"/></g></g></svg>