<svg xmlns="http://www.w3.org/2000/svg" viewBox="0 0 127.5 161.75"><defs><style>.cls-1{fill:#fff100;}.cls-2{fill:#231f20;}</style></defs><title>Asset 76</title><g id="Layer_2" data-name="Layer 2"><g id="Layer_1-2" data-name="Layer 1"><path class="cls-1" d="M122.43,13.23C99.6,1.72,75.87,0,63.75,0S27.9,1.72,5.07,13.23L0,15.78l.34,5.66L4.63,93c.06,1,.91,12.74,8.1,26.62a80.89,80.89,0,0,0,16.9,22.13A94.49,94.49,0,0,0,60.7,160.59l3,1.16,3.06-1.16a94.54,94.54,0,0,0,31.06-18.82,80.69,80.69,0,0,0,16.9-22.13c7.19-13.88,8-25.61,8.11-26.62l4.28-71.58.34-5.66Z"/><path class="cls-2" d="M122.09,18.9l-2-1a120.11,120.11,0,0,0-35.32-11c-5.13-.8-9.66-1.21-13.27-1.42s-6.31-.23-7.74-.23-4.13,0-7.74.23A136.72,136.72,0,0,0,34.65,8.39a115.52,115.52,0,0,0-27.23,9.5l-2,1,2.69,45L44.67,79.07v0L63.75,87V79.67L14.66,59.22,12.49,23A114.56,114.56,0,0,1,43.8,13.6c4.87-.76,9.18-1.15,12.61-1.36s6-.21,7.34-.21,3.91,0,7.34.21A132.59,132.59,0,0,1,91.39,15,110.51,110.51,0,0,1,115,23L110.87,92.3v0a43.25,43.25,0,0,1-1.15,6.8,66,66,0,0,1-4.44,12.58L15.56,74.34h0l-7-2.91L9,79,44.67,93.84h0l57.38,23.9a67.34,67.34,0,0,1-3.86,5.76L44.67,101.22h0L9.47,86.56s.4,6.72.51,7.61l7.4,3.08v0L93.64,129A71.78,71.78,0,0,1,84,137.7a84.8,84.8,0,0,1-20.24,11.17,81.52,81.52,0,0,1-25.95-15.93,68.92,68.92,0,0,1-11.76-14.21c-.85-1.37-1.62-2.72-2.33-4L64,131.45v-7.38L19.74,105.65v0l-8.18-3.41a74.24,74.24,0,0,0,12.27,25.34A77.18,77.18,0,0,0,39.1,142.91a92.5,92.5,0,0,0,23.45,12.8l1.2.46,1.21-.46a89,89,0,0,0,29.37-17.77,76.18,76.18,0,0,0,12.91-15.61,74.36,74.36,0,0,0,8.82-20.52,51.06,51.06,0,0,0,1.6-9.12v0Z"/><polygon class="cls-2" points="100.55 80.7 88.32 94.69 75.92 80.84 88.15 66.85 100.55 80.7"/><path class="cls-1" d="M83.41,77.14a2.32,2.32,0,0,0,.71-.09,1.21,1.21,0,0,0,.45-.26,1.2,1.2,0,0,0,.29-.38,4.89,4.89,0,0,0,.19-.46h1v9.46H84.56V78.2H83.41Z"/><path class="cls-1" d="M92.85,83.14a2.47,2.47,0,0,1-.59,1.77,2.31,2.31,0,0,1-1.73.61,2.28,2.28,0,0,1-1.73-.61,2.43,2.43,0,0,1-.6-1.77V82.4a3,3,0,0,1,.22-1.2,1.54,1.54,0,0,1,.7-.77,2,2,0,0,1-.92-1.91v-.3a2.42,2.42,0,0,1,.6-1.76,2.28,2.28,0,0,1,1.73-.62,2.32,2.32,0,0,1,1.73.62,2.46,2.46,0,0,1,.59,1.76v.3a2,2,0,0,1-.92,1.91,1.56,1.56,0,0,1,.71.77,3.14,3.14,0,0,1,.21,1.2ZM89.69,78.8a1.05,1.05,0,0,0,.24.79.84.84,0,0,0,.6.21.87.87,0,0,0,.59-.21,1.05,1.05,0,0,0,.25-.79v-.52a1.16,1.16,0,0,0-.25-.86.84.84,0,0,0-.59-.23.86.86,0,0,0-.6.23,1.16,1.16,0,0,0-.24.86Zm0,4.3a1.12,1.12,0,0,0,.24.85.86.86,0,0,0,.6.22.83.83,0,0,0,.59-.22,1.21,1.21,0,0,0,.25-.85v-.88a1.17,1.17,0,0,0-.23-.81.76.76,0,0,0-.61-.25.79.79,0,0,0-.62.25,1.17,1.17,0,0,0-.22.81Z"/><path class="cls-2" d="M29.35,34V52.12c0,1.68.74,2.29,1.92,2.29s1.91-.61,1.91-2.29V34h3.5V51.89c0,3.76-1.88,5.91-5.51,5.91s-5.51-2.15-5.51-5.91V34Z"/><path class="cls-2" d="M43.74,40.46v17H40.41V34h4.64l3.8,14.09V34h3.29V57.5h-3.8Z"/><path class="cls-2" d="M56,34h3.7V57.5H56Z"/><path class="cls-2" d="M62.59,34H74v3.37H70.15V57.5H66.46V37.34H62.59Z"/><path class="cls-2" d="M80.57,43.89h5.08v3.36H80.57v6.89H87V57.5H76.88V34H87v3.37H80.57Z"/><path class="cls-2" d="M90.49,34h5.85c3.69,0,5.51,2.05,5.51,5.82V51.68c0,3.77-1.82,5.82-5.51,5.82H90.49Zm3.69,3.37v16.8h2.09c1.17,0,1.88-.61,1.88-2.29V39.62c0-1.68-.71-2.28-1.88-2.28Z"/><path class="cls-2" d="M38.87,27.27l-1,.2c-1.31-1.08-2-1.61-3.34-2.65.28,1.27.41,1.91.68,3.18l-1.32.29-1.22-5.45,1.07-.23c1.38,1,2,1.53,3.38,2.57-.24-1.25-.36-1.88-.61-3.14l1.39-.26Z"/><path class="cls-2" d="M44.24,24.07l-2.3.34c.07.45.1.68.17,1.13,1.09-.18,1.64-.26,2.73-.41.07.47.1.7.16,1.16-1.62.22-2.43.34-4,.62-.37-2.21-.56-3.31-.93-5.51,1.69-.29,2.53-.41,4.22-.65.07.46.1.7.16,1.16-1.12.15-1.68.23-2.79.41.06.42.09.63.16,1.05.93-.15,1.39-.22,2.33-.35C44.15,23.44,44.18,23.65,44.24,24.07Z"/><path class="cls-2" d="M49.68,22.58c-.26,1.28-.38,1.93-.63,3.21l-1,.12c-.91-2.15-1.37-3.21-2.33-5.35l1.54-.18c.43,1.14.64,1.71,1.06,2.86.25-1.22.37-1.83.63-3l1.05-.1c.5,1.15.75,1.72,1.24,2.88.19-1.22.29-1.82.49-3l1.56-.12c-.52,2.28-.77,3.42-1.23,5.7L51,25.6C50.46,24.39,50.2,23.79,49.68,22.58Z"/><path class="cls-2" d="M62.37,22c-.49.64-.73,1-1.21,1.61h-.58c-.51-.63-.76-.95-1.28-1.58l.09,3.09L58,25.14c-.08-2.23-.12-3.35-.21-5.58l1.14,0c.76.93,1.13,1.4,1.86,2.35.7-1,1.05-1.46,1.78-2.42h1.14c0,2.24,0,3.35,0,5.59H62.39C62.38,23.81,62.38,23.19,62.37,22Z"/><path class="cls-2" d="M69.59,22.88l-2.33-.09c0,.46,0,.68,0,1.14,1.1,0,1.65.05,2.75.1,0,.47,0,.7-.06,1.17-1.63-.08-2.45-.11-4.08-.14l.1-5.59c1.7,0,2.55.06,4.26.15,0,.46,0,.69-.06,1.16-1.13-.06-1.69-.08-2.82-.11,0,.42,0,.64,0,1.06l2.35.09Z"/><path class="cls-2" d="M75.25,22.69c.57,1.2.85,1.8,1.4,3L75,25.54c-.26-.69-.39-1-.66-1.71l-.2-.51-.27.47L73,25.38l-1.64-.11c.72-1.1,1.08-1.65,1.83-2.75-.58-1.13-.88-1.7-1.48-2.82l1.72.11c.27.64.41,1,.68,1.61.07.21.11.32.19.53l.28-.5c.36-.59.55-.89.92-1.48l1.71.16C76.38,21.15,76,21.66,75.25,22.69Z"/><path class="cls-2" d="M79.52,26l-1.35-.16c.24-2.22.37-3.33.61-5.55l1.41.16C79.92,22.68,79.79,23.79,79.52,26Z"/><path class="cls-2" d="M86.18,26.41a2.69,2.69,0,0,1-2,.37,2.83,2.83,0,0,1-2.48-3.32A2.79,2.79,0,0,1,85.06,21a2.74,2.74,0,0,1,1.87,1l-1,.89a1.59,1.59,0,0,0-1.08-.6,1.62,1.62,0,0,0-.5,3.2,1.59,1.59,0,0,0,1.19-.23C85.82,25.72,85.94,26,86.18,26.41Z"/><path class="cls-2" d="M87.67,24.4a3,3,0,0,1,5.81,1.17,3,3,0,0,1-5.81-1.17Zm4.4.86a1.52,1.52,0,1,0-1.81,1.27A1.51,1.51,0,0,0,92.07,25.26Z"/></g></g></svg>