<svg id="Layer_1" data-name="Layer 1" xmlns="http://www.w3.org/2000/svg" viewBox="0 0 310.12 392.88"><defs><style>.cls-1{fill:#edc71a;}.cls-2{fill:#fff;}.cls-3{fill:#daa900;}.cls-4{fill:#001e61;}.cls-5{fill:#a32035;}.cls-6{fill:#a41d35;}.cls-7{fill:#fed604;}</style></defs><title>monarchs</title><path class="cls-1" d="M257.81,362.14a6,6,0,0,0-4.65,1.52,7.7,7.7,0,0,0-2.31,5.15c-.24,2.69.2,4.76,1.32,6.23a6.23,6.23,0,0,0,4.65,2.45,6.33,6.33,0,0,0,3.23-.56,5.84,5.84,0,0,0,2.5-2.37,8.85,8.85,0,0,0,1.16-4.05,8.52,8.52,0,0,0-1.34-6A6.06,6.06,0,0,0,257.81,362.14Zm4.74,8.28h0a7.71,7.71,0,0,1-1,3.55h0a4.7,4.7,0,0,1-2,1.92,5.18,5.18,0,0,1-2.63.45,5,5,0,0,1-3.79-2c-1-1.24-1.32-3.08-1.11-5.45a6.58,6.58,0,0,1,1.93-4.42h0a4.72,4.72,0,0,1,3.76-1.23,4.89,4.89,0,0,1,3.73,2h0a7.37,7.37,0,0,1,1.11,5.19Z" transform="translate(-150.95 -25.1)"/><path class="cls-1" d="M391.38,361.85l1.26-.29a9.1,9.1,0,0,0,1.67-.58c1.91-.9,2-2.06,1.91-2.68a3.11,3.11,0,0,0-1.77-2.27,7.67,7.67,0,0,0-2.83-.69,29.21,29.21,0,0,0-6.16.33,19.17,19.17,0,0,0-4.66,1.3l.85-.77-3.62.47c-2.91.36-5.83.7-8.74,1l-3.7.39,3.27,1.73a2.16,2.16,0,0,1,.5.38l.57,5.2q-3.71.41-7.41.76c-.17-1.73-.33-3.47-.5-5.2a2.39,2.39,0,0,1,.41-.48l2.84-2.36-3.69.37q-4.38.42-8.76.78l-3.29.26a22.44,22.44,0,0,0-4.15-.09,22.8,22.8,0,0,0-8,2,13.88,13.88,0,0,0-4.32,3.08,6.5,6.5,0,0,0-3.82-2.62,25.22,25.22,0,0,0-7.72-.81c-3,.08-6,.14-9.05.18h-.14l-3.61,0,3,2a2.86,2.86,0,0,1,.47.43l.15,13.08-1.11-1.78-.76-1.22h0c-1.57-2.51-3.1-5-4.54-7.43h0c-1.44-2.37-2.49-4.16-3.12-5.24-.33-.57-.67-1.14-1-1.72l-1,1.74c-.79,1.39-2,3.49-3.4,5.89l-.6,1c-1.4,2.37-2.74,4.61-4.11,6.84-.38.63-.72,1.16-1,1.62q.14-6.42.29-12.85a3,3,0,0,1,.48-.43l3-2-3.61-.07-4.77-.13-3.74-.13c1,.73,2,1.46,3,2.18a2.38,2.38,0,0,1,.45.45c-.06,1.87-.11,3.73-.17,5.6q-4.62-4.07-9.1-8.21l-.31-.28-.42,0-2-.1v0c-1.59-.08-3.17-.17-4.76-.27l-3.6-.23,2.81,2.25a2.75,2.75,0,0,1,.45.47c0,.4-.05.79-.07,1.18a12.41,12.41,0,0,0-1.79-1.58h0a17.45,17.45,0,0,0-4.52-2.29h0a21.59,21.59,0,0,0-5.09-1,20.94,20.94,0,0,0-7.88.71,13.08,13.08,0,0,0-4.49,2.28c0-.41.09-.83.13-1.25a1.78,1.78,0,0,1,.44-.31l3.82-1.75-4.2-.4q-4.38-.45-8.76-1l-.69-.09-.39.56q-2.58,3.69-5.22,7.36-2-4.28-3.85-8.56c-.08-.2-.17-.39-.26-.59l-.64-.09c-1.36-.18-2.72-.37-4.07-.57h0c-1.58-.22-3.16-.46-4.74-.7l-3.57-.55,2.61,2.49h0l0,0a2.42,2.42,0,0,1,.38.49q-1,6.36-1.94,12.71l0,0c-.17,1.09-.34,2.18-.5,3.28a2.49,2.49,0,0,1-.55.36L210.54,375l3.71.57,4.9.73,3.86.54c-1-.83-1.94-1.66-2.9-2.5a2.27,2.27,0,0,1-.42-.5q.65-4.47,1.28-8.94,2.55,6.11,5.22,12.18c.27.62.54,1.24.82,1.86l1.23-1.61q4-5.22,7.8-10.49c-.42,3.57-.94,8.18-1,9a2.1,2.1,0,0,1-.52.37c-1.09.57-2.18,1.13-3.28,1.68l3.72.45q4.49.52,9,1l3.72.37-2.84-2.35a2.32,2.32,0,0,1-.43-.49c0-.46.09-.93.14-1.39a11.71,11.71,0,0,0,1.36,1.37,16.07,16.07,0,0,0,4.58,2.68,20.21,20.21,0,0,0,5.81,1.29,23.12,23.12,0,0,0,7.62-.57,12.53,12.53,0,0,0,5.15-2.59c0,.41-.05.82-.08,1.23a2.41,2.41,0,0,1-.51.41l-3.17,1.86c1.24.09,2.48.16,3.73.24l4.94.28,3.87.18c-1-.73-2.07-1.47-3.1-2.22a2.22,2.22,0,0,1-.46-.46l.48-9.43q7.29,6.67,14.9,13.16l1.92,1.62c0-.72,0-1.44.05-2.15l3.2.06,3,.05-2.1-2a1.22,1.22,0,0,1-.19-.23.06.06,0,0,1,0,0c.1-.17.29-.51.53-.91l.24-.41h0q3.65,0,7.29.06c.45.77.66,1.15.76,1.34a1.56,1.56,0,0,1-.21.26l-2.14,1.95h2.95q3.93,0,7.86,0v0c3,0,5.91-.09,8.87-.17l4.41-.13c-1.3-.66-2.58-1.33-3.86-2a2.24,2.24,0,0,1-.36-.26c0-2-.11-4.05-.16-6.07a7.76,7.76,0,0,1,1.93,1.48c1.18,1.11,2.62,2.69,4.3,4.51l.46.5.38.41a28.45,28.45,0,0,0,6,5.39A14.06,14.06,0,0,0,343.1,388a13.22,13.22,0,0,0,7.79-3.3,15.87,15.87,0,0,0,2.09-2.19.36.36,0,0,0,.1-.11,3.05,3.05,0,0,0,.2-.3c.16-.22.24-.36.26-.37h0c.2-.33.44-.7.63-1l.4,0q4.54-.37,9.08-.81l3.82-.38-3.34-1.74a2.25,2.25,0,0,1-.51-.38q-.35-3.53-.68-7.05c2.49-.24,5-.5,7.46-.77.26,2.34.51,4.69.77,7a1.88,1.88,0,0,1-.42.48l-2.87,2.39,3.77-.4c3-.34,6-.69,9.06-1.07l3.81-.49-1.42-.68a30.36,30.36,0,0,0,5.9-.25,18.35,18.35,0,0,0,5-1.42,10,10,0,0,0,4-3,5.55,5.55,0,0,0,1.08-4.4C398.47,364.78,396.08,362.94,391.38,361.85Zm-.12-1.64-.36,1.53c-.4-.09-.83-.17-1.27-.25-.67-.13-1.41-.22-2.12-.31s-1.68-.22-2.36-.37a4.12,4.12,0,0,1-.95-.32c.23-.23,1.11-.72,3.33-1s3.38.06,3.68.38C391.26,359.88,391.32,360,391.26,360.21Zm-2.43,15.22c-2.77.39-7.23.56-9.51-.66l.12,1c.07.6,1.12,1.12,1.12,1.12-3,.38-6,.74-9.05,1.07,0,0,.9-.76.84-1.36l-.93-8.27c-3.25.36-6.51.7-9.76,1l.78,8.28c.06.61,1.09,1.16,1.09,1.16q-4.53.43-9.06.81s.92-.73.87-1.33-.1-1.25-.16-1.87c-.95,2.47-6.18,3.68-9.23,3.88-3.88.26-8-.62-10.79-2.7,3.19,3.64,7.21,6.12,10.63,5.89a12.68,12.68,0,0,0,6.73-2.26s-3.3,5.33-9.49,5.71c-6.88.42-9.66-2.74-13.85-7.25-3.69-4-6.29-7-7.8-6.93l-1,0c.06,2.47.13,4.94.19,7.41,0,.56.95,1.07.95,1.07q-4.43.1-8.85.17l.05,0c-2.64,0-5.27,0-7.91,0,0,0,.84-.77.56-1.37-.09-.21-.59-1.09-1.22-2.18-2.9,0-5.79,0-8.68-.08l-1.19,2.05c0,.07-.05.13-.06.19L292,381.24l-1.59,0c0,.28,0,.56,0,.85q-8.56-7.29-16.71-14.81c0,.08-.65,12-.65,12,0,.59.94,1.3.93,1.3q-2.46-.12-4.92-.27s1-.61,1-1.19c.11-1.74.21-3.48.31-5.21a7.76,7.76,0,0,1-1.54,2.32,10.85,10.85,0,0,1-5.32,3,22,22,0,0,1-7.22.54,19.16,19.16,0,0,1-5.46-1.21,14.67,14.67,0,0,1-4.24-2.48,9.77,9.77,0,0,1-2.61-3.4c-.13-.29-.23-.59-.33-.89-.17,1.72-.35,3.44-.53,5.16-.06.58.85,1.34.85,1.34-3-.3-6-.63-8.95-1,0,0,1-.54,1.11-1.13,0,0,1.52-13.42,1.52-13.49q-5.09,7.06-10.4,14-3.54-8-6.85-16.08l-1.92,13.22c-.09.59.8,1.38.81,1.38-1.64-.23-3.27-.47-4.9-.72,0,0,1.08-.51,1.17-1.09.34-2.3.69-4.6,1-6.9q2.53-5,5-10c1.48.22,3,.43,4.45.63q2.3,5.21,4.68,10.4,3.23-4.49,6.38-9,4.4.52,8.79,1s-1,.48-1.08,1.14c-.18,1.68-.35,3.36-.52,5a7.81,7.81,0,0,1,1.23-1.73,11,11,0,0,1,5.12-3.06,19.87,19.87,0,0,1,7.45-.66,20.73,20.73,0,0,1,4.82,1,15.93,15.93,0,0,1,4.22,2.13,10.65,10.65,0,0,1,2.36,2.33q-.31,5-.61,10,2.77-6.94,5.45-13.92c.81,0,1.61.09,2.42.12q5.39,5,11,9.86l.24-8.16c0-.6-.93-1.28-.93-1.28l4.78.13s-1,.64-1,1.22l-.42,16.87c.19-.21.38-.43.5-.58.27-.33,1.21-1.77,2.78-4.33s3.14-5.21,4.7-7.89,2.68-4.64,3.39-5.9c.74,1.27,1.78,3,3.12,5.25s2.86,4.75,4.54,7.45,2.84,4.57,3.47,5.54a2.72,2.72,0,0,0,.55.62.88.88,0,0,0,.07-.32q-.06-3.57-.1-7.15,1.69-5.39,3.32-10.78,2.4,0,4.8-.12c5.11-.13,10.81.67,11,4.47a4.29,4.29,0,0,1,0,.63c2.11-4.31,7.86-6.38,12.92-6.74,3.55-.24,7.08.37,8.55,1.66,0-.22,0-.43-.05-.65,0-.61-1-1.18-1-1.18,2.93-.24,5.85-.5,8.78-.78,0,0-.88.74-.82,1.34q.3,3.23.61,6.44c3.24-.31,6.49-.64,9.73-1l-.72-6.43c-.06-.6-1.08-1.15-1.08-1.15q4.38-.48,8.76-1s-.86.77-.78,1.37c.1.83.2,1.67.31,2.5.34-3.13,5.45-4.51,7.92-4.86,3.58-.49,9-.95,9.46,1.69.23,1.29-2.69,2-2.69,2,.46-2-2.22-2.51-5-2.12-1.55.23-4.6.81-4.36,2.4.2,1.38,3.88,1.41,6.4,1.87,6,1.08,8,2.92,8.43,5.37C398.59,372.2,393.43,374.8,388.83,375.43Zm-37.05,4.77-.63.49a12.48,12.48,0,0,1-5.44,1.6,8.43,8.43,0,0,1-4.32-1.13,20.5,20.5,0,0,0,4.64.2,23.21,23.21,0,0,0,5.73-1.15Z" transform="translate(-150.95 -25.1)"/><path class="cls-1" d="M299.78,370.21c-.2.33-.44.78-.74,1.32-.15.27-1.3,2.33-2.45,4.32l6.48.06-2-3.48C300.46,371.39,300,370.66,299.78,370.21Zm-1.22,4.53c.58-1,1-1.74,1.23-2.19l.25.43h0l1,1.77Z" transform="translate(-150.95 -25.1)"/><path class="cls-1" d="M321.25,364l-.57,0h-.49l.18,6.93.9,0c2.59-.07,4.4-1.59,4.32-3.84S324.27,363.93,321.25,364Zm2.41,5a3.68,3.68,0,0,1-2.16.8l-.13-4.66a4.28,4.28,0,0,1,2.47.48c.24.18.56.53.59,1.52A2.24,2.24,0,0,1,323.66,369Z" transform="translate(-150.95 -25.1)"/><path class="cls-1" d="M352.8,366.34c-.1-1.67-1.29-4.32-6.48-3.95-4.82.33-6.94,4.47-6.73,8.17.36,6.47,5.53,7.6,8.67,7.37,1-.07,5.21-.46,6.82-2.86l-.84-10.14A6.9,6.9,0,0,1,352.8,366.34Zm1.07,8.4c-1,1.1-3.05,1.87-5.69,2.06a8.26,8.26,0,0,1-4.67-1c-1.69-1-2.61-2.83-2.76-5.31a7.27,7.27,0,0,1,1.26-4.62,5.67,5.67,0,0,1,4.39-2.35c2-.13,3.44.19,4.31.94a2.77,2.77,0,0,1,.94,2l.12,2.15,1.51-1.15Q353.58,371.09,353.87,374.74Z" transform="translate(-150.95 -25.1)"/><path class="cls-1" d="M332,368.8c-1.6,2.46-6,3-6,3,2.61-.08,4.28.63,6.84,3.21a7.86,7.86,0,0,1-1.09-3.72A8.78,8.78,0,0,1,332,368.8Z" transform="translate(-150.95 -25.1)"/><path class="cls-1" d="M386.14,367.48c-2.56-.52-7.21-1.17-8.26-4.32q.48,3.85.95,7.7a7.11,7.11,0,0,1,3.5-1.29c-1.87,2.24,1.33,4.64,6.18,4,3.5-.49,4.14-2.12,3.92-3.38S389.47,368.17,386.14,367.48Zm-4,1a10.21,10.21,0,0,0-2.39.58c-.11-.79-.21-1.59-.31-2.39a9.52,9.52,0,0,0,1.06.53,17.84,17.84,0,0,0,3.45,1Zm8.88,2.85a4.21,4.21,0,0,1-2.71,1.12c-2.93.41-4.86-.48-5.29-1.23-.08-.12-.24-.4.18-.91s1.05-1.27,1.57-1.9l.35.07.73.14a32.58,32.58,0,0,1,4.05,1c1.19.43,1.33.75,1.33.75A1.14,1.14,0,0,1,391.06,371.3Z" transform="translate(-150.95 -25.1)"/><path class="cls-2" d="M389.41,362.62c-2.51-.46-6.2-.5-6.4-1.88-.24-1.59,2.81-2.17,4.36-2.39,2.8-.4,5.48.11,5,2.12,0,0,2.92-.68,2.7-2-.46-2.65-5.89-2.19-9.47-1.7-2.47.35-7.58,1.74-7.92,4.86-.11-.83-.21-1.66-.31-2.5-.08-.6.78-1.36.78-1.36-2.92.36-5.84.71-8.76,1,0,0,1,.54,1.08,1.14l.72,6.43c-3.24.36-6.49.7-9.73,1q-.32-3.23-.61-6.44c-.06-.61.82-1.34.82-1.34-2.93.28-5.85.54-8.78.78,0,0,1,.57,1,1.17,0,.22,0,.44.05.65-1.47-1.29-5-1.9-8.55-1.66-5.06.36-10.82,2.44-12.92,6.74a3.25,3.25,0,0,0,0-.63c-.19-3.8-5.89-4.6-11-4.46-3,.08-6.05.14-9.07.18,0,0,.81.41.82.94q.1,8.47.23,16.93a.82.82,0,0,1-.07.31,2.75,2.75,0,0,1-.55-.62q-.94-1.46-3.47-5.54c-1.68-2.69-3.19-5.18-4.54-7.44s-2.38-4-3.12-5.25c-.71,1.25-1.84,3.24-3.39,5.9s-3.13,5.32-4.7,7.88-2.51,4-2.78,4.33c-.13.16-.31.37-.5.58q.21-8.43.41-16.86c0-.59,1-1.23,1-1.23l-4.78-.13s.95.69.93,1.28l-.24,8.16q-5.58-4.87-11-9.85-3.39-.17-6.76-.37s1.07.64,1,1.3c-.1,1.75-.21,3.49-.31,5.23a7.11,7.11,0,0,0-.62-1.42,10.46,10.46,0,0,0-3-3.26,15.63,15.63,0,0,0-4.22-2.13,21.78,21.78,0,0,0-12.27-.32,11.08,11.08,0,0,0-5.11,3.06,8.47,8.47,0,0,0-1.24,1.73c.18-1.68.35-3.36.52-5,.07-.66,1.08-1.13,1.08-1.13-2.93-.3-5.85-.62-8.78-1q-3.15,4.51-6.39,9-2.38-5.19-4.67-10.4c-3-.4-6-.84-9-1.29,0,0,1,.73.91,1.39q-1.22,8.1-2.44,16.2c-.08.57-1.16,1.08-1.16,1.08l4.89.73s-.89-.79-.81-1.38l1.93-13.23q3.3,8.06,6.84,16.09,5.31-7,10.41-14.06c0,.07-1.52,13.5-1.52,13.5-.07.59-1.11,1.13-1.11,1.13,3,.35,6,.67,8.95,1,0,0-.91-.77-.85-1.35.17-1.72.35-3.44.53-5.16a7.34,7.34,0,0,0,.33.89,9.56,9.56,0,0,0,2.61,3.41,14.82,14.82,0,0,0,4.23,2.47,19,19,0,0,0,5.47,1.21,22,22,0,0,0,7.22-.53,11,11,0,0,0,5.32-3,7.94,7.94,0,0,0,1.54-2.33l-.31,5.21c0,.58-1.06,1.19-1.06,1.19l4.93.28s-1-.71-.93-1.3c0,0,.64-11.92.64-12q8.16,7.51,16.72,14.8c0-.28,0-.56,0-.85l4.54.1s-1.05-.54-.64-1.49l1.19-2.06q4.33.08,8.67.08c.63,1.1,1.14,2,1.23,2.18.28.61-.56,1.38-.56,1.38,2.64,0,5.27,0,7.91,0l-.05,0q4.43,0,8.85-.17s-.94-.5-.95-1.07c-.06-2.47-.13-4.94-.19-7.41l1,0c1.51,0,4.11,2.94,7.8,6.92,4.19,4.52,7,7.67,13.85,7.26,6.19-.39,9.49-5.72,9.49-5.71a12.73,12.73,0,0,1-6.73,2.25c-3.42.23-7.45-2.25-10.63-5.89,2.79,2.08,6.9,3,10.79,2.7,3.05-.19,8.29-1.4,9.23-3.88.06.63.11,1.25.16,1.87s-.87,1.33-.87,1.33q4.53-.36,9.06-.8s-1-.56-1.09-1.16l-.78-8.29c3.25-.31,6.51-.64,9.76-1l.93,8.27c.06.61-.84,1.36-.84,1.36q4.53-.49,9.05-1.06s-1.05-.53-1.12-1.13l-.12-.95c2.28,1.22,6.74,1,9.51.66,4.6-.64,9.76-3.24,9-7.47C397.42,365.54,395.46,363.69,389.41,362.62Zm-126.86,12a5.76,5.76,0,0,1-2.5,2.36,6.34,6.34,0,0,1-3.23.57,6.27,6.27,0,0,1-4.65-2.46c-1.12-1.47-1.57-3.54-1.32-6.23a7.67,7.67,0,0,1,2.31-5.14,5.86,5.86,0,0,1,4.64-1.52,6,6,0,0,1,4.56,2.4,8.43,8.43,0,0,1,1.35,6A9,9,0,0,1,262.55,374.58Zm34,1.28c1.14-2,2.3-4.05,2.45-4.32.29-.54.53-1,.73-1.32.26.45.68,1.19,1.28,2.22l2,3.48Q299.84,375.92,296.59,375.86Zm24.68-4.9-.9,0-.18-6.94h.49l.57,0c3-.08,4.26.93,4.34,3.1S323.85,370.89,321.27,371Zm4.73.87s4.39-.55,6-3a8.71,8.71,0,0,0-.24,2.49,7.79,7.79,0,0,0,1.09,3.72C330.28,372.46,328.61,371.74,326,371.83Zm22.26,6.11c-3.14.23-8.31-.9-8.67-7.37-.21-3.7,1.91-7.83,6.73-8.16,5.19-.38,6.38,2.28,6.48,3.95a7.16,7.16,0,0,0,1.44-1.41l.84,10.13C353.47,377.49,349.27,377.88,348.26,377.94Zm40.25-4.38c-4.85.67-8.05-1.74-6.18-4a6.93,6.93,0,0,0-3.5,1.29q-.46-3.86-.95-7.7c1.06,3.15,5.7,3.8,8.26,4.31,3.33.7,6,1.34,6.29,2.68S392,373.06,388.51,373.56Z" transform="translate(-150.95 -25.1)"/><path class="cls-3" d="M434.33,342l26.29-30.13H406.07a220.72,220.72,0,0,0,21.63-96.56V77.08H184.51V215.26a220.72,220.72,0,0,0,21.62,96.56H151.44L177.72,342l-2.24,26.28h23.16v19.42a460,460,0,0,0,79.63,11.87C294.4,412,306.1,418,306.1,418s11.69-6,27.82-18.46a460,460,0,0,0,79.64-11.87V368.23h23Z" transform="translate(-150.95 -25.1)"/><path class="cls-4" d="M429.31,340.31l20.61-23.62H398.23A214.66,214.66,0,0,0,423.1,215.26V81.68h-234V215.26A214.55,214.55,0,0,0,214,316.69H162.14l20.61,23.62-2,23.06h22.67v20.54a460.69,460.69,0,0,0,76.63,10.86,220.27,220.27,0,0,0,26,17.78,222,222,0,0,0,26-17.78,460.84,460.84,0,0,0,76.63-10.86V363.37h22.52Zm-20.7-3.26v0q-13,3-26.14,5.17,4.65-6.54,9-13.71Zm-187.94-8.57q4.38,7.2,9.06,13.78-13.2-2.22-26.29-5.21Z" transform="translate(-150.95 -25.1)"/><path class="cls-3" d="M198.3,90.88V215.26c0,55.91,20.27,98.41,43.74,128.9a460.42,460.42,0,0,0,128.11,0c23.47-30.49,43.75-73,43.75-128.9V90.88Z" transform="translate(-150.95 -25.1)"/><path class="cls-5" d="M202.9,95.48V215.26c0,56.95,21.54,99.7,45.71,129.77a459.81,459.81,0,0,0,115,0C387.75,315,409.3,272.21,409.3,215.26V95.48Z" transform="translate(-150.95 -25.1)"/><polygon class="cls-3" points="270.31 349.12 272.88 349.12 272.88 356.85 273.81 356.85 273.81 349.12 276.51 349.12 276.51 348.19 270.31 348.19 270.31 349.12"/><polygon class="cls-3" points="281.46 355.24 279.24 348.19 277.75 348.19 277.75 356.85 278.67 356.85 278.67 349.5 280.99 356.85 281.92 356.85 284.24 349.5 284.24 356.85 285.16 356.85 285.16 348.19 283.68 348.19 281.46 355.24"/><path class="cls-3" d="M273.83,129.47c1.12,2.66,1.6,3.58,1.6,3.58l-.9,3.31,3.5,1.54,2.18,4.69S290.44,138,306.49,138s26.28,4.62,26.28,4.62L335,137.9l3.51-1.54-.91-3.31s.48-.92,1.6-3.58S345.7,124,345.7,124c-4.59-4.72-8.39,4.72-13.24.14-1.67,2.5,1.84,5.5,1.84,5.5a5.54,5.54,0,0,1-4.11,3.14c-3.68.62-7.53.39-8.27-6.4,0,0-2.5,6.86-8.27,5.36a8.38,8.38,0,0,1-5.8-5.49c3.75-.45,6.59-2.74,6.59-5.48H309a9.31,9.31,0,0,0-2.5-5.12,9.44,9.44,0,0,0-2.51,5.12h-5.44c0,2.74,2.85,5,6.59,5.48a8.36,8.36,0,0,1-5.79,5.49c-5.78,1.5-8.28-5.36-8.28-5.36-.74,6.79-4.58,7-8.27,6.4a5.54,5.54,0,0,1-4.1-3.14s3.5-3,1.83-5.5c-4.85,4.58-8.65-4.86-13.24-.14C267.28,124,272.72,126.82,273.83,129.47Z" transform="translate(-150.95 -25.1)"/><path class="cls-3" d="M332.55,148.57a2,2,0,0,0,.19-.81c0-3.68-11.76-6.66-26.25-6.66s-26.24,3-26.24,6.66a2,2,0,0,0,.18.81c5.59-3,15.17-4.92,26.06-4.92S327,145.61,332.55,148.57Z" transform="translate(-150.95 -25.1)"/><path class="cls-2" d="M237.92,153.3c-1,.73-2,1.51-2.91,2.31L356.55,322.19l9.61,7-3.61-11.42L241,151.23Q239.44,152.19,237.92,153.3Z" transform="translate(-150.95 -25.1)"/><path class="cls-2" d="M246.25,138.37c.09,1.77,2.8,2,2.8,2a4.27,4.27,0,0,1-.13,1.34,47.83,47.83,0,0,0-12.09,5.62l-11.52-14.09c1.27-1.46,1.64-3.26.78-4.44l-2.66,1.94a5.49,5.49,0,0,0-3-1.57,5.58,5.58,0,0,0,.57,3.33l-2.64,1.93c.83,1.14,2.56,1.36,4.29.69l9.93,15.3a48,48,0,0,0-9,9.75,4.94,4.94,0,0,1-1.26-.28s.64-2.67-1-3.28c-.73,3.89-5.84.69-6.4,4.56,0,0,3.6-.53,5.07.36s2,1.16,2,1.16l.73,1.9,2.21-.5,1.66.93-.7-3.22a45.08,45.08,0,0,1,24-17.43l2.79,1.62-.37-1.87,1.15-2-1.6-1.27s-.09-.62-.47-2.28,1.2-4.94,1.2-4.94C248.7,133,250.18,138.86,246.25,138.37Z" transform="translate(-150.95 -25.1)"/><path class="cls-2" d="M373.54,153.8c1,.73,2,1.51,2.92,2.31L254.67,322.68l-9.61,7,3.61-11.41L370.46,151.73C371.51,152.37,372.53,153.06,373.54,153.8Z" transform="translate(-150.95 -25.1)"/><path class="cls-2" d="M365.21,138.87c-.08,1.77-2.79,2-2.79,2a4.43,4.43,0,0,0,.12,1.34,47.89,47.89,0,0,1,12.1,5.62l11.52-14.09c-1.27-1.46-1.65-3.26-.78-4.44l2.66,1.94a5.47,5.47,0,0,1,3-1.57,5.58,5.58,0,0,1-.57,3.33l2.65,1.93c-.84,1.14-2.57,1.36-4.3.69l-9.92,15.3a48.27,48.27,0,0,1,9,9.75,5.1,5.1,0,0,0,1.27-.28s-.64-2.67,1-3.28c.73,3.89,5.85.69,6.41,4.56,0,0-3.6-.53-5.07.36s-2,1.15-2,1.15l-.72,1.9-2.22-.49-1.65.93.7-3.22a45.08,45.08,0,0,0-24-17.43l-2.79,1.62.36-1.88-1.14-1.95,1.59-1.27s.1-.62.48-2.28-1.21-4.94-1.21-4.94C362.76,133.5,361.29,139.36,365.21,138.87Z" transform="translate(-150.95 -25.1)"/><path class="cls-3" d="M320,308.25a5.48,5.48,0,0,1-3.3.15l-.14,0-.11,0-.1,0a9.91,9.91,0,0,0-1.93.83,4.81,4.81,0,0,0-1.61,1.33c0-.21,0-.44,0-.66a6.9,6.9,0,0,1,1.47-4.36l.6-.75-.94.2s-1.72.35-3.23.53a4.34,4.34,0,0,0,.48-1.67,1.35,1.35,0,0,0-.18-.7l-.25-.39-.3.34a6.58,6.58,0,0,1-1,.86,6.27,6.27,0,0,1-1.66.82,2.14,2.14,0,0,0,.37-.94.84.84,0,0,0-.27-.61l-.17-.15-.21.1a13.07,13.07,0,0,0-1.86,1.08,4.92,4.92,0,0,0-1.84,2,7.35,7.35,0,0,1-.92-3.27,4.43,4.43,0,0,1,2.41-3.9l-.32-.61a2.5,2.5,0,0,1-.85.15c-.79-.05-1.84-.29-1.89-3.12v-.2a2.55,2.55,0,0,0,1.86.87c.93,0,2-.56,3.18-2.05a7.09,7.09,0,0,0,1.54-4.43c0-3.47-2.35-7-6-8.87-1.6-.81-2.85-.66-6.05-2.86l-.58-.4,0,.7c0,.27,0,.53,0,.79a9.82,9.82,0,0,1-.62,3.57,27.15,27.15,0,0,0-2.14,9.41,5.78,5.78,0,0,0,1,3.82,4.31,4.31,0,0,1-1.13-.34,2.28,2.28,0,0,1-1.45-2.08v-.37h0v0l-.69,0a1.85,1.85,0,0,0,0,.23,2.71,2.71,0,0,0,0,.29,20.79,20.79,0,0,0,.16,2.33,6.28,6.28,0,0,0,.68,2.4,1.35,1.35,0,0,1-.29,0c-.39,0-.8-.13-1.19-.91l-.66.16v0a4.72,4.72,0,0,1-2.33,3.71,11.83,11.83,0,0,0,.26-2.16,3.88,3.88,0,0,0-.33-1.68,1.62,1.62,0,0,0-1.4-.91H286a7.77,7.77,0,0,0-4.53,2.31c-1.42,1.32-2.58,3-2.67,4.48v.1c0,1.66,1.77,5.76,3.76,9.62a50,50,0,0,0,3,5.12c1,1.36,1.63,2.28,2.44,2.41l.26,0,.08-.25a13.31,13.31,0,0,1,1.05-2.3c.67-1.17,1.63-2.23,2.57-2.2H292a3.77,3.77,0,0,1,2.29.79,2.1,2.1,0,0,1,.45.47,1.06,1.06,0,0,1,.12.19l.12.26.28-.08a6.56,6.56,0,0,1,1.66-.2c1.85,0,4.61.63,5.79,4.69a7.64,7.64,0,0,0-3.59-1.44,1.88,1.88,0,0,0-.58.07l-.27.09,0,.28v.14c-.05.56-.09,2.43-3.28,2.47l-.46,0h-.2l-.1.17a2.64,2.64,0,0,0-.37,1.25c0,.63.5,1.34,1.63,1.36h0s.91-.08,2.06-.08a13.59,13.59,0,0,1,2.91.26c.88.21,1.29.54,1.26.86a1.05,1.05,0,0,1-.18.53l-.17.27.27.19a7.2,7.2,0,0,1,1.37,1.31,5.57,5.57,0,0,1,1.38,3.52,6.39,6.39,0,0,1-1.75,4.12,8,8,0,0,0-.21-1.1c-.26-.93-.66-2-1.72-2.15h-.14l-.1.08a7.43,7.43,0,0,1-1.2.79,5.54,5.54,0,0,1-2.59.79,2.61,2.61,0,0,1-2.11-1l-.1-.11L292,334.5l.14.48a5.23,5.23,0,0,1,.22,1.46,2.89,2.89,0,0,1-.34,1.44l-.15.25.21.19a4.65,4.65,0,0,1,.66.8,3.86,3.86,0,0,1,.66,2c0,1.12-.6,2.5-2.92,3.94a4,4,0,0,0,0-.62,1.86,1.86,0,0,0-1.65-2.16,16.53,16.53,0,0,1-3.19-1.25c-1.63-.84-3.13-2.12-3.11-3.69a3.44,3.44,0,0,1,.57-1.81l.18-.29-4-2.8-.13.46a2.34,2.34,0,0,1-.12.29,3.45,3.45,0,0,1-3.31,1.71,8.61,8.61,0,0,1-2.47-.4l-.3-.09-.12.28a6,6,0,0,0-.46,2.21,3.86,3.86,0,0,0,0,.58,5.35,5.35,0,0,1-2.55-4.74,10,10,0,0,1,.81-3.74l.06-.14-.07-.14a3.66,3.66,0,0,1-.32-1.34c.06-.68.17-1.22,1.62-1.27l.24,0,.21-.64s-3.39-2.21-6-2.23a2.51,2.51,0,0,0-2.17,1,8.64,8.64,0,0,1-.22-1.91c0-.91.21-1.65.69-1.89l.77-.42-.85-.23a12.83,12.83,0,0,1-1.78-.64,8.74,8.74,0,0,1-3-2.13,2.29,2.29,0,0,0-1.79-.77,8.21,8.21,0,0,0-3.74,1.31,14.82,14.82,0,0,1,1-1.37c1-1.31,2.45-2.56,3.82-2.54h.11l.18-.66-3.62-1.74a6.26,6.26,0,0,1,.64-.48,3.58,3.58,0,0,1,1.76-.79h0l.18-.67a12.33,12.33,0,0,0-4.3-.87,5.46,5.46,0,0,0-4.14,1.58,8.39,8.39,0,0,1,.6-3.22,2.91,2.91,0,0,1,2.84-1.88h.23l.48,0-.12-.46c0-.07-.51-1.87-3.75-4.13a8.37,8.37,0,0,0-4.74-1.69,5.25,5.25,0,0,0-1.25.14,8.79,8.79,0,0,1,.62-.8,4,4,0,0,1,2.83-1.56,3.24,3.24,0,0,1,1.79.58l.76.5-.24-.88a7.88,7.88,0,0,1-.24-1.9,3.67,3.67,0,0,1,1.12-2.95,15.94,15.94,0,0,0,.68,2.3c.56,1.39,1.32,2.92,2.73,3a2,2,0,0,0,.9-.24l.17-.1v-.19a10.8,10.8,0,0,1,.38-2.18c.28-1,.75-1.8,1.43-2a1.36,1.36,0,0,0,0,.21,2.94,2.94,0,0,0,.34,1.42,1.78,1.78,0,0,0,1.64.85,5.26,5.26,0,0,0,2-.48c.06,0,5.29-2.3,5.28-10.95,0-.6,0-1.24-.08-1.91-.2-2.39-.51-4.43-.78-7.3l-.05-.6L265,274a18,18,0,0,1-10.32,3.56,14,14,0,0,1-2.38-.2,11.14,11.14,0,0,1-9.9-9.52,18.32,18.32,0,0,1-.15-2.19v-.19l-.15-.1a6.11,6.11,0,0,1-2.94-5.39v0a3.18,3.18,0,0,0,1.72,1.27l.42.14,0-.45s0-.51,0-1.26a17.54,17.54,0,0,0-.3-3.38,5.28,5.28,0,0,0-.66-1.76,4.48,4.48,0,0,1,3.35,2.71l.28.69.34-.66a27,27,0,0,1,2.69-4.12,115.53,115.53,0,0,1,9.62-10.06c6.8-6.75,13.42-13.89,13.74-25.4v-.76a25.8,25.8,0,0,0-3.73-13.75c-2.41-3.63-6-5.85-8.81-5.88h-.1a6,6,0,0,0-1.44.17,7.26,7.26,0,0,0-4.49,2.72,9,9,0,0,0-1.51,5.35,10.14,10.14,0,0,0,.07,1.23c.08.27.17.25.21.29.26.13.78.23,1.61.5,2.45.79,6.74,2.65,6.71,6.91a8,8,0,0,1-.12,1.33,11.41,11.41,0,0,0-.22,2.15,3.61,3.61,0,0,0,.71,2.49,2.18,2.18,0,0,0,1.68.69,5.12,5.12,0,0,0,1.94-.46,5.93,5.93,0,0,1-.35,1.52,2.39,2.39,0,0,1-2.3,1.81,5.28,5.28,0,0,1-2.28-.63l-.79-.38.31.81a3.36,3.36,0,0,0,1.17,1.46,6.53,6.53,0,0,1-.78.05c-.91,0-1.71-.24-2-1l-.66.17a6.08,6.08,0,0,1,.06.93,7,7,0,0,1-3.51,6.22l.84-3-.8.56a10.65,10.65,0,0,1-1.25.73,5.93,5.93,0,0,1-2.46.7,2.73,2.73,0,0,1-.41,0c.7-.85,2.23-2.93,2.24-5a3.27,3.27,0,0,0-.44-1.7c-1.58-2.59-4.33-4-4.28-6.41a2.85,2.85,0,0,1,.07-.64l.08-.48-.47.06a6.8,6.8,0,0,1-.87.05c-1.33,0-3.59-.32-4.24-2.2a6.34,6.34,0,0,0-4-3.71,5.8,5.8,0,0,1,.6-.51,3.83,3.83,0,0,1,2.23-.9,2.27,2.27,0,0,1,1.53.59,4.85,4.85,0,0,0,3.14,1.17,3.53,3.53,0,0,0,3.76-3.49v0s-.05-.6-.05-1.46c0-1.82.24-5,1.62-7a11.17,11.17,0,0,1,6.92-5,12.64,12.64,0,0,1,2.48-.22h.28c4.72.1,8.55,3.12,11.42,7.43a28.64,28.64,0,0,1,4.53,15.71v.61h0v.11c-.2,9.88-4.49,17.14-9.5,22.95s-9.81,10.06-13.44,14.76c-2.18,2.81-3.54,5.63-3.53,8.85a9.08,9.08,0,0,0,.05,1.16,6.71,6.71,0,0,0,2,4.49,7.74,7.74,0,0,0,4.43,1.54c5-.05,8.41-5.78,10.89-10.16l0-.05v0c1.42-5.81,5.33-13.89,14.6-16.94l.12,0,.07-.1s6.49-9.81,12.31-20.16l.29-.51h-.38c-.13-.26-.41-.79-.71-1.29-.46-.73-.81-1.43-1.36-1.66l-.07,0-.09,0a5.63,5.63,0,0,0-3,1.64.56.56,0,0,1,0-.12,7.24,7.24,0,0,1-.26-1.88A7.34,7.34,0,0,1,288,215.8l.25-.36-.39-.16-.1-.07a14.18,14.18,0,0,1-2.63-2.64,2.34,2.34,0,0,0-1.74-1,2,2,0,0,0-1.61,1.13,9.54,9.54,0,0,1-.45-2.79,5.74,5.74,0,0,1,.55-2.58l.35-.68-.74.19A6.29,6.29,0,0,1,280,207a8.68,8.68,0,0,1-2.14-.3,7.36,7.36,0,0,0,2.22-2.58,22.31,22.31,0,0,0,1.35-2.75l.16-.41-.42-.07a3.88,3.88,0,0,0-.67-.06,3,3,0,0,0-1.55.42,6.63,6.63,0,0,1,1.27-1.88l.3-.3-.35-.23a2.58,2.58,0,0,0-1.44-.47,2.49,2.49,0,0,0-1.26.34,5,5,0,0,0-1.5,1.16c0-.37-.07-.81-.07-1.3a7,7,0,0,1,3-6.24l.19-.12,0-.22a29.11,29.11,0,0,1-.22-3.61,16.62,16.62,0,0,1,.71-5.24l.24-.68-.68.25a8.37,8.37,0,0,0-2.9,1.56,6,6,0,0,1,2.16-4.64l.48-.36-.55-.23a5.14,5.14,0,0,1-2.28-1.84,5.41,5.41,0,0,0,4.62-2.92l0-.06v-.07a25.51,25.51,0,0,1,.67-3.2c.45-1.66,1.23-3.46,2.15-3.93l.15-.09,0-.17s0-.1,0-.26a4.22,4.22,0,0,0-3-3.87c.48-.26,1.18-.61,2-1a13.47,13.47,0,0,1,4.83-1.34,2.13,2.13,0,0,1,1.74.64l.49.58.12-.75a40,40,0,0,1,1.14-4.66c.72-2.34,1.89-4.76,3.12-5.22a9.77,9.77,0,0,1,1.92.81,5.37,5.37,0,0,1,2.65,2.85l.1.29.29-.05a64.51,64.51,0,0,1,9.86-.8c6,0,12.83,1.09,14.7,5.23l.06.11,7.74,3.34.09,0h.54a7.21,7.21,0,0,1,2.42.37c.82.33,1.38.79,1.38,1.71a4.74,4.74,0,0,1-.85,2.37l-.1.18.1.17a5.06,5.06,0,0,1,.33.82,7.21,7.21,0,0,1,.34,2.18,7.39,7.39,0,0,1-1.76,4.73.42.42,0,0,0-.1.25,6.2,6.2,0,0,1-2.09,4.38,4.72,4.72,0,0,0,.21-1.23c0-1.14-.78-2.36-3-2.43-1.53-.08-8.77-1-11,.76a6,6,0,0,0-2.42,5.08c0,2.34,2.85,4.54,6.79,4.54a7.9,7.9,0,0,0,2.91-.55,2.51,2.51,0,0,0,1.78-2.24v-.09l.55.55a4,4,0,0,1,1.29,2.34,1.64,1.64,0,0,1,0,.22c-.24,1.38-.58,4-2.33,5.65H326a13,13,0,0,0-2.69.25c-.9.2-1.84.58-1.88,1.55a1.81,1.81,0,0,0,.34,1,46.64,46.64,0,0,1-5.13-.41l-.62-.1.26.58s1.91,4.29,5.87,4.32c1.87,0,4.09-1,6.66-3.72a4.44,4.44,0,0,1,3.31-1.55,5,5,0,0,1,1.42.22,2.6,2.6,0,0,0-1.25,1.12l-.22.35.38.15a13.27,13.27,0,0,0,4.1.94,3.93,3.93,0,0,0,.92-.1,3.36,3.36,0,0,1-3.37,2.06h0l-.14.67a3.67,3.67,0,0,1,.45.26,12.47,12.47,0,0,1,1.49,1.18l.18.18.22-.13c7.47-4.31,17.82-10.71,20.45-15l.18-.28-.28-.18a21,21,0,0,1-2.37-1.91c-1.19-1.11-2.32-2.56-2.3-3.65a1.46,1.46,0,0,1,.22-.81l.09-.14-.05-.15a11.52,11.52,0,0,1-.44-3.07c0-1.79.48-3.76,2.45-4.75a14.71,14.71,0,0,0-.54,3.24,2.25,2.25,0,0,0,.12.84.75.75,0,0,0,.65.51h.17l.12-.13a6.12,6.12,0,0,1,.8-.76,2.82,2.82,0,0,1,1.64-.73c.71,0,1.58.59,2,3.54l.11.75.5-.57s.37-.44.79-.86c.21-.21.44-.43.61-.58l.24-.17h0l.38.09,0-.47s0-.28,0-.72a12.62,12.62,0,0,1,.41-3.34c.36-1.15.92-1.94,1.88-1.93h.25l.11-.1a10.48,10.48,0,0,1,1.72-1.28,8.13,8.13,0,0,1,4.08-1.27,5.68,5.68,0,0,1,3.63,1.33c-.43.11-1,.29-1.59.5-1.11.46-2.36,1-2.48,2.11v.15l.09.11a2.06,2.06,0,0,1,.41.6,3.66,3.66,0,0,1,.42,1.68c0,1.2-.62,2.85-3.16,4.7l-.15.09-.24,4.85.67-.85s.85-1.08,1.87-2.16,2.31-2.11,2.7-2.06c.09,0,.08,0,.14.1l.1.22.26,0a12.5,12.5,0,0,1,1.32-.06,11.58,11.58,0,0,1,4.43.79,4.55,4.55,0,0,1,2.8,3.11,4.34,4.34,0,0,0-1.64-.35,3,3,0,0,0-2.08.83l-.11.12v.16s0,.09,0,.27a6.49,6.49,0,0,1-.68,2.93,3.92,3.92,0,0,1-3.8,2.05,10.06,10.06,0,0,1-2.85-.45L370,188l-.09.34a.34.34,0,0,0,0,.1,2.92,2.92,0,0,1-2.37,2.91l-1.07.19,1,.46a14.71,14.71,0,0,1,2.05,1.24c1,.71,2,1.72,2,2.46a1.23,1.23,0,0,1-.44.88l-.15.14.06.2a10.25,10.25,0,0,0,.78,1.88,3.57,3.57,0,0,0,1.93,1.91l-.14.08a6.55,6.55,0,0,1-3.12.84,6.16,6.16,0,0,1-2.84-.71l-.27-.14L367,201a1.39,1.39,0,0,1-.27.27,1.3,1.3,0,0,1-.78.27c-.44,0-1.08-.24-1.91-1.23l-.29-.34-.26.36S361,203.8,361,206.7a3.08,3.08,0,0,0,1.38,2.74h0a4.12,4.12,0,0,1-1.46.33,1.64,1.64,0,0,1-1.71-1.4c0-.1,0-.17-.06-.23l-.67.18a0,0,0,0,0,0,0h0a2,2,0,0,0,.09.33,10.68,10.68,0,0,1,.31,2.38,5.19,5.19,0,0,1-.28,1.78,3.2,3.2,0,0,0-.09-.62.79.79,0,0,0-.66-.62h-.21l-.1.18a10.51,10.51,0,0,0-1.55,4.55,2.47,2.47,0,0,0,2,2.62l-.19.12a3.66,3.66,0,0,1-1.83.61c-.92,0-1.88-.5-2.61-2.68l-.67.16s0,.14,0,.28a6.13,6.13,0,0,1-.66,2.82,7.24,7.24,0,0,1-1-2.63l-.68-.07s-.72,2.39-1.06,3.68a5.56,5.56,0,0,0-.08.9,3.43,3.43,0,0,0,.3,1.45,1.57,1.57,0,0,0,.12.21c-1.51-.11-3.84-.61-4.47-2.27l-.66.23c.25.83.66,2.23,1.12,3.45a10.93,10.93,0,0,0,.69,1.58c.08.15.16.27.23.39a2.89,2.89,0,0,1-.66.07c-.94,0-2.52-.35-4.86-1.94l-.37-.25-.14.42c-.43,1.18-2.88,6.21-3.62,7.49l-.12.21.16.19c5.71,6.55,13.59,15,18,16.62l.35.12.1-.35a24.22,24.22,0,0,1,1.27-3.25c.78-1.64,1.94-3.17,2.92-3.11a1.15,1.15,0,0,1,.39.07l.19.06.15-.12a7.87,7.87,0,0,1,1.18-.76,6,6,0,0,1,2.79-.77,4.57,4.57,0,0,1,3.44,1.63h0a14.39,14.39,0,0,0-2.36.16c-.76.16-1.55.31-1.65,1.12a.55.55,0,0,0,0,.17l0,.14.13.08a6.57,6.57,0,0,1,1,.76,2.62,2.62,0,0,1,1,1.76c0,.72-.56,1.68-2.74,2.7l-.6.28.58.33s.48.28,1,.61c.24.16.49.34.67.48l.21.19a.07.07,0,0,0,0,.05l.07.37.37-.13a11.29,11.29,0,0,1,3.42-.67c1.29,0,2.28.35,2.52,1.58l0,.14.12.08a11,11,0,0,1,2,1.91,8.09,8.09,0,0,1,1.95,5.06,7.32,7.32,0,0,1-.45,2.5c-.19-.38-.45-.86-.75-1.35-.66-1-1.37-2.1-2.39-2.16l-.24,0-.14,0-.08.12a3,3,0,0,1-.64.78,3,3,0,0,1-2,.77c-1,0-2.39-.49-4.15-2.16l-.13-.13-4.4,1,.85.44s1.27.66,2.53,1.48,2.5,1.92,2.41,2.27c0,.06,0,.08-.07.15l-.16.15.07.21a17.15,17.15,0,0,1,.85,5c0,2-.49,3.89-2.14,4.93a4.79,4.79,0,0,0,.05-.7,3.54,3.54,0,0,0-1.39-3l-.15-.11-.17.07a5.71,5.71,0,0,1-1.81.3c-1.79-.05-4.23-.8-4.28-6.46v-.2l0-.49-.46.14a2.67,2.67,0,0,1-.72.09,2.56,2.56,0,0,1-2.47-1.81l-.33-.79-.31.8a13.73,13.73,0,0,1-1.07,2.09c-.65,1.05-1.58,2-2.39,2a1.38,1.38,0,0,1-.84-.29l-.27-.19-.21.28a9,9,0,0,0-1.69,4.39,4.67,4.67,0,0,0,.09.82c-.76-.67-1.74-2-1.75-4.7a12.4,12.4,0,0,1,.16-1.92l0-.26-.24-.11-.11-.06a1.53,1.53,0,0,1-.69-1.32,3.7,3.7,0,0,1,.68-1.95l.2-.34-.35-.16a14.13,14.13,0,0,0-4.94-1.15,3.38,3.38,0,0,0-3.61,2.28l-.13-.21a3.64,3.64,0,0,1-.58-1.75,1.9,1.9,0,0,1,.9-1.59l.21-.13-.37-.59-.28.19a7.12,7.12,0,0,1-3.34,1.15,2.94,2.94,0,0,1-1-.19,1.7,1.7,0,0,0,.6-1.16c0-.07,0-.13,0-.18l0-.21-.2-.06a8,8,0,0,0-2.38-.42,3.35,3.35,0,0,0-2,.57,2.67,2.67,0,0,0-1,2.3v.27a2.55,2.55,0,0,1-.26-.3,3.45,3.45,0,0,1-.91-2.17c0-.83.41-1.8,1.84-2.85l-.36-.59a3.52,3.52,0,0,1-1.24.17,6.42,6.42,0,0,1-1.65-.22c.06-.09.13-.18.19-.29l.3-.48c0-.07.08-.13.11-.18s.05,0,.07-.25v-.25l-.23-.07-.67-.22a4.87,4.87,0,0,0-.83-.24h-.39a4.89,4.89,0,0,0-1.62.25,1.75,1.75,0,0,0-.71.45,12.31,12.31,0,0,1-.21-2.14h0l.08-.8-.64.48a36.86,36.86,0,0,1-3.26,2.25,9.53,9.53,0,0,0,.61-2.61l.06-1-.67.8s-.16.19-.53.56c-1.14,1.09-4.19,3.62-10.12,6.19a37.72,37.72,0,0,0-6.48,3.44l-.53.36.59.24a7.05,7.05,0,0,0,2.61.7c1.16,0,1.55-.57,3.35-.71,1.37-.11,2.87-.18,4.45-.18,9.13,0,20.52,2.37,22.23,13.12v0l0,0a16.75,16.75,0,0,0,1.31,2.48,5.8,5.8,0,0,0,2.56,2.45l0,0a3.34,3.34,0,0,1-1.58.49,2.25,2.25,0,0,1-1.53-.64l-.46-.42-.12.61A9.79,9.79,0,0,0,331,280a4.83,4.83,0,0,0,.41,2.16,2.07,2.07,0,0,0,1.24,1.11,3.25,3.25,0,0,1-1.56.47c-.76,0-1.54-.35-2.22-1.84l-.22-.49-.35.4s-2.38,2.5-2.43,4.25a1.23,1.23,0,0,0,.39.94c.61.56,3.74,3.18,6.92,5.69,1.58,1.24,3.17,2.45,4.46,3.36a7.77,7.77,0,0,0,2.79,1.55h0c.63-.11.8-.65,1.05-1.23.74-1.85,1.5-5,5.08-5a7.13,7.13,0,0,1,.89.05l.13,0,.11-.07a6.53,6.53,0,0,1,1.12-.6,7,7,0,0,1,2.69-.59,5.14,5.14,0,0,1,4.3,2.34,15.13,15.13,0,0,0-2.28-.23c-.79,0-1.56.06-1.9.72l0,.11,0,.11a5.64,5.64,0,0,1,.13,1.24,3.58,3.58,0,0,1-2.65,3.78l-.16.05-.78,1.79.48,0s.78.07,1.71.07a5.55,5.55,0,0,0,2.79-.48c.6-.47.75-1.05,1.91-1.6.78-.36,2.77-.07,3.09.49l.05.08.07,0a15.53,15.53,0,0,1,2.7,2.06c1.35,1.28,2.67,3.07,2.66,5a5,5,0,0,1-1.07,3c0-.13,0-.27,0-.41a5.09,5.09,0,0,0-.48-2.32,2.37,2.37,0,0,0-2.24-1.29h-.32l-.21,0-.08.2a6.52,6.52,0,0,1-1,1.6,3.78,3.78,0,0,1-2.93,1.57,4.44,4.44,0,0,1-2-.54l-.05,0-2.37.88,1.37.91.36.36a5.44,5.44,0,0,1,.87,1.18,2.81,2.81,0,0,1,.39,1.44l0,.28.28.07a4.42,4.42,0,0,1,1,.39,3.83,3.83,0,0,1,1.54,1.49c.53,1,.66,2.49-.7,4.85a4.51,4.51,0,0,0-.25-.57c-.38-.76-1.88-2-2.5-1a8.76,8.76,0,0,1-3.51.46,6.58,6.58,0,0,1-4.09-1.56,3.25,3.25,0,0,1-.63-2.3l.1-.86-5.18-1.24.16.85a8.21,8.21,0,0,1,.16,1.64,2.93,2.93,0,0,0,0,.33c0,.63-.16,1.2-2.08,2.25a9,9,0,0,1-2.37.81l-.3.06,0,.31a6.16,6.16,0,0,0,.64,2.16,4.42,4.42,0,0,0,.31.49,5.35,5.35,0,0,1-4.49-3,10.09,10.09,0,0,1-1.06-3.67v-.16l-.12-.09a2.66,2.66,0,0,1-1-1.16c-.15-.53-.09-.95.91-1.75.16-.13.2-.15.17-.4l-.07-.36c-.94-.93-4.06-.8-6.32.86a3,3,0,0,0-1.44,1.9,9,9,0,0,1-1.1-1.58c-.43-.8-.59-1.55-.28-2l.48-.73.51-1.91Z" transform="translate(-150.95 -25.1)"/><path class="cls-6" d="M294.12,150.89a9.77,9.77,0,0,1,1.92.81,5.37,5.37,0,0,1,2.65,2.85l.1.29.29-.05a64.51,64.51,0,0,1,9.86-.8h.15c6,0,12.69,1.12,14.55,5.23l.06.11,7.74,3.34.09,0s.2,0,.54,0a7.24,7.24,0,0,1,2.42.38c.82.33,1.38.79,1.38,1.71a4.74,4.74,0,0,1-.85,2.37l-.1.18.1.17a5.06,5.06,0,0,1,.33.82,7.21,7.21,0,0,1,.34,2.18,7.39,7.39,0,0,1-1.76,4.73.42.42,0,0,0-.1.25,6.2,6.2,0,0,1-2.09,4.38,4.72,4.72,0,0,0,.21-1.23c0-1.14-.78-2.36-3-2.43-.79,0-3.1-.3-5.46-.3-2.2,0-4.44.22-5.5,1.06a6,6,0,0,0-2.42,5.08c0,2.34,2.85,4.54,6.79,4.54a7.9,7.9,0,0,0,2.91-.55,2.51,2.51,0,0,0,1.78-2.24v-.09l.55.55a4,4,0,0,1,1.29,2.34,1.64,1.64,0,0,1,0,.22c-.24,1.38-.58,4-2.33,5.65H326a13,13,0,0,0-2.69.25c-.9.2-1.84.58-1.88,1.55a1.81,1.81,0,0,0,.34,1,46.64,46.64,0,0,1-5.13-.41l-.62-.1.26.58s1.91,4.29,5.87,4.32c1.87,0,4.09-1,6.66-3.72a4.44,4.44,0,0,1,3.31-1.55,5,5,0,0,1,1.42.22,2.6,2.6,0,0,0-1.25,1.12l-.22.35.38.15a13.27,13.27,0,0,0,4.1.94,3.93,3.93,0,0,0,.92-.1,3.36,3.36,0,0,1-3.1,2.07h-.28l-.14.67a3.67,3.67,0,0,1,.45.26,12.47,12.47,0,0,1,1.49,1.18l.18.18.22-.13c7.47-4.31,17.82-10.71,20.45-15l.18-.28-.28-.18a21,21,0,0,1-2.37-1.91c-1.19-1.11-2.32-2.56-2.3-3.65a1.46,1.46,0,0,1,.22-.81l.09-.14-.05-.15a11.52,11.52,0,0,1-.44-3.07c0-1.79.48-3.76,2.45-4.75a14.71,14.71,0,0,0-.54,3.24,2.25,2.25,0,0,0,.12.84.75.75,0,0,0,.65.51h.17l.12-.13a6.12,6.12,0,0,1,.8-.76,2.9,2.9,0,0,1,1.62-.73h0c.72,0,1.58.61,2,3.54l.11.75.5-.57s.37-.43.79-.86c.21-.21.44-.43.61-.58l.24-.17h0l.38.09,0-.47s0-.28,0-.72a12.62,12.62,0,0,1,.41-3.34c.36-1.14.91-1.93,1.86-1.93h.27l.11-.1a10.48,10.48,0,0,1,1.72-1.28,8.13,8.13,0,0,1,4.08-1.27,5.68,5.68,0,0,1,3.63,1.33c-.43.11-1,.29-1.59.5-1.11.46-2.36,1-2.48,2.11v.15l.09.11a2.06,2.06,0,0,1,.41.6,3.66,3.66,0,0,1,.42,1.68c0,1.2-.62,2.85-3.16,4.7l-.15.09-.24,4.85.67-.85s.85-1.08,1.87-2.16a7.32,7.32,0,0,1,2.67-2.06h0c.09,0,.08,0,.14.1l.1.22.26,0a12.5,12.5,0,0,1,1.32-.06,11.58,11.58,0,0,1,4.43.79,4.55,4.55,0,0,1,2.8,3.11,4.34,4.34,0,0,0-1.64-.35,3,3,0,0,0-2.08.83l-.11.12v.16s0,.09,0,.27a6.49,6.49,0,0,1-.68,2.93,3.92,3.92,0,0,1-3.8,2.05h0a10.58,10.58,0,0,1-2.82-.45L370,188l-.09.34a.34.34,0,0,0,0,.1,2.92,2.92,0,0,1-2.37,2.91l-1.07.19,1,.46a14.71,14.71,0,0,1,2.05,1.24c1,.71,2,1.72,2,2.46a1.23,1.23,0,0,1-.44.88l-.15.14.06.2a10.25,10.25,0,0,0,.78,1.88,3.57,3.57,0,0,0,1.93,1.91l-.14.08a6.55,6.55,0,0,1-3.12.84,6.16,6.16,0,0,1-2.84-.71l-.27-.14L367,201a1.39,1.39,0,0,1-.27.27,1.3,1.3,0,0,1-.78.27c-.44,0-1.08-.24-1.91-1.23l-.29-.34-.26.36S361,203.8,361,206.7a3.08,3.08,0,0,0,1.38,2.74h0a4.12,4.12,0,0,1-1.46.33,1.64,1.64,0,0,1-1.71-1.4c0-.1,0-.17-.06-.23l-.67.18a0,0,0,0,0,0,0h0a2,2,0,0,0,.09.33,10.68,10.68,0,0,1,.31,2.38,5.19,5.19,0,0,1-.28,1.78,3.2,3.2,0,0,0-.09-.62.78.78,0,0,0-.66-.62h-.21l-.1.18a10.51,10.51,0,0,0-1.55,4.55,2.47,2.47,0,0,0,2,2.62l-.19.12a3.66,3.66,0,0,1-1.83.61c-.92,0-1.88-.5-2.61-2.68l-.67.16s0,.14,0,.28a6.13,6.13,0,0,1-.66,2.82,7.24,7.24,0,0,1-1-2.63l-.68-.07s-.72,2.39-1.06,3.68a5.56,5.56,0,0,0-.08.9,3.43,3.43,0,0,0,.3,1.45,1.57,1.57,0,0,0,.12.21c-1.51-.11-3.84-.61-4.47-2.27l-.66.23c.25.83.66,2.23,1.12,3.45a10.93,10.93,0,0,0,.69,1.58c.08.15.16.27.23.39a2.89,2.89,0,0,1-.66.07c-.94,0-2.52-.35-4.86-1.94l-.37-.25-.14.42c-.43,1.18-2.88,6.21-3.62,7.49l-.12.21.16.19c5.71,6.55,13.59,15,18,16.62l.35.12.1-.35a24.22,24.22,0,0,1,1.27-3.25c.77-1.61,1.9-3.11,2.87-3.11h.05a1.15,1.15,0,0,1,.39.07l.19.06.15-.12a7.87,7.87,0,0,1,1.18-.76,6,6,0,0,1,2.79-.77,4.57,4.57,0,0,1,3.44,1.63h0a14.39,14.39,0,0,0-2.36.16c-.76.16-1.55.31-1.65,1.12a.55.55,0,0,0,0,.17l0,.14.13.08a6.57,6.57,0,0,1,1,.76,2.62,2.62,0,0,1,1,1.76c0,.72-.56,1.68-2.74,2.7l-.6.28.58.33s.48.28,1,.61c.24.16.49.34.67.48l.21.19a.07.07,0,0,0,0,.05l.07.37.37-.13a11.19,11.19,0,0,1,3.41-.67h0c1.29,0,2.28.35,2.52,1.58l0,.14.12.08a11,11,0,0,1,2,1.91,8.09,8.09,0,0,1,1.95,5.06,7.32,7.32,0,0,1-.45,2.5c-.19-.38-.45-.86-.75-1.35-.66-1-1.37-2.1-2.39-2.16l-.24,0-.14,0-.08.12a3,3,0,0,1-.64.78,3,3,0,0,1-2,.77c-1,0-2.39-.49-4.15-2.16l-.13-.13-4.4,1,.85.44s1.27.66,2.53,1.48,2.5,1.92,2.41,2.27c0,.06,0,.08-.07.15l-.16.15.07.21a17.15,17.15,0,0,1,.85,5c0,2-.49,3.89-2.14,4.93a4.79,4.79,0,0,0,.05-.7,3.54,3.54,0,0,0-1.39-3l-.15-.11-.17.07a5.71,5.71,0,0,1-1.81.3c-1.79-.05-4.23-.8-4.28-6.46v-.2l0-.49-.46.14a2.67,2.67,0,0,1-.72.09,2.56,2.56,0,0,1-2.47-1.81l-.33-.79-.31.8a13.73,13.73,0,0,1-1.07,2.09c-.64,1-1.55,2-2.35,2h0a1.38,1.38,0,0,1-.84-.29l-.27-.19-.21.28a9,9,0,0,0-1.69,4.39,4.67,4.67,0,0,0,.09.82c-.76-.67-1.74-2-1.75-4.7a12.4,12.4,0,0,1,.16-1.92l0-.26-.24-.11-.11-.06a1.53,1.53,0,0,1-.69-1.32,3.7,3.7,0,0,1,.68-1.95l.2-.34-.35-.16a14.13,14.13,0,0,0-4.94-1.15h-.11a3.35,3.35,0,0,0-3.5,2.28l-.13-.21a3.64,3.64,0,0,1-.58-1.75,1.9,1.9,0,0,1,.9-1.59l.21-.13-.37-.59-.28.19a7.14,7.14,0,0,1-3.33,1.15h0a2.94,2.94,0,0,1-1-.19,1.7,1.7,0,0,0,.6-1.16c0-.07,0-.13,0-.18l0-.21-.2-.06a8,8,0,0,0-2.38-.42,3.35,3.35,0,0,0-2,.57,2.67,2.67,0,0,0-1,2.3v.27a2.55,2.55,0,0,1-.26-.3,3.45,3.45,0,0,1-.91-2.17c0-.83.41-1.8,1.84-2.85l-.36-.59a3.34,3.34,0,0,1-1.17.17h-.07a6.42,6.42,0,0,1-1.65-.22c.06-.09.13-.18.19-.29l.3-.48c0-.07.08-.13.11-.18s.05,0,.07-.25v-.25l-.23-.07-.67-.22a4.87,4.87,0,0,0-.83-.24h-.39a4.89,4.89,0,0,0-1.62.25,1.75,1.75,0,0,0-.71.45,12.31,12.31,0,0,1-.21-2.14h0l.08-.8-.64.48a36.86,36.86,0,0,1-3.26,2.25,9.53,9.53,0,0,0,.61-2.61l.06-1-.67.8s-.16.19-.53.56c-1.14,1.09-4.19,3.62-10.12,6.19a37.72,37.72,0,0,0-6.48,3.44l-.53.36.59.24a7.05,7.05,0,0,0,2.61.7c1.16,0,1.55-.57,3.35-.71,1.37-.11,2.87-.18,4.45-.18,9.13,0,20.52,2.37,22.23,13.12v0l0,0a16.75,16.75,0,0,0,1.31,2.48,5.8,5.8,0,0,0,2.56,2.45l0,0a3.34,3.34,0,0,1-1.58.49,2.25,2.25,0,0,1-1.53-.64l-.46-.42-.12.61A9.79,9.79,0,0,0,331,280a4.83,4.83,0,0,0,.41,2.16,2.07,2.07,0,0,0,1.24,1.11,3.25,3.25,0,0,1-1.56.47c-.76,0-1.54-.35-2.22-1.84l-.22-.49-.35.4s-2.38,2.5-2.43,4.25a1.23,1.23,0,0,0,.39.94c.61.56,3.74,3.18,6.92,5.69,1.58,1.24,3.17,2.45,4.46,3.36a7.77,7.77,0,0,0,2.79,1.55h0c.63-.11.8-.65,1.05-1.23.74-1.85,1.5-5,5.07-5h0a7.13,7.13,0,0,1,.89.05l.13,0,.11-.07a6.53,6.53,0,0,1,1.12-.6,7,7,0,0,1,2.69-.59,5.14,5.14,0,0,1,4.3,2.34,15.13,15.13,0,0,0-2.28-.23c-.79,0-1.56.06-1.9.72l0,.11,0,.11a5.64,5.64,0,0,1,.13,1.24,3.58,3.58,0,0,1-2.65,3.78l-.16.05-.78,1.79.48,0s.78.07,1.71.07a5.55,5.55,0,0,0,2.79-.48c.6-.47.75-1.05,1.91-1.6a2.46,2.46,0,0,1,1-.16c.87,0,1.9.26,2.12.65l.05.08.07,0a15.53,15.53,0,0,1,2.7,2.06c1.35,1.28,2.67,3.07,2.66,5a5,5,0,0,1-1.07,3c0-.13,0-.27,0-.41a5.09,5.09,0,0,0-.48-2.32,2.38,2.38,0,0,0-2.21-1.29h-.35l-.21,0-.08.2a6.52,6.52,0,0,1-1,1.6,3.78,3.78,0,0,1-2.93,1.57,4.44,4.44,0,0,1-2-.54l-.05,0-2.37.88,1.37.91.36.36a5.44,5.44,0,0,1,.87,1.18,2.81,2.81,0,0,1,.39,1.44l0,.28.28.07a4.42,4.42,0,0,1,1,.39,3.83,3.83,0,0,1,1.54,1.49c.53,1,.66,2.49-.7,4.85a4.51,4.51,0,0,0-.25-.57,2.66,2.66,0,0,0-1.84-1.35.75.75,0,0,0-.66.39,8.11,8.11,0,0,1-3.11.47h-.4a6.58,6.58,0,0,1-4.09-1.56,3.25,3.25,0,0,1-.63-2.3l.1-.86-5.18-1.24.16.85a8.21,8.21,0,0,1,.16,1.64,2.93,2.93,0,0,0,0,.33c0,.63-.16,1.2-2.08,2.25a9,9,0,0,1-2.37.81l-.3.06,0,.31a6.16,6.16,0,0,0,.64,2.16,4.42,4.42,0,0,0,.31.49,5.35,5.35,0,0,1-4.49-3,10.09,10.09,0,0,1-1.06-3.67v-.16l-.12-.09a2.66,2.66,0,0,1-1-1.16c-.15-.53-.09-.95.91-1.75.16-.13.2-.15.17-.4l-.07-.36a2.9,2.9,0,0,0-2-.58,7.61,7.61,0,0,0-4.32,1.44,3,3,0,0,0-1.44,1.9,9,9,0,0,1-1.1-1.58c-.43-.8-.59-1.55-.28-2l.48-.73.51-1.91-2.63,1a5.59,5.59,0,0,1-3.3.15l-.14,0-.11,0-.1,0a9.91,9.91,0,0,0-1.93.83,4.81,4.81,0,0,0-1.61,1.33c0-.21,0-.44,0-.66a6.9,6.9,0,0,1,1.47-4.36l.6-.75-.94.2s-1.72.35-3.23.53a4.34,4.34,0,0,0,.48-1.67,1.35,1.35,0,0,0-.18-.7l-.25-.39-.3.34a6.58,6.58,0,0,1-1,.86,6.27,6.27,0,0,1-1.66.82,2.14,2.14,0,0,0,.37-.94.84.84,0,0,0-.27-.61l-.17-.15-.21.1a13.07,13.07,0,0,0-1.86,1.08,4.92,4.92,0,0,0-1.84,2,7.35,7.35,0,0,1-.92-3.27,4.43,4.43,0,0,1,2.41-3.9l-.32-.61a2.5,2.5,0,0,1-.85.15c-.79-.05-1.84-.29-1.89-3.12v-.2a2.55,2.55,0,0,0,1.86.87c.93,0,2-.56,3.18-2.05a7.09,7.09,0,0,0,1.54-4.43c0-3.47-2.35-7-6-8.87-1.6-.81-2.85-.66-6.05-2.86l-.58-.4,0,.7c0,.27,0,.53,0,.79a9.82,9.82,0,0,1-.62,3.57,27.15,27.15,0,0,0-2.14,9.41,5.78,5.78,0,0,0,1,3.82,4.31,4.31,0,0,1-1.13-.34,2.28,2.28,0,0,1-1.45-2.08v-.37h0v0l-.69,0a1.85,1.85,0,0,0,0,.23,2.71,2.71,0,0,0,0,.29,20.79,20.79,0,0,0,.16,2.33,6.28,6.28,0,0,0,.68,2.4,1.35,1.35,0,0,1-.29,0c-.39,0-.8-.13-1.19-.91l-.66.16v0a4.72,4.72,0,0,1-2.33,3.71,11.83,11.83,0,0,0,.26-2.16,3.88,3.88,0,0,0-.33-1.68,1.62,1.62,0,0,0-1.4-.91H286a7.77,7.77,0,0,0-4.53,2.31c-1.42,1.32-2.58,3-2.67,4.48v.1c0,1.66,1.77,5.76,3.76,9.62a50,50,0,0,0,3,5.12c1,1.36,1.63,2.28,2.44,2.41l.26,0,.08-.25a13.31,13.31,0,0,1,1.05-2.3c.66-1.15,1.6-2.2,2.53-2.2h.1a3.77,3.77,0,0,1,2.29.79,2.1,2.1,0,0,1,.45.47,1.06,1.06,0,0,1,.12.19l.12.26.28-.08a6.56,6.56,0,0,1,1.66-.2c1.85,0,4.61.63,5.79,4.69a7.64,7.64,0,0,0-3.59-1.44,1.88,1.88,0,0,0-.58.07l-.27.09,0,.28v.14c-.05.56-.09,2.43-3.28,2.47l-.46,0h-.2l-.1.17a2.64,2.64,0,0,0-.37,1.25c0,.63.5,1.34,1.63,1.36h0s.91-.08,2.06-.08a13.59,13.59,0,0,1,2.91.26c.88.21,1.29.54,1.26.86a1.05,1.05,0,0,1-.18.53l-.17.27.27.19a7.2,7.2,0,0,1,1.37,1.31,5.57,5.57,0,0,1,1.38,3.52,6.39,6.39,0,0,1-1.75,4.12,8,8,0,0,0-.21-1.1c-.26-.93-.66-2-1.72-2.15h-.14l-.1.08a7.43,7.43,0,0,1-1.2.79,5.58,5.58,0,0,1-2.57.79h0a2.61,2.61,0,0,1-2.11-1l-.1-.11L292,334.5l.14.48a5.23,5.23,0,0,1,.22,1.46,2.89,2.89,0,0,1-.34,1.44l-.15.25.21.19a4.65,4.65,0,0,1,.66.8,3.86,3.86,0,0,1,.66,2c0,1.12-.6,2.5-2.92,3.94a4,4,0,0,0,0-.62,1.86,1.86,0,0,0-1.65-2.16,16.53,16.53,0,0,1-3.19-1.25c-1.63-.84-3.13-2.12-3.11-3.69a3.44,3.44,0,0,1,.57-1.81l.18-.29-4-2.8-.13.46a2.34,2.34,0,0,1-.12.29,3.45,3.45,0,0,1-3.31,1.71,8.61,8.61,0,0,1-2.47-.4l-.3-.09-.12.28a6,6,0,0,0-.46,2.21,3.86,3.86,0,0,0,0,.58,5.35,5.35,0,0,1-2.55-4.74,10,10,0,0,1,.81-3.74l.06-.14-.07-.14a3.66,3.66,0,0,1-.32-1.34c.06-.68.17-1.22,1.62-1.27l.24,0,.21-.64s-3.39-2.21-6-2.23h-.08a2.51,2.51,0,0,0-2.09,1,8.64,8.64,0,0,1-.22-1.91c0-.91.21-1.65.69-1.89l.77-.42-.85-.23a12.83,12.83,0,0,1-1.78-.64,8.74,8.74,0,0,1-3-2.13,2.29,2.29,0,0,0-1.79-.77,8.21,8.21,0,0,0-3.74,1.31,14.82,14.82,0,0,1,1-1.37c1-1.3,2.42-2.54,3.79-2.54h.14l.18-.66-3.62-1.74a6.26,6.26,0,0,1,.64-.48,3.7,3.7,0,0,1,1.73-.79h.05l.18-.67a12.33,12.33,0,0,0-4.3-.87h0a5.45,5.45,0,0,0-4.1,1.58,8.39,8.39,0,0,1,.6-3.22,2.91,2.91,0,0,1,2.84-1.88h.23l.48,0-.12-.46c0-.07-.51-1.87-3.75-4.13a8.37,8.37,0,0,0-4.74-1.69,5.25,5.25,0,0,0-1.25.14,8.79,8.79,0,0,1,.62-.8,4,4,0,0,1,2.8-1.56h0a3.24,3.24,0,0,1,1.79.58l.76.5-.24-.88a7.88,7.88,0,0,1-.24-1.9,3.67,3.67,0,0,1,1.12-2.95,15.94,15.94,0,0,0,.68,2.3c.56,1.39,1.32,2.92,2.73,3a2,2,0,0,0,.9-.24l.17-.1v-.19a10.8,10.8,0,0,1,.38-2.18c.28-1,.75-1.8,1.43-2a1.36,1.36,0,0,0,0,.21,2.94,2.94,0,0,0,.34,1.42,1.79,1.79,0,0,0,1.61.85h0a5.26,5.26,0,0,0,2-.48c.06,0,5.29-2.3,5.28-10.95,0-.6,0-1.24-.08-1.91-.2-2.39-.51-4.43-.78-7.3l-.05-.6L265,274a18,18,0,0,1-10.32,3.56,14,14,0,0,1-2.38-.2,11.14,11.14,0,0,1-9.9-9.52,18.32,18.32,0,0,1-.15-2.19v-.19l-.15-.1a6.11,6.11,0,0,1-2.94-5.39v0a3.18,3.18,0,0,0,1.72,1.27l.42.14,0-.45s0-.51,0-1.26a17.54,17.54,0,0,0-.3-3.38,5.28,5.28,0,0,0-.66-1.76,4.48,4.48,0,0,1,3.35,2.71l.28.69.34-.66a27,27,0,0,1,2.69-4.12,115.53,115.53,0,0,1,9.62-10.06c6.8-6.75,13.42-13.89,13.74-25.4v-.76a25.8,25.8,0,0,0-3.73-13.75c-2.41-3.63-6-5.85-8.81-5.88h-.1a6,6,0,0,0-1.44.17,7.26,7.26,0,0,0-4.49,2.72,9,9,0,0,0-1.51,5.35,10.14,10.14,0,0,0,.07,1.23c.08.27.17.25.21.29.26.13.78.23,1.61.5,2.45.79,6.74,2.65,6.71,6.91a8,8,0,0,1-.12,1.33,11.41,11.41,0,0,0-.22,2.15,3.61,3.61,0,0,0,.71,2.49,2.2,2.2,0,0,0,1.68.69,5.12,5.12,0,0,0,1.94-.46,5.93,5.93,0,0,1-.35,1.52,2.39,2.39,0,0,1-2.3,1.81,5.28,5.28,0,0,1-2.28-.63l-.79-.38.31.81a3.36,3.36,0,0,0,1.17,1.46,6.53,6.53,0,0,1-.78.05c-.91,0-1.71-.24-2-1l-.66.17a6.08,6.08,0,0,1,.06.93,7,7,0,0,1-3.51,6.22l.84-3-.8.56a10.65,10.65,0,0,1-1.25.73,6,6,0,0,1-2.45.7h0a2.73,2.73,0,0,1-.41,0c.7-.85,2.23-2.93,2.24-5a3.33,3.33,0,0,0-.44-1.71c-1.58-2.58-4.33-4-4.28-6.4a2.85,2.85,0,0,1,.07-.64l.08-.48-.47.06a6.8,6.8,0,0,1-.87.05c-1.33,0-3.59-.32-4.24-2.2a6.34,6.34,0,0,0-4-3.71,5.8,5.8,0,0,1,.6-.51,3.94,3.94,0,0,1,2.22-.9h0a2.27,2.27,0,0,1,1.53.59,4.85,4.85,0,0,0,3.14,1.17,3.53,3.53,0,0,0,3.76-3.49v0s-.05-.6-.05-1.46c0-1.82.24-5,1.62-7a11.17,11.17,0,0,1,6.92-5,12.64,12.64,0,0,1,2.48-.22h.28c4.72.1,8.55,3.12,11.42,7.43a28.64,28.64,0,0,1,4.53,15.71v.61h0v.11c-.2,9.88-4.49,17.14-9.5,22.95s-9.81,10.06-13.44,14.76c-2.18,2.81-3.54,5.63-3.53,8.85a9.08,9.08,0,0,0,.05,1.16,6.71,6.71,0,0,0,2,4.49,7.74,7.74,0,0,0,4.43,1.54c5-.05,8.41-5.78,10.89-10.16l0-.05v0c1.42-5.81,5.33-13.89,14.6-16.94l.12,0,.07-.1s6.49-9.81,12.31-20.16l.29-.51h-.38c-.13-.26-.41-.79-.71-1.29-.46-.73-.81-1.43-1.36-1.66l-.07,0-.09,0a5.63,5.63,0,0,0-3,1.64.56.56,0,0,1,0-.12,7.24,7.24,0,0,1-.26-1.88A7.34,7.34,0,0,1,288,215.8l.25-.36-.39-.16-.1-.07a14.18,14.18,0,0,1-2.63-2.64,2.34,2.34,0,0,0-1.74-1,2,2,0,0,0-1.61,1.13,9.54,9.54,0,0,1-.45-2.79,5.74,5.74,0,0,1,.55-2.58l.35-.68-.74.19A6.29,6.29,0,0,1,280,207a8.68,8.68,0,0,1-2.14-.3,7.36,7.36,0,0,0,2.22-2.58,22.31,22.31,0,0,0,1.35-2.75l.16-.41-.42-.07a3.88,3.88,0,0,0-.67-.06,3,3,0,0,0-1.55.42,6.63,6.63,0,0,1,1.27-1.88l.3-.3-.35-.23a2.58,2.58,0,0,0-1.44-.47,2.49,2.49,0,0,0-1.26.34,5,5,0,0,0-1.5,1.16c0-.37-.07-.81-.07-1.3a7,7,0,0,1,3-6.24l.19-.12,0-.22a29.11,29.11,0,0,1-.22-3.61,16.62,16.62,0,0,1,.71-5.24l.24-.68-.68.25a8.37,8.37,0,0,0-2.9,1.56,6,6,0,0,1,2.16-4.64l.48-.36-.55-.23a5.14,5.14,0,0,1-2.28-1.84,5.41,5.41,0,0,0,4.62-2.92l0-.06v-.07a25.51,25.51,0,0,1,.67-3.2c.45-1.66,1.23-3.46,2.15-3.93l.15-.09,0-.17s0-.1,0-.26a4.22,4.22,0,0,0-3-3.87c.48-.26,1.18-.61,2-1a13.37,13.37,0,0,1,4.82-1.34h0a2.13,2.13,0,0,1,1.74.64l.49.58.12-.75a40,40,0,0,1,1.14-4.66c.72-2.34,1.89-4.76,3.12-5.22m62.27,19.6-3.75-2.41c-1.63.81-4.37,2.92-4.41,7.89h0a15.59,15.59,0,0,0,.31,3,5.5,5.5,0,0,0-.13,1.16c0,2.53,1.87,4.82,3.46,6.3h0a62.86,62.86,0,0,1-8.46,6.28h-3.65l-5.21-1.58a8.61,8.61,0,0,0-2.45-.37,5.07,5.07,0,0,0-.55,0,20.87,20.87,0,0,0,.74-3.09,2.87,2.87,0,0,1,0-.31l0-.09v-.1c0-.21,0-.41,0-.6a5.26,5.26,0,0,0-.5-2.3l2.11-1.78a9.64,9.64,0,0,0,3.25-5.9,10.72,10.72,0,0,0,1.54-9.15,7.08,7.08,0,0,0,.6-2.74h0a5.26,5.26,0,0,0-3.61-5h0a10.52,10.52,0,0,0-3.67-.61l-5.88-2.53c-2.6-4-8.48-6.12-17.13-6.12h-.16a68.72,68.72,0,0,0-8.24.53,10.08,10.08,0,0,0-2.92-2.37,13.16,13.16,0,0,0-2.6-1.1l-1.16-.36h0l-1.14.43c-2.21.83-4,3.35-5.25,7.48-.16.52-.33,1.11-.49,1.71a16.93,16.93,0,0,0-5.89,1.63c-.72.33-1.46.69-2.2,1.08l-6.79,3.57,7.13,2.85.25.11a14.22,14.22,0,0,0-1.67,4,28.05,28.05,0,0,0-.65,2.89,1.7,1.7,0,0,1-1.3.76l-6.52,0,3.59,5.45a6.68,6.68,0,0,0,.6.8,10.55,10.55,0,0,0-1,4.2l-.3,9,3-3c0,.17,0,.33,0,.49a10.86,10.86,0,0,0-3,7.93c0,.09,0,.19,0,.28-3.8-5.52-8.62-8.5-14-8.65H258a16.45,16.45,0,0,0-3.22.3h0a14.6,14.6,0,0,0-9.09,6.46c-2,2.88-2.24,6.89-2.23,9,0,.63,0,1.13,0,1.42a.69.69,0,0,1-.22,0,1.31,1.31,0,0,1-.83-.31h0a5.72,5.72,0,0,0-3.79-1.43h0a7.37,7.37,0,0,0-4.36,1.62,11.44,11.44,0,0,0-.91.76L229,212.1l5.59,1.85a2.84,2.84,0,0,1,1.84,1.55,6.92,6.92,0,0,0,5.64,4.38,12,12,0,0,0,2.73,3.89,14.11,14.11,0,0,1,1.57,1.86,5.69,5.69,0,0,1-1.43,2.72L241.16,233l5.87,1.12a2.5,2.5,0,0,0,.38.06L246,239.2l7.59-4.51a10.36,10.36,0,0,0,4.72-5.85c.28,0,.55,0,.8-.07l5.09-.67c-2.29,4.5-5.89,8.34-10,12.48l-2.09,2a86.72,86.72,0,0,0-7.83,8.33l-.74,1a8.6,8.6,0,0,0-2.4-.88l-4.07-.85L235.57,248v1.93l-2.88-.61,2.88,4.39V260a9.61,9.61,0,0,0,3.16,7.3c0,.35.06.69.11,1a14.64,14.64,0,0,0,12.92,12.58,18,18,0,0,0,2.87.23,20,20,0,0,0,7.87-1.67c.09.8.17,1.59.24,2.41h0c.05.52.07,1,.07,1.6a10.15,10.15,0,0,1-1.87,6.55l.23-2.31L256.25,289a4.72,4.72,0,0,0-2.13,1.21l-1-4.76-4.47,3.64a6.52,6.52,0,0,0-2.27,4,7.8,7.8,0,0,0-4.18,2.63c-.33.38-.59.75-.79,1l0,.05-5.57,7.72L245,302.3a1.91,1.91,0,0,1,.43,0,4.91,4.91,0,0,1,2.72,1.06l.31.22a7.27,7.27,0,0,0-1.17,1.8l0,0v0a11.87,11.87,0,0,0-.91,4.66l.36.95c1,2.65,2.47,3.43,4.33,6.46a13.11,13.11,0,0,0,3,3.41l1.63,1.29.25.22c.37.34.8.65.94.17.31-1.05.5-2.55.74-2.62a12.12,12.12,0,0,0,2.83,2.05v.39a12.38,12.38,0,0,0,.29,2.65l1.66,8,4.31-6.09h.07a2.29,2.29,0,0,0,0,.25l0,.14v.14a6.35,6.35,0,0,0,.18,1.43,12.8,12.8,0,0,0-.66,3.93,8.94,8.94,0,0,0,4.2,7.73L277,344.6l-.89-6.13a7.92,7.92,0,0,0,2.92-.68c.16,2.55,1.92,4.82,5,6.42a20.24,20.24,0,0,0,2.83,1.2l1.51,3.11,4-.41c3.79-2.35,4.59-5.08,4.59-6.95a6.66,6.66,0,0,0-.27-1.87h.1a7.9,7.9,0,0,0,2.56-.45l.84,7.05,5.26-6.27a10,10,0,0,0,2.57-6.4,8.64,8.64,0,0,0-1.13-4.22l1.92,1.27-2.7-9.26c-1.33-4.6-4.57-7.17-9.12-7.24h-.06l-.56,0a7.48,7.48,0,0,0-4.06-1.44l-.32,0h-.08a5.88,5.88,0,0,0-4.43,2.3c-.57-.94-1.17-2-1.77-3.18s-1.2-2.41-1.65-3.4l5.56-3.83a9.83,9.83,0,0,0,2.43-2.38c.29,0,.52-.06.65-.08l5.27-.95-.57-.88,2.4.4a8.11,8.11,0,0,0-.46,2.64h0a10.93,10.93,0,0,0,1.33,4.92l.36.68-1.57,2.4,2.44-.75,2.52,4.77,2-5.46,2.93-.34c0,.21,0,.43,0,.65s0,.57,0,.92l.73,9.85,5.67-8a3.47,3.47,0,0,1,.49-.32,4.2,4.2,0,0,1,.52-.26,8.33,8.33,0,0,0,1.42.11h.07a8,8,0,0,0,.62,1.47,13.49,13.49,0,0,0,1.51,2.19l5.22,6.22.93-7.47h0a5.25,5.25,0,0,0,1.11,1.78,12.8,12.8,0,0,0,1.26,3.7,9,9,0,0,0,7.36,4.82l7.66.54-3.68-5a8.91,8.91,0,0,0,2.33-1.81,5.69,5.69,0,0,0,.49.61c2.18,2.39,5.83,2.68,6.54,2.71h.56a15.32,15.32,0,0,0,2.92-.25l2.26,6L359,321.2a12,12,0,0,0,1.37-3.44l5-6.91a8.52,8.52,0,0,0,1.75-5.09c0-2.61-1.29-5.24-3.76-7.59-.41-.39-.82-.74-1.2-1.05l1.72.29-5.26-7.05a8.71,8.71,0,0,0-7.12-3.77,10.62,10.62,0,0,0-4.11.88c-.24.1-.46.21-.66.31h-.19a7.89,7.89,0,0,0-7.45,5c-1-.71-2.24-1.66-3.8-2.89-1.17-.92-2.33-1.86-3.35-2.69a7.24,7.24,0,0,0,2.4-.87l6.89-4-3.93-1.29,6.89-3.15L336.1,275a4.53,4.53,0,0,1-.86-1.07,13.9,13.9,0,0,1-.89-1.62,16.54,16.54,0,0,0-5-9.27l0-1,0,0a6.19,6.19,0,0,0,2.32.47,7.24,7.24,0,0,0,.52,1l0,0,0,.05,4.09,7.4,2.33-7.84H339a5.53,5.53,0,0,1,.88.08,5.11,5.11,0,0,0,.87,2.87c0,.26,0,.52,0,.78,0,4,1.63,6.21,3,7.37l7.77,6.72-2-10.08a.7.7,0,0,0,0-.13,2.51,2.51,0,0,1,.16-.69,6.11,6.11,0,0,0,3.75-2.3,9.1,9.1,0,0,0,2.19,4.74,7.2,7.2,0,0,0,5.28,2.25l-.86,6.93,6.33-4c1.72-1.09,3.77-3.35,3.78-7.91a20.07,20.07,0,0,0-.66-4.87,6.53,6.53,0,0,0,2.16-.62c.1.17.18.33.24.46l3.68,7.34,2.81-7.71a10.61,10.61,0,0,0,.67-3.71,11.57,11.57,0,0,0-2.73-7.27,15.5,15.5,0,0,0-1.82-1.9c-.61-1.33-2-2.92-5.08-3.12a5.34,5.34,0,0,0,.05-.69,4.74,4.74,0,0,0-.05-.65h6.39l-5.45-5.94a8.18,8.18,0,0,0-6-2.77h0a9.73,9.73,0,0,0-4.46,1.18l-.6.35c-1.42.1-3.81,1-5.77,5.15h0c-2.35-1.79-6.18-5.35-12.38-12.35.41-.82.87-1.75,1.29-2.64a9.56,9.56,0,0,0,3.55.75,6.39,6.39,0,0,0,1.4-.15l5-1.07L351,227.42l5,.35.13,2.22.8-2.16.37,0-.26-.33,1.83-5a9.59,9.59,0,0,0,.86-.46l.3-.18,7-4.51-5.75-1.36.73-2a7.71,7.71,0,0,0,.26-.89,7.88,7.88,0,0,0,1.54-.47l2.16-.89,0-2.31,0-2-1.43-.92A5.7,5.7,0,0,1,365,205a4.62,4.62,0,0,0,1,.1,4.67,4.67,0,0,0,1.7-.32,9.45,9.45,0,0,0,2.63.38,10,10,0,0,0,4.73-1.23,2.87,2.87,0,0,0,.48-.28l6.41-4.25-7-2c-.05-.07-.11-.18-.19-.32l0,0a5,5,0,0,0,.21-1.22,5.43,5.43,0,0,0-1.49-3.75,7.38,7.38,0,0,0,6.6-3.88h0v0a9,9,0,0,0,.79-2l5.73,2.51-1.69-7a8,8,0,0,0-4.8-5.51,15.08,15.08,0,0,0-5.87-1.09h-.08a8.53,8.53,0,0,0,.11-1.24h0a6.94,6.94,0,0,0-.17-1.52c.23-.08.46-.14.65-.19l6.95-1.73-5.6-4.47a9.16,9.16,0,0,0-5.84-2.11,11.65,11.65,0,0,0-5.91,1.78c-.59.36-2.78,1.74-3.16,2l-3.79,3.47Zm-36.31,9.25a10.21,10.21,0,0,1,3.39-.36h0v3.45a4.83,4.83,0,0,1-1.15.15,4.16,4.16,0,0,1-3.25-1.12,2.46,2.46,0,0,1,1-2.12Zm-63,21.18a2.44,2.44,0,0,1,.64-.08h.07c1.5,0,4.06,1.54,5.89,4.3a21.64,21.64,0,0,1,3.07,10l-4.62,2c0-.22.06-.44.11-.67v-.07a11.69,11.69,0,0,0,.17-1.92c0-2.66-1.1-7.44-8.52-10.07a4.84,4.84,0,0,1,.65-2,3.78,3.78,0,0,1,2.53-1.48Zm20.64,16.13v-.19a33.48,33.48,0,0,0-.68-6.73c.25.06.49.12.73.16a13.49,13.49,0,0,0,.59,3.4l2.36,7.75,3-5.12,0,0a10.55,10.55,0,0,0-.67,3.66,10.71,10.71,0,0,0,.38,2.82c0,.11.07.24.13.4l1.88,5.22c-3.48,5.83-6.66,10.78-7.93,12.73a23.92,23.92,0,0,0-10.91,8.31,30.77,30.77,0,0,0-4.84,10.31c-1.69,3-4.64,7.95-7.62,8A4.19,4.19,0,0,1,252,267a3.91,3.91,0,0,1-.65-2.05,7,7,0,0,1,0-.74v-.07c0-2.13.85-4.19,2.79-6.69a92.29,92.29,0,0,1,6.65-7.39c2.14-2.23,4.35-4.52,6.67-7.22,6.84-7.93,10.13-15.89,10.36-25l0-.34,0-.22v-.19Zm-12.88,8.21a7.21,7.21,0,0,0,1-1.79,9.55,9.55,0,0,0,.56-2.41l.43-3.94v.52a24.36,24.36,0,0,1-1.53,7.93l-.45-.31Zm89.21-1.52.45-.72a6.78,6.78,0,0,0,1.13.18l.17,2.82-1.75-2.28ZM314.65,257l1.75-1.05.26,1.34c-.66-.11-1.32-.21-2-.29Zm4.64.85,1-1,.78.22c0,.13,0,.26,0,.38a5.82,5.82,0,0,0,.07.93c-.59-.18-1.2-.36-1.82-.51Zm-22.13,35.73a4.63,4.63,0,0,1-.19-1.51,23.93,23.93,0,0,1,1.89-8.12h0l.24-.68c.36.14.68.24,1,.34a8.1,8.1,0,0,1,1.07.41c2.42,1.25,4,3.55,4.06,5.71a3.48,3.48,0,0,1-.78,2.23c-.1.13-.19.23-.27.32l-5.53-5.91v8.88l-1.48-1.65Zm-13.33,7.9.09-.08-.91,4.28a14.2,14.2,0,0,1-.7-2.18,5.52,5.52,0,0,1,1.52-2ZM358.27,311c.22-.11.44-.22.65-.35l-.05.94a5.57,5.57,0,0,0-.6-.59Z" transform="translate(-150.95 -25.1)"/><path class="cls-7" d="M280,108.29A461.5,461.5,0,0,1,203.11,97.4V76.8H180.37l2-23.13L161.68,30h52" transform="translate(-150.95 -25.1)"/><path class="cls-7" d="M398.49,30h51.85L429.66,53.67l2,23.13H409.05V97.4a461.47,461.47,0,0,1-76.87,10.89" transform="translate(-150.95 -25.1)"/><path class="cls-3" d="M278.17,113.06a461.55,461.55,0,0,1-79.87-11.9V81.68H175.06l2.25-26.37L151,25.1H461.07L434.7,55.31,437,81.68H413.86v19.48A461.81,461.81,0,0,1,334,113.06" transform="translate(-150.95 -25.1)"/><path class="cls-7" d="M408.9,50.4l-17.16-8.53q-4.38,7.18-9.06,13.75,13.15-2.2,26.22-5.19Z" transform="translate(-150.95 -25.1)"/><path class="cls-4" d="M332.18,108.29A461.47,461.47,0,0,0,409.05,97.4V76.8h22.59l-2-23.13L450.34,30H161.68l20.67,23.69-2,23.13h22.74V97.4A461.5,461.5,0,0,0,280,108.29Z" transform="translate(-150.95 -25.1)"/><path class="cls-3" d="M269.61,42.36V86.48c0,2.49-4.88,7.54-4.88,7.54h44.92l3.42-17.16c-1.19,1.18-7.77,7.3-13,7.3H287.84V66.61h8.78c2.6,0,5.27,3.27,6,4.24V52.92c-.74,1-3.41,4.24-6,4.24h-8.78V44.27h10.21c4.5,0,9,4.45,10.23,5.77l-.76-15.22H264S269.61,39.24,269.61,42.36Z" transform="translate(-150.95 -25.1)"/><path class="cls-3" d="M332.49,94.08h30.05s-5.42-3.84-6.31-5.65L329.36,32.82,309.91,75.6A112.37,112.37,0,0,1,302,90.74c-1,1.54-4.13,3.34-4.13,3.34H317.1s-4.3-3.27-3.44-5.31L316.87,81h16.37l3.38,7.78C337.6,91,335.1,92.22,332.49,94.08ZM320.4,73.28l4.43-10.22,4.8,10.22Z" transform="translate(-150.95 -25.1)"/><path class="cls-3" d="M286.22,98.19c-16.37,0-18.21-26.86-34.37-33.51,5.48-2.37,11.78-6.76,11.78-14.48,0-7-4.17-15.31-24.06-15.31H214s4,2.91,4,5.94V88c0,3-4,5.94-4,5.94h26.16s-4-2.91-4-5.94v-19c11.72,3.12,17.82,43.08,45.45,43.08,18.45,0,24.84-21.77,24.84-21.77S296.07,98.19,286.22,98.19ZM237.08,61.07h-.88V42.65h.88c3.85,0,8,2.42,8,9.21C245,56.52,240.48,61.07,237.08,61.07Z" transform="translate(-150.95 -25.1)"/><path class="cls-3" d="M401.39,84.8c0-6.06-8.79-9.78-8.79-9.78,1.55,4.3.11,10.64-11.53,10.64H376V41.88c0-4.51,4.07-7.06,4.07-7.06H353.71s4.07,2.55,4.07,7.06v44c0,3.6-6.78,8.17-6.78,8.17h34.62C398.1,94,401.39,88,401.39,84.8Z" transform="translate(-150.95 -25.1)"/><path class="cls-2" d="M285.78,86.23V64.55h10.84a5.48,5.48,0,0,1,3.94,1.9V57.32a5.48,5.48,0,0,1-3.94,1.9H285.78v-17h12.27a11.94,11.94,0,0,1,7.93,3l-.43-8.36H269.33a4.7,4.7,0,0,1,2.35,3.89v47.3A4.67,4.67,0,0,1,269.33,92H308l1.93-9.67s-4.25,4-9.32,4Z" transform="translate(-150.95 -25.1)"/><path class="cls-2" d="M395.12,79.22c-.6,2-1.55,8.5-14.05,8.5h-7.13V41.88a10.75,10.75,0,0,1,1.3-5h-16.7a10.75,10.75,0,0,1,1.3,5V87.52c0,2.74-4.5,4.43-4.5,4.43h30.28c11.8,0,13.71-5.57,13.71-7.15C399.33,81.35,395.12,79.22,395.12,79.22Z" transform="translate(-150.95 -25.1)"/><path class="cls-2" d="M243.55,65.09s18-3.09,18-14.89c0-11.57-13.32-13.25-22-13.25H218.8a7,7,0,0,1,1.26,3.88V88a7,7,0,0,1-1.26,3.88h16.58A7.08,7.08,0,0,1,234.13,88V66.64c15.75,0,19.56,43.43,47.51,43.43,14,0,21.24-15.46,21.24-15.46s-8.67,5.64-16.66,5.64C265.78,100.25,266.55,65.09,243.55,65.09Zm-6.47-2h-2.94V40.59h2.94c4.53,0,10,2.85,10,11.27C247.1,57.65,241.61,63.13,237.08,63.13Z" transform="translate(-150.95 -25.1)"/><path class="cls-2" d="M353.7,88,329.41,37.68,311.79,76.45C307.33,86.21,306.15,88,303.66,92h8.69a4.9,4.9,0,0,1-.6-4l3.73-9H334.6l3.91,9a4.64,4.64,0,0,1-.32,4h19A15,15,0,0,1,353.7,88ZM317.26,75.34,324.75,58l8.12,17.3Z" transform="translate(-150.95 -25.1)"/><path class="cls-7" d="M267.6,30.82a1.38,1.38,0,0,0,.14.59" transform="translate(-150.95 -25.1)"/><path class="cls-7" d="M306.16,31.41a1.38,1.38,0,0,0,.14-.59" transform="translate(-150.95 -25.1)"/><path class="cls-3" d="M257.81,362.14a6,6,0,0,0-4.65,1.52,7.7,7.7,0,0,0-2.31,5.15c-.24,2.69.2,4.76,1.32,6.23a6.23,6.23,0,0,0,4.65,2.45,6.33,6.33,0,0,0,3.23-.56,5.84,5.84,0,0,0,2.5-2.37,8.85,8.85,0,0,0,1.16-4.05,8.52,8.52,0,0,0-1.34-6A6.06,6.06,0,0,0,257.81,362.14Zm4.74,8.28h0a7.71,7.71,0,0,1-1,3.55h0a4.7,4.7,0,0,1-2,1.92,5.18,5.18,0,0,1-2.63.45,5,5,0,0,1-3.79-2c-1-1.24-1.32-3.08-1.11-5.45a6.58,6.58,0,0,1,1.93-4.42h0a4.72,4.72,0,0,1,3.76-1.23,4.89,4.89,0,0,1,3.73,2h0a7.37,7.37,0,0,1,1.11,5.19Z" transform="translate(-150.95 -25.1)"/><path class="cls-3" d="M391.38,361.85l1.26-.29a9.1,9.1,0,0,0,1.67-.58c1.91-.9,2-2.06,1.91-2.68a3.11,3.11,0,0,0-1.77-2.27,7.67,7.67,0,0,0-2.83-.69,29.21,29.21,0,0,0-6.16.33,19.17,19.17,0,0,0-4.66,1.3l.85-.77-3.62.47c-2.91.36-5.83.7-8.74,1l-3.7.39,3.27,1.73a2.16,2.16,0,0,1,.5.38l.57,5.2q-3.71.41-7.41.76c-.17-1.73-.33-3.47-.5-5.2a2.39,2.39,0,0,1,.41-.48l2.84-2.36-3.69.37q-4.38.42-8.76.78l-3.29.26a22.44,22.44,0,0,0-4.15-.09,22.8,22.8,0,0,0-8,2,13.88,13.88,0,0,0-4.32,3.08,6.5,6.5,0,0,0-3.82-2.62,25.22,25.22,0,0,0-7.72-.81c-3,.08-6,.14-9.05.18h-.14l-3.61,0,3,2a2.86,2.86,0,0,1,.47.43l.15,13.08-1.11-1.78-.76-1.22h0c-1.57-2.51-3.1-5-4.54-7.43h0c-1.44-2.37-2.49-4.16-3.12-5.24-.33-.57-.67-1.14-1-1.72l-1,1.74c-.79,1.39-2,3.49-3.4,5.89l-.6,1c-1.4,2.37-2.74,4.61-4.11,6.84-.38.63-.72,1.16-1,1.62q.14-6.42.29-12.85a3,3,0,0,1,.48-.43l3-2-3.61-.07-4.77-.13-3.74-.13c1,.73,2,1.46,3,2.18a2.38,2.38,0,0,1,.45.45c-.06,1.87-.11,3.73-.17,5.6q-4.62-4.07-9.1-8.21l-.31-.28-.42,0-2-.1v0c-1.59-.08-3.17-.17-4.76-.27l-3.6-.23,2.81,2.25a2.75,2.75,0,0,1,.45.47c0,.4-.05.79-.07,1.18a12.41,12.41,0,0,0-1.79-1.58h0a17.45,17.45,0,0,0-4.52-2.29h0a21.59,21.59,0,0,0-5.09-1,20.94,20.94,0,0,0-7.88.71,13.08,13.08,0,0,0-4.49,2.28c0-.41.09-.83.13-1.25a1.78,1.78,0,0,1,.44-.31l3.82-1.75-4.2-.4q-4.38-.45-8.76-1l-.69-.09-.39.56q-2.58,3.69-5.22,7.36-2-4.28-3.85-8.56c-.08-.2-.17-.39-.26-.59l-.64-.09c-1.36-.18-2.72-.37-4.07-.57h0c-1.58-.22-3.16-.46-4.74-.7l-3.57-.55,2.61,2.49h0l0,0a2.42,2.42,0,0,1,.38.49q-1,6.36-1.94,12.71l0,0c-.17,1.09-.34,2.18-.5,3.28a2.49,2.49,0,0,1-.55.36L210.54,375l3.71.57,4.9.73,3.86.54c-1-.83-1.94-1.66-2.9-2.5a2.27,2.27,0,0,1-.42-.5q.65-4.47,1.28-8.94,2.55,6.11,5.22,12.18c.27.62.54,1.24.82,1.86l1.23-1.61q4-5.22,7.8-10.49c-.42,3.57-.94,8.18-1,9a2.1,2.1,0,0,1-.52.37c-1.09.57-2.18,1.13-3.28,1.68l3.72.45q4.49.52,9,1l3.72.37-2.84-2.35a2.32,2.32,0,0,1-.43-.49c0-.46.09-.93.14-1.39a11.71,11.71,0,0,0,1.36,1.37,16.07,16.07,0,0,0,4.58,2.68,20.21,20.21,0,0,0,5.81,1.29,23.12,23.12,0,0,0,7.62-.57,12.53,12.53,0,0,0,5.15-2.59c0,.41-.05.82-.08,1.23a2.41,2.41,0,0,1-.51.41l-3.17,1.86c1.24.09,2.48.16,3.73.24l4.94.28,3.87.18c-1-.73-2.07-1.47-3.1-2.22a2.22,2.22,0,0,1-.46-.46l.48-9.43q7.29,6.67,14.9,13.16l1.92,1.62c0-.72,0-1.44.05-2.15l3.2.06,3,.05-2.1-2a1.22,1.22,0,0,1-.19-.23.06.06,0,0,1,0,0c.1-.17.29-.51.53-.91l.24-.41h0q3.65,0,7.29.06c.45.77.66,1.15.76,1.34a1.56,1.56,0,0,1-.21.26l-2.14,1.95h2.95q3.93,0,7.86,0v0c3,0,5.91-.09,8.87-.17l4.41-.13c-1.3-.66-2.58-1.33-3.86-2a1.76,1.76,0,0,1-.36-.26c0-2-.11-4.05-.16-6.07a7.76,7.76,0,0,1,1.93,1.48c1.18,1.11,2.62,2.69,4.3,4.51l.46.5.38.41a28.45,28.45,0,0,0,6,5.39A14.06,14.06,0,0,0,343.1,388a13.22,13.22,0,0,0,7.79-3.3,15.87,15.87,0,0,0,2.09-2.19.36.36,0,0,0,.1-.11,3.05,3.05,0,0,0,.2-.3c.16-.22.24-.36.26-.37h0c.2-.33.44-.7.63-1l.4,0q4.54-.37,9.08-.81l3.82-.38-3.34-1.74a2.25,2.25,0,0,1-.51-.38q-.35-3.53-.68-7.05c2.49-.24,5-.5,7.46-.77.26,2.34.51,4.69.77,7a1.88,1.88,0,0,1-.42.48l-2.87,2.39,3.77-.4c3-.34,6-.69,9.06-1.07l3.81-.49-1.42-.68a30.36,30.36,0,0,0,5.9-.25,18.35,18.35,0,0,0,5-1.42,10,10,0,0,0,4-3,5.55,5.55,0,0,0,1.08-4.4C398.47,364.78,396.08,362.94,391.38,361.85Zm-.12-1.64-.36,1.53c-.4-.09-.83-.17-1.27-.25-.67-.13-1.41-.22-2.12-.31s-1.68-.22-2.36-.37a4.12,4.12,0,0,1-.95-.32c.23-.23,1.11-.72,3.33-1s3.38.06,3.68.38C391.26,359.88,391.32,360,391.26,360.21Zm-2.43,15.22c-2.77.39-7.23.56-9.51-.66l.12,1c.07.6,1.12,1.12,1.12,1.12-3,.38-6,.74-9.05,1.07,0,0,.9-.76.84-1.36l-.93-8.27c-3.25.36-6.51.7-9.76,1l.78,8.28c.06.61,1.09,1.16,1.09,1.16q-4.53.43-9.06.81s.92-.73.87-1.33-.1-1.25-.16-1.87c-.95,2.47-6.18,3.68-9.23,3.88-3.88.26-8-.62-10.79-2.7,3.19,3.64,7.21,6.12,10.63,5.89a12.68,12.68,0,0,0,6.73-2.26s-3.3,5.33-9.49,5.71c-6.88.42-9.66-2.74-13.85-7.25-3.69-4-6.29-7-7.8-6.93l-1,0c.06,2.47.13,4.94.19,7.41,0,.56.95,1.07.95,1.07q-4.43.1-8.85.17l.05,0c-2.64,0-5.27,0-7.91,0,0,0,.84-.77.56-1.37-.09-.21-.59-1.09-1.22-2.18-2.9,0-5.79,0-8.68-.08l-1.19,2.05c0,.07-.05.13-.06.19L292,381.24l-1.59,0c0,.28,0,.56,0,.85q-8.56-7.29-16.71-14.81c0,.08-.65,12-.65,12,0,.59.94,1.3.93,1.3q-2.46-.12-4.92-.27s1-.61,1-1.19c.11-1.74.21-3.48.31-5.21a7.76,7.76,0,0,1-1.54,2.32,10.85,10.85,0,0,1-5.32,3,22,22,0,0,1-7.22.54,19.16,19.16,0,0,1-5.46-1.21,14.67,14.67,0,0,1-4.24-2.48,9.77,9.77,0,0,1-2.61-3.4c-.13-.29-.23-.59-.33-.89-.17,1.72-.35,3.44-.53,5.16-.06.58.85,1.34.85,1.34-3-.3-6-.63-8.95-1,0,0,1-.54,1.11-1.13,0,0,1.52-13.42,1.52-13.49q-5.09,7.06-10.4,14-3.54-8-6.85-16.08l-1.92,13.22c-.09.59.8,1.38.81,1.38-1.64-.23-3.27-.47-4.9-.72,0,0,1.08-.51,1.17-1.09.34-2.3.69-4.6,1-6.9q2.53-5,5-10c1.48.22,3,.43,4.45.63q2.3,5.21,4.68,10.4,3.23-4.49,6.38-9,4.4.52,8.79,1s-1,.48-1.08,1.14c-.18,1.68-.35,3.36-.52,5a7.81,7.81,0,0,1,1.23-1.73,11,11,0,0,1,5.12-3.06,19.87,19.87,0,0,1,7.45-.66,20.73,20.73,0,0,1,4.82,1,15.93,15.93,0,0,1,4.22,2.13,10.65,10.65,0,0,1,2.36,2.33q-.31,5-.61,10,2.77-6.94,5.45-13.92c.81,0,1.61.09,2.42.12q5.39,5,11,9.86l.24-8.16c0-.6-.93-1.28-.93-1.28l4.78.13s-1,.64-1,1.22l-.42,16.87c.19-.21.38-.43.5-.58.27-.33,1.21-1.77,2.78-4.33s3.14-5.21,4.7-7.89,2.68-4.64,3.39-5.9c.74,1.27,1.78,3,3.12,5.25s2.86,4.75,4.54,7.45,2.84,4.57,3.47,5.54a2.72,2.72,0,0,0,.55.62.83.83,0,0,0,.07-.32q-.06-3.57-.1-7.15,1.69-5.39,3.32-10.78,2.4,0,4.8-.12c5.11-.13,10.81.67,11,4.47a4.29,4.29,0,0,1,0,.63c2.11-4.31,7.86-6.38,12.92-6.74,3.55-.24,7.08.37,8.55,1.66,0-.22,0-.43-.05-.65,0-.61-1-1.18-1-1.18,2.93-.24,5.85-.5,8.78-.78,0,0-.88.74-.82,1.34q.3,3.23.61,6.44c3.24-.31,6.49-.64,9.73-1l-.72-6.43c-.06-.6-1.08-1.15-1.08-1.15q4.38-.48,8.76-1s-.86.77-.78,1.37c.1.83.2,1.67.31,2.5.34-3.13,5.45-4.51,7.92-4.86,3.58-.49,9-.95,9.46,1.69.23,1.29-2.69,2-2.69,2,.46-2-2.22-2.51-5-2.12-1.55.23-4.6.81-4.36,2.4.2,1.38,3.88,1.41,6.4,1.87,6,1.08,8,2.92,8.43,5.37C398.59,372.2,393.43,374.8,388.83,375.43Zm-37.05,4.77-.63.49a12.48,12.48,0,0,1-5.44,1.6,8.43,8.43,0,0,1-4.32-1.13,20.5,20.5,0,0,0,4.64.2,23.21,23.21,0,0,0,5.73-1.15Z" transform="translate(-150.95 -25.1)"/><path class="cls-3" d="M299.78,370.21c-.2.33-.44.78-.74,1.32-.15.27-1.3,2.33-2.45,4.32l6.48.06-2-3.48C300.46,371.39,300,370.66,299.78,370.21Zm-1.22,4.53c.58-1,1-1.74,1.23-2.19l.25.43h0l1,1.77Z" transform="translate(-150.95 -25.1)"/><path class="cls-3" d="M321.25,364l-.57,0h-.49l.18,6.93.9,0c2.59-.07,4.4-1.59,4.32-3.84S324.27,363.93,321.25,364Zm2.41,5a3.68,3.68,0,0,1-2.16.8l-.13-4.66a4.28,4.28,0,0,1,2.47.48c.24.18.56.53.59,1.52A2.24,2.24,0,0,1,323.66,369Z" transform="translate(-150.95 -25.1)"/><path class="cls-3" d="M352.8,366.34c-.1-1.67-1.29-4.32-6.48-3.95-4.82.33-6.94,4.47-6.73,8.17.36,6.47,5.53,7.6,8.67,7.37,1-.07,5.21-.46,6.82-2.86l-.84-10.14A6.9,6.9,0,0,1,352.8,366.34Zm1.07,8.4c-1,1.1-3.05,1.87-5.69,2.06a8.26,8.26,0,0,1-4.67-1c-1.69-1-2.61-2.83-2.76-5.31a7.27,7.27,0,0,1,1.26-4.62,5.67,5.67,0,0,1,4.39-2.35c2-.13,3.44.19,4.31.94a2.77,2.77,0,0,1,.94,2l.12,2.15,1.51-1.15Q353.58,371.09,353.87,374.74Z" transform="translate(-150.95 -25.1)"/><path class="cls-3" d="M332,368.8c-1.6,2.46-6,3-6,3,2.61-.08,4.28.63,6.84,3.21a7.86,7.86,0,0,1-1.09-3.72A8.78,8.78,0,0,1,332,368.8Z" transform="translate(-150.95 -25.1)"/><path class="cls-3" d="M386.14,367.48c-2.56-.52-7.21-1.17-8.26-4.32q.48,3.85.95,7.7a7.11,7.11,0,0,1,3.5-1.29c-1.87,2.24,1.33,4.64,6.18,4,3.5-.49,4.14-2.12,3.92-3.38S389.47,368.17,386.14,367.48Zm-4,1a10.21,10.21,0,0,0-2.39.58c-.11-.79-.21-1.59-.31-2.39a9.52,9.52,0,0,0,1.06.53,17.84,17.84,0,0,0,3.45,1Zm8.88,2.85a4.21,4.21,0,0,1-2.71,1.12c-2.93.41-4.86-.48-5.29-1.23-.08-.12-.24-.4.18-.91s1.05-1.27,1.57-1.9l.35.07.73.14a32.58,32.58,0,0,1,4.05,1c1.19.43,1.33.75,1.33.75A1.14,1.14,0,0,1,391.06,371.3Z" transform="translate(-150.95 -25.1)"/><path class="cls-2" d="M389.41,362.62c-2.51-.46-6.2-.5-6.4-1.88-.24-1.59,2.81-2.17,4.36-2.39,2.8-.4,5.48.11,5,2.12,0,0,2.92-.68,2.7-2-.46-2.65-5.89-2.19-9.47-1.7-2.47.35-7.58,1.74-7.92,4.86-.11-.83-.21-1.66-.31-2.5-.08-.6.78-1.36.78-1.36-2.92.36-5.84.71-8.76,1,0,0,1,.54,1.08,1.14l.72,6.43c-3.24.36-6.49.7-9.73,1q-.32-3.23-.61-6.44c-.06-.61.82-1.34.82-1.34-2.93.28-5.85.54-8.78.78,0,0,1,.57,1,1.17,0,.22,0,.44.05.65-1.47-1.29-5-1.9-8.55-1.66-5.06.36-10.82,2.44-12.92,6.74a3.25,3.25,0,0,0,0-.63c-.19-3.8-5.89-4.6-11-4.46-3,.08-6.05.14-9.07.18,0,0,.81.41.82.94q.1,8.47.23,16.93a.82.82,0,0,1-.07.31,2.75,2.75,0,0,1-.55-.62q-.94-1.46-3.47-5.54c-1.68-2.69-3.19-5.18-4.54-7.44s-2.38-4-3.12-5.25c-.71,1.25-1.84,3.24-3.39,5.9s-3.13,5.32-4.7,7.88-2.51,4-2.78,4.33c-.13.16-.31.37-.5.58q.21-8.43.41-16.86c0-.59,1-1.23,1-1.23l-4.78-.13s.95.69.93,1.28l-.24,8.16q-5.58-4.87-11-9.85-3.39-.17-6.76-.37s1.07.64,1,1.3c-.1,1.75-.21,3.49-.31,5.23a7.11,7.11,0,0,0-.62-1.42,10.46,10.46,0,0,0-3-3.26,15.63,15.63,0,0,0-4.22-2.13,21.78,21.78,0,0,0-12.27-.32,11.08,11.08,0,0,0-5.11,3.06,8.47,8.47,0,0,0-1.24,1.73c.18-1.68.35-3.36.52-5,.07-.66,1.08-1.13,1.08-1.13-2.93-.3-5.85-.62-8.78-1q-3.15,4.51-6.39,9-2.38-5.19-4.67-10.4c-3-.4-6-.84-9-1.29,0,0,1,.73.91,1.39q-1.22,8.1-2.44,16.2c-.08.57-1.16,1.08-1.16,1.08l4.89.73s-.89-.79-.81-1.38l1.93-13.23q3.3,8.06,6.84,16.09,5.31-7,10.41-14.06c0,.07-1.52,13.5-1.52,13.5-.07.59-1.11,1.13-1.11,1.13,3,.35,6,.67,8.95,1,0,0-.91-.77-.85-1.35.17-1.72.35-3.44.53-5.16a7.34,7.34,0,0,0,.33.89,9.56,9.56,0,0,0,2.61,3.41,14.82,14.82,0,0,0,4.23,2.47,19,19,0,0,0,5.47,1.21,22,22,0,0,0,7.22-.53,11,11,0,0,0,5.32-3,7.94,7.94,0,0,0,1.54-2.33l-.31,5.21c0,.58-1.06,1.19-1.06,1.19l4.93.28s-1-.71-.93-1.3c0,0,.64-11.92.64-12q8.16,7.51,16.72,14.8c0-.28,0-.56,0-.85l4.54.1s-1.05-.54-.64-1.49l1.19-2.06q4.33.08,8.67.08c.63,1.1,1.14,2,1.23,2.18.28.61-.56,1.38-.56,1.38,2.64,0,5.27,0,7.91,0l-.05,0q4.43,0,8.85-.17s-.94-.5-.95-1.07c-.06-2.47-.13-4.94-.19-7.41l1,0c1.51,0,4.11,2.94,7.8,6.92,4.19,4.52,7,7.67,13.85,7.26,6.19-.39,9.49-5.72,9.49-5.71a12.73,12.73,0,0,1-6.73,2.25c-3.42.23-7.45-2.25-10.63-5.89,2.79,2.08,6.9,3,10.79,2.7,3.05-.19,8.29-1.4,9.23-3.88.06.63.11,1.25.16,1.87s-.87,1.33-.87,1.33q4.53-.36,9.06-.8s-1-.56-1.09-1.16l-.78-8.29c3.25-.31,6.51-.64,9.76-1l.93,8.27c.06.61-.84,1.36-.84,1.36q4.53-.49,9.05-1.06s-1.05-.53-1.12-1.13l-.12-.95c2.28,1.22,6.74,1,9.51.66,4.6-.64,9.76-3.24,9-7.47C397.42,365.54,395.46,363.69,389.41,362.62Zm-126.86,12a5.76,5.76,0,0,1-2.5,2.36,6.34,6.34,0,0,1-3.23.57,6.23,6.23,0,0,1-4.65-2.46c-1.12-1.47-1.57-3.54-1.32-6.23a7.67,7.67,0,0,1,2.31-5.14,5.86,5.86,0,0,1,4.64-1.52,6,6,0,0,1,4.56,2.4,8.43,8.43,0,0,1,1.35,6A9,9,0,0,1,262.55,374.58Zm34,1.28c1.14-2,2.3-4.05,2.45-4.32.29-.54.53-1,.73-1.32.26.45.68,1.19,1.28,2.22l2,3.48Q299.84,375.92,296.59,375.86Zm24.68-4.9-.9,0-.18-6.94h.49l.57,0c3-.08,4.26.93,4.34,3.1S323.85,370.89,321.27,371Zm4.73.87s4.39-.55,6-3a8.71,8.71,0,0,0-.24,2.49,7.79,7.79,0,0,0,1.09,3.72C330.28,372.46,328.61,371.74,326,371.83Zm22.26,6.11c-3.14.23-8.31-.9-8.67-7.37-.21-3.7,1.91-7.83,6.73-8.16,5.19-.38,6.38,2.28,6.48,3.95a7.16,7.16,0,0,0,1.44-1.41l.84,10.13C353.47,377.49,349.27,377.88,348.26,377.94Zm40.25-4.38c-4.85.67-8.05-1.74-6.18-4a6.93,6.93,0,0,0-3.5,1.29q-.46-3.86-.95-7.7c1.06,3.15,5.7,3.8,8.26,4.31,3.33.7,6,1.34,6.29,2.68S392,373.06,388.51,373.56Z" transform="translate(-150.95 -25.1)"/><path class="cls-6" d="M276.74,207.31l2.56,2.95.59,2.76,3.15,2s1.57,2,1.57,2.56-.2,6.88-.2,6.88-3.34.79-4.13.2a64.79,64.79,0,0,1-4.32-5.51l-.79-5.9v-6.29Z" transform="translate(-150.95 -25.1)"/><path class="cls-6" d="M319.29,257.84l-.85-2.74-3.54-.78s-3.94.59-3.15,1.37a39.68,39.68,0,0,0,4.92,2.95Z" transform="translate(-150.95 -25.1)"/></svg>