<svg id="Layer_1" data-name="Layer 1" xmlns="http://www.w3.org/2000/svg" viewBox="0 0 847.5 847.5"><defs><style>.cls-1{fill:#ae132a;}.cls-2{fill:#003;}.cls-3{fill:#fdb71a;}.cls-4{fill:#fff;}.cls-5{fill:#a32035;}.cls-6{fill:none;}</style></defs><title>urfc</title><path class="cls-1" d="M499.94,923.71A423.67,423.67,0,0,1,200.3,200.33a422.42,422.42,0,0,1,134.64-90.74A423.69,423.69,0,0,1,738,149.33a426.33,426.33,0,0,1,61.58,51A423.67,423.67,0,0,1,499.94,923.71Z" transform="translate(-76.19 -76.21)"/><path class="cls-2" d="M499.94,905.71A405.67,405.67,0,0,1,213,213.06,404.31,404.31,0,0,1,342,126.16a405.78,405.78,0,0,1,385.92,38.05,408.44,408.44,0,0,1,59,48.85A405.66,405.66,0,0,1,499.94,905.71Z" transform="translate(-76.19 -76.21)"/><path class="cls-3" d="M702.88,192.9a355.24,355.24,0,0,1,46.24,35.43c1.82,1.62,3.6,3.28,5.37,4.95l2.65,2.51,2.61,2.56c3.5,3.39,6.87,6.9,10.26,10.42,6.69,7.09,13.07,14.48,19.19,22.09l2.28,2.87c.76.95,1.53,1.91,2.25,2.89l4.43,5.84,4.27,6c.73,1,1.41,2,2.1,3l2.06,3q8.2,12.17,15.46,25a370.32,370.32,0,0,1,24.63,53.35c1.75,4.59,3.28,9.26,4.84,13.91l2.18,7c.37,1.17.7,2.35,1,3.54l1,3.54c.33,1.19.68,2.36,1,3.55l.91,3.57c.6,2.39,1.25,4.76,1.77,7.16s1.11,4.79,1.64,7.19l1.47,7.23q2.78,14.5,4.42,29.19T869,488.15l.17,7.39v9.23l0,1.85-.1,3.7-.1,3.69-.18,3.7-.2,3.69c-.06,1.23-.12,2.46-.22,3.69l-.57,7.38c-.49,4.91-1,9.82-1.62,14.72a364.47,364.47,0,0,1-12.27,57.93q-4.27,14.21-9.62,28c-3.57,9.23-7.55,18.29-11.83,27.22l-1.62,3.34L830,665.4l-.85,1.65-3.42,6.59-3.57,6.51c-.59,1.09-1.22,2.15-1.84,3.22l-1.86,3.22q-7.55,12.79-16,25t-18,23.64c-1.59,1.89-3.15,3.82-4.78,5.69l-4.91,5.59c-3.35,3.65-6.69,7.31-10.17,10.84-6.92,7.1-14.07,14-21.53,20.52s-15.17,12.79-23.11,18.74a372.19,372.19,0,0,1-444.86,0q-11.91-8.93-23.11-18.74c-7.47-6.54-14.62-13.42-21.54-20.52-3.48-3.53-6.82-7.19-10.16-10.84l-4.91-5.59c-1.63-1.87-3.19-3.8-4.79-5.69q-9.45-11.47-18-23.64t-16-25l-1.87-3.22c-.62-1.07-1.25-2.13-1.83-3.22l-3.58-6.51-3.42-6.59-.85-1.65-.81-1.67-1.62-3.34c-4.28-8.93-8.26-18-11.83-27.22s-6.77-18.58-9.63-28a364.45,364.45,0,0,1-12.26-57.93c-.67-4.89-1.13-9.81-1.62-14.72l-.57-7.38c-.11-1.23-.17-2.46-.23-3.69l-.19-3.69-.19-3.7-.1-3.69-.09-3.7,0-1.85v-9.23l.18-7.39q.48-14.77,2.05-29.47t4.43-29.19l1.47-7.23c.52-2.4,1.09-4.79,1.63-7.19s1.17-4.77,1.77-7.16l.92-3.57c.31-1.19.66-2.36,1-3.55l1-3.54c.34-1.18.66-2.37,1-3.54l2.18-7c1.56-4.65,3.09-9.32,4.83-13.91a371.45,371.45,0,0,1,24.64-53.35q7.23-12.78,15.45-25l2.07-3c.68-1,1.37-2,2.09-3l4.28-6,4.42-5.84c.73-1,1.49-1.94,2.25-2.89l2.28-2.87c6.12-7.61,12.5-15,19.2-22.09,3.38-3.52,6.75-7,10.26-10.42l2.6-2.56,2.65-2.51c1.78-1.67,3.56-3.33,5.37-4.95A356.6,356.6,0,0,1,292,192.9a378,378,0,0,0-44.38,37.4c-3.43,3.4-6.85,6.82-10.12,10.37s-6.53,7.11-9.73,10.72q-9.49,10.94-18.13,22.53l-2.14,2.91c-.71,1-1.43,1.93-2.11,2.93l-4.14,5.91-4,6c-.68,1-1.32,2-2,3l-1.93,3.05Q185.7,310,179,322.77a367.92,367.92,0,0,0-22.5,52.92,360.91,360.91,0,0,0-18.83,112.69v7.16l.17,7.15,0,1.79.08,1.79.18,3.57.17,3.57.25,3.57.25,3.57c.09,1.19.17,2.37.29,3.56l.7,7.11c.56,4.74,1.1,9.47,1.84,14.17A361.56,361.56,0,0,0,154.5,601q4.35,13.57,9.7,26.81c3.57,8.81,7.54,17.46,11.79,26l1.61,3.18.8,1.59.84,1.57,3.36,6.28,3.51,6.2c.57,1,1.19,2.05,1.8,3.07l1.83,3q7.37,12.18,15.66,23.76t17.54,22.4c1.55,1.79,3.07,3.62,4.65,5.38l4.74,5.3c3.24,3.47,6.47,6.94,9.83,10.29,6.68,6.73,13.58,13.25,20.77,19.42s14.6,12.09,22.23,17.7l5.76,4.15,5.86,4c1,.68,2,1.33,3,2l3,1.94c1,.64,2,1.3,3,1.92l3,1.87c8.05,5,16.28,9.68,24.72,14s17,8.3,25.75,12,17.62,6.91,26.61,9.87,18.1,5.53,27.29,7.76c4.59,1.15,9.22,2.1,13.85,3.08l7,1.31c1.16.23,2.33.41,3.5.6l3.5.56c1.17.19,2.33.4,3.5.56l3.52.48c2.34.31,4.68.67,7,.91l7.05.77,7.07.61q14.16,1.07,28.37,1.09c9.46,0,18.93-.38,28.36-1.09l7.07-.61,7-.77c2.36-.24,4.7-.6,7-.91l3.52-.48c1.17-.16,2.33-.37,3.5-.56l3.5-.56c1.17-.19,2.34-.37,3.5-.6l7-1.31c4.62-1,9.26-1.93,13.85-3.08,9.19-2.23,18.3-4.79,27.29-7.76s17.87-6.23,26.61-9.87,17.32-7.66,25.75-12,16.66-9,24.72-14l3-1.87c1-.62,2-1.28,3-1.92l3-1.94c1-.64,2-1.29,3-2l5.86-4,5.76-4.15q11.44-8.42,22.23-17.7c7.19-6.17,14.09-12.69,20.77-19.42,3.36-3.35,6.58-6.82,9.82-10.29l4.75-5.3c1.58-1.76,3.09-3.59,4.65-5.38q9.18-10.86,17.54-22.4t15.66-23.76l1.82-3c.61-1,1.23-2,1.81-3.07l3.5-6.2,3.36-6.28.84-1.57.81-1.59,1.61-3.18c4.24-8.49,8.21-17.14,11.78-26s6.8-17.76,9.7-26.82a361.17,361.17,0,0,0,12.85-55.57c.75-4.7,1.28-9.44,1.85-14.17l.69-7.11c.13-1.19.21-2.37.29-3.56l.26-3.57.25-3.57.17-3.57.17-3.57.08-1.79,0-1.79.17-7.15v-7.16a361.21,361.21,0,0,0-18.84-112.69,368.47,368.47,0,0,0-22.49-52.93q-6.68-12.76-14.35-25l-1.92-3.05c-.64-1-1.29-2-2-3l-4-6-4.14-5.91c-.69-1-1.4-2-2.12-2.93l-2.14-2.91q-8.62-11.6-18.12-22.53c-3.21-3.61-6.4-7.23-9.74-10.72s-6.69-7-10.12-10.37A377.18,377.18,0,0,0,702.88,192.9Z" transform="translate(-76.19 -76.21)"/><path class="cls-4" d="M230.52,598l-30.06,8.9c-14.44,4.31-22.29-1-25.89-13.07-3-10-3.36-24.27,11.85-28.82l31.44-9.39c1.78-.53,2.42-2.07,2.72-3.6l5.94,19.87c-1.07-1-2.45-2-4.23-1.44L190.39,580c-5.75,1.71-11.56,5.73-9.06,14.12,2,6.83,8.58,9.18,17,6.58l30.12-9.25a4.09,4.09,0,0,0,2.87-3.4l3.29,11A4,4,0,0,0,230.52,598Z" transform="translate(-76.19 -76.21)"/><path class="cls-4" d="M256.31,653.43s-2.81-6.68-5.69-11.85L210.3,664.09a3.73,3.73,0,0,0-2.15,3.62l-9.6-17.19a3.72,3.72,0,0,0,4.21.06l40.32-22.51a115.08,115.08,0,0,0-6.79-10.49c-1-1.59-3.13-1.78-4.62-1.79l8.14-4.36,23.26,41.66-8,4.64C255.87,656.46,257.15,655.1,256.31,653.43Z" transform="translate(-76.19 -76.21)"/><path class="cls-4" d="M241.21,713.68c2.62.88,3.53.34,4.51-.89.34-.49,2.37-4.38,4.5-8.67l-11.05-13.35c-4.56,1.35-8.59,2.58-8.9,2.84-1.93,1-2.66,2-2,4.41l-8.72-10.54a11.85,11.85,0,0,0,5.7.53c3.56-.52,56.48-15.73,56.48-15.73s-23.95,50.21-25.34,53.36c-.74,1.77-.88,2.62-.59,5.64Zm18.49-29s-14,4.31-14.69,4.48l7.85,9.48C256,692.29,259.7,684.71,259.7,684.71Z" transform="translate(-76.19 -76.21)"/><path class="cls-4" d="M301.11,768.94a3.73,3.73,0,0,0,3.88-1.65l14.32-19-15.73-11.83-14.32,19a3.72,3.72,0,0,0-.51,4.18L273,747.75a3.78,3.78,0,0,0,3.94-1.59L305.63,708a3.86,3.86,0,0,0,.44-4.23l15.8,11.88a3.8,3.8,0,0,0-3.88,1.65l-11.15,14.82,15.73,11.83,11.15-14.82a3.8,3.8,0,0,0,.51-4.18L350,736.81a3.72,3.72,0,0,0-3.94,1.59l-28.73,38.19a3.67,3.67,0,0,0-.44,4.23Z" transform="translate(-76.19 -76.21)"/><path class="cls-4" d="M421.11,824c-3.11-.92-6.26-3.11-7.41-6.07-1.41-3.54-3.94-12.4-5.53-17.6-1.18-3.73-2.11-7.72-4.44-8.41l-1-.29-6.27,21.2a3.72,3.72,0,0,0,1,4.09l-18.95-5.6a3.79,3.79,0,0,0,3.13-2.87l13.54-45.83a3.88,3.88,0,0,0-1.06-4.12l21.12,6.25c17,5,19.16,13.77,17.44,19.59-2.5,8.47-11.42,10.06-18.25,8.29,7.14,2.45,8.73,7.06,9.48,9.39,0,0,6.5,19.15,7.24,21.48s4.14,4.6,4.14,4.6Zm-9.73-54.81-1.87-.56-5.32,18,1.55.46c4,1.2,9.31.81,11.44-6.41C418.15,777.44,418.06,771.16,411.38,769.19Z" transform="translate(-76.19 -76.21)"/><path class="cls-4" d="M485,832.76c-17.65-.59-30.28-13.08-29.73-29.68.51-15.46,12.19-28,32.11-27.38,14.49.48,30.44,10.57,29.82,29.44C516.5,824.81,501.63,833.31,485,832.76Zm1.86-51.16c-8-.27-14.42,7-14.95,20.57-.62,16.36,5.77,23.86,14,24.14,7.37.24,14.23-6.26,14.81-21.23C501.29,789.7,495.07,781.87,486.81,781.6Z" transform="translate(-76.19 -76.21)"/><path class="cls-4" d="M573.77,773.5,565.94,800,570,820.51c.37,1.83,2,2.65,3.5,3l-20.81,4.16c1.14-.89,2.48-2.07,2.06-4.13l-4-20.18-21.89-23.13c-1.47-1.6-1.89-2.43-4.33-3.1l22.87-4.57c-1.59,1.14-2.68,1.86,0,5.11l14.16,17.08L567.8,773c.38-1.4-.32-4.06-2.84-3.89l13.66-2.73C576.19,767.4,574.3,771.58,573.77,773.5Z" transform="translate(-76.19 -76.21)"/><path class="cls-4" d="M628.21,805.67c1.63-2.24,1.39-3.27.51-4.58-.36-.46-3.46-3.58-6.9-6.91l-16.07,6.5c-.09,4.75-.13,9,0,9.34.34,2.14,1.09,3.14,3.59,3.27l-12.69,5.13c1.49-2.36,2-3.52,2.24-5.28.57-3.55,2.08-58.59,2.08-58.59s40.62,38,43.2,40.29c1.46,1.24,2.23,1.63,5.2,2.27Zm-22-26.4s-.11,14.64-.17,15.36L617.43,790C612.3,785.1,606.18,779.27,606.18,779.27Z" transform="translate(-76.19 -76.21)"/><path class="cls-4" d="M699.69,765.23l-31.61,20.92a3.77,3.77,0,0,0-.19-4.24l-26.38-39.85a3.87,3.87,0,0,0-3.84-1.83l16.48-10.91a3.79,3.79,0,0,0,.26,4.2l25.13,38a93,93,0,0,0,8.21-5.35c6.13-4.54,8-6.37,7.77-11.16Z" transform="translate(-76.19 -76.21)"/><path class="cls-4" d="M732.41,737.73a51.64,51.64,0,0,1-13.66,9.69l-12.22-11.84c5,3.3,14.4,5.27,20.28-.53,4.57-4.49,4.26-9,1.47-11.79-5.34-5.42-12.43,1.11-19.89,2.65-7.81,1.54-12.48-.67-16.35-4.6-9.43-9.58-2.81-21.21,1.87-25.81,1.79-1.77,6.58-5.91,11.63-7.82l10.63,10.23c-4.79-2.33-12.74-3.6-18.4,2-3.29,3.24-3.5,7.3-1,9.84,3.41,3.47,7.27,1.38,14.28-1.43s15.17-6.75,23.64,1.85C741.79,717.36,741.41,728.87,732.41,737.73Z" transform="translate(-76.19 -76.21)"/><path class="cls-4" d="M757.29,619.21c-2.07,3.29-8.16,13.63-8.16,13.63l14.86,8.1,5.43-10a3.58,3.58,0,0,0-.64-3.57l8.75,4.76a3.45,3.45,0,0,0-3.35,1.41l-5.42,9.95L789.63,655c1.85,1,2.63.42,4.4-.46l-9.77,17.92c-.18-2-.15-2.94-2-3.94l-42-22.88a4.15,4.15,0,0,0-4.4.46l18.53-34,9.31,4.24A5.56,5.56,0,0,0,757.29,619.21Z" transform="translate(-76.19 -76.21)"/><path class="cls-4" d="M823.34,567.71a46,46,0,0,1-1.55,21.19c-4.59,15.28-18.94,25.85-35.77,20.79-14.27-4.29-24.59-18.64-18.64-38.42,1.91-6.36,4.06-11.81,8.69-17.1,0,0,13.47,3.29,13.2,3.38-10.43,1.18-13.83,9.12-14.95,12.84-3.05,10.17,2.88,20,15.36,23.74,9.39,2.82,23.22,2.67,27.86-12.77,1.12-3.72.33-12.34-6.14-17.83C811.14,563.28,823.34,567.71,823.34,567.71Z" transform="translate(-76.19 -76.21)"/><path class="cls-1" d="M749.71,498.09c0,139.33-113,252.28-252.27,252.28s-252.28-113-252.28-252.28,113-252.28,252.28-252.28S749.71,358.76,749.71,498.09Z" transform="translate(-76.19 -76.21)"/><path class="cls-4" d="M745.08,449.73c4.31,18,7.1,36.53,7.11,55.17A246.14,246.14,0,0,1,746,560.56a249,249,0,0,1-32.57,77.91,243.13,243.13,0,0,1-16.52,23.1,264.59,264.59,0,0,1-19,21.16,255.39,255.39,0,0,1-123.61,67.95,258.18,258.18,0,0,1-113.64,0,255.09,255.09,0,0,1-102.3-49A251.91,251.91,0,0,1,317,682.73a264.72,264.72,0,0,1-19-21.16,244.83,244.83,0,0,1-16.51-23.1,249.24,249.24,0,0,1-32.58-77.91,246.77,246.77,0,0,1-6.2-55.66c0-18.64,2.77-37.21,7.08-55.17-4.7,36.62-2.58,73.81,7.66,108.61a252,252,0,0,0,9.05,25.58,249.18,249.18,0,0,0,11.66,24.4,264.57,264.57,0,0,0,14.19,22.95,253.28,253.28,0,0,0,16.51,21.26,250.3,250.3,0,0,0,18.64,19.34c.8.78,1.64,1.52,2.47,2.27l2.49,2.25c1.67,1.48,3.37,2.93,5.07,4.39s3.44,2.86,5.2,4.24,3.49,2.78,5.3,4.09A260.44,260.44,0,0,0,370.24,704a237.85,237.85,0,0,0,23.66,12.43,255.68,255.68,0,0,0,24.83,9.83,237,237,0,0,0,25.73,7,249.88,249.88,0,0,0,106,0,237.18,237.18,0,0,0,25.74-7A255.5,255.5,0,0,0,601,716.46,239.12,239.12,0,0,0,624.64,704a260.28,260.28,0,0,0,22.22-14.92c1.81-1.31,3.54-2.73,5.31-4.09s3.46-2.83,5.19-4.24,3.4-2.91,5.08-4.39l2.49-2.25c.83-.75,1.66-1.49,2.47-2.27A252.19,252.19,0,0,0,686,652.53a255.28,255.28,0,0,0,16.5-21.26,264.57,264.57,0,0,0,14.19-22.95,249.26,249.26,0,0,0,11.67-24.4,251.92,251.92,0,0,0,9-25.58C747.69,523.54,749.79,486.35,745.08,449.73Z" transform="translate(-76.19 -76.21)"/><path class="cls-3" d="M497.44,233.56a251.31,251.31,0,0,1,111.57,26l69.71-83.16H584.07c3.64,3.25,5.76,7.11,5.76,11.25,0,11.53-16.34,20.88-36.51,20.88-1.58,0-3.14-.06-4.67-.18-9.26-.42-17.5-3-23.29-6.94a24.43,24.43,0,0,1-4.83-4.22,14.47,14.47,0,0,1-3.84-9.48c0-9.8,11.41-18,26.72-20.15l1.53-.22-47.5-50.9-47.5,50.88c.93.13,1.84.27,2.73.43,14.7,2.39,25.51,10.42,25.51,20a14.47,14.47,0,0,1-3.84,9.48,24.64,24.64,0,0,1-4.82,4.22c-5.73,3.88-13.84,6.46-23,6.93-1.61.12-3.24.19-4.9.19-20.17,0-36.51-9.35-36.51-20.88,0-4.1,2.07-7.92,5.65-11.15a.42.42,0,0,0,0-.1H316.16l69.71,83.16A251.17,251.17,0,0,1,497.44,233.56Z" transform="translate(-76.19 -76.21)"/><path class="cls-3" d="M381.46,274l8.64,13.47c2.44-1.24,4.9-2.43,7.38-3.59a32.55,32.55,0,0,1,24-20.72c6.35-1.24,16.62.72,24.15,4.34a238,238,0,0,1,51.82-5.7,235.29,235.29,0,0,1,107.33,25.67L613.42,274a252.6,252.6,0,0,0-232,0Z" transform="translate(-76.19 -76.21)"/><path class="cls-4" d="M661,184.59H605.38s29,1.34,29,12.24c0,9.38-24.71,45.07-24.71,45.07Z" transform="translate(-76.19 -76.21)"/><path class="cls-4" d="M389.49,184.59H333.93l51.3,57.31s-24.71-35.69-24.71-45.07C360.52,185.93,389.49,184.59,389.49,184.59Z" transform="translate(-76.19 -76.21)"/><path class="cls-4" d="M497.44,192.39l-38.5,29.05s21.49-4.25,37.49-4.25h2c16,0,37.5,4.25,37.5,4.25Z" transform="translate(-76.19 -76.21)"/><polygon class="cls-5" points="421.25 55.24 394.37 83.75 421.25 100.15 448.13 83.75 421.25 55.24"/><path class="cls-4" d="M214.52,497.48a25.77,25.77,0,0,0-4.7-14.48l-10.45.13-3.11-10a26.19,26.19,0,0,0-15.22,0l-3.11,10L167.48,483a25.77,25.77,0,0,0-4.7,14.48l8.52,6L168,513.41a25.94,25.94,0,0,0,12.32,9l8.38-6.25,8.38,6.25a26,26,0,0,0,12.32-9L206,503.52Z" transform="translate(-76.19 -76.21)"/><path class="cls-3" d="M167.8,491.11l8.42-6.61-7.61-.1A24.11,24.11,0,0,0,164.52,497l6.21,4.39Z" transform="translate(-76.19 -76.21)"/><path class="cls-3" d="M195.28,474.66a24.06,24.06,0,0,0-13.25,0l-2.27,7.26,8.89-6,8.89,6Z" transform="translate(-76.19 -76.21)"/><path class="cls-3" d="M201.08,484.5l8.42,6.61-2.93,10.29,6.21-4.39a24.11,24.11,0,0,0-4.09-12.61Z" transform="translate(-76.19 -76.21)"/><path class="cls-3" d="M172.08,505.56l-2.44,7.21a24.17,24.17,0,0,0,10.72,7.8l6.1-4.55-10.7-.4Z" transform="translate(-76.19 -76.21)"/><path class="cls-3" d="M201.53,515.62l-10.7.4,6.11,4.55a24.17,24.17,0,0,0,10.72-7.8l-2.44-7.21Z" transform="translate(-76.19 -76.21)"/><path class="cls-1" d="M163,500.31a14.26,14.26,0,0,0,3.09,10.23l1-3S163.55,504.4,163,500.31Z" transform="translate(-76.19 -76.21)"/><path class="cls-1" d="M183,523a14.2,14.2,0,0,0,10.68.23l-2.53-1.83S187.09,523.76,183,523Z" transform="translate(-76.19 -76.21)"/><path class="cls-1" d="M211.82,502.74s1,4.62-1,8.25a14.27,14.27,0,0,0,3.52-10.09Z" transform="translate(-76.19 -76.21)"/><path class="cls-1" d="M199.46,474.38l1,3s4.69.51,7.54,3.49A14.22,14.22,0,0,0,199.46,474.38Z" transform="translate(-76.19 -76.21)"/><path class="cls-1" d="M178.41,474.24a14.25,14.25,0,0,0-8.78,6.1h3.13S174.7,476,178.41,474.24Z" transform="translate(-76.19 -76.21)"/><path class="cls-1" d="M195.75,490.41l2.66-6-4.84,4.38h-9.84l-4.85-4.38,2.66,6-3,9.34L172.85,503l6.49-.69,8,5.78,1.35,6.39,1.35-6.39,7.95-5.78,6.5.69-5.66-3.27Zm-9.24,4-5.42,7.22,3.17-10.16h10.17Z" transform="translate(-76.19 -76.21)"/><path class="cls-4" d="M780.36,497.48a25.7,25.7,0,0,1,4.7-14.48l10.44.13,3.11-10a26.22,26.22,0,0,1,15.23,0l3.11,10L827.4,483a25.85,25.85,0,0,1,4.7,14.48l-8.53,6,3.35,9.89a25.91,25.91,0,0,1-12.31,9l-8.38-6.25-8.39,6.25a26,26,0,0,1-12.31-9l3.35-9.89Z" transform="translate(-76.19 -76.21)"/><path class="cls-3" d="M827.07,491.11l-8.41-6.61,7.6-.1A23.93,23.93,0,0,1,830.35,497l-6.2,4.39Z" transform="translate(-76.19 -76.21)"/><path class="cls-3" d="M799.6,474.66a24.06,24.06,0,0,1,13.25,0l2.27,7.26-8.89-6-8.89,6Z" transform="translate(-76.19 -76.21)"/><path class="cls-3" d="M793.8,484.5l-8.42,6.61,2.92,10.29L782.1,497a24,24,0,0,1,4.09-12.61Z" transform="translate(-76.19 -76.21)"/><path class="cls-3" d="M822.79,505.56l2.45,7.21a24.28,24.28,0,0,1-10.72,7.8L808.41,516l10.71-.4Z" transform="translate(-76.19 -76.21)"/><path class="cls-3" d="M793.34,515.62l10.7.4-6.11,4.55a24.2,24.2,0,0,1-10.71-7.8l2.44-7.21Z" transform="translate(-76.19 -76.21)"/><path class="cls-1" d="M831.88,500.31a14.26,14.26,0,0,1-3.09,10.23l-1-3S831.32,504.4,831.88,500.31Z" transform="translate(-76.19 -76.21)"/><path class="cls-1" d="M811.84,523a14.21,14.21,0,0,1-10.68.23l2.53-1.83S807.78,523.76,811.84,523Z" transform="translate(-76.19 -76.21)"/><path class="cls-1" d="M783.06,502.74s-1,4.62,1,8.25a14.27,14.27,0,0,1-3.52-10.09Z" transform="translate(-76.19 -76.21)"/><path class="cls-1" d="M795.42,474.38l-1,3s-4.7.51-7.54,3.49A14.22,14.22,0,0,1,795.42,474.38Z" transform="translate(-76.19 -76.21)"/><path class="cls-1" d="M816.46,474.24a14.26,14.26,0,0,1,8.79,6.1h-3.13S820.18,476,816.46,474.24Z" transform="translate(-76.19 -76.21)"/><path class="cls-1" d="M796.08,499.75,790.42,503l6.5-.69,8,5.78,1.36,6.39,1.35-6.39,7.95-5.78,6.5.69-5.66-3.27-3-9.34,2.66-6-4.85,4.38h-9.83l-4.85-4.38,2.66,6Zm4.37-8.28h10.16l3.17,10.16-5.42-7.22Z" transform="translate(-76.19 -76.21)"/><path class="cls-6" d="M579.16,551.61s7.33-13.29,23.27-9.72c12.43,2.79,37.7,17.17,58.27,9.9,22.54-8,32.71-34.64,32.71-34.64s-15.67,26.39-44.94,29.28c-19,1.87-38.41-13.06-47.69-15C586.22,528.42,579.16,551.61,579.16,551.61Z" transform="translate(-76.19 -76.21)"/><path class="cls-6" d="M579.62,398.42c15.73,7.05,14.44,0,28.46,4.83a13.15,13.15,0,0,1,9,11.66l18.37,2.29s-6.43-3.92-17.29-12.05-22.78-23.87-22.78-23.87-3.79,1.62-11.93,1.08-30.38-13-30.38-13S563.89,391.37,579.62,398.42Z" transform="translate(-76.19 -76.21)"/><path class="cls-6" d="M377.72,355.73h-.09a.14.14,0,0,0,0,.06Z" transform="translate(-76.19 -76.21)"/><path class="cls-1" d="M329.55,226.85a315.78,315.78,0,0,0-89.72,92.34,311,311,0,0,0-29.07,58.73A306.89,306.89,0,0,0,194.83,441a303.35,303.35,0,0,1,95.84-163.2,300,300,0,0,1,51.13-36.32Z" transform="translate(-76.19 -76.21)"/><path class="cls-1" d="M784.11,377.91A311,311,0,0,0,755,319.18a316,316,0,0,0-89.71-92.33l-12.25,14.61A302.78,302.78,0,0,1,779.72,379.72,304.24,304.24,0,0,1,800,441,306.89,306.89,0,0,0,784.11,377.91Z" transform="translate(-76.19 -76.21)"/><path class="cls-3" d="M497.9,260.61" transform="translate(-76.19 -76.21)"/><path class="cls-3" d="M694.51,468.23c7.14-1.65,14.29-11,14.29-11l11.54,11.54,5.27-2.87c-2-3.76-8.92-16.53-16.26-23.88-8.68-8.68-27.67-17.9-27.67-17.9l-38.57-38.9L630.62,351l-49.35-14L542.4,295.85s-5.64-3-27.8-7.06c-20.47-3.74-27.39-3.77-27.39-3.77s.08,14.89,1.59,20.73c1.9,7.34,10.56,16.53,10.56,16.53s-12.33-3.12-16.76-9.89c-5.23-8-5-17.64-5-17.64a250,250,0,0,0-33.52-19.25,22.74,22.74,0,0,0-6.33-2c-6.56-1-13,1.2-18.6,5.79-13,10.63-21.53,34.11-16.84,60.72,7.58,42.95,26,73.77,26,73.77A133.54,133.54,0,0,1,404,377.62c-6.81-15.13-10.08-25-11.43-29.59-.66-2.75-1.47-6-2.39-9.43-1.95-7.33-2-7.27-2.58-11.09,0,0-21,5.66-42.07,22.81s-25.62,28.16-25.62,28.16,13.44-10.23,25.91-14.78c7.9-2.88-9.84,6.31-30.93,36.44-20,28.61-26.27,51.1-26.27,51.1,10.79-11.7,13.26-15.72,26.95-25.39,3.63-2.56-39.82,26.75-36.08,111.81,2,45.28,23.14,78,38.63,102.43a21.45,21.45,0,0,1,3.39,9.69q5.58,6.47,11.67,12.55c1.56,1.56,3.13,3.08,4.72,4.58l.22.21c1.3,1.22,2.61,2.44,3.94,3.63l.58.51c1.2,1.08,2.4,2.14,3.62,3.19l1,.87c1.07.91,2.13,1.8,3.21,2.68.54.45,1.08.88,1.63,1.32l2.63,2.09c.78.61,1.57,1.21,2.36,1.81l1.92,1.46c1.07.79,2.15,1.58,3.24,2.36l1.06.76q2.1,1.49,4.23,2.93l.06,0h0a232.42,232.42,0,0,0,271-8.22l2.34-1.8,1.26-1c1-.8,2-1.6,3-2.42.38-.3.75-.62,1.12-.93,1-.86,2-1.72,3.05-2.6l1-.91c1-.9,2.06-1.82,3.08-2.74l.95-.88c.48-.44,1-.87,1.45-1.32l2.18-2.06C643.34,647.38,625,647,612.92,648c-121.45,16.34-117.45-67-117.45-67s3.1,10.35,22.68,16.23c18.33,5.49,31.62,4.34,48.12-4.59,19.46-10.54,27.4-22.73,27.4-22.73l22.89,6,25.91,30s45.18-26.1,46.27-32.06S686,546.73,686,546.73l7.39-17.62,4.76,16.78,13.7-19.69,1.71-36.15L698.17,512.5s6.27-24.84,6.78-26.13c1.1-2.75-4.4-3.3-12.09-7.15s-11.54-18.14-11.54-18.14S687.36,469.88,694.51,468.23ZM377.72,355.73l-.07.06a.14.14,0,0,1,0-.06Zm175.4,13.61s22.24,12.48,30.38,13,11.93-1.08,11.93-1.08,11.94,15.73,22.78,23.87S635.5,417.2,635.5,417.2l-18.37-2.29a13.15,13.15,0,0,0-9-11.66c-14-4.81-12.73,2.22-28.46-4.83S553.12,369.34,553.12,369.34ZM693.41,517.15s-10.17,26.66-32.71,34.64c-20.57,7.27-45.84-7.11-58.27-9.9-15.94-3.57-23.27,9.72-23.27,9.72s7.06-23.19,21.62-20.16c9.28,1.92,28.65,16.85,47.69,15C677.74,543.54,693.41,517.15,693.41,517.15Z" transform="translate(-76.19 -76.21)"/><path class="cls-1" d="M554,682.58l-10-4.5s8-4-4-12.5c-5.1-3.61-13.44-4.15-21.5-3.58C506,626.92,460,630.19,460,630.19s25.75-1.68,28.9-4.56-4.7-10.73-16.33-39.37-7.31-38.34-7.31-38.34l3.35-2.68-7.89-8.45-8.48-23.08-27.42-7.32,12.83.73s-4.34-14.63-7.89-19.78-12.63-14.42-12.63-14.42l-10.84-4.12s14.39,1.23,15.18-.41-1.58-2.48-2.76-6.6a10.11,10.11,0,0,1,.79-7.42,342.43,342.43,0,0,0-50.88-10.3c-29.19-3.71-36.49,7.83-36.49,7.83L348.79,459l-19.48-1.14,3.14,9.13-23,23.41s-3,23.49,1,32.35,2.37,6.18.6,14-2.37,10.51-2.37,10.51l10.85.41a48.57,48.57,0,0,1-7.5,2.89c-2.76.62-5.72,3.91-5.72,3.91l2.45,24.76a33.23,33.23,0,0,1-8,6.85c-2,1.2,2.57,5.36,0,5.56s2.36,6.42,2.36,6.42l17.43,2.57-28.74,6.2,16,32.74,20.08,24.49S342.38,617.77,340.4,613s-7.89-4.33-7.89-4.33l11.05-.62s1.57-19.37,1-26.37-9.86-16.28-9.86-16.28l-3.94-13.8-7.1-1,9.27-1.86,11-16.48-10.87-5.34,11.46,1L356,507.74s3.55-8.65,10.26-10.72,10.06,5.36,15.18,11.54a118.75,118.75,0,0,0,12,12.09l23.87,4s-19.08,3.5-19.67,5.35-2.37,14.84-2.37,14.84l11.36,7.2-14.13,53.88,17.9,13.44s-18.28-1.58-19.66-.76-1.78,8,1.18,11.33-.2,3.71-15.39,15.46-7,51.06-7,51.06l2.32-.23-.36,2.77,5.25,5L397,713l33.25,12.25,46.75,8h45l41.37-10.48Z" transform="translate(-76.19 -76.21)"/></svg>